<svg xmlns="http://www.w3.org/2000/svg" width="247" height="43" viewBox="0 0 247 43" fill="none">
    <path d="M65.2097 2.575C66.3197 2.575 67.2897 2.79 68.1197 3.22C68.9597 3.64 69.6047 4.25 70.0547 5.05C70.5147 5.84 70.7447 6.765 70.7447 7.825C70.7447 8.885 70.5147 9.805 70.0547 10.585C69.6047 11.365 68.9597 11.965 68.1197 12.385C67.2897 12.795 66.3197 13 65.2097 13H61.8047V2.575H65.2097ZM65.2097 11.605C66.4297 11.605 67.3647 11.275 68.0147 10.615C68.6647 9.955 68.9897 9.025 68.9897 7.825C68.9897 6.615 68.6647 5.67 68.0147 4.99C67.3647 4.31 66.4297 3.97 65.2097 3.97H63.5147V11.605H65.2097ZM74.3595 3.64C74.0495 3.64 73.7895 3.535 73.5795 3.325C73.3695 3.115 73.2645 2.855 73.2645 2.545C73.2645 2.235 73.3695 1.975 73.5795 1.765C73.7895 1.555 74.0495 1.45 74.3595 1.45C74.6595 1.45 74.9145 1.555 75.1245 1.765C75.3345 1.975 75.4395 2.235 75.4395 2.545C75.4395 2.855 75.3345 3.115 75.1245 3.325C74.9145 3.535 74.6595 3.64 74.3595 3.64ZM75.1995 4.735V13H73.4895V4.735H75.1995ZM81.8245 4.6C82.4645 4.6 83.0295 4.73 83.5195 4.99C84.0195 5.24 84.4095 5.555 84.6895 5.935V4.735H86.4145V13.135C86.4145 13.895 86.2545 14.57 85.9345 15.16C85.6145 15.76 85.1495 16.23 84.5395 16.57C83.9395 16.91 83.2195 17.08 82.3795 17.08C81.2595 17.08 80.3295 16.815 79.5895 16.285C78.8495 15.765 78.4295 15.055 78.3295 14.155H80.0245C80.1545 14.585 80.4295 14.93 80.8495 15.19C81.2795 15.46 81.7895 15.595 82.3795 15.595C83.0695 15.595 83.6245 15.385 84.0445 14.965C84.4745 14.545 84.6895 13.935 84.6895 13.135V11.755C84.3995 12.145 84.0045 12.475 83.5045 12.745C83.0145 13.005 82.4545 13.135 81.8245 13.135C81.1045 13.135 80.4445 12.955 79.8445 12.595C79.2545 12.225 78.7845 11.715 78.4345 11.065C78.0945 10.405 77.9245 9.66 77.9245 8.83C77.9245 8 78.0945 7.265 78.4345 6.625C78.7845 5.985 79.2545 5.49 79.8445 5.14C80.4445 4.78 81.1045 4.6 81.8245 4.6ZM84.6895 8.86C84.6895 8.29 84.5695 7.795 84.3295 7.375C84.0995 6.955 83.7945 6.635 83.4145 6.415C83.0345 6.195 82.6245 6.085 82.1845 6.085C81.7445 6.085 81.3345 6.195 80.9545 6.415C80.5745 6.625 80.2645 6.94 80.0245 7.36C79.7945 7.77 79.6795 8.26 79.6795 8.83C79.6795 9.4 79.7945 9.9 80.0245 10.33C80.2645 10.76 80.5745 11.09 80.9545 11.32C81.3445 11.54 81.7545 11.65 82.1845 11.65C82.6245 11.65 83.0345 11.54 83.4145 11.32C83.7945 11.1 84.0995 10.78 84.3295 10.36C84.5695 9.93 84.6895 9.43 84.6895 8.86ZM90.5805 3.64C90.2705 3.64 90.0105 3.535 89.8005 3.325C89.5905 3.115 89.4855 2.855 89.4855 2.545C89.4855 2.235 89.5905 1.975 89.8005 1.765C90.0105 1.555 90.2705 1.45 90.5805 1.45C90.8805 1.45 91.1355 1.555 91.3455 1.765C91.5555 1.975 91.6605 2.235 91.6605 2.545C91.6605 2.855 91.5555 3.115 91.3455 3.325C91.1355 3.535 90.8805 3.64 90.5805 3.64ZM91.4205 4.735V13H89.7105V4.735H91.4205ZM96.7106 6.13V10.705C96.7106 11.015 96.7806 11.24 96.9206 11.38C97.0706 11.51 97.3206 11.575 97.6706 11.575H98.7206V13H97.3706C96.6006 13 96.0106 12.82 95.6006 12.46C95.1906 12.1 94.9856 11.515 94.9856 10.705V6.13H94.0106V4.735H94.9856V2.68H96.7106V4.735H98.7206V6.13H96.7106ZM100.777 8.83C100.777 8 100.947 7.265 101.287 6.625C101.637 5.985 102.107 5.49 102.697 5.14C103.297 4.78 103.957 4.6 104.677 4.6C105.327 4.6 105.892 4.73 106.372 4.99C106.862 5.24 107.252 5.555 107.542 5.935V4.735H109.267V13H107.542V11.77C107.252 12.16 106.857 12.485 106.357 12.745C105.857 13.005 105.287 13.135 104.647 13.135C103.937 13.135 103.287 12.955 102.697 12.595C102.107 12.225 101.637 11.715 101.287 11.065C100.947 10.405 100.777 9.66 100.777 8.83ZM107.542 8.86C107.542 8.29 107.422 7.795 107.182 7.375C106.952 6.955 106.647 6.635 106.267 6.415C105.887 6.195 105.477 6.085 105.037 6.085C104.597 6.085 104.187 6.195 103.807 6.415C103.427 6.625 103.117 6.94 102.877 7.36C102.647 7.77 102.532 8.26 102.532 8.83C102.532 9.4 102.647 9.9 102.877 10.33C103.117 10.76 103.427 11.09 103.807 11.32C104.197 11.54 104.607 11.65 105.037 11.65C105.477 11.65 105.887 11.54 106.267 11.32C106.647 11.1 106.952 10.78 107.182 10.36C107.422 9.93 107.542 9.43 107.542 8.86ZM114.273 1.9V13H112.563V1.9H114.273Z" fill="#fff"/>
    <path d="M59.2297 36.234V25.601H63.6007V36.234H59.2297ZM59.2297 25.601C59.2297 24.4023 59.5294 23.3277 60.1287 22.377C60.728 21.4263 61.5444 20.6823 62.5777 20.145C63.6317 19.6077 64.82 19.339 66.1427 19.339V22.749C65.3574 22.749 64.7374 22.997 64.2827 23.493C63.828 23.989 63.6007 24.6917 63.6007 25.601H59.2297ZM59.2297 36.203H63.6007C63.6007 37.1123 63.828 37.8253 64.2827 38.342C64.7374 38.838 65.3574 39.086 66.1427 39.086V42.496C64.82 42.496 63.6317 42.2273 62.5777 41.69C61.5444 41.132 60.728 40.388 60.1287 39.458C59.5294 38.5073 59.2297 37.4223 59.2297 36.203ZM69.2117 26.593C69.129 25.3943 68.8087 24.454 68.2507 23.772C67.7134 23.09 67.0004 22.749 66.1117 22.749V19.339C68.1164 19.339 69.7284 19.9177 70.9477 21.075C72.1877 22.2117 72.9214 23.8133 73.1487 25.88L69.2117 26.593ZM69.2117 35.242L73.1487 35.924C72.9214 37.9907 72.1877 39.6027 70.9477 40.76C69.7284 41.9173 68.1164 42.496 66.1117 42.496V39.086C67.0004 39.086 67.7134 38.745 68.2507 38.063C68.8087 37.381 69.129 36.4407 69.2117 35.242ZM88.2239 26.035V42H83.8529V26.035H88.2239ZM79.2339 26.035V36.358H74.8629V26.035H79.2339ZM79.2339 36.327C79.2339 37.1743 79.4302 37.846 79.8229 38.342C80.2156 38.8173 80.7529 39.055 81.4349 39.055L80.1639 42.496C79.1512 42.496 78.2419 42.2273 77.4359 41.69C76.6506 41.1527 76.0202 40.419 75.5449 39.489C75.0902 38.559 74.8629 37.505 74.8629 36.327H79.2339ZM85.2169 36.079C85.2169 37.2983 84.9896 38.3937 84.5349 39.365C84.1009 40.3157 83.5016 41.0803 82.7369 41.659C81.9722 42.217 81.1146 42.496 80.1639 42.496L81.4349 39.055C82.1582 39.055 82.7369 38.7863 83.1709 38.249C83.6256 37.7117 83.8529 36.9883 83.8529 36.079H85.2169ZM91.328 42V26.035H95.699V42H91.328ZM94.335 32.452C94.335 31.1293 94.5313 29.9513 94.924 28.918C95.3167 27.8847 95.854 27.0787 96.536 26.5C97.2387 25.9007 98.024 25.601 98.892 25.601L97.838 29.476C97.1973 29.476 96.6807 29.7447 96.288 30.282C95.8953 30.8193 95.699 31.5427 95.699 32.452H94.335ZM100.07 30.592C99.8013 30.2613 99.4603 29.9927 99.047 29.786C98.6337 29.5793 98.2307 29.476 97.838 29.476L98.892 25.601C99.4087 25.601 99.8737 25.7043 100.287 25.911C100.721 26.097 101.165 26.4277 101.62 26.903L100.07 30.592ZM103.271 42V26.035H107.642V42H103.271ZM106.278 32.452C106.278 31.1293 106.475 29.9513 106.867 28.918C107.26 27.8847 107.797 27.0787 108.479 26.5C109.182 25.9007 109.967 25.601 110.835 25.601L109.781 29.476C109.141 29.476 108.624 29.7447 108.231 30.282C107.839 30.8193 107.642 31.5427 107.642 32.452H106.278ZM112.013 30.592C111.745 30.2613 111.404 29.9927 110.99 29.786C110.577 29.5793 110.174 29.476 109.781 29.476L110.835 25.601C111.352 25.601 111.817 25.7043 112.23 25.911C112.664 26.097 113.109 26.4277 113.563 26.903L112.013 30.592ZM115.917 35.149V32.607H126.829V35.149H115.917ZM120.164 42.496V39.086H120.443V42.496H120.164ZM113.623 35.552V32.483H117.994V35.552H113.623ZM122.458 32.607V31.925H126.829V32.607H122.458ZM126.829 31.925H122.458C122.458 31.0157 122.251 30.2923 121.838 29.755C121.424 29.2177 120.866 28.949 120.164 28.949V25.539C121.445 25.539 122.582 25.818 123.574 26.376C124.586 26.934 125.382 27.6987 125.961 28.67C126.539 29.6207 126.829 30.7057 126.829 31.925ZM122.737 36.544L126.612 37.257C126.446 38.3317 126.085 39.2617 125.527 40.047C124.969 40.8323 124.256 41.442 123.388 41.876C122.52 42.2893 121.538 42.496 120.443 42.496V39.086C121.042 39.086 121.548 38.869 121.962 38.435C122.375 37.9803 122.633 37.35 122.737 36.544ZM113.623 32.514C113.623 31.1707 113.912 29.9823 114.491 28.949C115.069 27.895 115.844 27.0683 116.816 26.469C117.808 25.849 118.934 25.539 120.195 25.539V28.949C119.492 28.949 118.944 29.2693 118.552 29.91C118.18 30.53 117.994 31.398 117.994 32.514H113.623ZM113.623 35.521H117.994C117.994 36.637 118.18 37.5153 118.552 38.156C118.944 38.776 119.492 39.086 120.195 39.086V42.496C118.934 42.496 117.808 42.1963 116.816 41.597C115.844 40.977 115.069 40.14 114.491 39.086C113.912 38.032 113.623 36.8437 113.623 35.521ZM128.914 42V26.035H133.285V42H128.914ZM137.904 42V31.677H142.275V42H137.904ZM137.904 31.708C137.904 30.8607 137.708 30.1993 137.315 29.724C136.923 29.228 136.385 28.98 135.703 28.98L136.974 25.539C137.987 25.539 138.886 25.8077 139.671 26.345C140.477 26.8823 141.108 27.616 141.562 28.546C142.038 29.476 142.275 30.53 142.275 31.708H137.904ZM131.921 31.925C131.921 30.7057 132.138 29.6207 132.572 28.67C133.027 27.6987 133.637 26.934 134.401 26.376C135.166 25.818 136.024 25.539 136.974 25.539L135.703 28.98C134.98 28.98 134.391 29.2487 133.936 29.786C133.502 30.3233 133.285 31.0363 133.285 31.925H131.921ZM145.695 36.42V19.835H150.066V36.42H145.695ZM143.897 29.29V26.035H153.972V29.29H143.897ZM145.695 36.389H150.066C150.066 36.947 150.139 37.4327 150.283 37.846C150.449 38.2387 150.676 38.5383 150.965 38.745C151.255 38.9517 151.596 39.055 151.988 39.055L151.492 42.496C149.674 42.496 148.248 41.9587 147.214 40.884C146.202 39.8093 145.695 38.311 145.695 36.389ZM153.383 38.528L154.933 41.349C154.375 41.7417 153.807 42.031 153.228 42.217C152.67 42.403 152.092 42.496 151.492 42.496L151.988 39.055C152.257 39.055 152.505 39.0137 152.732 38.931C152.96 38.8277 153.177 38.6933 153.383 38.528ZM165.76 38.218V34.808H173.696V38.218H165.76ZM171.247 19.835L165.791 42H161.544L167.031 19.835H171.247ZM171.309 19.835L176.796 42H172.58L167.093 19.835H171.309ZM183.113 29.29V26.035H192.94V29.29H183.113ZM179.672 42V25.415H184.043V42H179.672ZM177.874 29.29V26.035H187.701V29.29H177.874ZM179.672 25.415C179.672 23.5137 180.178 22.0257 181.191 20.951C182.224 19.8763 183.65 19.339 185.469 19.339L185.965 22.749C185.572 22.749 185.231 22.8627 184.942 23.09C184.652 23.2967 184.425 23.5963 184.26 23.989C184.115 24.3817 184.043 24.857 184.043 25.415H179.672ZM187.36 23.276C187.153 23.1107 186.936 22.9867 186.709 22.904C186.481 22.8007 186.233 22.749 185.965 22.749L185.469 19.339C186.068 19.339 186.647 19.4217 187.205 19.587C187.783 19.7523 188.352 20.052 188.91 20.486L187.36 23.276ZM190.119 42V25.415H194.49V42H190.119ZM188.321 29.29V26.035H198.148V29.29H188.321ZM190.119 25.415C190.119 23.5137 190.625 22.0257 191.638 20.951C192.65 19.8763 194.066 19.339 195.885 19.339L196.412 22.749C196.019 22.749 195.678 22.8627 195.389 23.09C195.099 23.2967 194.872 23.5963 194.707 23.989C194.562 24.3817 194.49 24.857 194.49 25.415H190.119ZM197.776 23.276C197.59 23.1107 197.383 22.9867 197.156 22.904C196.928 22.8007 196.68 22.749 196.412 22.749L195.885 19.339C196.505 19.339 197.094 19.4217 197.652 19.587C198.23 19.7523 198.799 20.052 199.357 20.486L197.776 23.276ZM207.628 42V31.677H211.999V42H207.628ZM204.001 42.465L204.683 39.21C205.261 39.21 205.768 39.0653 206.202 38.776C206.636 38.466 206.977 38.032 207.225 37.474C207.493 36.916 207.628 36.2443 207.628 35.459L209.457 35.242C209.457 36.6267 209.209 37.8667 208.713 38.962C208.217 40.0573 207.555 40.915 206.729 41.535C205.902 42.155 204.993 42.465 204.001 42.465ZM204.001 42.465C202.988 42.465 202.089 42.248 201.304 41.814C200.518 41.38 199.898 40.791 199.444 40.047C199.01 39.2823 198.793 38.4247 198.793 37.474L202.699 37.257C202.699 37.815 202.895 38.28 203.288 38.652C203.68 39.024 204.145 39.21 204.683 39.21L204.001 42.465ZM198.793 37.474C198.793 36.5027 199.051 35.645 199.568 34.901C200.105 34.157 200.818 33.568 201.707 33.134C202.616 32.6793 203.639 32.452 204.776 32.452L205.241 35.242C204.455 35.242 203.835 35.428 203.381 35.8C202.926 36.1513 202.699 36.637 202.699 37.257L198.793 37.474ZM205.241 35.242L204.776 32.452H208.744V35.242H205.241ZM207.628 35.459V31.894H209.457V35.242L207.628 35.459ZM211.999 31.925H207.628C207.628 31.0157 207.421 30.2923 207.008 29.755C206.594 29.2177 206.036 28.949 205.334 28.949V25.539C206.615 25.539 207.752 25.818 208.744 26.376C209.756 26.934 210.552 27.6987 211.131 28.67C211.709 29.6207 211.999 30.7057 211.999 31.925ZM203.04 31.491L199.196 30.778C199.361 29.6827 199.712 28.7527 200.25 27.988C200.808 27.2027 201.521 26.6033 202.389 26.19C203.277 25.756 204.269 25.539 205.365 25.539V28.949C204.765 28.949 204.249 29.166 203.815 29.6C203.401 30.034 203.143 30.6643 203.04 31.491ZM214.69 42V26.035H219.061V42H214.69ZM216.86 23.896C216.157 23.896 215.568 23.6687 215.093 23.214C214.638 22.7387 214.411 22.1497 214.411 21.447C214.411 20.7443 214.638 20.1553 215.093 19.68C215.568 19.184 216.157 18.936 216.86 18.936C217.563 18.936 218.152 19.184 218.627 19.68C219.123 20.1553 219.371 20.7443 219.371 21.447C219.371 22.1497 219.123 22.7387 218.627 23.214C218.152 23.6687 217.563 23.896 216.86 23.896ZM222.479 42V26.035H226.85V42H222.479ZM225.486 32.452C225.486 31.1293 225.682 29.9513 226.075 28.918C226.467 27.8847 227.005 27.0787 227.687 26.5C228.389 25.9007 229.175 25.601 230.043 25.601L228.989 29.476C228.348 29.476 227.831 29.7447 227.439 30.282C227.046 30.8193 226.85 31.5427 226.85 32.452H225.486ZM231.221 30.592C230.952 30.2613 230.611 29.9927 230.198 29.786C229.784 29.5793 229.381 29.476 228.989 29.476L230.043 25.601C230.559 25.601 231.024 25.7043 231.438 25.911C231.872 26.097 232.316 26.4277 232.771 26.903L231.221 30.592ZM241.014 37.66C241.014 37.2467 240.817 36.9057 240.425 36.637C240.053 36.3477 239.567 36.0893 238.968 35.862C238.368 35.614 237.738 35.3557 237.077 35.087C236.415 34.7977 235.775 34.4567 235.155 34.064C234.555 33.6713 234.07 33.1857 233.698 32.607C233.326 32.0077 233.14 31.2843 233.14 30.437C233.14 30.437 233.274 30.437 233.543 30.437C233.832 30.437 234.173 30.437 234.566 30.437C234.979 30.437 235.392 30.437 235.806 30.437C236.219 30.437 236.56 30.437 236.829 30.437C237.118 30.437 237.263 30.437 237.263 30.437C237.263 30.8503 237.449 31.2017 237.821 31.491C238.213 31.7597 238.709 32.018 239.309 32.266C239.908 32.4933 240.538 32.7517 241.2 33.041C241.882 33.3097 242.522 33.6403 243.122 34.033C243.721 34.4257 244.207 34.9113 244.579 35.49C244.971 36.0687 245.168 36.792 245.168 37.66C245.168 37.66 245.023 37.66 244.734 37.66C244.444 37.66 244.093 37.66 243.68 37.66C243.287 37.66 242.884 37.66 242.471 37.66C242.057 37.66 241.706 37.66 241.417 37.66C241.148 37.66 241.014 37.66 241.014 37.66ZM238.968 42.496V39.055C239.588 39.055 240.084 38.931 240.456 38.683C240.828 38.4143 241.014 38.0733 241.014 37.66H245.168C245.168 38.6313 244.909 39.489 244.393 40.233C243.897 40.9563 243.184 41.5143 242.254 41.907C241.344 42.2997 240.249 42.496 238.968 42.496ZM233.14 30.437C233.14 29.507 233.388 28.67 233.884 27.926C234.4 27.182 235.103 26.6033 235.992 26.19C236.88 25.756 237.872 25.539 238.968 25.539V28.949C238.492 28.949 238.089 29.0937 237.759 29.383C237.428 29.6723 237.263 30.0237 237.263 30.437H233.14ZM236.705 36.544C236.808 37.35 237.066 37.97 237.48 38.404C237.893 38.838 238.399 39.055 238.999 39.055V42.496C237.903 42.496 236.922 42.2893 236.054 41.876C235.186 41.442 234.473 40.8323 233.915 40.047C233.377 39.241 233.016 38.311 232.83 37.257L236.705 36.544ZM241.262 31.491C241.158 30.6643 240.9 30.034 240.487 29.6C240.073 29.166 239.567 28.949 238.968 28.949V25.539C240.063 25.539 241.045 25.756 241.913 26.19C242.781 26.6033 243.494 27.2027 244.052 27.988C244.61 28.7527 244.971 29.6827 245.137 30.778L241.262 31.491Z" fill="#fff"/>
    <path d="M11.3493 38.8757C9.67892 38.911 8.02358 38.55 6.51562 37.8217C9.67126 40.5062 13.657 41.9847 17.7785 41.9998C26.7667 41.9998 34.5166 35.4233 35.3132 26.4531C30.7357 32.2897 19.7383 38.8757 11.3493 38.8757Z" fill="#fff"/>
    <path d="M11.5449 7.19434C4.38719 9.61889 0 16.2858 0 23.9973C0.000237489 27.5003 1.01584 30.9261 2.92088 33.8502C2.33374 32.341 2.04397 30.73 2.06788 29.1081C2.06788 18.9554 8.83783 10.2661 11.5449 7.19434Z" fill="#fff"/>
    <path d="M9.6011 31.6446C15.8 31.6446 27.8713 23.6785 32.8013 15.703C32.91 15.5241 32.9676 15.3182 32.9676 15.1081C32.9676 14.8981 32.91 14.6922 32.8013 14.5133C31.2215 11.9164 29.0128 9.77131 26.3845 8.28139C23.7562 6.79147 20.7955 6.00617 17.7833 6C16.8938 6.0049 16.0066 6.09171 15.1327 6.25935C14.0735 6.4403 13.1181 7.01254 12.4515 7.86541C9.80554 11.3202 5.57814 18.068 5.57814 25.9818C5.57344 29.5746 7.0797 31.6446 9.6011 31.6446Z" fill="#fff"/>
    <path d="M44.5372 19.7831C47.3766 18.7571 48.8569 15.5947 47.8436 12.7197C46.8303 9.84464 43.7071 8.34574 40.8677 9.37174C38.0283 10.3977 36.548 13.5601 37.5613 16.4352C38.5746 19.3102 41.6978 20.8091 44.5372 19.7831Z" fill="#fff"/>
</svg>
