<svg width="132" height="29" viewBox="0 0 132 29" fill="none" xmlns="http://www.w3.org/2000/svg">
<path d="M4.22505 0.79484C5.00929 0.79484 5.69462 0.946743 6.28104 1.25055C6.87452 1.54729 7.33023 1.97827 7.64816 2.54349C7.97316 3.10164 8.13566 3.75518 8.13566 4.50409C8.13566 5.25301 7.97316 5.90301 7.64816 6.4541C7.33023 7.00519 6.87452 7.42911 6.28104 7.72585C5.69462 8.01552 5.00929 8.16036 4.22505 8.16036H1.81934V0.79484H4.22505ZM4.22505 7.17476C5.08701 7.17476 5.74761 6.9416 6.20685 6.4753C6.66609 6.00899 6.89571 5.35192 6.89571 4.50409C6.89571 3.6492 6.66609 2.98153 6.20685 2.5011C5.74761 2.02066 5.08701 1.78044 4.22505 1.78044H3.02749V7.17476H4.22505Z" fill="#FFF"/>
<path d="M10.6896 1.54729C10.4706 1.54729 10.2869 1.4731 10.1385 1.32473C9.99013 1.17636 9.91594 0.992667 9.91594 0.773645C9.91594 0.554622 9.99013 0.370925 10.1385 0.222556C10.2869 0.0741852 10.4706 0 10.6896 0C10.9015 0 11.0817 0.0741852 11.2301 0.222556C11.3784 0.370925 11.4526 0.554622 11.4526 0.773645C11.4526 0.992667 11.3784 1.17636 11.2301 1.32473C11.0817 1.4731 10.9015 1.54729 10.6896 1.54729ZM11.2831 2.32093V8.16036H10.0749V2.32093H11.2831Z" fill="#FFF"/>
<path d="M15.9638 2.22555C16.416 2.22555 16.8152 2.3174 17.1614 2.5011C17.5147 2.67773 17.7902 2.90028 17.988 3.16876V2.32093H19.2068V8.25574C19.2068 8.7927 19.0938 9.2696 18.8677 9.68645C18.6416 10.1104 18.313 10.4424 17.8821 10.6827C17.4581 10.9229 16.9494 11.043 16.356 11.043C15.5647 11.043 14.9076 10.8557 14.3848 10.4813C13.8619 10.1139 13.5652 9.61227 13.4945 8.97639H14.6921C14.784 9.2802 14.9782 9.52395 15.275 9.70765C15.5788 9.89841 15.9391 9.99379 16.356 9.99379C16.8435 9.99379 17.2356 9.84542 17.5323 9.54868C17.8361 9.25194 17.988 8.82096 17.988 8.25574V7.28074C17.7831 7.55628 17.5041 7.78943 17.1508 7.9802C16.8046 8.16389 16.409 8.25574 15.9638 8.25574C15.4551 8.25574 14.9888 8.12856 14.5649 7.87422C14.1481 7.6128 13.816 7.25247 13.5687 6.79323C13.3285 6.32693 13.2084 5.80057 13.2084 5.21415C13.2084 4.62774 13.3285 4.10844 13.5687 3.65626C13.816 3.20409 14.1481 2.85436 14.5649 2.60708C14.9888 2.35273 15.4551 2.22555 15.9638 2.22555ZM17.988 5.23535C17.988 4.83263 17.9033 4.4829 17.7337 4.18616C17.5712 3.88942 17.3557 3.66333 17.0872 3.50789C16.8187 3.35246 16.5291 3.27474 16.2182 3.27474C15.9073 3.27474 15.6177 3.35246 15.3492 3.50789C15.0807 3.65626 14.8617 3.87882 14.6921 4.17556C14.5296 4.46524 14.4484 4.81143 14.4484 5.21415C14.4484 5.61687 14.5296 5.97013 14.6921 6.27394C14.8617 6.57774 15.0807 6.8109 15.3492 6.9734C15.6247 7.12883 15.9144 7.20655 16.2182 7.20655C16.5291 7.20655 16.8187 7.12883 17.0872 6.9734C17.3557 6.81796 17.5712 6.59187 17.7337 6.29513C17.9033 5.99133 17.988 5.63807 17.988 5.23535Z" fill="#FFF"/>
<path d="M22.1502 1.54729C21.9312 1.54729 21.7475 1.4731 21.5991 1.32473C21.4507 1.17636 21.3765 0.992667 21.3765 0.773645C21.3765 0.554622 21.4507 0.370925 21.5991 0.222556C21.7475 0.0741852 21.9312 0 22.1502 0C22.3621 0 22.5423 0.0741852 22.6907 0.222556C22.839 0.370925 22.9132 0.554622 22.9132 0.773645C22.9132 0.992667 22.839 1.17636 22.6907 1.32473C22.5423 1.4731 22.3621 1.54729 22.1502 1.54729ZM22.7437 2.32093V8.16036H21.5355V2.32093H22.7437Z" fill="#FFF"/>
<path d="M26.4812 3.30653V6.53888C26.4812 6.75791 26.5307 6.91687 26.6296 7.01579C26.7356 7.10764 26.9122 7.15356 27.1595 7.15356H27.9014V8.16036H26.9475C26.4035 8.16036 25.9867 8.03318 25.697 7.77883C25.4073 7.52449 25.2625 7.11117 25.2625 6.53888V3.30653H24.5736V2.32093H25.2625V0.869025H26.4812V2.32093H27.9014V3.30653H26.4812Z" fill="#FFF"/>
<path d="M29.354 5.21415C29.354 4.62774 29.4741 4.10844 29.7143 3.65626C29.9616 3.20409 30.2937 2.85436 30.7105 2.60708C31.1344 2.35273 31.6008 2.22555 32.1094 2.22555C32.5687 2.22555 32.9679 2.3174 33.307 2.5011C33.6532 2.67773 33.9287 2.90028 34.1336 3.16876V2.32093H35.3524V8.16036H34.1336V7.29133C33.9287 7.56688 33.6497 7.7965 33.2964 7.9802C32.9431 8.16389 32.5404 8.25574 32.0883 8.25574C31.5866 8.25574 31.1274 8.12856 30.7105 7.87422C30.2937 7.6128 29.9616 7.25247 29.7143 6.79323C29.4741 6.32693 29.354 5.80057 29.354 5.21415ZM34.1336 5.23535C34.1336 4.83263 34.0489 4.4829 33.8793 4.18616C33.7168 3.88942 33.5013 3.66333 33.2328 3.50789C32.9643 3.35246 32.6747 3.27474 32.3638 3.27474C32.0529 3.27474 31.7633 3.35246 31.4948 3.50789C31.2263 3.65626 31.0073 3.87882 30.8377 4.17556C30.6752 4.46524 30.594 4.81143 30.594 5.21415C30.594 5.61687 30.6752 5.97013 30.8377 6.27394C31.0073 6.57774 31.2263 6.8109 31.4948 6.9734C31.7703 7.12883 32.06 7.20655 32.3638 7.20655C32.6747 7.20655 32.9643 7.12883 33.2328 6.9734C33.5013 6.81796 33.7168 6.59187 33.8793 6.29513C34.0489 5.99133 34.1336 5.63807 34.1336 5.23535Z" fill="#FFF"/>
<path d="M38.8893 0.317936V8.16036H37.6811V0.317936H38.8893Z" fill="#FFF"/>
<path d="M0 24.5757V17.0632H3.08822V24.5757H0ZM0 17.0632C0 16.2163 0.211722 15.4571 0.635166 14.7854C1.05861 14.1137 1.63537 13.5881 2.36544 13.2084C3.11012 12.8288 3.94971 12.639 4.8842 12.639V15.0482C4.32935 15.0482 3.8913 15.2234 3.57007 15.5739C3.24884 15.9243 3.08822 16.4208 3.08822 17.0632H0ZM0 24.5538H3.08822C3.08822 25.1963 3.24884 25.7 3.57007 26.0651C3.8913 26.4155 4.32935 26.5907 4.8842 26.5907V29C3.94971 29 3.11012 28.8101 2.36544 28.4305C1.63537 28.0363 1.05861 27.5106 0.635166 26.8535C0.211722 26.1819 0 25.4153 0 24.5538ZM7.05253 17.7641C6.99412 16.9172 6.7678 16.2529 6.37356 15.771C5.99392 15.2892 5.49017 15.0482 4.8623 15.0482V12.639C6.27865 12.639 7.41757 13.0478 8.27905 13.8655C9.15515 14.6686 9.6735 15.8002 9.83412 17.2604L7.05253 17.7641ZM7.05253 23.8748L9.83412 24.3567C9.6735 25.8168 9.15515 26.9558 8.27905 27.7734C7.41757 28.5911 6.27865 29 4.8623 29V26.5907C5.49017 26.5907 5.99392 26.3498 6.37356 25.8679C6.7678 25.3861 6.99412 24.7217 7.05253 23.8748Z" fill="#FFF"/>
<path d="M20.4851 17.3699V28.6495H17.3969V17.3699H20.4851ZM14.1335 17.3699V24.6633H11.0452V17.3699H14.1335ZM14.1335 24.6414C14.1335 25.2401 14.2722 25.7146 14.5496 26.0651C14.827 26.4009 15.2067 26.5688 15.6885 26.5688L14.7905 29C14.0751 29 13.4326 28.8101 12.8631 28.4305C12.3083 28.0509 11.8629 27.5325 11.5271 26.8754C11.2059 26.2184 11.0452 25.4737 11.0452 24.6414H14.1335ZM18.3606 24.4662C18.3606 25.3277 18.2 26.1016 17.8787 26.7878C17.5721 27.4595 17.1487 27.9998 16.6084 28.4086C16.0682 28.8028 15.4622 29 14.7905 29L15.6885 26.5688C16.1996 26.5688 16.6084 26.379 16.915 25.9994C17.2363 25.6197 17.3969 25.1087 17.3969 24.4662H18.3606Z" fill="#FFF"/>
<path d="M22.6782 28.6495V17.3699H25.7665V28.6495H22.6782ZM24.8028 21.9036C24.8028 20.9691 24.9415 20.1369 25.2189 19.4068C25.4963 18.6767 25.876 18.1072 26.3578 17.6984C26.8543 17.275 27.4091 17.0632 28.0224 17.0632L27.2777 19.801C26.8251 19.801 26.46 19.9908 26.1826 20.3705C25.9052 20.7501 25.7665 21.2612 25.7665 21.9036H24.8028ZM28.8547 20.5895C28.6649 20.3559 28.4239 20.1661 28.1319 20.02C27.8399 19.874 27.5552 19.801 27.2777 19.801L28.0224 17.0632C28.3874 17.0632 28.716 17.1362 29.008 17.2823C29.3146 17.4137 29.6286 17.6473 29.9498 17.9831L28.8547 20.5895Z" fill="#FFF"/>
<path d="M31.1166 28.6495V17.3699H34.2048V28.6495H31.1166ZM33.2411 21.9036C33.2411 20.9691 33.3798 20.1369 33.6573 19.4068C33.9347 18.6767 34.3143 18.1072 34.7962 17.6984C35.2926 17.275 35.8475 17.0632 36.4608 17.0632L35.7161 19.801C35.2634 19.801 34.8984 19.9908 34.621 20.3705C34.3435 20.7501 34.2048 21.2612 34.2048 21.9036H33.2411ZM37.293 20.5895C37.1032 20.3559 36.8623 20.1661 36.5703 20.02C36.2782 19.874 35.9935 19.801 35.7161 19.801L36.4608 17.0632C36.8258 17.0632 37.1543 17.1362 37.4464 17.2823C37.753 17.4137 38.0669 17.6473 38.3882 17.9831L37.293 20.5895Z" fill="#FFF"/>
<path d="M40.0507 23.8091V22.0131H47.7603V23.8091H40.0507ZM43.0513 29V26.5907H43.2484V29H43.0513ZM38.4299 24.0939V21.9255H41.5181V24.0939H38.4299ZM44.6721 22.0131V21.5313H47.7603V22.0131H44.6721ZM47.7603 21.5313H44.6721C44.6721 20.8888 44.526 20.3778 44.234 19.9981C43.942 19.6185 43.5477 19.4287 43.0513 19.4287V17.0194C43.9566 17.0194 44.7597 17.2165 45.4605 17.6108C46.176 18.005 46.7382 18.5453 47.147 19.2316C47.5559 19.9032 47.7603 20.6698 47.7603 21.5313ZM44.8692 24.7947L47.607 25.2985C47.4901 26.0578 47.2346 26.7148 46.8404 27.2697C46.4461 27.8245 45.9424 28.2553 45.3291 28.5619C44.7159 28.854 44.0223 29 43.2484 29V26.5907C43.6718 26.5907 44.0296 26.4374 44.3216 26.1308C44.6136 25.8095 44.7962 25.3642 44.8692 24.7947ZM38.4299 21.9474C38.4299 20.9983 38.6343 20.1588 39.0432 19.4287C39.452 18.684 39.9996 18.0999 40.6858 17.6765C41.3867 17.2385 42.1825 17.0194 43.0732 17.0194V19.4287C42.5767 19.4287 42.1898 19.655 41.9124 20.1076C41.6495 20.5457 41.5181 21.159 41.5181 21.9474H38.4299ZM38.4299 24.072H41.5181C41.5181 24.8604 41.6495 25.481 41.9124 25.9337C42.1898 26.3717 42.5767 26.5907 43.0732 26.5907V29C42.1825 29 41.3867 28.7882 40.6858 28.3648C39.9996 27.9268 39.452 27.3354 39.0432 26.5907C38.6343 25.846 38.4299 25.0065 38.4299 24.072Z" fill="#FFF"/>
<path d="M49.2339 28.6495V17.3699H52.3221V28.6495H49.2339ZM55.5855 28.6495V21.3561H58.6738V28.6495H55.5855ZM55.5855 21.378C55.5855 20.7793 55.4468 20.3121 55.1694 19.9762C54.892 19.6258 54.5123 19.4506 54.0305 19.4506L54.9285 17.0194C55.6439 17.0194 56.2791 17.2092 56.834 17.5889C57.4034 17.9685 57.8488 18.4869 58.17 19.1439C58.5058 19.801 58.6738 20.5457 58.6738 21.378H55.5855ZM51.3584 21.5313C51.3584 20.6698 51.5117 19.9032 51.8184 19.2316C52.1396 18.5453 52.5703 18.005 53.1106 17.6108C53.6508 17.2165 54.2568 17.0194 54.9285 17.0194L54.0305 19.4506C53.5194 19.4506 53.1033 19.6404 52.7821 20.02C52.4754 20.3997 52.3221 20.9034 52.3221 21.5313H51.3584Z" fill="#FFF"/>
<path d="M61.09 24.7071V12.9894H64.1782V24.7071H61.09ZM59.8197 19.6696V17.3699H66.9379V19.6696H59.8197ZM61.09 24.6852H64.1782C64.1782 25.0795 64.2293 25.4226 64.3316 25.7146C64.4484 25.9921 64.609 26.2038 64.8134 26.3498C65.0178 26.4958 65.2588 26.5688 65.5362 26.5688L65.1857 29C63.9008 29 62.8933 28.6203 62.1632 27.861C61.4478 27.1018 61.09 26.0432 61.09 24.6852ZM66.5218 26.1965L67.6169 28.1896C67.2226 28.467 66.8211 28.6714 66.4123 28.8028C66.018 28.9343 65.6092 29 65.1857 29L65.5362 26.5688C65.726 26.5688 65.9012 26.5396 66.0618 26.4812C66.2225 26.4082 66.3758 26.3133 66.5218 26.1965Z" fill="#FFF"/>
<path d="M75.2664 25.9775V23.5682H80.8734V25.9775H75.2664ZM79.1431 12.9894L75.2883 28.6495H72.2877L76.1644 12.9894H79.1431ZM79.1869 12.9894L83.0636 28.6495H80.0849L76.2082 12.9894H79.1869Z" fill="#FFF"/>
<path d="M87.5264 19.6696V17.3699H94.4694V19.6696H87.5264ZM85.0952 28.6495V16.9318H88.1835V28.6495H85.0952ZM83.8249 19.6696V17.3699H90.7679V19.6696H83.8249ZM85.0952 16.9318C85.0952 15.5885 85.453 14.5372 86.1684 13.7779C86.8985 13.0186 87.906 12.639 89.191 12.639L89.5414 15.0482C89.264 15.0482 89.023 15.1285 88.8186 15.2892C88.6142 15.4352 88.4536 15.6469 88.3368 15.9243C88.2346 16.2017 88.1835 16.5376 88.1835 16.9318H85.0952ZM90.527 15.4206C90.381 15.3038 90.2277 15.2161 90.067 15.1577C89.9064 15.0847 89.7312 15.0482 89.5414 15.0482L89.191 12.639C89.6144 12.639 90.0232 12.6974 90.4175 12.8142C90.8263 12.931 91.2279 13.1427 91.6221 13.4494L90.527 15.4206ZM92.4763 28.6495V16.9318H95.5645V28.6495H92.4763ZM91.206 19.6696V17.3699H98.149V19.6696H91.206ZM92.4763 16.9318C92.4763 15.5885 92.834 14.5372 93.5495 13.7779C94.265 13.0186 95.2652 12.639 96.5501 12.639L96.9225 15.0482C96.645 15.0482 96.4041 15.1285 96.1997 15.2892C95.9953 15.4352 95.8346 15.6469 95.7178 15.9243C95.6156 16.2017 95.5645 16.5376 95.5645 16.9318H92.4763ZM97.8862 15.4206C97.7547 15.3038 97.6087 15.2161 97.4481 15.1577C97.2875 15.0847 97.1123 15.0482 96.9225 15.0482L96.5501 12.639C96.9882 12.639 97.4043 12.6974 97.7986 12.8142C98.2074 12.931 98.6089 13.1427 99.0032 13.4494L97.8862 15.4206Z" fill="#FFF"/>
<path d="M104.847 28.6495V21.3561H107.935V28.6495H104.847ZM102.284 28.9781L102.766 26.6783C103.175 26.6783 103.533 26.5761 103.839 26.3717C104.146 26.1527 104.387 25.846 104.562 25.4518C104.752 25.0576 104.847 24.583 104.847 24.0282L106.139 23.8748C106.139 24.8531 105.964 25.7292 105.613 26.5031C105.263 27.277 104.796 27.883 104.212 28.321C103.628 28.759 102.985 28.9781 102.284 28.9781ZM102.284 28.9781C101.569 28.9781 100.934 28.8247 100.379 28.5181C99.8239 28.2115 99.3858 27.7953 99.0646 27.2697C98.758 26.7294 98.6047 26.1235 98.6047 25.4518L101.364 25.2985C101.364 25.6927 101.503 26.0213 101.78 26.2841C102.058 26.5469 102.386 26.6783 102.766 26.6783L102.284 28.9781ZM98.6047 25.4518C98.6047 24.7655 98.7872 24.1596 99.1522 23.6339C99.5319 23.1083 100.036 22.6921 100.663 22.3855C101.306 22.0642 102.029 21.9036 102.832 21.9036L103.16 23.8748C102.605 23.8748 102.167 24.0063 101.846 24.2691C101.525 24.5173 101.364 24.8604 101.364 25.2985L98.6047 25.4518ZM103.16 23.8748L102.832 21.9036H105.635V23.8748H103.16ZM104.847 24.0282V21.5094H106.139V23.8748L104.847 24.0282ZM107.935 21.5313H104.847C104.847 20.8888 104.701 20.3778 104.409 19.9981C104.117 19.6185 103.722 19.4287 103.226 19.4287V17.0194C104.131 17.0194 104.934 17.2165 105.635 17.6108C106.351 18.005 106.913 18.5453 107.322 19.2316C107.731 19.9032 107.935 20.6698 107.935 21.5313ZM101.605 21.2247L98.8894 20.7209C99.0062 19.947 99.2544 19.29 99.6341 18.7497C100.028 18.1949 100.532 17.7714 101.145 17.4794C101.773 17.1727 102.474 17.0194 103.248 17.0194V19.4287C102.825 19.4287 102.459 19.582 102.153 19.8886C101.861 20.1953 101.678 20.6406 101.605 21.2247Z" fill="#FFF"/>
<path d="M109.836 28.6495V17.3699H112.925V28.6495H109.836ZM111.37 15.8586C110.873 15.8586 110.457 15.698 110.121 15.3768C109.8 15.0409 109.639 14.6248 109.639 14.1283C109.639 13.6319 109.8 13.2157 110.121 12.8799C110.457 12.5295 110.873 12.3542 111.37 12.3542C111.866 12.3542 112.282 12.5295 112.618 12.8799C112.968 13.2157 113.144 13.6319 113.144 14.1283C113.144 14.6248 112.968 15.0409 112.618 15.3768C112.282 15.698 111.866 15.8586 111.37 15.8586Z" fill="#FFF"/>
<path d="M115.339 28.6495V17.3699H118.428V28.6495H115.339ZM117.464 21.9036C117.464 20.9691 117.603 20.1369 117.88 19.4068C118.157 18.6767 118.537 18.1072 119.019 17.6984C119.515 17.275 120.07 17.0632 120.684 17.0632L119.939 19.801C119.486 19.801 119.121 19.9908 118.844 20.3705C118.566 20.7501 118.428 21.2612 118.428 21.9036H117.464ZM121.516 20.5895C121.326 20.3559 121.085 20.1661 120.793 20.02C120.501 19.874 120.216 19.801 119.939 19.801L120.684 17.0632C121.049 17.0632 121.377 17.1362 121.669 17.2823C121.976 17.4137 122.29 17.6473 122.611 17.9831L121.516 20.5895Z" fill="#FFF"/>
<path d="M128.435 25.5832C128.435 25.2912 128.296 25.0503 128.019 24.8604C127.756 24.656 127.413 24.4735 126.989 24.3129C126.566 24.1377 126.121 23.9551 125.653 23.7653C125.186 23.5609 124.733 23.32 124.295 23.0426C123.872 22.7651 123.529 22.422 123.266 22.0131C123.003 21.5897 122.872 21.0786 122.872 20.48C122.872 20.48 122.967 20.48 123.156 20.48C123.361 20.48 123.602 20.48 123.879 20.48C124.171 20.48 124.463 20.48 124.755 20.48C125.047 20.48 125.288 20.48 125.478 20.48C125.682 20.48 125.785 20.48 125.785 20.48C125.785 20.772 125.916 21.0202 126.179 21.2247C126.456 21.4145 126.807 21.597 127.23 21.7722C127.654 21.9328 128.099 22.1154 128.566 22.3198C129.048 22.5096 129.501 22.7432 129.924 23.0206C130.348 23.2981 130.691 23.6412 130.954 24.0501C131.231 24.4589 131.37 24.9699 131.37 25.5832C131.37 25.5832 131.268 25.5832 131.063 25.5832C130.859 25.5832 130.61 25.5832 130.318 25.5832C130.041 25.5832 129.756 25.5832 129.464 25.5832C129.172 25.5832 128.924 25.5832 128.72 25.5832C128.53 25.5832 128.435 25.5832 128.435 25.5832ZM126.989 29V26.5688C127.427 26.5688 127.778 26.4812 128.041 26.306C128.303 26.1162 128.435 25.8752 128.435 25.5832H131.37C131.37 26.2695 131.187 26.8754 130.822 27.4011C130.472 27.9122 129.968 28.3064 129.311 28.5838C128.668 28.8613 127.895 29 126.989 29ZM122.872 20.48C122.872 19.8229 123.047 19.2316 123.397 18.7059C123.762 18.1802 124.259 17.7714 124.887 17.4794C125.515 17.1727 126.215 17.0194 126.989 17.0194V19.4287C126.653 19.4287 126.369 19.5309 126.135 19.7353C125.901 19.9397 125.785 20.188 125.785 20.48H122.872ZM125.39 24.7947C125.463 25.3642 125.646 25.8022 125.938 26.1089C126.23 26.4155 126.588 26.5688 127.011 26.5688V29C126.237 29 125.544 28.854 124.93 28.5619C124.317 28.2553 123.813 27.8245 123.419 27.2697C123.04 26.7002 122.784 26.0432 122.653 25.2985L125.39 24.7947ZM128.61 21.2247C128.537 20.6406 128.355 20.1953 128.063 19.8886C127.77 19.582 127.413 19.4287 126.989 19.4287V17.0194C127.763 17.0194 128.457 17.1727 129.07 17.4794C129.683 17.7714 130.187 18.1949 130.581 18.7497C130.976 19.29 131.231 19.947 131.348 20.7209L128.61 21.2247Z" fill="#FFF"/>
</svg>
