<svg width="171" height="36" fill="none" xmlns="http://www.w3.org/2000/svg"><path fill-rule="evenodd" clip-rule="evenodd" d="M30.96 9.95c.6 8.24-24.99 25.78-24.99 11.29 0-10.73 4.24-17.86 10.38-20.11 1.34-.5 4.7-.54 7.31 0a9.57 9.57 0 0 1 7.3 8.82Z" fill="#fff"/><path fill-rule="evenodd" clip-rule="evenodd" d="M35.77 16.28A26.24 26.24 0 0 1 5.8 30.56a17.7 17.7 0 0 0 29.97-14.28ZM15.26.19C6.55 1.89 0 9.19 0 17.93c0 3.06.8 5.95 2.22 8.47a26.5 26.5 0 0 1-.23-3.47c0-9.58 5.3-17.99 13.27-22.74Z" fill="#fff"/><circle cx="42.22" cy="5.65" r="5.65" fill="#fff"/><path d="M59.1 26.76v5.88h-.76v-5.88h.77Zm6.94 5.88h-.76l-3.09-4.68v4.68h-.77v-5.89h.77l3.09 4.67v-4.67h.76v5.89Zm4.18.06c-.38 0-.73-.07-1.04-.2-.3-.15-.54-.34-.72-.58a1.49 1.49 0 0 1-.27-.85h.82c.03.27.14.5.34.7.2.18.5.28.87.28s.65-.1.86-.27a.9.9 0 0 0 .32-.71.8.8 0 0 0-.18-.55 1.19 1.19 0 0 0-.47-.32 7.25 7.25 0 0 0-.75-.23c-.38-.1-.7-.2-.93-.3-.23-.1-.43-.27-.6-.48a1.43 1.43 0 0 1-.24-.88 1.51 1.51 0 0 1 .92-1.42c.3-.14.64-.2 1.02-.2.55 0 1 .14 1.35.41.35.28.55.64.6 1.1h-.84a.9.9 0 0 0-.36-.6c-.2-.17-.48-.26-.82-.26-.32 0-.59.09-.79.26-.2.16-.3.4-.3.69 0 .21.06.39.18.52.12.14.27.24.44.31.18.07.43.15.75.24.39.1.7.21.94.32a1.38 1.38 0 0 1 .86 1.36c0 .28-.08.55-.23.8-.15.26-.38.46-.67.62-.3.16-.65.24-1.06.24Zm8.02-4.22c0 .5-.16.9-.5 1.22-.33.32-.84.48-1.53.48h-1.13v2.46h-.76v-5.88h1.9c.66 0 1.16.16 1.5.48.35.32.52.74.52 1.24Zm-2.03 1.07c.43 0 .74-.09.95-.28.2-.18.3-.45.3-.79 0-.72-.42-1.08-1.25-1.08h-1.13v2.15h1.13Zm4.76-2.79v5.88h-.76v-5.88h.76Zm5.42 5.88-1.4-2.4h-.93v2.4h-.77v-5.88h1.9c.44 0 .82.08 1.12.23a1.58 1.58 0 0 1 .92 1.5 1.7 1.7 0 0 1-1.4 1.69l1.47 2.46h-.91Zm-2.33-3.02h1.13c.41 0 .73-.1.93-.3.21-.21.32-.49.32-.83 0-.35-.1-.62-.32-.8-.2-.2-.51-.3-.93-.3h-1.13v2.23Zm6.14-2.86v5.88h-.77v-5.88h.77Zm6.93 5.88h-.76l-3.09-4.68v4.68h-.76v-5.89h.76l3.09 4.67v-4.67h.76v5.89Zm6.77-4.17a1.8 1.8 0 0 0-.7-.8 2 2 0 0 0-1.09-.28c-.4 0-.78.1-1.1.28a2 2 0 0 0-.78.81 2.5 2.5 0 0 0-.28 1.22c0 .46.1.86.28 1.2.19.36.45.63.77.82.33.18.7.28 1.11.28a2 2 0 0 0 1.42-.52c.37-.34.59-.8.65-1.39h-2.34v-.62H105v.59a2.93 2.93 0 0 1-1.48 2.28 3 3 0 0 1-2.9-.03 2.88 2.88 0 0 1-1.46-2.61c0-.58.13-1.1.4-1.55a2.94 2.94 0 0 1 2.56-1.46c.62 0 1.17.16 1.64.47.49.3.84.74 1.06 1.3h-.92Zm7.15-1.71v5.88h-.77v-5.88h.77Zm6.93 5.88h-.77l-3.08-4.68v4.68h-.77v-5.89h.77l3.08 4.67v-4.67h.77v5.89Zm6.94 0h-.77l-3.09-4.68v4.68h-.76v-5.89h.77l3.08 4.67v-4.67h.77v5.89Zm4.98.06a2.87 2.87 0 0 1-2.95-3c0-.58.13-1.1.39-1.55a2.94 2.94 0 0 1 2.56-1.46 2.95 2.95 0 0 1 2.56 1.46c.26.45.39.97.39 1.55 0 .57-.13 1.1-.4 1.55a2.82 2.82 0 0 1-2.55 1.45Zm0-.67c.4 0 .78-.1 1.1-.29.33-.19.6-.46.78-.81.19-.36.28-.77.28-1.23 0-.48-.1-.89-.28-1.23a2 2 0 0 0-.77-.82 2.1 2.1 0 0 0-1.11-.29 2.05 2.05 0 0 0-1.89 1.1c-.19.35-.28.76-.28 1.24 0 .46.1.87.28 1.23a2.05 2.05 0 0 0 1.89 1.1Zm9.82-5.27-2.21 5.88h-.89l-2.21-5.88h.81l1.85 5.07 1.84-5.07h.81Zm5.33 4.57h-2.56l-.48 1.3h-.8l2.12-5.83h.88l2.12 5.84h-.81l-.47-1.31Zm-.22-.62-1.06-2.97-1.07 2.97h2.13Zm7.05-3.95v.63h-1.6v5.25h-.77v-5.25h-1.6v-.63h3.97Zm2.72 0v5.88h-.77v-5.88h.77Zm4.98 5.94a2.88 2.88 0 0 1-2.95-3c0-.58.13-1.1.39-1.55a2.94 2.94 0 0 1 2.56-1.46 2.95 2.95 0 0 1 2.56 1.46c.26.45.4.97.4 1.55 0 .57-.14 1.1-.4 1.55a2.8 2.8 0 0 1-2.56 1.45Zm0-.67a2.12 2.12 0 0 0 1.88-1.1c.2-.36.29-.77.29-1.23 0-.48-.1-.89-.29-1.23a2 2 0 0 0-.77-.82c-.32-.2-.7-.29-1.1-.29a2.06 2.06 0 0 0-1.89 1.1c-.2.35-.28.76-.28 1.24 0 .46.09.87.27 1.23a2.06 2.06 0 0 0 1.9 1.1Zm9.59.61h-.76l-3.09-4.68v4.68h-.77v-5.89h.77l3.09 4.67v-4.67h.76v5.89Zm-98-28.09-5.99 16.34H61.2L55.21 4.55h3.51l4.5 13 4.47-13h3.48Zm5.43 0v16.34h-3.27V4.55h3.27Zm9.07 16.5c-1.14 0-2.17-.2-3.1-.58a5.07 5.07 0 0 1-2.14-1.69c-.53-.73-.8-1.6-.82-2.6h3.5c.05.67.29 1.2.71 1.6.44.39 1.03.58 1.78.58.76 0 1.36-.18 1.8-.54.44-.37.66-.86.66-1.45 0-.48-.15-.88-.45-1.2-.3-.3-.67-.55-1.12-.72a14 14 0 0 0-1.83-.6 21.84 21.84 0 0 1-2.6-.92 4.82 4.82 0 0 1-1.7-1.38 4.03 4.03 0 0 1-.7-2.48c0-.97.24-1.81.72-2.53a4.54 4.54 0 0 1 2.04-1.64 7.28 7.28 0 0 1 3-.58 6.4 6.4 0 0 1 4.09 1.24 4.5 4.5 0 0 1 1.75 3.41h-3.6a1.82 1.82 0 0 0-.73-1.38 2.6 2.6 0 0 0-1.75-.56c-.64 0-1.16.17-1.55.5-.37.32-.56.8-.56 1.42 0 .44.14.8.42 1.1.3.28.66.52 1.08.7.44.17 1.04.38 1.82.61 1.07.31 1.93.63 2.6.94.67.31 1.25.78 1.73 1.4.49.63.73 1.45.73 2.46a4.62 4.62 0 0 1-2.67 4.24c-.87.43-1.9.65-3.11.65Zm12.09-16.5v16.34h-3.28V4.55h3.28Zm11 16.5a8.46 8.46 0 0 1-4.2-1.07 8.06 8.06 0 0 1-4.18-7.3 8.24 8.24 0 0 1 8.38-8.36c1.55 0 2.95.36 4.22 1.07a8.24 8.24 0 0 1 4.14 7.28c0 1.61-.38 3.05-1.12 4.33a7.9 7.9 0 0 1-3.02 2.98 8.47 8.47 0 0 1-4.22 1.07Zm0-2.92c.99 0 1.85-.22 2.6-.66a4.65 4.65 0 0 0 1.76-1.92 6.3 6.3 0 0 0 .63-2.88 6.1 6.1 0 0 0-.63-2.85 4.5 4.5 0 0 0-1.76-1.9 5.06 5.06 0 0 0-2.6-.65 5.2 5.2 0 0 0-2.62.65 4.5 4.5 0 0 0-1.75 1.9 6.1 6.1 0 0 0-.64 2.85c0 1.1.22 2.05.64 2.88.42.83 1 1.47 1.75 1.92a5.2 5.2 0 0 0 2.62.66Zm24.96 2.76h-3.28l-7.42-11.21v11.2h-3.27V4.54h3.27l7.42 11.23V4.53h3.28v16.36Zm6.1-16.27V20.9h-2.66V4.62h2.66Zm13.5 12.94h-6.8l-1.18 3.33h-2.78l5.82-16.3h3.1l5.82 16.3h-2.8l-1.18-3.33Zm-.75-2.17-2.64-7.56-2.67 7.56h5.31Zm12.81 5.66a7.53 7.53 0 0 1-2.95-.56 4.92 4.92 0 0 1-2.06-1.64c-.5-.7-.75-1.52-.75-2.46h2.86c.06.7.34 1.28.82 1.74.5.45 1.2.68 2.08.68.92 0 1.64-.22 2.16-.66a2.2 2.2 0 0 0 .77-1.73c0-.55-.16-1-.5-1.34-.3-.34-.7-.6-1.19-.8-.47-.18-1.12-.38-1.96-.6a20.47 20.47 0 0 1-2.6-.84 3.89 3.89 0 0 1-2.39-3.8c0-.93.24-1.75.7-2.45a4.48 4.48 0 0 1 1.97-1.62 7.14 7.14 0 0 1 2.93-.56 6 6 0 0 1 3.86 1.2 4.3 4.3 0 0 1 1.68 3.22h-2.95a2.1 2.1 0 0 0-.84-1.52 3.12 3.12 0 0 0-2.03-.63c-.77 0-1.4.2-1.88.59-.48.39-.72.95-.72 1.68 0 .5.15.91.44 1.24.31.31.7.56 1.17.75.47.19 1.11.4 1.92.6 1.08.3 1.95.6 2.62.9.69.3 1.27.76 1.74 1.38.48.6.72 1.43.72 2.46 0 .82-.23 1.6-.68 2.34a4.8 4.8 0 0 1-1.94 1.78 6.5 6.5 0 0 1-3 .65Z" fill="#fff"/></svg>
