<svg width="18" height="18" viewBox="0 0 18 18" fill="none" xmlns="http://www.w3.org/2000/svg">
<path d="M1.6875 3.9375H2.89238C3.14381 4.905 4.01737 5.625 5.0625 5.625C6.10763 5.625 6.98119 4.905 7.23263 3.9375H16.3125C16.6236 3.9375 16.875 3.6855 16.875 3.375C16.875 3.0645 16.6236 2.8125 16.3125 2.8125H7.23263C6.98119 1.845 6.10763 1.125 5.0625 1.125C4.01737 1.125 3.14381 1.845 2.89238 2.8125H1.6875C1.377 2.8125 1.125 3.0645 1.125 3.375C1.125 3.6855 1.377 3.9375 1.6875 3.9375ZM5.0625 2.25C5.68294 2.25 6.1875 2.75456 6.1875 3.375C6.1875 3.99544 5.68294 4.5 5.0625 4.5C4.44206 4.5 3.9375 3.99544 3.9375 3.375C3.9375 2.75456 4.44206 2.25 5.0625 2.25Z" fill="#8F93A3"/>
<path d="M16.3125 8.4375H15.1076C14.8562 7.47 13.9832 6.75 12.9375 6.75C11.8918 6.75 11.0188 7.47 10.7674 8.4375H1.6875C1.377 8.4375 1.125 8.6895 1.125 9C1.125 9.3105 1.377 9.5625 1.6875 9.5625H10.7674C11.0188 10.53 11.8918 11.25 12.9375 11.25C13.9832 11.25 14.8562 10.53 15.1076 9.5625H16.3125C16.6236 9.5625 16.875 9.3105 16.875 9C16.875 8.6895 16.6236 8.4375 16.3125 8.4375ZM12.9375 10.125C12.3171 10.125 11.8125 9.62044 11.8125 9C11.8125 8.37956 12.3171 7.875 12.9375 7.875C13.5579 7.875 14.0625 8.37956 14.0625 9C14.0625 9.62044 13.5579 10.125 12.9375 10.125Z" fill="#8F93A3"/>
<path d="M16.3125 14.0625H7.23263C6.98119 13.095 6.10763 12.375 5.0625 12.375C4.01737 12.375 3.14381 13.095 2.89238 14.0625H1.6875C1.377 14.0625 1.125 14.3145 1.125 14.625C1.125 14.9355 1.377 15.1875 1.6875 15.1875H2.89238C3.14381 16.155 4.01737 16.875 5.0625 16.875C6.10763 16.875 6.98119 16.155 7.23263 15.1875H16.3125C16.6236 15.1875 16.875 14.9355 16.875 14.625C16.875 14.3145 16.6236 14.0625 16.3125 14.0625ZM5.0625 15.75C4.44206 15.75 3.9375 15.2454 3.9375 14.625C3.9375 14.0046 4.44206 13.5 5.0625 13.5C5.68294 13.5 6.1875 14.0046 6.1875 14.625C6.1875 15.2454 5.68294 15.75 5.0625 15.75Z" fill="#8F93A3"/>
</svg>
