<svg width="112" height="24" fill="none" xmlns="http://www.w3.org/2000/svg"><path fill-rule="evenodd" clip-rule="evenodd" d="M20.27 6.52c.4 5.4-16.36 16.88-16.36 7.4 0-7.04 2.77-11.7 6.8-13.18.88-.32 3.08-.36 4.79 0a6.25 6.25 0 0 1 4.77 5.78Z" fill="#0F4BA0"/><path fill-rule="evenodd" clip-rule="evenodd" d="M23.43 10.66A17.19 17.19 0 0 1 3.8 20.02a11.59 11.59 0 0 0 19.63-9.35Z" fill="#E00B1A"/><path fill-rule="evenodd" clip-rule="evenodd" d="M10 .12C4.28 1.24 0 6.02 0 11.74c0 2.01.53 3.9 1.46 5.56-.1-.75-.16-1.51-.16-2.28C1.3 8.75 4.77 3.24 10 .12Z" fill="#0F4BA0"/><circle cx="27.66" cy="3.7" r="3.7" fill="#E20B1A"/><path d="M38.71 17.53v3.85h-.5v-3.85h.5Zm4.55 3.85h-.5l-2.03-3.07v3.07h-.5v-3.86h.5l2.02 3.06v-3.06h.5v3.86Zm2.74.03a1.7 1.7 0 0 1-.7-.13 1.13 1.13 0 0 1-.46-.37.97.97 0 0 1-.18-.56h.54c.02.18.1.33.22.46.13.12.32.18.57.18.24 0 .43-.06.57-.18a.59.59 0 0 0 .2-.46.52.52 0 0 0-.11-.36.78.78 0 0 0-.3-.2c-.13-.06-.3-.1-.5-.16a4.47 4.47 0 0 1-.61-.2 1.02 1.02 0 0 1-.4-.31.94.94 0 0 1-.15-.58.99.99 0 0 1 .6-.93c.2-.09.42-.13.67-.13.36 0 .66.09.88.27a1 1 0 0 1 .4.72h-.56a.59.59 0 0 0-.23-.39.81.81 0 0 0-.54-.17.78.78 0 0 0-.51.17c-.13.1-.2.25-.2.45 0 .14.04.25.11.34.09.09.18.16.3.2.12.05.28.1.49.16.25.07.46.14.61.2.16.07.29.18.4.32a.9.9 0 0 1 .16.58c0 .18-.05.36-.14.53-.1.16-.25.3-.45.4-.2.1-.42.15-.69.15Zm5.25-2.75c0 .32-.11.58-.33.8-.22.2-.55.31-1 .31h-.74v1.6h-.5v-3.84h1.24c.43 0 .76.1.99.31.22.21.34.48.34.82Zm-1.33.7c.28 0 .48-.06.62-.19.13-.12.2-.3.2-.52 0-.47-.28-.7-.82-.7h-.74v1.4h.74Zm3.12-1.83v3.85h-.5v-3.85h.5Zm3.54 3.85-.92-1.58h-.6v1.58h-.5v-3.85h1.24c.29 0 .53.05.73.15a1.03 1.03 0 0 1 .6.98c0 .27-.08.5-.23.7-.15.2-.38.34-.68.4l.96 1.62h-.6Zm-1.52-1.98h.74c.27 0 .47-.07.6-.2a.7.7 0 0 0 .21-.54.7.7 0 0 0-.2-.53c-.13-.12-.34-.19-.61-.19h-.74v1.46Zm4.02-1.87v3.85h-.5v-3.85h.5Zm4.54 3.85h-.5L61.1 18.3v3.07h-.5v-3.86h.5l2.02 3.06v-3.06h.5v3.86Zm4.43-2.74c-.1-.22-.26-.4-.46-.51a1.43 1.43 0 0 0-1.43 0c-.22.12-.39.3-.51.53-.13.22-.19.49-.19.79 0 .3.06.57.19.8.12.22.29.4.5.52.22.13.46.19.73.19.38 0 .69-.12.93-.34.24-.22.38-.53.42-.91H66.7v-.4h2.07v.38a1.93 1.93 0 0 1-.97 1.5c-.27.14-.58.22-.92.22a1.88 1.88 0 0 1-1.93-1.96 2 2 0 0 1 .25-1.01 1.92 1.92 0 0 1 1.68-.95c.41 0 .77.1 1.08.3.32.2.55.49.7.85h-.6Zm4.68-1.11v3.85h-.5v-3.85h.5Zm4.54 3.85h-.5l-2.02-3.07v3.07h-.5v-3.86h.5l2.02 3.06v-3.06h.5v3.86Zm4.55 0h-.5l-2.03-3.07v3.07h-.5v-3.86h.5l2.02 3.06v-3.06h.5v3.86Zm3.26.03c-.36 0-.68-.08-.98-.24a1.88 1.88 0 0 1-.95-1.72 2 2 0 0 1 .25-1.01 1.92 1.92 0 0 1 1.68-.95 1.9 1.9 0 0 1 1.68.95c.17.3.25.63.25 1.01s-.08.72-.25 1.02a1.84 1.84 0 0 1-1.68.94Zm0-.43a1.36 1.36 0 0 0 1.23-.72c.12-.24.19-.5.19-.81 0-.3-.07-.58-.19-.8a1.3 1.3 0 0 0-.5-.54 1.41 1.41 0 0 0-.73-.19 1.34 1.34 0 0 0-1.24.72c-.12.23-.18.5-.18.81 0 .3.06.57.18.8a1.35 1.35 0 0 0 1.24.73Zm6.43-3.45-1.45 3.85h-.58l-1.45-3.85h.54l1.2 3.32 1.21-3.32h.53ZM95 20.52h-1.68l-.3.86h-.54l1.4-3.83h.58l1.38 3.83h-.53l-.3-.86Zm-.14-.4-.7-1.95-.7 1.94h1.4Zm4.62-2.59v.4h-1.05v3.45h-.5v-3.44h-1.06v-.41h2.6Zm1.78 0v3.85h-.5v-3.85h.5Zm3.26 3.88c-.36 0-.68-.08-.98-.24a1.88 1.88 0 0 1-.95-1.72 2 2 0 0 1 .25-1.01 1.93 1.93 0 0 1 1.68-.95 1.9 1.9 0 0 1 1.68.95c.17.3.25.63.25 1.01s-.08.72-.25 1.02a1.84 1.84 0 0 1-1.68.94Zm0-.43c.27 0 .51-.06.72-.19.22-.12.4-.3.51-.53.13-.24.19-.5.19-.81 0-.3-.06-.58-.19-.8a1.3 1.3 0 0 0-.5-.54 1.41 1.41 0 0 0-.73-.19 1.34 1.34 0 0 0-1.24.72c-.12.23-.18.5-.18.81 0 .3.06.57.19.8a1.34 1.34 0 0 0 1.23.73Zm6.28.4h-.5l-2.02-3.07v3.07h-.5v-3.86h.5l2.02 3.06v-3.06h.5v3.86Z" fill="#2B2D63"/><path d="m46.62 2.98-3.93 10.7h-2.6l-3.93-10.7h2.3l2.95 8.51 2.92-8.5h2.29Zm3.55 0v10.7h-2.14V2.98h2.14Zm5.94 10.81a5.2 5.2 0 0 1-2.02-.38 3.32 3.32 0 0 1-1.41-1.1 2.9 2.9 0 0 1-.54-1.7h2.3c.03.43.18.78.46 1.03.29.26.67.39 1.16.39.5 0 .9-.12 1.19-.36.28-.24.42-.56.42-.95 0-.31-.1-.57-.29-.78-.2-.2-.44-.36-.73-.47a8.75 8.75 0 0 0-1.2-.4c-.7-.2-1.26-.4-1.7-.6-.43-.2-.8-.5-1.12-.9-.3-.41-.46-.96-.46-1.63 0-.63.16-1.19.48-1.66.31-.47.76-.82 1.33-1.07a4.77 4.77 0 0 1 1.96-.38c1.1 0 2 .27 2.69.81a2.95 2.95 0 0 1 1.14 2.24h-2.36a1.2 1.2 0 0 0-.47-.9 1.7 1.7 0 0 0-1.15-.37c-.42 0-.76.1-1.01.32-.25.21-.37.52-.37.93 0 .29.1.53.28.72.19.19.42.34.7.46.29.12.69.25 1.2.4a11 11 0 0 1 1.7.62c.44.2.82.5 1.13.92.32.4.48.94.48 1.6a3.03 3.03 0 0 1-1.75 2.78c-.57.29-1.25.43-2.04.43Zm7.92-10.81v10.7h-2.15V2.98h2.15Zm7.21 10.81c-1 0-1.92-.24-2.76-.7a5.28 5.28 0 0 1-2.73-4.79 5.4 5.4 0 0 1 5.49-5.47c1 0 1.93.23 2.76.7a5.4 5.4 0 0 1 2.7 4.77c0 1.05-.24 2-.74 2.84A5.17 5.17 0 0 1 74 13.08c-.84.47-1.76.7-2.76.7Zm0-1.92c.64 0 1.2-.14 1.7-.43.49-.3.87-.71 1.15-1.25a4.1 4.1 0 0 0 .41-1.89 4 4 0 0 0-.41-1.87 2.94 2.94 0 0 0-1.15-1.24 3.32 3.32 0 0 0-1.7-.43 3.4 3.4 0 0 0-1.72.43 3 3 0 0 0-1.15 1.24 4 4 0 0 0-.41 1.87c0 .72.13 1.35.41 1.89.28.54.66.96 1.15 1.25.5.29 1.07.43 1.72.43Zm16.34 1.81h-2.14l-4.86-7.34v7.34h-2.15V2.97h2.15l4.86 7.35V2.97h2.14v10.71Z" fill="#0B4BA0"/><path d="M91.58 3.03v10.65h-1.75V3.03h1.75Zm8.84 8.47h-4.46l-.77 2.18h-1.82l3.82-10.67h2.02l3.82 10.67h-1.84l-.77-2.18Zm-.49-1.42L98.2 5.13l-1.75 4.95h3.48Zm8.39 3.71c-.71 0-1.36-.12-1.93-.37a3.23 3.23 0 0 1-1.35-1.07 2.7 2.7 0 0 1-.49-1.61h1.87c.04.46.22.84.54 1.13.32.3.78.45 1.36.45.6 0 1.08-.15 1.41-.43.34-.3.5-.68.5-1.14 0-.35-.1-.65-.31-.87-.2-.23-.47-.4-.79-.52-.3-.12-.73-.26-1.28-.4-.7-.18-1.27-.37-1.7-.55-.44-.2-.8-.5-1.1-.9a2.43 2.43 0 0 1-.47-1.59 2.83 2.83 0 0 1 1.75-2.66 4.67 4.67 0 0 1 1.92-.37c1.03 0 1.87.26 2.52.78a2.82 2.82 0 0 1 1.1 2.12h-1.92a1.4 1.4 0 0 0-.56-1 2.04 2.04 0 0 0-1.33-.41c-.5 0-.9.12-1.23.38-.31.25-.47.62-.47 1.1 0 .33.1.6.29.82.2.2.46.36.77.49.3.12.72.25 1.25.4.7.19 1.28.38 1.72.58a2.57 2.57 0 0 1 1.61 2.51c0 .54-.15 1.05-.44 1.53-.29.48-.71.87-1.28 1.17-.55.29-1.2.43-1.96.43Z" fill="#E00B1A"/></svg>
