<svg width="46" height="46" viewBox="0 0 46 46" fill="none" xmlns="http://www.w3.org/2000/svg">
<g filter="url(#filter0_d_2_1858)">
<rect x="4" y="4" width="38" height="38" rx="4" fill="white"/>
</g>
<path d="M19.6 13C19.6 12.7791 19.7791 12.6 20 12.6H33C33.2209 12.6 33.4 12.7791 33.4 13V17C33.4 17.2209 33.2209 17.4 33 17.4H20C19.7791 17.4 19.6 17.2209 19.6 17V13ZM12.6 13C12.6 12.7791 12.7791 12.6 13 12.6H17C17.2209 12.6 17.4 12.7791 17.4 13V17C17.4 17.2209 17.2209 17.4 17 17.4H13C12.7791 17.4 12.6 17.2209 12.6 17V13ZM12.6 21C12.6 20.7791 12.7791 20.6 13 20.6H17C17.2209 20.6 17.4 20.7791 17.4 21V25C17.4 25.2209 17.2209 25.4 17 25.4H13C12.7791 25.4 12.6 25.2209 12.6 25V21ZM12.6 29C12.6 28.7791 12.7791 28.6 13 28.6H17C17.2209 28.6 17.4 28.7791 17.4 29V33C17.4 33.2209 17.2209 33.4 17 33.4H13C12.7791 33.4 12.6 33.2209 12.6 33V29ZM19.6 21C19.6 20.7791 19.7791 20.6 20 20.6H33C33.2209 20.6 33.4 20.7791 33.4 21V25C33.4 25.2209 33.2209 25.4 33 25.4H20C19.7791 25.4 19.6 25.2209 19.6 25V21ZM19.6 29C19.6 28.7791 19.7791 28.6 20 28.6H33C33.2209 28.6 33.4 28.7791 33.4 29V33C33.4 33.2209 33.2209 33.4 33 33.4H20C19.7791 33.4 19.6 33.2209 19.6 33V29Z" stroke="#8F93A3" stroke-width="1.2"/>
<defs>
<filter id="filter0_d_2_1858" x="0" y="0" width="46" height="46" filterUnits="userSpaceOnUse" color-interpolation-filters="sRGB">
<feFlood flood-opacity="0" result="BackgroundImageFix"/>
<feColorMatrix in="SourceAlpha" type="matrix" values="0 0 0 0 0 0 0 0 0 0 0 0 0 0 0 0 0 0 127 0" result="hardAlpha"/>
<feOffset/>
<feGaussianBlur stdDeviation="2"/>
<feColorMatrix type="matrix" values="0 0 0 0 0 0 0 0 0 0 0 0 0 0 0 0 0 0 0.08 0"/>
<feBlend mode="normal" in2="BackgroundImageFix" result="effect1_dropShadow_2_1858"/>
<feBlend mode="normal" in="SourceGraphic" in2="effect1_dropShadow_2_1858" result="shape"/>
</filter>
</defs>
</svg>
