<svg width="210" height="140" viewBox="0 0 210 140" fill="none" xmlns="http://www.w3.org/2000/svg">
<path d="M66 4C71.52 4 76 8.48 76 14C76 19.52 71.52 24 66 24C60.48 24 56 19.52 56 14C56 8.48 60.48 4 66 4ZM66 22C70.42 22 74 18.42 74 14C74 9.58 70.42 6 66 6C61.58 6 58 9.58 58 14C58 18.42 61.58 22 66 22ZM66 13H70V15H66V18L62 14L66 10V13Z" fill="black"/>
<path d="M92 4C97.52 4 102 8.48 102 14C102 19.52 97.52 24 92 24C86.48 24 82 19.52 82 14C82 8.48 86.48 4 92 4ZM92 13H88V15H92V18L96 14L92 10V13Z" fill="black"/>
<path d="M65 73V67H67V73H73V75H67V81H65V75H59V73H65Z" fill="#8F93A3"/>
<path d="M18 30.6666C10.64 30.6666 4.66669 36.64 4.66669 44C4.66669 51.36 10.64 57.3333 18 57.3333C25.36 57.3333 31.3334 51.36 31.3334 44C31.3334 36.64 25.36 30.6666 18 30.6666Z" fill="#47A83E"/>
<path d="M23.6036 38.325C22.1071 36.825 20.1143 36 17.9964 36C13.625 36 10.0679 39.5571 10.0679 43.9286C10.0679 45.325 10.4321 46.6893 11.125 47.8929L10 52L14.2036 50.8964C15.3607 51.5286 16.6643 51.8607 17.9929 51.8607H17.9964C22.3643 51.8607 26 48.3036 26 43.9321C26 41.8143 25.1 39.825 23.6036 38.325ZM17.9964 50.525C16.8107 50.525 15.65 50.2071 14.6393 49.6071L14.4 49.4643L11.9071 50.1179L12.5714 47.6857L12.4143 47.4357C11.7536 46.3857 11.4071 45.175 11.4071 43.9286C11.4071 40.2964 14.3643 37.3393 18 37.3393C19.7607 37.3393 21.4143 38.025 22.6571 39.2714C23.9 40.5179 24.6643 42.1714 24.6607 43.9321C24.6607 47.5679 21.6286 50.525 17.9964 50.525ZM21.6107 45.5893C21.4143 45.4893 20.4393 45.0107 20.2571 44.9464C20.075 44.8786 19.9429 44.8464 19.8107 45.0464C19.6786 45.2464 19.3 45.6893 19.1821 45.825C19.0679 45.9571 18.95 45.975 18.7536 45.875C17.5893 45.2929 16.825 44.8357 16.0571 43.5179C15.8536 43.1679 16.2607 43.1929 16.6393 42.4357C16.7036 42.3036 16.6714 42.1893 16.6214 42.0893C16.5714 41.9893 16.175 41.0143 16.0107 40.6179C15.85 40.2321 15.6857 40.2857 15.5643 40.2786C15.45 40.2714 15.3179 40.2714 15.1857 40.2714C15.0536 40.2714 14.8393 40.3214 14.6571 40.5179C14.475 40.7179 13.9643 41.1964 13.9643 42.1714C13.9643 43.1464 14.675 44.0893 14.7714 44.2214C14.8714 44.3536 16.1679 46.3536 18.1571 47.2143C19.4143 47.7571 19.9071 47.8036 20.5357 47.7107C20.9179 47.6536 21.7071 47.2321 21.8714 46.7679C22.0357 46.3036 22.0357 45.9071 21.9857 45.825C21.9393 45.7357 21.8071 45.6857 21.6107 45.5893Z" fill="white"/>
<path d="M52 30.6666C44.64 30.6666 38.6667 36.64 38.6667 44C38.6667 51.36 44.64 57.3333 52 57.3333C59.36 57.3333 65.3334 51.36 65.3334 44C65.3334 36.64 59.36 30.6666 52 30.6666ZM58.1867 39.7333C57.9867 41.84 57.12 46.96 56.68 49.32C56.4934 50.32 56.12 50.6533 55.7734 50.6933C55 50.76 54.4134 50.1866 53.6667 49.6933C52.4934 48.92 51.8267 48.44 50.6934 47.6933C49.3734 46.8266 50.2267 46.3466 50.9867 45.5733C51.1867 45.3733 54.6 42.2666 54.6667 41.9866C54.6759 41.9442 54.6747 41.9002 54.6631 41.8584C54.6515 41.8165 54.6298 41.7782 54.6 41.7466C54.52 41.68 54.4134 41.7066 54.32 41.72C54.2 41.7466 52.3334 42.9866 48.6934 45.44C48.16 45.8 47.68 45.9866 47.2534 45.9733C46.7734 45.96 45.8667 45.7066 45.1867 45.48C44.3467 45.2133 43.6934 45.0666 43.7467 44.6C43.7734 44.36 44.1067 44.12 44.7334 43.8666C48.6267 42.1733 51.2134 41.0533 52.5067 40.52C56.2134 38.9733 56.9734 38.7066 57.48 38.7066C57.5867 38.7066 57.84 38.7333 58 38.8666C58.1334 38.9733 58.1734 39.12 58.1867 39.2266C58.1734 39.3066 58.2 39.5466 58.1867 39.7333Z" fill="#1D93EA"/>
<path d="M99.3334 44C99.3334 36.64 93.36 30.6666 86 30.6666C78.64 30.6666 72.6667 36.64 72.6667 44C72.6667 50.3468 77.1033 55.649 83.0337 57.0019C83.1879 57.0371 83.3334 56.9186 83.3334 56.7605V48.25C83.3334 48.1119 83.2214 48 83.0834 48H80.9167C80.7786 48 80.6667 47.888 80.6667 47.75V44.25C80.6667 44.1119 80.7786 44 80.9167 44H83.0834C83.2214 44 83.3334 43.888 83.3334 43.75V40.6666C83.3334 38.0933 85.4267 36 88 36H91.0834C91.2214 36 91.3334 36.1119 91.3334 36.25V39.75C91.3334 39.888 91.2214 40 91.0834 40H88.6667C87.9334 40 87.3334 40.6 87.3334 41.3333V43.75C87.3334 43.888 87.4453 44 87.5834 44H91.0834C91.2214 44 91.3334 44.1119 91.3334 44.25V47.75C91.3334 47.888 91.2214 48 91.0834 48H87.5834C87.4453 48 87.3334 48.1119 87.3334 48.25V56.9906C87.3334 57.1385 87.4616 57.2541 87.6084 57.2365C94.2095 56.4446 99.3334 50.8255 99.3334 44Z" fill="#427CFA"/>
<path fill-rule="evenodd" clip-rule="evenodd" d="M106.667 44C106.667 36.64 112.64 30.6666 120 30.6666C127.36 30.6666 133.333 36.64 133.333 44C133.333 51.36 127.36 57.3333 120 57.3333C112.64 57.3333 106.667 51.36 106.667 44ZM113.304 51L118.265 45.073L113 37H117.87L121.002 41.8029L125.022 37H126.848L121.802 43.0292L127 51H122.13L119.065 46.2992L115.13 51H113.304ZM117.165 38.5H115.661L122.835 49.5H124.339L117.165 38.5Z" fill="#040404"/>
<path fill-rule="evenodd" clip-rule="evenodd" d="M140.667 44C140.667 36.64 146.64 30.6666 154 30.6666C161.36 30.6666 167.333 36.64 167.333 44C167.333 51.36 161.36 57.3333 154 57.3333C146.64 57.3333 140.667 51.36 140.667 44ZM156.828 38.0544C155.692 38.0116 154.623 38.0019 154.196 37.9996H153.805C152.901 38.0041 149.119 38.0424 147.916 38.3567C147.163 38.5524 146.568 39.1337 146.365 39.8725C146.045 41.0418 146.005 43.3242 146 43.877V44.1215C146.005 44.6743 146.045 46.9559 146.365 48.126C146.566 48.8626 147.16 49.4431 147.915 49.6426C149.119 49.9561 152.9 49.9944 153.804 49.9996H154.008L154.196 49.9989C154.623 49.9974 155.692 49.9869 156.828 49.9449L157.231 49.9276C158.374 49.8774 159.517 49.7904 160.084 49.6426C160.837 49.4461 161.431 48.8648 161.635 48.126C161.955 46.9567 161.995 44.6743 162 44.1215V43.991L161.999 43.877C161.995 43.3242 161.955 41.0426 161.635 39.8725C161.434 39.136 160.84 38.5554 160.084 38.3559C159.517 38.2081 158.374 38.1211 157.231 38.0709L156.828 38.0544ZM157.2 44L152.4 46.6252V41.3748L157.2 44Z" fill="#ED1B24"/>
<path fill-rule="evenodd" clip-rule="evenodd" d="M174.667 44C174.667 36.64 180.64 30.6666 188 30.6666C195.36 30.6666 201.333 36.64 201.333 44C201.333 51.36 195.36 57.3333 188 57.3333C180.64 57.3333 174.667 51.36 174.667 44ZM184.703 36.0476C185.556 36.0096 185.829 35.9996 188 35.9996H187.998C190.172 35.9996 190.443 36.0096 191.297 36.0476C192.148 36.0866 192.73 36.2216 193.24 36.4196C193.774 36.6203 194.258 36.9353 194.657 37.3426C195.064 37.7423 195.379 38.2259 195.58 38.7596C195.777 39.2676 195.912 39.8496 195.952 40.7006C195.99 41.5546 196 41.8266 196 43.9996C196 46.1726 195.99 46.4446 195.952 47.2976C195.912 48.1496 195.777 48.7306 195.58 49.2396C195.375 49.7656 195.102 50.2116 194.657 50.6566C194.258 51.0637 193.775 51.3787 193.241 51.5796C192.732 51.7776 192.149 51.9116 191.298 51.9516C190.444 51.9896 190.173 51.9996 188 51.9996C185.827 51.9996 185.555 51.9896 184.701 51.9516C183.849 51.9126 183.269 51.7776 182.759 51.5796C182.233 51.3756 181.787 51.1016 181.343 50.6566C180.898 50.2116 180.625 49.7656 180.42 49.2396C180.222 48.7306 180.088 48.1496 180.048 47.2976C180.01 46.4446 180 46.1726 180 44.0006C180 41.8266 180.01 41.5546 180.048 40.6996C180.087 39.8496 180.222 39.2676 180.42 38.7596C180.621 38.2259 180.936 37.7423 181.343 37.3426C181.743 36.9355 182.226 36.6205 182.76 36.4196C183.269 36.2216 183.85 36.0876 184.703 36.0476ZM188.001 37.4416H187.283V37.4396C185.792 37.4406 185.506 37.4506 184.768 37.4846C183.988 37.5206 183.565 37.6506 183.283 37.7606C182.909 37.9056 182.643 38.0786 182.363 38.3586C182.083 38.6386 181.909 38.9056 181.764 39.2786C181.654 39.5606 181.524 39.9846 181.488 40.7646C181.45 41.6076 181.442 41.8596 181.442 43.9956C181.442 46.1326 181.45 46.3856 181.488 47.2286C181.523 48.0086 181.654 48.4326 181.763 48.7136C181.892 49.0613 182.097 49.3757 182.363 49.6336C182.621 49.8992 182.936 50.1036 183.283 50.2316C183.565 50.3416 183.988 50.4716 184.768 50.5076C185.611 50.5456 185.865 50.5546 188.001 50.5546C190.137 50.5546 190.39 50.5456 191.233 50.5076C192.014 50.4716 192.438 50.3416 192.718 50.2316C193.092 50.0866 193.358 49.9136 193.638 49.6336C193.904 49.3761 194.109 49.062 194.237 48.7146C194.346 48.4326 194.477 48.0096 194.512 47.2296C194.551 46.3866 194.559 46.1326 194.559 43.9976C194.559 41.8626 194.551 41.6096 194.512 40.7666C194.477 39.9866 194.347 39.5626 194.237 39.2816C194.092 38.9076 193.919 38.6416 193.639 38.3616C193.359 38.0816 193.092 37.9076 192.719 37.7626C192.437 37.6536 192.013 37.5226 191.233 37.4876C190.39 37.4486 190.137 37.4416 188.001 37.4416ZM191.904 38.8427C192.02 38.7945 192.145 38.7696 192.271 38.7696C192.526 38.7696 192.77 38.8708 192.95 39.0508C193.13 39.2308 193.231 39.475 193.231 39.7296C193.231 39.9842 193.13 40.2284 192.95 40.4085C192.77 40.5885 192.526 40.6896 192.271 40.6896C192.145 40.6896 192.02 40.6648 191.904 40.6166C191.787 40.5683 191.682 40.4976 191.592 40.4085C191.503 40.3193 191.433 40.2135 191.384 40.097C191.336 39.9805 191.311 39.8557 191.311 39.7296C191.311 39.6036 191.336 39.4787 191.384 39.3623C191.433 39.2458 191.503 39.14 191.592 39.0508C191.682 38.9617 191.787 38.891 191.904 38.8427ZM186.409 40.1858C186.915 39.9831 187.456 39.8831 188.001 39.8916C189.08 39.9085 190.108 40.3487 190.865 41.1174C191.622 41.886 192.046 42.9215 192.046 44.0001C192.046 45.0788 191.622 46.1142 190.865 46.8829C190.108 47.6515 189.08 48.0918 188.001 48.1086C187.456 48.1171 186.915 48.0171 186.409 47.8145C185.903 47.6118 185.443 47.3106 185.054 46.9282C184.666 46.5459 184.358 46.0901 184.147 45.5874C183.937 45.0847 183.828 44.5451 183.828 44.0001C183.828 43.4551 183.937 42.9156 184.147 42.4129C184.358 41.9102 184.666 41.4544 185.054 41.0721C185.443 40.6897 185.903 40.3884 186.409 40.1858ZM189.887 42.1138C189.387 41.6136 188.709 41.3326 188.001 41.3326C187.294 41.3326 186.615 41.6136 186.115 42.1138C185.615 42.6139 185.334 43.2923 185.334 43.9996C185.334 44.707 185.615 45.3853 186.115 45.8855C186.615 46.3856 187.294 46.6666 188.001 46.6666C188.709 46.6666 189.387 46.3856 189.887 45.8855C190.387 45.3853 190.668 44.707 190.668 43.9996C190.668 43.2923 190.387 42.6139 189.887 42.1138Z" fill="#040404"/>
<path d="M179 65C179.552 65 180 65.4477 180 66V80C180 80.5523 179.552 81 179 81H164.455L160 84.5V66C160 65.4477 160.448 65 161 65H179ZM178 67H162V80.385L163.763 79H178V67ZM168.515 69.4116L168.962 70.1004C167.294 71.0027 167.323 72.4519 167.323 72.7645C167.478 72.7431 167.641 72.7403 167.802 72.7553C168.704 72.8389 169.416 73.5795 169.416 74.5C169.416 75.4665 168.632 76.25 167.666 76.25C167.129 76.25 166.616 76.0048 166.292 75.6605C165.777 75.1137 165.5 74.5 165.5 73.5052C165.5 71.7554 166.728 70.1868 168.515 69.4116ZM173.515 69.4116L173.962 70.1004C172.294 71.0027 172.323 72.4519 172.323 72.7645C172.478 72.7431 172.641 72.7403 172.802 72.7553C173.704 72.8389 174.416 73.5795 174.416 74.5C174.416 75.4665 173.632 76.25 172.666 76.25C172.129 76.25 171.616 76.0048 171.292 75.6605C170.777 75.1137 170.5 74.5 170.5 73.5052C170.5 71.7554 171.728 70.1868 173.515 69.4116Z" fill="white"/>
<path d="M190.414 77.89L200.556 67.7479L199.142 66.3337L189 76.4758V77.89H190.414ZM191.243 79.89H187V75.6474L198.435 64.2123C198.826 63.8218 199.459 63.8218 199.849 64.2123L202.678 67.0408C203.068 67.4313 203.068 68.0644 202.678 68.455L191.243 79.89ZM187 81.89H205V83.89H187V81.89Z" fill="white"/>
<path d="M134 13.0196L134.98 9.45923M140.863 13.0196L139.934 9.45923M134.98 9.45923L136.484 4H138.51L139.934 9.45923M134.98 9.45923H139.934" stroke="#8F93A3" stroke-width="2"/>
<path d="M144.261 16.2874C147.856 12.6272 151.222 18.9999 146.222 19.5555M146.222 19.5555C151.222 20.6666 147.399 26.5979 144.261 22.5127M146.222 19.5555L151.843 19.4901M151.843 19.4901V15.307H154M151.843 19.4901V24.0001" stroke="#8F93A3" stroke-width="2"/>
<path d="M144.98 7.2677C148.118 7.2677 148.706 7.52914 148.706 10.6664" stroke="#8F93A3" stroke-width="2"/>
<path d="M140.797 19.49C137.66 19.49 137.072 19.2286 137.072 16.0913" stroke="#8F93A3" stroke-width="2"/>
<g clip-path="url(#clip0_631_1299)">
<rect x="3" y="63" width="22" height="22" stroke="#8F93A3" stroke-width="2"/>
<path d="M8.97869 79H7.34801L11.0121 68.8182H12.7869L16.451 79H14.8203L11.9418 70.6676H11.8622L8.97869 79ZM9.25213 75.0128H14.5419V76.3054H9.25213V75.0128ZM17.428 73.4964V69.196H18.467V73.4964H17.428ZM15.6879 71.8558V70.8366H20.1822V71.8558H15.6879Z" fill="#8F93A3"/>
</g>
<g clip-path="url(#clip1_631_1299)">
<rect x="29" y="63" width="22" height="22" stroke="#8F93A3" stroke-width="2"/>
<path d="M34.9787 79H33.348L37.0121 68.8182H38.7869L42.451 79H40.8203L37.9418 70.6676H37.8622L34.9787 79ZM35.2521 75.0128H40.5419V76.3054H35.2521V75.0128ZM46.1822 70.8366V71.8558H41.6879V70.8366H46.1822Z" fill="#8F93A3"/>
</g>
<path d="M152 84H150V82C150 80.3431 148.657 79 147 79H141C139.343 79 138 80.3431 138 82V84H136V82C136 79.2386 138.239 77 141 77H147C149.761 77 152 79.2386 152 82V84ZM144 75C140.686 75 138 72.3137 138 69C138 65.6863 140.686 63 144 63C147.314 63 150 65.6863 150 69C150 72.3137 147.314 75 144 75ZM144 73C146.209 73 148 71.2091 148 69C148 66.7909 146.209 65 144 65C141.791 65 140 66.7909 140 69C140 71.2091 141.791 73 144 73Z" fill="#040404"/>
<path d="M21 109H7C6.44772 109 6 108.552 6 108V99.0001H3L13.3273 89.6116C13.7087 89.2649 14.2913 89.2649 14.6727 89.6116L25 99.0001H22V108C22 108.552 21.5523 109 21 109ZM15 107H20V97.1576L14 91.703L8 97.1576V107H13V101H15V107Z" fill="#005FAF"/>
<path d="M165.333 7.33337C168.645 7.33337 171.333 10.0214 171.333 13.3334C171.333 16.6454 168.645 19.3334 165.333 19.3334C162.021 19.3334 159.333 16.6454 159.333 13.3334C159.333 10.0214 162.021 7.33337 165.333 7.33337ZM165.333 18C167.912 18 170 15.9117 170 13.3334C170 10.755 167.912 8.66671 165.333 8.66671C162.755 8.66671 160.667 10.755 160.667 13.3334C160.667 15.9117 162.755 18 165.333 18ZM170.99 18.0474L172.876 19.933L171.933 20.8758L170.047 18.9902L170.99 18.0474Z" fill="#8F93A3"/>
<path d="M96.9337 70.9649C96.426 67.0356 93.0675 64 89 64C84.5817 64 81 67.5817 81 72C81 73.8924 81.6571 75.6313 82.7555 77.0011C83.5635 78.0087 84.0003 79.1252 84.0002 80.3061L84 84H93L93.001 81H95C96.1046 81 97 80.1046 97 79V76.071L98.9593 75.2317C99.3025 75.0847 99.3324 74.7367 99.1842 74.5037L96.9337 70.9649ZM83 72C83 68.6863 85.6863 66 89 66C92.0243 66 94.5665 68.2514 94.9501 71.2212L95.0072 71.6626L96.5497 74.0881L95 74.7519V79H91.0017L91.0007 82H86.0001L86.0002 80.3063C86.0004 78.6672 85.4097 77.114 84.3158 75.7499C83.4682 74.6929 83 73.3849 83 72ZM101.153 80.1024L99.4893 78.9929C100.444 77.5642 101 75.8471 101 74.0001C101 72.153 100.444 70.4359 99.4893 69.0072L101.153 67.8977C102.32 69.6439 103 71.7425 103 74.0001C103 76.2576 102.32 78.3562 101.153 80.1024Z" fill="#8F93A3"/>
<path d="M111 4H125C125.552 4 126 4.44772 126 5V24.1433C126 24.4194 125.776 24.6434 125.5 24.6434C125.406 24.6434 125.314 24.6168 125.234 24.5669L118 20.0313L110.766 24.5669C110.532 24.7136 110.223 24.6429 110.076 24.4089C110.026 24.3293 110 24.2373 110 24.1433V5C110 4.44772 110.448 4 111 4ZM124 6H112V21.4324L118 17.6707L124 21.4324V6Z" fill="#8F93A3"/>
<path d="M188 24V22H181V6H191V10H195V17H197V9L192 4H179.999C179.447 4 179 4.44405 179 4.9918V23.0082C179 23.5447 179.445 24 179.993 24H188Z" fill="#8F93A3"/>
<path d="M189.465 21.2929L193 24.8284L197.95 19.8787L196.535 18.4644L193 22L190.879 19.8787L189.465 21.2929Z" fill="#8F93A3"/>
<path d="M187 8H184V10H187V8Z" fill="#8F93A3"/>
<path d="M192 12V14H184V12H192Z" fill="#8F93A3"/>
<path d="M192 16V18H184V16H192Z" fill="#8F93A3"/>
<path d="M114 65V67H110V71H108V65H114ZM108 83V77H110V81H114V83H108ZM128 83H122V81H126V77H128V83ZM128 71H126V67H122V65H128V71Z" fill="#8F93A3"/>
<path d="M31.9985 90C31.4475 90 31 90.4441 31 90.9918V109.008C31 109.545 31.4448 110 31.9934 110H48.0066C48.5551 110 49 109.549 49 108.993L48.9997 95L44 90H31.9985ZM38.5 95.5H40.5C40.5 97.9899 42.6436 100.66 45.3162 101.551L44.8586 103.49C41.7234 103.042 38.4821 104.38 35.5547 106.332L34.3753 104.719C35.4615 103.85 36.5029 102.376 37.275 100.653C38.0443 98.9373 38.5 97.0775 38.5 95.5ZM39.1 101.472C39.3673 100.875 39.6043 100.256 39.8037 99.6285C40.2754 100.353 40.8553 101.018 41.5102 101.595C40.5284 101.771 39.5666 102.06 38.6353 102.428C38.8 102.114 38.9551 101.795 39.1 101.472Z" fill="#FD2B44"/>
<path d="M22 24H6C5.44772 24 5 23.5523 5 23V5C5 4.44772 5.44772 4 6 4H22C22.5523 4 23 4.44772 23 5V23C23 23.5523 22.5523 24 22 24ZM21 22V6H7V22H21ZM9 8H13V12H9V8ZM9 14H19V16H9V14ZM9 18H19V20H9V18ZM15 9H19V11H15V9Z" fill="#8F93A3"/>
<path d="M41 23V25H39V23H31C30.4477 23 30 22.5523 30 22V6C30 5.44772 30.4477 5 31 5H37C38.1947 5 39.2671 5.52375 40 6.35418C40.7329 5.52375 41.8053 5 43 5H49C49.5523 5 50 5.44772 50 6V22C50 22.5523 49.5523 23 49 23H41ZM48 21V7H43C41.8954 7 41 7.89543 41 9V21H48ZM39 21V9C39 7.89543 38.1046 7 37 7H32V21H39Z" fill="#8F93A3"/>
<g clip-path="url(#clip2_631_1299)">
<path d="M66 101.172L70.95 96.222L72.364 97.636L66 104L59.636 97.636L61.05 96.222L66 101.172Z" fill="#8F93A3"/>
</g>
<path d="M92.0007 98.5865L96.9504 93.6367L98.3646 95.0509L93.4149 100.001L98.3646 104.95L96.9504 106.365L92.0007 101.415L87.0509 106.365L85.6367 104.95L90.5865 100.001L85.6367 95.0509L87.0509 93.6367L92.0007 98.5865Z" fill="black"/>
<path d="M118.172 100.001L115.343 97.172L116.758 95.7578L121 100.001L116.758 104.243L115.343 102.829L118.172 100.001Z" fill="#8F93A3"/>
<path d="M144.172 100.001L141.343 97.172L142.758 95.7578L147 100.001L142.758 104.243L141.343 102.829L144.172 100.001Z" fill="black"/>
<path d="M177.376 100.416L166.777 107.482C166.548 107.635 166.237 107.573 166.084 107.343C166.029 107.261 166 107.164 166 107.066V92.9341C166 92.6579 166.224 92.4341 166.5 92.4341C166.599 92.4341 166.695 92.4633 166.777 92.5181L177.376 99.5838C177.606 99.737 177.668 100.047 177.515 100.277C177.478 100.332 177.431 100.379 177.376 100.416Z" fill="white"/>
<path d="M201 94H206V96H204V109C204 109.552 203.552 110 203 110H189C188.448 110 188 109.552 188 109V96H186V94H191V91C191 90.4477 191.448 90 192 90H200C200.552 90 201 90.4477 201 91V94ZM202 96H190V108H202V96ZM193 99H195V105H193V99ZM197 99H199V105H197V99ZM193 92V94H199V92H193Z" fill="#F97F85"/>
<path d="M17.7279 123.576L16.3137 122.162L7 131.476V132.89H8.41421L17.7279 123.576ZM19.1421 122.162L20.5563 120.748L19.1421 119.334L17.7279 120.748L19.1421 122.162ZM9.24264 134.89H5V130.647L18.435 117.212C18.8256 116.822 19.4587 116.822 19.8492 117.212L22.6777 120.041C23.0682 120.431 23.0682 121.064 22.6777 121.455L9.24264 134.89Z" fill="#8F93A3"/>
<path d="M41 124H46L40 130L34 124H39V117H41V124ZM32 133H48V126H50V134C50 134.552 49.5523 135 49 135H31C30.4477 135 30 134.552 30 134V126H32V133Z" fill="#8F93A3"/>
<path d="M66.0003 117C71.3924 117 75.8784 120.88 76.8189 126C75.8784 131.12 71.3924 135 66.0003 135C60.6081 135 56.1222 131.12 55.1816 126C56.1222 120.88 60.6081 117 66.0003 117ZM66.0003 133C70.2359 133 73.8603 130.052 74.7777 126C73.8603 121.948 70.2359 119 66.0003 119C61.7646 119 58.1402 121.948 57.2228 126C58.1402 130.052 61.7646 133 66.0003 133ZM66.0003 130.5C63.515 130.5 61.5003 128.485 61.5003 126C61.5003 123.515 63.515 121.5 66.0003 121.5C68.4855 121.5 70.5003 123.515 70.5003 126C70.5003 128.485 68.4855 130.5 66.0003 130.5ZM66.0003 128.5C67.381 128.5 68.5003 127.381 68.5003 126C68.5003 124.619 67.381 123.5 66.0003 123.5C64.6196 123.5 63.5003 124.619 63.5003 126C63.5003 127.381 64.6196 128.5 66.0003 128.5Z" fill="#8F93A3"/>
<path d="M93.1202 131.023L88.9213 128.732C88.1914 129.512 87.1526 130 86 130C83.7909 130 82 128.209 82 126C82 123.791 83.7909 122 86 122C87.1525 122 88.1912 122.487 88.9212 123.267L93.1202 120.977C93.0417 120.664 93 120.337 93 120C93 117.791 94.7909 116 97 116C99.2091 116 101 117.791 101 120C101 122.209 99.2091 124 97 124C95.8474 124 94.8087 123.513 94.0787 122.732L89.8798 125.023C89.9583 125.336 90 125.663 90 126C90 126.337 89.9583 126.664 89.8798 126.977L94.0788 129.267C94.8087 128.487 95.8474 128 97 128C99.2091 128 101 129.791 101 132C101 134.209 99.2091 136 97 136C94.7909 136 93 134.209 93 132C93 131.663 93.0417 131.336 93.1202 131.023ZM86 128C87.1046 128 88 127.105 88 126C88 124.895 87.1046 124 86 124C84.8954 124 84 124.895 84 126C84 127.105 84.8954 128 86 128ZM97 122C98.1046 122 99 121.105 99 120C99 118.895 98.1046 118 97 118C95.8954 118 95 118.895 95 120C95 121.105 95.8954 122 97 122ZM97 134C98.1046 134 99 133.105 99 132C99 130.895 98.1046 130 97 130C95.8954 130 95 130.895 95 132C95 133.105 95.8954 134 97 134Z" fill="white"/>
<path d="M109 118H127V120H109V118ZM109 125H127V127H109V125ZM109 132H127V134H109V132Z" fill="black"/>
<defs>
<clipPath id="clip0_631_1299">
<rect width="24" height="24" fill="white" transform="translate(2 62)"/>
</clipPath>
<clipPath id="clip1_631_1299">
<rect width="24" height="24" fill="white" transform="translate(28 62)"/>
</clipPath>
<clipPath id="clip2_631_1299">
<rect width="24" height="24" fill="white" transform="translate(54 88)"/>
</clipPath>
</defs>
</svg>
