<svg xmlns="http://www.w3.org/2000/svg" viewBox="0 0 200 60" xml:space="preserve"><g clip-path="url(#a)"><path d="M15.7 36v5a5 5 0 0 0-1.5-1.4 4 4 0 0 0-1.9-.4c-1.2 0-2.1.4-2.8 1.3a4 4 0 0 0-1.1 3c0 1.3.3 2.3 1 3.1.8.9 1.8 1.3 3 1.3a4.3 4.3 0 0 0 3.3-1.7V51a14.2 14.2 0 0 1-3.4.7 8 8 0 0 1-5.6-2.3A7.4 7.4 0 0 1 5 46.8a9 9 0 0 1 1.6-9 8 8 0 0 1 5.5-2.6h.1s0 0 0 0c.7 0 1.3 0 1.9.2l1.7.6v0h0Zm15.9-.4v8.9c0 1 0 2-.2 3s-.6 1.8-1.4 2.6c-.4.5-1 .9-1.7 1.1a7.8 7.8 0 0 1-2.6.6H24a8 8 0 0 1-2-.6c-.7-.2-1.2-.6-1.7-1.1a4.8 4.8 0 0 1-1.3-2.6l-.3-3v-8.9h3.9v8.8c0 1 .2 1.8.5 2.6.2.8 1 1.2 2.1 1.2s1.9-.4 2.2-1.2c.2-.8.4-1.6.4-2.6v-8.8h3.9ZM42.3 45l4.7 6.4h-4.8l-3.6-6h0v6h-3.9V35.6h5.8c1.4 0 2.6.4 3.6 1.2 1 .8 1.5 2 1.5 3.7 0 1-.3 2-.8 2.9-.6.8-1.4 1.4-2.5 1.5v0Zm-3.8-2.3h.8c.6 0 1-.2 1.6-.4.4-.3.7-.8.7-1.6 0-.7-.3-1.3-.7-1.5-.5-.3-1-.4-1.6-.5h-.8v4ZM56.4 45l4.6 6.4h-4.8l-3.6-6h0v6h-3.9V35.6h5.8c1.5 0 2.7.4 3.7 1.2 1 .8 1.4 2 1.4 3.7 0 1-.3 2-.8 2.9-.6.8-1.4 1.4-2.4 1.5v0Zm-3.8-2.3h.7c.6 0 1.1-.2 1.6-.4.5-.3.7-.8.7-1.6 0-.7-.2-1.3-.7-1.5-.5-.3-1-.4-1.6-.5h-.7v4Zm14-3.7v2.7h4.3v3.5h-4.3v2.7h4.6v3.5h-8.5V35.6h8.5v3.5h-4.6Zm7.6-3.4h3.9l7 9.7h0v-9.7h4v15.8h-4l-7-9.7h0v9.7h-3.9V35.6ZM98 51.4h-3.8V39.1h-3.1v-3.5h10.2v3.5H98v12.3h0Zm16.5-2.7-1 2.7h-4.1l5.7-15.8h4.2l5.6 15.8h-4.1l-1-2.7h-5.3Zm2.7-8.2h0l-1.6 5h3.2l-1.6-5Zm13.4-1.5v2.7h4.2v3.5h-4.2v6.2h-3.8V35.6h8.5v3.5h-4.7Zm11.4 0v2.7h4.1v3.5H142v6.2h-3.8V35.6h8.5v3.5H142Zm10 9.7-1 2.7h-4l5.7-15.8h4.2l5.5 15.8h-4l-1-2.7H152Zm2.8-8.2h0l-1.7 5h3.2l-1.5-5Zm13.4 10.9h-3.9V35.6h3.9v15.8ZM179 45l4.7 6.4h-4.8l-3.7-6h0v6h-3.8V35.6h5.7c1.5 0 2.7.4 3.7 1.2 1 .8 1.4 2 1.4 3.7 0 1-.2 2-.8 2.9-.6.8-1.3 1.4-2.4 1.5v0Zm-3.8-2.3h.7c.6 0 1.1-.2 1.6-.4.5-.3.7-.8.7-1.6 0-.7-.2-1.3-.7-1.5-.5-.3-1-.4-1.6-.5h-.7v4Zm19.8-6.2-1.5 3.2-1.2-.8c-.4-.2-.9-.3-1.4-.3h-.2l-.2.1c-.3 0-.6.2-.8.4a1 1 0 0 0-.4.9c0 .3.1.6.3.8l.8.5h.3l.3.2 1 .3a7 7 0 0 1 2.6 1.4c.7.7 1 1.6 1 3 0 0 0 0 0 0v.3a8 8 0 0 1-.3 2 4 4 0 0 1-1.2 1.9 5 5 0 0 1-1.7 1 8 8 0 0 1-2 .4h-.5a8.4 8.4 0 0 1-5.2-1.7l1.6-3.4c.5.5 1 .9 1.6 1.2a4 4 0 0 0 1.8.5h.2c.4 0 .8-.2 1.2-.4.3-.3.5-.7.5-1.2 0-.4-.1-.7-.4-1a3.6 3.6 0 0 0-1.5-.7l-.4-.1h-.1s0 0 0 0a8.4 8.4 0 0 1-2.9-1.4c-.7-.6-1-1.6-1-3 0-1.7.5-3 1.4-4a5 5 0 0 1 3.7-1.4 9.6 9.6 0 0 1 1.8.2 10.3 10.3 0 0 1 2.8 1.1v0h0Z" fill="#CE3232" stroke="#CE3232" class="dark:fill-white dark:stroke-white" stroke-width=".8" stroke-miterlimit="10" stroke-linecap="round" stroke-linejoin="round"/><g opacity=".1" stroke="#000" stroke-width=".5" stroke-miterlimit="10"><path d="M79.4 25.2a3 3 0 0 1-1.8.8c-.6 0-1.2-.2-1.7-.5-.6-.4-1-1-1.3-1.7-.3-.7-.4-1.6-.3-2.8a38.2 38.2 0 0 1 1.3-6.3 59.4 59.4 0 0 1 .8-3.6l-.9 1.6-1 2a57.7 57.7 0 0 0-2.9 5.4l-.9-.1c-.3 0-.6-.2-.9-.4-.3-.2-.4-.5-.4-1v-1a33 33 0 0 1 1.2-5.4 86.3 86.3 0 0 0 .6-2.6A51.7 51.7 0 0 0 66 20.4a58 58 0 0 0-1.1 3c0 .3-.3.4-.7.4-.4 0-.8 0-1.2-.3l-1-.7c-.2-.4-.3-.8-.1-1.2a122.4 122.4 0 0 0 4.4-12.7l.6-3a6 6 0 0 0 0-2c0-.5-.4-.8-.8-.8a2 2 0 0 0-1.5.7c-.6.4-1.1 1-1.6 1.8a21.6 21.6 0 0 0-2.7 5.2c-.4 1-.6 1.9-.7 2.7v2.3c.2.5.5.9 1 1 .4.2.9.1 1.4-.2 0 .3-.3.5-.6.7a3 3 0 0 1-1.2.4h-1.4c-.4-.2-.8-.4-1.2-.8a3 3 0 0 1-.7-1.3 4 4 0 0 1 0-2.2 20 20 0 0 1 3.4-7.9A13 13 0 0 1 63 2.7c1-.8 2.2-1.1 3.3-1.1.8 0 1.5.2 2 .6.4.5.7 1 .9 1.7.1.6.2 1.4.1 2.2a18.5 18.5 0 0 1-1 5l-.6 1.9a57.8 57.8 0 0 1 4.4-7.8l1.2-1.7c.2-.2.4-.3.8-.2.3 0 .6.2 1 .5l.7.8c.2.3.2.5.1.7L74.7 8a40.4 40.4 0 0 0-1.6 5.2l-.3 1.5.7-1.3 1.2-2.2a217.4 217.4 0 0 1 4.8-7.8l1.1-1.5h.7a3.4 3.4 0 0 1 1.6 1c.1.2.2.5 0 .7a27.5 27.5 0 0 0-2.3 5.1 88.3 88.3 0 0 0-3.2 11.1c-.2 1.1-.3 2.1-.2 3 0 .8.3 1.5.6 2 .3.4.8.5 1.6.4ZM113 13.8l.3-.1.5.1.3.3.2.3a26.2 26.2 0 0 1-3.7 5.5c-.5.5-1 .9-1.4 1-.2.2-.5.3-.9.2a4 4 0 0 1-1-.2 3 3 0 0 1-.9-.5c-.2-.1-.4-.3-.4-.5v-1.4a14.4 14.4 0 0 1 .8-3.2l.3-.9a31.6 31.6 0 0 0-5 7.2c-.1.2-.3.3-.6.3s-.6 0-.9-.2c-.3 0-.5-.2-.7-.4-.3-.1-.4-.3-.3-.5a49 49 0 0 1 3.7-9.8c.1-.3.3-.4.6-.4a2.2 2.2 0 0 1 1.6.7c.2.2.3.4.2.6l-.6 1.2-.6 1.2-.6 1-.2.5a23.5 23.5 0 0 1 3.2-3.7l1-.7c.3-.2.6-.2 1-.2.3 0 .6.2.9.4l.7.6c.1.3.2.5 0 .7a63.8 63.8 0 0 1-1.3 3.3 30 30 0 0 0-.9 3.3c.4-.2.8-.5 1.2-1a13.7 13.7 0 0 0 2.5-2.9l1-1.8Z" class="dark:fill-white dark:stroke-white"/><path d="M128.7 14.1c.1-.1.3-.2.5-.1.2 0 .3 0 .5.3.2.1.2.3.2.5a17 17 0 0 1-3.8 5.3l-1.3 1c-.4.2-.8.2-1.3.1-.4 0-.9-.2-1.3-.5-.4-.2-.6-.5-.7-.7v-1.1l.4-1.4a41.3 41.3 0 0 1 1-2.8 62.2 62.2 0 0 0-5.6 7.8c-.2.2-.4.3-.9.3l-.6-.2-.6-.2c-.3-.2-.5-.5-.4-.8a103.1 103.1 0 0 1 6.2-14h-1l-1 .2a39.2 39.2 0 0 0-5.8 14.2c0 1.8.5 2.8 1.7 2.8-.7.7-1.6.8-2.6.4-1-.5-1.6-1.5-1.8-3.2 0-.7 0-1.5.3-2.4a35.5 35.5 0 0 1 2.6-7.2 65 65 0 0 1 1.9-3.9 16.6 16.6 0 0 0-3 1.3c-.2.2-.5.1-.7 0L111 9a2.6 2.6 0 0 1-.3-.8c0-.3 0-.5.2-.6a29.2 29.2 0 0 1 5.7-1.5 35 35 0 0 1 3.2-4.4c.2-.2.6-.2 1.1 0 .5.2.8.5 1.1 1 .3.4.3.8 0 1.2l-1.6 1.7h1.9c.6-.9 1.1-1.6 1.6-2 .4-.3.8-.4 1.3-.2.5.1.9.4 1.2.7.3.4.3.7.2 1-.1 0-.3 0-.4.2l-.5.5a11 11 0 0 1 2.2.5c.7.3 1.2.7 1.4 1.2l.2.8v.8c0 .5-.3.8-.6 1 .2-.7-.2-1.2-1-1.6l-1.6-.5a14 14 0 0 0-2-.3 41.6 41.6 0 0 0-5 9 45 45 0 0 1 4.6-5l.6-.3h.6l1.2.8c.3.4.3.7.2 1 0 .2-.2.3-.3.5l-.3.6-.6 1.4-.7 1.4c-.4 1-.6 1.8-.7 2.5a9 9 0 0 0 2.7-2.4 34 34 0 0 0 2-3Z" class="dark:fill-white dark:stroke-white"/><path d="M130.4 25.2h-.7c-.4 0-1-.2-1.5-.7a3.9 3.9 0 0 1-1.3-2.5v-.4l.1-2.5.9-3.3a44.1 44.1 0 0 1 4.8-10.5 11 11 0 0 1 1.6-2l.4-.2c.2 0 .4 0 .6.2l.7.4h.2c.5.4.8.7.9 1l-.2.4c-1 .9-2 2.2-3 3.8a33.7 33.7 0 0 0-4.2 13.5v.6l.2.9c.2.6.7 1 1.5 1-.3.2-.6.3-1 .3Z" class="dark:fill-white dark:stroke-white"/><path d="M144.6 13.9h.5l.1.5a1.8 1.8 0 0 1-.7 1.3 48.7 48.7 0 0 0-4 2.8 63.9 63.9 0 0 1-3.7 6.2l-2 2.4a6 6 0 0 1-2 1.4h-1c-.5-.1-.9-.3-1.3-.6-.3-.3-.6-.6-.7-1-.2-.5 0-1 .3-1.6.5-.7 1-1.4 1.8-2.2l2.4-2.2 2-1.7c.7-.5 1-.9 1.1-1a11.7 11.7 0 0 0 .8-1.7l.3-1 .3-.7-1 1.4a24.2 24.2 0 0 1-2.4 2.7l-1.1.9h-.9c-.3 0-.6 0-1-.3-.3-.1-.6-.3-.8-.6-.2-.3-.3-.5-.2-.8a17.4 17.4 0 0 1 1.2-3.6 15.6 15.6 0 0 1 2-3.5c.2-.2.4-.2.7-.2.3 0 .6.2.8.3l.7.6c.2.2.1.4 0 .6-.3.2-.6.7-.9 1.2a21 21 0 0 0-1.5 3.3v.6c.2 0 .5-.2.8-.6a23 23 0 0 0 2.4-3.2 76.2 76.2 0 0 0 3-4.5c0-.2.2-.3.5-.3l.8.2.8.5c.2.2.3.4.2.6l-.3 1.4a123.4 123.4 0 0 1-1 3.3l-.3 1.3a51 51 0 0 1 3.3-2.2Zm-13.1 12.8a10 10 0 0 0 2-2 28.2 28.2 0 0 0 1.8-2.5A56.5 56.5 0 0 0 132 26l-.4.8Z" class="dark:fill-white dark:stroke-white"/></g><path d="M78.2 23.9a3 3 0 0 1-1.8.7c-.6 0-1.2-.1-1.7-.5-.5-.3-1-.9-1.3-1.6a5 5 0 0 1-.2-2.8 38.2 38.2 0 0 1 1.2-6.3 59.4 59.4 0 0 1 .8-3.6l-.9 1.6-1 2a57.7 57.7 0 0 0-2.8 5.3h-1l-.9-.5a1 1 0 0 1-.4-.8v-1.1a33 33 0 0 1 1.2-5.4 86.3 86.3 0 0 0 .7-2.7A51.6 51.6 0 0 0 64.8 19a58 58 0 0 0-1.2 3.1c0 .2-.3.4-.7.4l-1.2-.3-1-.8c-.2-.3-.3-.7 0-1.2A122.4 122.4 0 0 0 65 7.6l.6-3a6 6 0 0 0 0-2c-.2-.6-.5-.8-.9-.8a2 2 0 0 0-1.5.7c-.6.4-1.1 1-1.6 1.7A21.6 21.6 0 0 0 59 9.5c-.3.9-.6 1.8-.7 2.7v2.3c.2.5.5.8 1 1 .4.2.9 0 1.4-.3 0 .3-.3.6-.6.8a3 3 0 0 1-1.2.4l-1.3-.1c-.5-.1-.9-.4-1.3-.7a3 3 0 0 1-.7-1.4 4 4 0 0 1 0-2.2A20 20 0 0 1 59 4.2a13 13 0 0 1 2.8-2.9c1-.7 2.2-1 3.3-1 .9 0 1.5.1 2 .6.4.4.7 1 .9 1.6.1.7.2 1.5.1 2.3a17.2 17.2 0 0 1-1 5l-.5 1.8A57.7 57.7 0 0 1 71 4l1-2c.2-.2.4-.2.8-.1.3 0 .6.2 1 .4l.7.8c.2.3.3.6.2.8a40.4 40.4 0 0 0-2.8 8l-.4 1.4.7-1.3 1.2-2.3A217.4 217.4 0 0 1 78.3 2L79.4.6c.2-.2.4-.2.7 0a3.4 3.4 0 0 1 1.6 1c.2.2.2.4 0 .6a27.5 27.5 0 0 0-2.2 5.2 88.3 88.3 0 0 0-3.3 11c-.2 1.2-.2 2.2-.2 3 0 .9.3 1.5.6 2 .3.4.9.6 1.6.5Zm33.6-11.4.4-.2.4.2.4.3v.2a26.2 26.2 0 0 1-3.6 5.6c-.5.5-1 .8-1.4 1-.2.2-.5.2-.9.2a4 4 0 0 1-1-.2 3 3 0 0 1-.9-.5c-.2-.2-.4-.4-.4-.6v-1.3a14.4 14.4 0 0 1 .8-3.2l.3-1-1.3 1.5a31.6 31.6 0 0 0-3.7 5.7c-.1.2-.3.3-.6.3l-.8-.1-.8-.4-.3-.5a49 49 0 0 1 3.7-9.8c.1-.3.4-.4.7-.4a2.2 2.2 0 0 1 1.6.7c.1.2.2.4.1.5-.1.4-.3.9-.6 1.3l-.6 1.1-.5 1-.3.5a23.5 23.5 0 0 1 3.2-3.6l1-.8c.3-.1.6-.2 1-.1l.9.3.7.7c.1.2.2.5 0 .7a63.8 63.8 0 0 1-1.3 3.2 30 30 0 0 0-.8 3.3l1.1-.9a13.7 13.7 0 0 0 2.5-3l1-1.7Z" fill="#FFF" stroke="#FFF" class="dark:fill-white dark:stroke-white" stroke-width=".4" stroke-miterlimit="10"/><path d="M127.5 12.8c.1-.2.3-.2.5-.2s.4.1.5.3c.2.2.2.4.2.6a17 17 0 0 1-3.8 5.3l-1.3 1c-.4.1-.8.2-1.2.1l-1.4-.5c-.4-.2-.6-.5-.7-.8v-1l.4-1.4a41.3 41.3 0 0 1 1-2.8 62.2 62.2 0 0 0-5.6 7.8c-.2.2-.4.3-.9.2l-.6-.1c-.2 0-.4-.2-.5-.3-.4-.2-.5-.4-.5-.7a103.1 103.1 0 0 1 6.2-14h-1l-1 .2a39.2 39.2 0 0 0-5.7 14.2c-.2 1.8.4 2.7 1.6 2.7-.7.8-1.6.9-2.6.4-1-.4-1.6-1.5-1.8-3.1 0-.7 0-1.5.3-2.5a35.5 35.5 0 0 1 2.6-7.1 65 65 0 0 1 1.9-4 16.6 16.6 0 0 0-3 1.4h-.7l-.6-.8a2.6 2.6 0 0 1-.3-.9c0-.3 0-.4.2-.5a29.2 29.2 0 0 1 5.7-1.5 35 35 0 0 1 3.2-4.4c.2-.3.6-.3 1.1 0 .5.2.8.5 1.1 1 .3.4.3.8 0 1.2l-1.6 1.7h2c.5-1 1-1.6 1.5-2 .4-.3.9-.4 1.3-.3.5.2.9.4 1.2.8.3.3.4.6.2 1l-.4.2-.5.4a11 11 0 0 1 2.3.6c.6.2 1 .6 1.4 1.2l.2.8v.8c-.2.5-.4.8-.7 1 .2-.7-.2-1.3-1-1.7l-1.6-.5a14 14 0 0 0-2-.3 41.6 41.6 0 0 0-5 9 45 45 0 0 1 4.6-5l.6-.2h.7c.4.2.8.4 1.1.8.3.3.3.7.2 1l-.3.5-.3.6-.6 1.3-.6 1.4a6 6 0 0 0-.7 2.6 9 9 0 0 0 2.6-2.4l1.2-1.6.9-1.5Z" fill="#FFF" stroke="#FFF" class="dark:fill-white dark:stroke-white" stroke-width=".4" stroke-miterlimit="10"/><path d="M129.3 23.9h-.8c-.4 0-.9-.3-1.5-.8a3.9 3.9 0 0 1-1.3-2.5v-.3c0-.8 0-1.6.2-2.6A44.1 44.1 0 0 1 131.5 4a11 11 0 0 1 1.6-2l.5-.1.5.1.8.5h.1c.6.4.8.7.9 1 0 0 0 .2-.2.3-1 1-2 2.2-3 3.9a33.7 33.7 0 0 0-4.2 13.5v.6l.2.8c.2.7.7 1 1.5 1-.3.3-.6.4-1 .4Z" fill="#FFF" stroke="#FFF" class="dark:fill-white dark:stroke-white" stroke-width=".4" stroke-miterlimit="10"/><path d="M143.4 12.6h.5l.1.4a1.8 1.8 0 0 1-.7 1.4 48.7 48.7 0 0 0-4 2.8 63.9 63.9 0 0 1-3.7 6.2l-2 2.3c-.6.7-1.3 1.2-2 1.4h-1c-.5 0-.9-.3-1.2-.5-.4-.3-.6-.7-.8-1.1a2 2 0 0 1 .3-1.5c.5-.7 1-1.5 1.9-2.3l2.3-2.1 2.1-1.7c.6-.5 1-.9 1-1.1a11.7 11.7 0 0 0 .8-1.7l.3-.9.3-.8-1 1.5a24.2 24.2 0 0 1-2.4 2.6l-1 1h-1l-1-.3-.7-.7c-.3-.2-.3-.5-.3-.8a17.4 17.4 0 0 1 1.2-3.6 15.6 15.6 0 0 1 2-3.4c.2-.2.4-.2.7-.2l.9.3.6.5c.2.2.2.4 0 .6l-.9 1.3a21 21 0 0 0-1.5 3.3v.6c.3 0 .5-.3.8-.7a23 23 0 0 0 2.4-3.1 76.2 76.2 0 0 0 3-4.5c0-.2.3-.3.5-.3.3 0 .6 0 .9.2l.7.5.3.5-.4 1.5a123.4 123.4 0 0 1-1 3.3l-.3 1.3a51 51 0 0 1 3.3-2.2Zm-13 12.8a10 10 0 0 0 2-2 28.2 28.2 0 0 0 1.7-2.5 56.5 56.5 0 0 0-3.3 3.6 2 2 0 0 0-.5.9Z" fill="#FFF" stroke="#FFF" class="dark:fill-white dark:stroke-white" stroke-width=".4" stroke-miterlimit="10"/><g opacity=".1" stroke="#000" stroke-width=".5" stroke-miterlimit="10"><path d="M88.3 7h1.5a6 6 0 0 1 3.7 1.8l1 1v.4l-1.8 2.4A16.2 16.2 0 0 1 88 16l-1.5.5h-1c-.3 0-.6-.2-.8-.5-.2-.2-.3-.6-.4-1a6 6 0 0 1 0-2.5c.4-1.5 1-2.8 1.7-4.1l.5-.7.2-.4c.2-.2.5-.4.8-.4h.8Zm-3.5 12 .7.3H87c1 0 2-.4 2.8-.8a15.7 15.7 0 0 0 5.3-3.7c0-.2.2-.3.3-.4v.4a8 8 0 0 1-.8 2.2c-.8 1.4-2 2.4-3.6 3a7 7 0 0 1-2.3.4c-.6 0-1.1 0-1.7-.2l-1.8-.7-.5-.4Zm15.4-9.4a2 2 0 0 1-.7 1.6 2 2 0 0 1-3.1-.6c-.4-.5-.4-1-.2-1.5s.5-1 1-1.2c.2-.2.5-.3.9-.3l.7.1c.7.2 1.1.7 1.3 1.4l.1.5Z" class="dark:fill-white dark:stroke-white"/><path d="m83.3 17.6-.2-.2-.2-.3c-.3-.6-.6-1.3-.7-2l-.2-1.7c0-.8.2-1.6.6-2.4.2-.7.5-1.3 1-1.8s1-1 1.7-1.4l.5-.2.3-.1-.2.2-1 1.5-1.1 2.2a13 13 0 0 0-1 3.5c0 .5 0 1 .2 1.5v.4l.3.8Z" class="dark:fill-white dark:stroke-white"/></g><path d="m87.8 6.5 1.5.1A6 6 0 0 1 93 8.4l1 1.1v.3l-1.8 2.4a16.2 16.2 0 0 1-4.7 3.5l-1.5.5h-1a1 1 0 0 1-.8-.4l-.4-1a6 6 0 0 1 0-2.6c.4-1.4 1-2.8 1.7-4l.5-.8.2-.3c.2-.3.5-.4.8-.5h.8Z" fill="#1061AE"/><path d="m84.3 18.7.7.2c.5.1 1 .1 1.6 0 1 0 2-.4 2.8-.8A15.7 15.7 0 0 0 95 14v.4a8 8 0 0 1-.8 2.2c-.8 1.4-2 2.4-3.6 3a7 7 0 0 1-2.3.5 9.1 9.1 0 0 1-3.5-1l-.5-.4Zm15.4-9.5A2 2 0 0 1 99 11a2 2 0 0 1-3.1-.6c-.4-.5-.4-1-.2-1.6.2-.5.5-1 1-1.2.2-.2.5-.2.9-.2h.7c.7.3 1.1.7 1.3 1.4l.1.5Z" fill="#EB262A"/><path d="m82.8 17.2-.2-.2-.2-.3c-.3-.6-.6-1.2-.7-2l-.2-1.6c0-.9.2-1.7.6-2.5.2-.7.5-1.2 1-1.7.5-.6 1-1 1.7-1.4l.5-.3h.3l-.2.2-1 1.5-1.1 2c-.5 1.2-.8 2.4-1 3.6 0 .5 0 1 .2 1.5v.4l.3.8Z" fill="#1562AF"/><path d="m48 16 .4.2 1.6.3c0 .1-.8.3-1 .2-1.2 0-1.8-.4-3.2-.6l-1 .2h.3c-.6.2-1.5 0-2.2.1l.2.1c-.5-.2-1.8-.1-2.7-.1l-.4-.1h-5.6c-1.9 0-4-.2-5.6.1h-1.3c-1.1.3-3 .2-4.5.1l-1.1-.2-4.4.2h-5.8a7 7 0 0 0-1.1 0H6.8c-1.4 0-1.6-.4-1.7-.7 1.5-.2 3-.8 5.3-.5l2.5-.1c.7 0 1.4.1 2-.1.9.2 3 .4 4.5.3h.2c2-.2 4.4 0 6.9-.2h8.7l2.6.1c1.2.1 3 0 4 .2h2c1.7 0 3.8 0 4.6.3 0 0-.6 0-.4.2Zm7 .6.4.1-.6-.1h.5c.3-.2-.5 0-.2-.1h.4-.3l.3.2h-.7.2Zm-1.6-.1h.1l-.2-.1c.7 0 0 .1.4.2 0 0-.4 0-.3-.1Zm.8-.2.7.1-.8-.1h.1Zm-5 0h-.5.5Zm-10.7-.1 1 .2-1-.2Zm-4.7-.4s-.2 0 0 0h.4-.4Zm-.4-.2h-.2.2Zm13 1h-.1Z" fill="#FFF" class="dark:fill-white"/><path d="m45.7 16.5.5.1h-.5Zm.6 0c.5 0 .7.2 1.3.1h-1.3Zm.5 0h.7l-1.2-.2.5.2Zm2.2-1v.2h.9c-.2-.1-.6 0-1-.2Zm-4 .9h1l-.8-.1H45Zm-.6-.3h.4-.4Zm.2-.1h-.2.2Zm.8 0c-.3-.2-.3 0-.7 0h.7Zm-1.8-.1h-.1.1Zm-3.1.4c.4 0-.2 0-.3-.1l.3.1Zm2.7-.7v.1h.5-.5Zm.9-.3s-.6-.2.1-.1c-.2 0-.6 0-.4-.1-.4 0 0 0-.3.1l.6.1Z" fill="#FFF" class="dark:fill-white"/><path d="M43 15.2h-.5.6Z" fill="#FFF"/><path d="M42.9 15h.3-.3Zm-1.2 0h.7l-.6-.1c-.5 0-.3.1 0 .1h-.1Zm.8.2h.2L42 15h.4ZM42 15h-.2.3Zm-5.1.7h.7a4 4 0 0 0-.7 0Zm4.2-.8H41h.1Zm-.9-.3h-.7l.8.1c-.3 0 0 0 0 0Zm-.9-.1h.6-.6Zm-1 0-.1.1h.4-.3Zm5.5 1.1h-.6.8-.2Z" fill="#FFF" class="dark:fill-white"/><path d="M8.5 16.7c.8-.2 2.4-.2 3.2-.2l4.7-.2h4.3v-.1h-.4 1.6c.3-.1 1.2.2 1.3 0h1-.2l1.4.1h2.4-.3c1.4-.2 3.5.1 5.2 0 0 0-.2 0 0 0H34h-1.1c.2-.3.1 0 .9 0l-.2-.1c.7 0 .3.1.8 0h-.3.8l.4.1h2.2l-.3-.1c.7 0 .2.1.5.1h1.5c.7 0 1.7 0 2 .2.2-.1-.3-.1-.7-.1l.5-.1h-.2.4c.7 0-.3 0 0 0s1 0 .7-.1c.5 0 .2.1.5.2h-1 2l-.8-.3h.5v.1c.5 0 .4-.2 1-.1l1 .2c.5-.2 0-.1.3-.3H47c-1.2 0 .6.2-.4.2h.6c.2.2-.3.2 0 .3v-.1l1.1.2h1.3c1-.2-1-.2-1.2-.4-1.5 0-1.6-.6-3.4-.7l-.7.1c-.4.2.8.2 1.1.3H45l.2.1c-.9 0-.5-.2-1.2-.1h.1H43h.4-.7l.4-.2h-1.4c-1.4 0-2.8 0-4.2-.2h.2-3.2l.1-.1h-1.1.7-.7c-.6 0 .3 0 .2.1h-.2l.2.2c-.5 0-.8-.2-1-.3l.4.1c.1-.1-.7 0-1-.1h.1-1 .1-3.5.2-1.2a2 2 0 0 1-.4 0h.1l-.5.1s-.2 0 0 0c-.6-.2-1.3 0-2.3 0h.3c-.5 0-.6-.2-1.2-.1h.1-1.6l-.3-.1c-.3 0-.5 0-.4.1a2 2 0 0 0-1 0c-.1 0-.6 0-.4.1l-1.5-.1-2 .2h-3l.2-.1h-1.4l-3.8-.2c-1 .3-1.7.6-1.8.9a8 8 0 0 0 2.6.5Zm144.2-1.5a3 3 0 0 1-.3-.2l-1.6-.3s.7-.3.8-.2c1.3 0 1.9.4 3.3.6l1-.2h-.3c.6-.2 1.5 0 2.2-.1l-.2-.1c.6.2 1.8.1 2.7.1l.4.1h5.6c2 0 4 .2 5.7-.1h1.3a15.8 15.8 0 0 1 5.5.1 51.6 51.6 0 0 1 10.2-.2h4.9c1.4 0 1.6.4 1.8.7-1.6.2-3.1.8-5.4.5l-2.4.1-2 .1c-1-.2-3-.4-4.5-.3h-.2c-2.1.2-4.5 0-7 .2h-8.7l-2.6-.1c-1.1 0-3 0-4-.2H157c-1.7 0-3.9 0-4.7-.3.1 0 .7 0 .4-.2Zm-7-.6-.3-.1.5.2h-.5.2-.3.3l-.4-.2h.8-.3Zm1.7.1h-.2l.3.1c-.7 0 0-.1-.4-.2 0 0 .4 0 .3.1Zm-.9.3c-.3-.2-.6 0-.6-.2l.7.1h-.1Zm5-.1h.5-.5Zm10.7.1-1-.1 1 .1Zm4.8.4h-.4.4Z" fill="#FFF" class="dark:fill-white"/><path d="m167.4 15.6.2.1h-.2Zm-13-1Zm.6.1-.4-.1h-.1.6Zm-.6 0c-.5 0-.6-.2-1.3-.1h1.3Zm-.4.1h-.7 1.1-.5Zm-2.2.9v-.2h-1c.2.1.6 0 1 .2Zm3.9-.9-1 .1h.9c-.3 0 0 0 0 0Zm.6.3h-.3.3Zm-.2.1h.2-.2Zm-.7.1h.6-.6Zm1.7 0 .2.1v-.1h-.2Zm3.1-.4c-.4 0 .3 0 .3.1l-.3-.1Z" fill="#FFF" class="dark:fill-white"/><path d="m157.6 15.6-.2-.1h-.4.6Zm-1 .3s.6.2 0 .1c.2 0 .6 0 .3.1.4 0 0 0 .3-.1l-.6-.1Z" fill="#FFF"/><path d="M157.6 16h.6-.6Zm.2.2h-.3.3Zm1.2 0h-.7l.7.1c.4 0 .2 0-.1-.1h.2Zm-.7-.2-.3.1h.7-.4Zm.4.1h.2-.2Zm5.1-.6h-.7.7Zm-4.2.9h.1v-.1c-.2 0 0 0 0 0Zm.9.2h.8l-.9-.1h.1Zm.9.1h-.6.6Zm1.1 0v-.1h-.4.4Zm-5.5-1.1h.5-.8.3Zm35.2-1.1c-.8.2-2.3.2-3.2.2l-4.7.2H180l.1.1c.2 0 .6 0 .4.1a5 5 0 0 1-.8 0h-.3c-.2 0 0-.2-.6-.2-.3.2-1.2-.1-1.2.1h-1l.2.1-1.4-.2h-2.5.4c-1.5.2-3.5-.1-5.3 0h.1-1.4 1.1c-.1.3-.1 0-.8 0l.1.1c-.7 0-.3-.1-.8 0h.3-.8l-.3-.1h-.6c-.7-.1-1 .1-1.6 0-.3 0 .3 0 .2.1-.7 0-.2 0-.5-.1h-1.5c-.6 0-1.7 0-1.9-.2-.2.1.2.1.7.1l-.6.1h.3c0 .1-.3 0-.4 0-.8 0 .3 0 0 0s-1 0-.7.1c-.6 0-.3-.1-.6-.2h1c.1 0 0 0 0 0h-2l.8.3h-1.5l-1-.2c-.4.2 0 .1-.3.3h-1.6c1.2 0-.6-.2.4-.2h-.6c-.2-.2.3-.2 0-.3v.1c-.3 0-.5-.2-1.1-.2h-1.3c-1 .2 1 .2 1.3.4 1.4.1 1.5.6 3.3.7h.8c.3-.3-.8-.3-1.2-.4h.5l-.2-.1c.9 0 .5.2 1.3.1h-.2 1.1-.3.6l-.4.2h1.4c1.4 0 2.9 0 4.2.2h-.1 3v.1c.2 0 .3 0 0 0h1l-.7.1h.7c.7 0-.3-.2-.2-.2h.3l-.3-.2c.6 0 .9.2 1.1.2h-.4c-.2.1.7 0 .9.1h-.1 1.1-.2 3.6-.2 1.6-.2l.6-.1h-.1c.6.2 1.4 0 2.3 0h-.3c.6 0 .6.2 1.3.1h-.2 1.7l.2.1c.3 0 .6 0 .4-.1h1c.2 0 .6 0 .4-.1l1.5.1 2-.2h3l-.2.1h1.5l3.7.2c1-.3 1.7-.6 1.8-.9-.2-.2-1.2-.4-2.6-.5Z" fill="#FFF" class="dark:fill-white"/></g><defs><clipPath id="a"><path fill="#fff" d="M0 0h200v52H0z"/></clipPath></defs></svg>
