<svg xmlns="http://www.w3.org/2000/svg" viewBox="0 0 200 50" fill="#202443" class="dark:fill-white" xml:space="preserve"><path class="st5" d="M62.22 1.16v21.12h-5.85l-8.03-9.6v9.6H41.4V1.16h5.85l8.03 9.6v-9.6h6.94zm21 15.75v5.37H65.66V1.16h17.17v5.37H72.66V9h8.93v5.13h-8.93v2.78h10.56zm36.82-15.75-6.76 21.12h-7.63L102.24 11l-3.59 11.29h-7.63L84.25 1.16h7.33l3.68 12.01 3.89-12.01h6.55l3.68 12.16 3.89-12.16h6.77zm.24 19.43 2.29-5.19a14.46 14.46 0 0 0 6.97 1.93c2.02 0 2.75-.42 2.75-1.15 0-2.66-11.68-.51-11.68-8.39 0-3.92 3.29-7.12 9.84-7.12 2.84 0 5.76.6 7.97 1.84l-2.14 5.16a12.96 12.96 0 0 0-5.88-1.57c-2.08 0-2.75.6-2.75 1.33 0 2.54 11.68.42 11.68 8.21 0 3.86-3.29 7.12-9.84 7.12-3.54.01-7.1-.87-9.21-2.17zM47.72 32.96H41.4v-5.64h19.91v5.64h-6.32V48.9h-7.28V32.96zm41.31-5.64h10.63c7.21 0 12.18 4.1 12.18 10.79S106.87 48.9 99.66 48.9H89.03V27.32zm10.32 15.91c3.05 0 5.15-1.82 5.15-5.12s-2.1-5.12-5.15-5.12H96.3v10.23h3.05zm29.53 1.91h-8.2l-1.45 3.76h-7.4l9.43-21.58h7.15l9.43 21.58h-7.52l-1.44-3.76zm-2-5.24-2.1-5.42-2.1 5.42h4.2zm23.58 1.17v7.83h-7.28v-7.92l-8.14-13.66h7.68l4.41 7.46 4.44-7.46h7.03l-8.14 13.75zm-88.44-2.96c0-6.53 5.15-11.28 12.18-11.28 7.03 0 12.18 4.75 12.18 11.28 0 6.54-5.15 11.28-12.18 11.28-7.03 0-12.18-4.74-12.18-11.28zm19.2 0c0-4.87-3.13-7.82-7.02-7.82-3.89 0-7.02 2.95-7.02 7.82s3.13 7.82 7.02 7.82c3.89 0 7.02-2.95 7.02-7.82z"/><path class="st5" d="M71.78 38.1v3.24c0 .4.32.59.68.42l.1-.05 3.56-2.17 1.6-1.01c.33-.21.34-.63 0-.84l-1.89-1.16-1.69-1.03-1.73-1.05c-.06-.04-.15-.04-.22-.02-.36.09-.4.14-.4.52l-.01 3.15zm.88-2.46 3.99 2.47-3.99 2.47v-4.94zM147.2 4.87h7.36c.08-.01.08.03.08.1v.62c0 1.69.01 3.39-.01 5.08a4 4 0 0 1-1.8 3.42 3.53 3.53 0 0 1-4.86-1.03 3.95 3.95 0 0 1-.71-1.86c-.04-.42-.05-.85-.05-1.28V5.47l-.01-.6zm3.48-4.26h.44v3.66c0 .09-.02.13-.11.12h-.27c-.05 0-.07-.02-.06-.07V.61zm1.41 3.78V.94c0-.12.02-.13.12-.09l.1.05c.21.1.21.1.21.36v3c0 .13 0 .13-.12.13h-.31zm-2.8 0V1.08c0-.07.02-.1.08-.12l.35-.15v3.46c0 .09-.02.13-.11.12h-.32zm-.97-2.61v2.5c0 .09-.02.12-.11.12h-.33l-.01-.1V2.41c0-.05 0-.11.03-.14l.38-.5.04.01zm5.2-.02c.09.12.18.26.28.37.11.13.12.27.12.43v1.69c0 .13 0 .13-.12.13h-.23c-.02 0-.06-.04-.06-.07V1.75c-.01.01 0 .01.01.01z"/><path class="st5" d="M147.13 22.48c-.1 0-.2 0-.31-.02-.3-.05-.52-.3-.5-.58a.6.6 0 0 1 .57-.54l.44-.01h3v-3.21l-.52-.07a6.61 6.61 0 0 1-3.95-2.17 7.42 7.42 0 0 1-.99-1.44 7.19 7.19 0 0 1-.61-1.78c-.11-.55-.11-1.1-.11-1.62v-.18l-.01-1.24v-.49h-.06l-.29-.01c-.29-.01-.43-.16-.49-.29a.59.59 0 0 1-.02-.53.6.6 0 0 1 .44-.3l.15-.01h2.53a.5.5 0 0 1 .37.14c.09.1.12.22.11.37v.17a.45.45 0 0 1-.11.34.44.44 0 0 1-.32.13h-1.16v.73c0 .64 0 1.3.02 1.95.02.59.16 1.2.44 1.81a5.17 5.17 0 0 0 1.14 1.71 5.62 5.62 0 0 0 3.46 1.66v-1.01c0-.14.04-.25.12-.33a.44.44 0 0 1 .32-.13h.7V17l.06-.01a5.5 5.5 0 0 0 3.93-2.3c.33-.46.6-.98.79-1.54.18-.54.27-1.08.27-1.61V9.13h-1.14c-.14 0-.25-.04-.33-.13a.44.44 0 0 1-.11-.33v-.23a.44.44 0 0 1 .11-.33c.05-.06.15-.13.32-.14h2.53l.04.35v-.36h.1c.31.02.55.25.55.54 0 .33-.24.58-.57.6l-.34.01h-.02v1.92c-.01.59-.02 1.22-.17 1.84a6.82 6.82 0 0 1-3.07 4.29 7.17 7.17 0 0 1-2.95.98v3.22h3.16c.14 0 .27.01.38.03.27.04.45.25.46.53a.54.54 0 0 1-.38.55c-.07.02-.14.04-.21.04l-.47.01h-7.3zm8.22-15.67c.06 0 .11-.1.11-.22v-4.4c0-.12-.05-.22-.11-.22s-.11.1-.11.22v4.39c0 .13.05.23.11.23zm.57.44c.06 0 .11-.1.11-.22V1.75c0-.12-.05-.22-.11-.22s-.11.1-.11.22v5.27c0 .13.05.23.11.23zm.58-4.77c-.06 0-.11.1-.11.22v3.37c0 .12.05.22.11.22s.11-.1.11-.22V2.71c0-.13-.05-.23-.11-.23zm.57-.4c-.06 0-.11.1-.11.22v4.18c0 .12.05.22.11.22s.11-.1.11-.22V2.3c0-.12-.05-.22-.11-.22zm.57.52c-.06 0-.11.1-.11.22v3.14c0 .12.05.22.11.22s.11-.1.11-.22V2.82c0-.12-.05-.22-.11-.22zm.57.55c-.06 0-.11.1-.11.22v2.04c0 .12.05.22.11.22s.11-.1.11-.22V3.37c.01-.12-.05-.22-.11-.22zm-11.75 3.66c-.06 0-.11-.1-.11-.22v-4.4c0-.12.05-.22.11-.22s.11.1.11.22v4.39c0 .13-.05.23-.11.23zm-.57.44c-.06 0-.11-.1-.11-.22V1.75c0-.12.05-.22.11-.22s.11.1.11.22v5.27c0 .13-.05.23-.11.23zm-.57-4.77c.06 0 .11.1.11.22v3.37c0 .12-.05.22-.11.22s-.11-.1-.11-.22V2.71c-.01-.13.04-.23.11-.23zm-.58-.4c.06 0 .11.1.11.22v4.18c0 .12-.05.22-.11.22s-.11-.1-.11-.22V2.3c0-.12.05-.22.11-.22zm-.57.52c.06 0 .11.1.11.22v3.14c0 .12-.05.22-.11.22s-.11-.1-.11-.22V2.82c0-.12.05-.22.11-.22zm-.57.55c.06 0 .11.1.11.22v2.04c0 .12-.05.22-.11.22s-.11-.1-.11-.22V3.37c0-.12.05-.22.11-.22z"/></svg>
