<svg width="38" height="40" viewBox="0 0 38 40" fill="none" xmlns="http://www.w3.org/2000/svg">
<g id="Group 1410108087">
<rect id="Rectangle 7202" width="38" height="40" rx="6" fill="#F4F6FC"/>
<path id="Vector" d="M27.0131 27.3405L23.0047 23.1715C24.0353 21.9463 24.6 20.4048 24.6 18.8C24.6 15.0505 21.5495 12 17.8 12C14.0505 12 11 15.0505 11 18.8C11 22.5495 14.0505 25.6 17.8 25.6C19.2076 25.6 20.549 25.1754 21.6958 24.3695L25.7347 28.5701C25.9035 28.7454 26.1306 28.8421 26.3739 28.8421C26.6042 28.8421 26.8227 28.7543 26.9886 28.5946C27.341 28.2555 27.3522 27.6932 27.0131 27.3405ZM17.8 13.7739C20.5714 13.7739 22.8261 16.0286 22.8261 18.8C22.8261 21.5714 20.5714 23.8261 17.8 23.8261C15.0286 23.8261 12.7739 21.5714 12.7739 18.8C12.7739 16.0286 15.0286 13.7739 17.8 13.7739Z" fill="#242424"/>
</g>
</svg>
