<svg version="1.1" id="Layer_1" xmlns="http://www.w3.org/2000/svg" xmlns:xlink="http://www.w3.org/1999/xlink" x="0" y="0" viewBox="0 0 200 50" xml:space="preserve"><style>.st0{fill-rule:evenodd;clip-rule:evenodd}.st2{fill:#ea2f27}</style><path d="M52.5 13v-.6h8.2v.6h-1.4l3.8 8.5 1.8-4.4L63 13h-1v-.6h7.5v.6h-1.3l3.8 8.4 2.9-8.4h-2.2v-.6h4.7v.6h-1.8l-5.2 15h-.7l.1-.4-.1.3-4.5-10-4 10h-.7L54 13h-1.4zM91 22.4h-8.3c.2 3.2 1.4 4.9 3.8 4.9.6 0 1.3-.2 2.1-.5s1.4-.7 1.8-1.2l.4.2a4 4 0 0 1-2.1 1.7 7 7 0 0 1-3 .7c-.9 0-1.8-.1-2.5-.3-.8-.2-1.6-.5-2.3-1a4.6 4.6 0 0 1-1.7-2 8 8 0 0 1-.7-3.4c0-2.2.7-3.9 1.9-5 1.2-1 2.7-1.6 4.5-1.6a6 6 0 0 1 4.4 1.8c1.2 1.2 1.8 3 1.8 5.7zm-8.3-.6h4.5c0-1.7-.2-3.2-.6-4.4-.3-1.3-1-2-1.7-2-.8 0-1.4.7-1.7 1.9-.4 1.2-.6 2.6-.6 4.2v.3zm22.6.6h-8.4c.2 3.2 1.5 4.9 3.8 4.9.7 0 1.4-.2 2.2-.5.8-.3 1.4-.7 1.7-1.2l.4.2c-.4.7-1 1.3-2 1.7a7 7 0 0 1-3 .7c-1 0-1.8-.1-2.6-.3-.8-.2-1.5-.5-2.3-1a4.6 4.6 0 0 1-1.7-2 8 8 0 0 1-.6-3.4c0-2.2.6-3.9 1.8-5 1.3-1 2.8-1.6 4.5-1.6a6 6 0 0 1 4.4 1.8c1.2 1.2 1.8 3 1.8 5.7zm-8.4-.6h4.5c0-1.7-.2-3.2-.5-4.4-.4-1.3-1-2-1.8-2-.7 0-1.3.7-1.7 1.9-.3 1.2-.5 2.6-.5 4.2v.3zm26.1 5.6v.5a17 17 0 0 1-5.2-.5c-1-.4-1.9-1.3-2.8-2.7l-1.8-2.7-.3.3v5h1.3v.6h-6.9v-.5h1.4V9.9h-1.4v-.5h5.6v12.1l5.7-5.8h-2.2v-.5h5.3v.5h-2.2l-3.3 3.3 3.3 5c1.5 2.3 2.7 3.4 3.5 3.4zm7 0h1.3v.5h-6.9v-.5h1.4V9.9h-1.4v-.5h5.6v18zm7.6 5.9c-.6.5-1.3.7-2.2.7-1 0-1.7-.2-2.2-.6a2 2 0 0 1-.8-1.6c0-.6.2-1.2.6-1.5.4-.4.8-.6 1.4-.6.5 0 1 0 1.3.3.4.2.7.4.8.7.4.6.8 1 1.1 1s.7-.4 1-1l1.2-2.8-6.5-12.2h-1.1v-.5h7.4v.5h-1.3L142 23l3.1-7.3H143v-.5h4.6v.5h-1.7L139.2 31a7 7 0 0 1-1.6 2.3z" class="dark:fill-white"/><path class="st0 dark:fill-white" d="M76.6 35.2a1.5 1.5 0 1 1 0 3 1.5 1.5 0 0 1 0-3"/><path d="M47.3 49a3.8 3.8 0 0 1-3.8-3.7V6.5c0-2.1 1.7-3.8 3.8-3.8h105.4c2.1 0 3.8 1.7 3.8 3.8v38.7c0 2-1.7 3.7-3.8 3.7" fill-rule="evenodd" clip-rule="evenodd" fill="none" stroke="#ea2f27" stroke-width=".7" stroke-miterlimit="10"/><path class="st2 dark:fill-white" d="M65.3 36v3.8H65c0-1.3-.3-2.2-.8-2.6-.5-.5-1.3-.7-2.4-.7h-2v5.7h.9c1 0 1.7-.1 2-.4.2-.3.4-.8.4-1.6h.4v4.4H63c0-.8-.2-1.4-.5-1.6-.2-.3-.9-.4-2-.4h-.8v5.2H61v.4h-5.6v-.4h1V36.5h-1v-.4h10zM72 48.4c-1.3 0-2.6-.5-3.7-1.3a4.6 4.6 0 0 1-1.7-3.9c0-.8.2-1.6.5-2.3.4-.7.8-1.3 1.3-1.7a6.3 6.3 0 0 1 3.7-1.2 6 6 0 0 1 3.6 1.2c.6.4 1 1 1.3 1.7.4.7.5 1.5.5 2.3 0 .9-.1 1.7-.5 2.3-.3.7-.7 1.3-1.3 1.7a6 6 0 0 1-3.7 1.2zm-1.6-1.5c.3.7.9 1 1.7 1 .7 0 1.3-.3 1.6-1 .4-.8.5-2 .5-3.7 0-1.7-.1-2.9-.5-3.7-.3-.7-.9-1-1.6-1-.8 0-1.4.3-1.7 1-.3.8-.5 2-.5 3.7s.2 3 .5 3.7zm8.4-3.7c0-1.7.5-3 1.5-3.9 1-.8 2.3-1.3 3.8-1.3s2.7.4 3.5 1.2c.7.7 1 1.5.8 2.4-.2.4-.4.7-.8 1-.3.2-.7.2-1.2.1-.9-.2-1.3-.7-1.3-1.6v-1l.1-1-.1-.4c-.2-.2-.5-.3-1-.3-1.3.2-2 1.8-2 4.8s1 4.5 3.2 4.5c.5 0 1-.2 1.5-.4a3 3 0 0 0 1.1-1l.3.3c-.3.5-.8 1-1.5 1.3a5 5 0 0 1-2.2.5c-3.8 0-5.7-1.8-5.7-5.2zm18.6 5V47a3 3 0 0 1-1.3 1 4 4 0 0 1-1.9.4c-2.6 0-3.8-1.4-3.8-4.2v-5.6h-1.1v-.4h4.3v6.5c0 1 .2 1.8.5 2.2.3.4.7.7 1.3.7.8 0 1.5-.5 2-1.4v-7.5h-1v-.5h4.3v9.5h1v.5h-4.3zm10.7-.2c1.5 0 2.3-.4 2.3-1.2 0-.5-.3-.9-.8-1.2-.5-.3-1.2-.5-1.9-.7l-2.2-.6a4 4 0 0 1-1.7-1.2c-.5-.5-.7-1.2-.6-2.1 0-.9.5-1.6 1.3-2.1a5 5 0 0 1 3-.9c1.2 0 2.1.2 2.8.6.7.3 1.2.9 1.2 1.5l-.1 1c-.2.4-.5.6-1 .6-.4 0-.7-.1-1-.3a1 1 0 0 1-.3-.8c0-.3 0-.6.3-.8l.3-.6c0-.3-.2-.4-.7-.6l-1.6-.1c-.6 0-1.1.1-1.5.4-.4.2-.6.6-.6 1s.3.7.7 1c.5.3 1.1.6 1.8.7l2 .6c.8.3 1.3.6 1.8 1.1.5.5.7 1.1.7 1.9a3 3 0 0 1-1 2.4c-.7.6-1.8.9-3.2.9a8 8 0 0 1-3.5-.7c-.9-.4-1.4-1-1.4-1.7-.1-.4 0-.7.1-1 .2-.4.5-.5 1-.6.3 0 .7.1 1 .4.2.2.3.5.3.8 0 .3-.1.5-.3.8l-.3.5c0 .3.3.6 1 .7a8 8 0 0 0 2.1.3z"/><path class="st2 dark:fill-white" d="m71.8 38.1-2 .7-1.6 4 1.8 5 1.6.4s1.4.1 1.6 0c.3 0 1.8-2.2 1.8-2.2l1.2-4.3-1.1-2.1L72 38h-.2z"/><defs><path id="SVGID_1_" d="M72 48.4c-1.3 0-2.6-.5-3.7-1.3a4.6 4.6 0 0 1-1.7-3.9c0-.8.2-1.6.5-2.3.4-.7.8-1.3 1.3-1.7a6.3 6.3 0 0 1 3.7-1.2 6 6 0 0 1 3.6 1.2c.6.4 1 1 1.3 1.7.4.7.5 1.5.5 2.3 0 .9-.1 1.7-.5 2.3-.3.7-.7 1.3-1.3 1.7a6 6 0 0 1-3.7 1.2z"/></defs><clipPath id="SVGID_00000039852863670250230450000013576378008300968890_"><use xlink:href="#SVGID_1_" overflow="visible"/></clipPath><g clip-path="url(#SVGID_00000039852863670250230450000013576378008300968890_)"><path class="dark:fill-white" d="M73.8 46.5a5 5 0 0 1-1.6.2l-.2-.1s-.1-.2 0-.2c0-.1 0-.1.1 0 .5 0 1 0 1.5-.2.2 0 .3-.2.2-.3 0-.1 0 0 0 0H72c-.1 0-.2 0-.2-.2 0-.1.1-.2.2-.1l1.6-.1c.2 0 .2-.2.2-.3 0-.2 0-.2-.2-.2-.6.2-1.1.2-1.7.1h.1v-1.8h2l.1-.2.1-1c-1 .4-2 .5-3 .2v.2l.3 6.4v.9c-.1 0-.3 0-.3-.2v-.9l-.2-5v-1.8c0-.2 0-.3.2-.4l.6-.2H73l.4.2c.1.1.1.3 0 .4l-.4.1a3 3 0 0 1-1.2 0c-.2 0-.3 0-.4-.2H71v.1l.2.1.6.2c.6 0 1.2 0 1.8-.2.1 0 .2 0 .3-.2.2 0 .2-.2 0-.3l-.6-.3c-.8-.2-1.6-.2-2.4 0-.2 0-.4 0-.6.2l-.1.3a551 551 0 0 1 .5 7.3v.6l-.2-.1-.1-.8-.3-3.6-.2-3.4c0-.3.2-.5.4-.6a5 5 0 0 1 3.4-.1l.3.2c.2.1.3.3.3.6l-.5 7.3v.4c0 .2-.2.2-.3.2 0-.2-.1-.2-.2-.1h-1.2l-.2-.1c0-.2 0-.2.2-.2l1.3-.1s.2-.3.1-.4h-.1l-1.3.1-.2-.1v-.2h.2c.4 0 .9 0 1.3-.2l.2-.3H72v-.3h.2l1.3-.1c.2 0 .2 0 .2-.2v-.2l-.9.1h-.7l-.2-.2c0-.2.2-.2.3-.2h1.3c.2 0 .3-.1.3-.3v-.2zm-.7-4.8c-.6-.2-1-.2-1.6 0 .5.2 1 .2 1.6 0z" fill="#fff"/></g><path class="st0 dark:fill-white" d="M145 48.5h-27.5V36h31.3v8.8c0 2-1.7 3.7-3.8 3.7z"/></svg>
