<svg width="20" height="20" fill="#3362CC" class="dark:fill-white" xmlns="http://www.w3.org/2000/svg"><g clip-path="url(#a)"><path d="m19.5 15.4-4-2.7c-.6-.3-1.3-.2-1.7.3l-1.1 1.5c-.2.2-.5.3-.7.1h-.2c-.7-.5-1.7-1-3.5-2.9a13.6 13.6 0 0 1-2.8-3.5L5.4 8c-.2-.2-.1-.5.1-.7L7 6.2c.5-.4.6-1.1.3-1.6L4.6.6C4.2 0 3.6-.3 3 .1l-1.7 1C.8 1.5.3 2 .2 2.6c-.6 2.2-.1 6 5.5 11.7 4.5 4.5 7.8 5.7 10.1 5.7.6 0 1 0 1.6-.2a3 3 0 0 0 1.4-1l1-1.8c.4-.5.2-1.2-.3-1.6Zm-.2 1.3-1 1.7-1 .8c-2.1.5-5.7 0-11.1-5.4-5.4-5.4-6-9-5.4-11 .2-.5.5-.8.8-1l1.7-1c.3-.2.6-.1.7.1l1.5 2.2 1.2 1.8c.2.3.1.6-.1.7L5.1 6.8c-.5.4-.6 1-.3 1.5l.1.2c.4.8 1 1.8 2.9 3.7 2 2 2.9 2.5 3.7 2.9l.2.1c.5.3 1.1.2 1.5-.3l1.2-1.5c.1-.2.4-.3.7-.1l4 2.7c.2.1.3.4.2.7Zm-8-13.4C14.5 3.3 17 6 17 9a.3.3 0 1 0 .7 0c0-3.5-2.9-6.3-6.4-6.3a.3.3 0 1 0 0 .6Z"/><path d="M11.3 5.3C13.3 5.3 15 7 15 9a.3.3 0 1 0 .7 0c0-2.4-2-4.3-4.4-4.3a.3.3 0 1 0 0 .6Z"/><path d="M11.3 7.3c1 0 1.7.8 1.7 1.7a.3.3 0 1 0 .7 0c0-1.3-1-2.3-2.4-2.3a.3.3 0 1 0 0 .6Z"/></g><defs><clipPath id="a"><path d="M0 0h20v20H0z"/></clipPath></defs></svg>
