<svg width="26" height="26" viewBox="0 0 26 26" fill="none" xmlns="http://www.w3.org/2000/svg">
    <g id="light 2">
    <path id="Vector" d="M12.1948 2.40219L12.1281 2.00813L12.1948 2.40219C12.2285 2.3965 12.2501 2.40274 12.2659 2.41118C12.2844 2.42107 12.304 2.43938 12.3184 2.46623C12.3327 2.49307 12.3381 2.52152 12.3359 2.54607C12.3339 2.56786 12.3258 2.59275 12.3013 2.62002C10.7018 4.40286 9.74401 6.78536 9.79664 9.39288C9.90423 14.7228 14.2711 19.0144 19.5513 18.9693C20.6677 18.9598 21.7397 18.7587 22.7362 18.3968C22.843 18.3581 22.9542 18.478 22.8856 18.5887L23.2256 18.7994L22.8856 18.5887C20.8156 21.93 16.972 24.0257 12.6913 23.5267C7.87517 22.9653 4.04087 19.0997 3.47516 14.2209C2.79579 8.36193 6.80664 3.31295 12.1948 2.40219Z" stroke="#3362CC" stroke-width="0.8"/>
    </g>
</svg>
