<svg fill="none" height="20" viewBox="0 0 24 24" width="20" xmlns="http://www.w3.org/2000/svg"><g clip-rule="evenodd" fill-rule="evenodd" fill="#000"><path d="M3 14.3c.4 0 .8.3.8.7v3.2c.2.7.3 1.1.6 1.4s.7.4 1.4.5l3.2.2h6c1.4 0 2.4 0 3.2-.2.7 0 1.1-.2 1.4-.5s.4-.7.5-1.4l.2-3.2a.8.8 0 0 1 1.5 0c0 1.4 0 2.5-.2 3.4a3 3 0 0 1-1 2.3c-.6.6-1.3.8-2.2 1H5.6c-.9-.2-1.6-.4-2.3-1-.6-.7-.8-1.4-1-2.3V15c0-.4.3-.8.7-.8z" class="dark:fill-white"/><path d="m12 16.8.6-.3 4-4.4a.7.7 0 1 0-1.2-1l-2.6 3V3a.8.8 0 0 0-1.6 0v11l-2.6-2.9a.7.7 0 0 0-1.2 1l4 4.4.6.3z" class="dark:fill-white"/></g></svg>
