<svg fill="none" height="20" viewBox="0 0 24 24" width="20" xmlns="http://www.w3.org/2000/svg"><g clip-rule="evenodd" fill-rule="evenodd"><path d="m3 14.25c.41421 0 .75.3358.75.75 0 1.4354.00159 2.4365.10315 3.1919.09865.7338.2791 1.1223.55586 1.3991s.66534.4572 1.39911.5559c.75535.1015 1.75647.1031 3.19188.1031h6c1.4354 0 2.4365-.0016 3.1919-.1031.7338-.0987 1.1223-.2791 1.3991-.5559s.4572-.6653.5559-1.3991c.1015-.7554.1031-1.7565.1031-3.1919 0-.4142.3358-.75.75-.75s.75.3358.75.75v.0549c0 1.3676 0 2.4699-.1165 3.3369-.121.9001-.3799 1.6579-.9818 2.2598-.602.602-1.3598.8609-2.2599.9819-.867.1165-1.9693.1165-3.3369.1165h-6.10977c-1.36759 0-2.46991 0-3.33688-.1165-.90011-.121-1.65798-.3799-2.2599-.9818-.60192-.602-.86081-1.3598-.98183-2.2599-.11656-.867-.11654-1.9693-.11652-3.3369 0-.0183 0-.0366 0-.0549 0-.4142.33579-.75.75-.75z" fill="#000" class="dark:fill-white"/><path d="m12 16.75c.2106 0 .4114-.0885.5535-.2439l4-4.375c.2795-.3057.2583-.7801-.0474-1.0596s-.7801-.2583-1.0596.0474l-2.6965 2.9493v-11.0682c0-.41421-.3358-.75-.75-.75s-.75.33579-.75.75v11.0682l-2.69647-2.9493c-.2795-.3057-.7539-.3269-1.0596-.0474s-.32695.7539-.04745 1.0596l4.00002 4.375c.1421.1554.3429.2439.5535.2439z" fill="#000" class="dark:fill-white"/></g></svg>
