<svg xmlns="http://www.w3.org/2000/svg" width="22" height="22" fill="none"><path d="M21.8 10.7s-1-1.6-2.7-3.1a12.4 12.4 0 0 0-16.2 0c-1.8 1.5-2.7 3-2.7 3L0 11l.2.3s1 1.6 2.7 3.1a12.4 12.4 0 0 0 16.2 0c1.8-1.5 2.7-3 2.7-3l.2-.4-.2-.3Zm-3.5 2.7a11 11 0 0 1-14.5 0c-1.2-1-2-2-2.3-2.4.4-.5 1.1-1.5 2.2-2.4a11 11 0 0 1 14.5 0c1.2 1 2 2 2.3 2.4-.4.5-1.1 1.5-2.2 2.4Z" fill="#686E70"/><path d="M11 6.8a4.2 4.2 0 1 0 0 8.4 4.2 4.2 0 0 0 0-8.4Zm0 7.1a3 3 0 1 1 0-5.8 3 3 0 0 1 0 5.8Z" fill="#686E70"/><path d="M11 11.8a.8.8 0 1 0 0-1.6.8.8 0 0 0 0 1.6Z" fill="#686E70"/></svg>
