<svg height="20pt" viewBox="0 0 384.26215 384.26215" width="20pt" xmlns="http://www.w3.org/2000/svg"><path d="m266.796875 128.132812h85.335937c5.890626 0 10.664063-4.777343 10.664063-10.667968s-4.773437-10.667969-10.664063-10.667969h-59.585937l88.457031-88.457031c2.773438-2.679688 3.886719-6.644532 2.910156-10.375-.976562-3.730469-3.886718-6.640625-7.617187-7.617188-3.730469-.976562-7.695313.136719-10.375 2.910156l-88.457031 88.457032v-59.582032c0-5.894531-4.777344-10.667968-10.667969-10.667968s-10.664063 4.773437-10.664063 10.667968v85.332032c0 5.890625 4.773438 10.667968 10.664063 10.667968zm0 0"/><path d="m117.464844 256.132812h-85.332032c-5.894531 0-10.667968 4.773438-10.667968 10.664063s4.773437 10.667969 10.667968 10.667969h59.582032l-88.457032 88.457031c-2.773437 2.679687-3.886718 6.644531-2.910156 10.375.976563 3.730469 3.886719 6.640625 7.617188 7.617187 3.730468.976563 7.695312-.136718 10.375-2.910156l88.457031-88.457031v59.585937c0 5.890626 4.777344 10.664063 10.667969 10.664063s10.667968-4.773437 10.667968-10.664063v-85.335937c0-5.890625-4.777343-10.664063-10.667968-10.664063zm0 0"/><path d="m292.546875 277.464844h59.585937c5.890626 0 10.664063-4.777344 10.664063-10.667969s-4.773437-10.664063-10.664063-10.664063h-85.335937c-5.890625 0-10.664063 4.773438-10.664063 10.664063v85.335937c0 5.890626 4.773438 10.664063 10.664063 10.664063s10.667969-4.773437 10.667969-10.664063v-59.585937l88.457031 88.457031c4.1875 4.042969 10.839844 3.988282 14.953125-.128906 4.117188-4.113281 4.171875-10.765625.128906-14.953125zm0 0"/><path d="m117.464844 21.464844c-5.890625 0-10.667969 4.773437-10.667969 10.667968v59.582032l-88.457031-88.457032c-4.1875-4.042968-10.839844-3.984374-14.953125.128907s-4.171875 10.765625-.128907 14.953125l88.457032 88.457031h-59.582032c-5.894531 0-10.667968 4.777344-10.667968 10.667969s4.773437 10.667968 10.667968 10.667968h85.332032c5.890625 0 10.667968-4.777343 10.667968-10.667968v-85.332032c0-5.894531-4.777343-10.667968-10.667968-10.667968zm0 0"/></svg>