<svg height="16" width="16" viewBox="0 0 384.3 384.3" xmlns="http://www.w3.org/2000/svg"><path d="M266.8 128.1h85.3a10.7 10.7 0 0 0 0-21.3h-59.6L381 18.3a10.7 10.7 0 1 0-15-15l-88.5 88.4V32.1a10.7 10.7 0 1 0-21.4 0v85.4c0 5.9 4.8 10.6 10.7 10.6zm-149.3 128H32a10.7 10.7 0 1 0 0 21.4h59.6L3.3 365.9a10.7 10.7 0 1 0 15 15.1l88.5-88.5v59.6a10.7 10.7 0 0 0 21.3 0v-85.3c0-5.9-4.7-10.7-10.6-10.7zm175 21.4h59.6a10.7 10.7 0 0 0 0-21.4h-85.3c-5.9 0-10.7 4.8-10.7 10.7v85.3a10.7 10.7 0 1 0 21.4 0v-59.6l88.4 88.5a10.7 10.7 0 0 0 15.1-15zm-175-256c-6 0-10.7 4.7-10.7 10.6v59.6L18.3 3.3a10.7 10.7 0 0 0-15 15l88.4 88.5H32.1a10.7 10.7 0 1 0 0 21.3h85.4c5.9 0 10.6-4.7 10.6-10.6V32c0-5.9-4.7-10.6-10.6-10.6zm0 0"/></svg>
