<svg width="16" height="16" viewBox="0 0 384 384" xmlns="http://www.w3.org/2000/svg"><path d="M373.3 0H288a10.7 10.7 0 0 0 0 21.3h59.6L259 109.8a10.7 10.7 0 1 0 15.1 15l88.5-88.4V96a10.7 10.7 0 1 0 21.3 0V10.7c0-6-4.8-10.7-10.7-10.7zM109.8 259.1l-88.5 88.5V288A10.7 10.7 0 1 0 0 288v85.3c0 6 4.8 10.7 10.7 10.7H96a10.7 10.7 0 0 0 0-21.3H36.4l88.5-88.5a10.7 10.7 0 0 0-15.1-15zm263.5 18.2c-5.9 0-10.6 4.8-10.6 10.7v59.6L274.2 259a10.7 10.7 0 0 0-15 15.1l88.4 88.5H288a10.7 10.7 0 1 0 0 21.3h85.3c6 0 10.7-4.8 10.7-10.7V288c0-5.9-4.8-10.7-10.7-10.7zM36.4 21.3H96A10.7 10.7 0 1 0 96 0H10.7C4.7 0 0 4.8 0 10.7V96a10.7 10.7 0 0 0 21.3 0V36.4l88.5 88.5a10.7 10.7 0 0 0 15-15.1zm0 0"/></svg>
