<svg height="20pt" viewBox="0 0 384 384" width="20pt" xmlns="http://www.w3.org/2000/svg"><path d="m373.332031 0h-85.332031c-5.890625 0-10.667969 4.777344-10.667969 10.667969s4.777344 10.664062 10.667969 10.664062h59.582031l-88.457031 88.460938c-2.773438 2.675781-3.882812 6.644531-2.910156 10.371093.976562 3.730469 3.890625 6.644532 7.621094 7.621094 3.726562.972656 7.695312-.136718 10.371093-2.910156l88.460938-88.457031v59.582031c0 5.890625 4.773437 10.667969 10.664062 10.667969s10.667969-4.777344 10.667969-10.667969v-85.332031c0-5.890625-4.777344-10.667969-10.667969-10.667969zm0 0"/><path d="m109.792969 259.125-88.460938 88.457031v-59.582031c0-5.890625-4.773437-10.667969-10.664062-10.667969s-10.667969 4.777344-10.667969 10.667969v85.332031c0 5.890625 4.777344 10.667969 10.667969 10.667969h85.332031c5.890625 0 10.667969-4.777344 10.667969-10.667969s-4.777344-10.664062-10.667969-10.664062h-59.582031l88.457031-88.460938c4.042969-4.183593 3.984375-10.835937-.128906-14.953125-4.117188-4.113281-10.769532-4.171875-14.953125-.128906zm0 0"/><path d="m373.332031 277.332031c-5.890625 0-10.664062 4.777344-10.664062 10.667969v59.582031l-88.460938-88.457031c-4.183593-4.042969-10.835937-3.984375-14.953125.128906-4.113281 4.117188-4.171875 10.769532-.128906 14.953125l88.457031 88.460938h-59.582031c-5.890625 0-10.667969 4.773437-10.667969 10.664062s4.777344 10.667969 10.667969 10.667969h85.332031c5.890625 0 10.667969-4.777344 10.667969-10.667969v-85.332031c0-5.890625-4.777344-10.667969-10.667969-10.667969zm0 0"/><path d="m36.417969 21.332031h59.582031c5.890625 0 10.667969-4.773437 10.667969-10.664062s-4.777344-10.667969-10.667969-10.667969h-85.332031c-5.890625 0-10.667969 4.777344-10.667969 10.667969v85.332031c0 5.890625 4.777344 10.667969 10.667969 10.667969s10.664062-4.777344 10.664062-10.667969v-59.582031l88.460938 88.457031c4.183593 4.042969 10.835937 3.984375 14.953125-.128906 4.113281-4.117188 4.171875-10.769532.128906-14.953125zm0 0"/></svg>