<svg xmlns="http://www.w3.org/2000/svg" width="24" height="24" fill="none"><path d="M0 14.7V18c0 1.2 1 2 2.3 2h19.4c1.3 0 2.3-.9 2.3-2.2v-3.2H0Z" fill="#359846"/><path d="M21.7 3.9H2.3C1 3.9 0 4.8 0 6v3.2h24V6c0-1.2-1-2-2.3-2Z" fill="#EA8634"/><path d="M24 9.3H0v5.4h24V9.3Z" fill="#FDFDFD"/><path d="M12 9.6c-1.4 0-2.4 1-2.4 2.4s1 2.4 2.4 2.4 2.4-1 2.4-2.4-1-2.4-2.4-2.4Zm2 2.7v.6l-.2.3h-.1v.2l-.1.1-.9-1-.3-.2.4.2 1 .6-1-.8-.3-.1h.4l1.3.3-1.2-.3-.5-.1V12h1.7l-1.2-.1h-.5l.5-.1 1.2-.4-1.3.3-.4.1.4-.2 1-.7-1 .6-.4.2.3-.3.8-1a127.2 127.2 0 0 1 .2.3h.1l.2.4s-.1 0 0 .1c0 0 0 .1 0 0l.2.4-.1.1.1.1v.3c-.1 0-.2 0-.2.2Zm-3.4-2c0 .1.2.1.2 0 .1-.2.2-.2.3-.2h.2v-.2h.5s.1 0 0 0h1v.2h.2l.3.1v.2h.3l-1 1-.2.3.2-.4.6-1.1-.8 1-.1.4v-.4l.3-1.3-.3 1.2-.1.5H12V9.9v1.7h-.1V11l-.5-1.2.3 1.3.1.4-.2-.4-.7-1 .6 1 .3.4-.3-.3-1-.8.1-.1Zm-.1 3.2a127.2 127.2 0 0 0-.1-.3h-.2l-.1-.3v-.2h-.2v-1.4h.2V11l.1-.3h.2v-.2l1 1 .3.2-.4-.2-1.1-.6 1 .7.5.2-.5-.1-1.2-.3 1.2.4h.4v.2H10h1.7v.1H11l-1.2.5 1.3-.3.4-.1-.4.2-1 .7 1-.6.4-.3-.3.3-.8 1Zm1.3.6h-.5v-.2H11l-.3-.2v-.1h-.2l-.1-.1 1-.9.2-.3-.2.4-.6 1 .7-1 .2-.4-.1.4-.3 1.3.4-1.2v-.5h.2v1.8-1.8h.1v.5l.5 1.2-.3-1.3-.1-.4.2.4.7 1-.6-1-.3-.4.3.3 1 .9h-.2v.2l-.3.2h-.2v.1h-.4c-.1 0-.2 0-.1.1h-.4Z" fill="#7D7DBC"/><path d="M12.5 12.5h.2-.2ZM12 9.6c-.7 0-1.4.3-1.9.8l.3.2v-.1l.2-.1h.2v-.2h.2l.5 1 .3.4-.3-.3-1-.8.8.9h.2l.2.3.6.5.4.2 1.2.6-.1.2h-.2v.2l.3.1c.3-.4.5-1 .5-1.5 0-1.4-1-2.4-2.4-2.4Zm-.2 2-.1-.4-.7-1 .1-.1h.2V10h.2l.2 1.2.2.4Zm.2 0V9.9v1.7h-.1V11l-.5-1.2h1L12 11v.5Zm.1 0 .2-.4.2-1.2h.2v.2h.3l-.7 1-.1.4Zm1.8 1.2v.2l-1.1-.8-.4-.1h.4l1.3.3v.2h-.2Zm.2-1v.7l-1.2-.4h-.5V12h1.7l-1.2-.2h-.5.5l1.2-.5v.5Zm-.2-.6s0 .1.1 0v.2l-1.2.3-.4.1.4-.2 1-.7.1.2v.1Zm0-.2-1.2.5-.4.3.4-.3.8-1-1 .9-.2.3.2-.4.6-1h.1v.2h.4l.2.2v.1h.1v.2Z" fill="#6060B2"/></svg>
