<svg class="w-[20px] md:w-[26px]" xmlns="http://www.w3.org/2000/svg" width="26" height="26" viewBox="0 0 26 26" fill="none">
<rect width="26" height="26" rx="4" fill="url(#paint0_linear_3029_14501)"/>
<path d="M15.6274 6.5H10.3726C9.34596 6.50136 8.36173 6.9098 7.63577 7.63577C6.9098 8.36173 6.50136 9.34596 6.5 10.3726V15.6274C6.50136 16.654 6.9098 17.6383 7.63577 18.3642C8.36173 19.0902 9.34596 19.4986 10.3726 19.5H15.6274C16.6542 19.4991 17.6387 19.0908 18.3647 18.3647C19.0908 17.6387 19.4991 16.6542 19.5 15.6274V10.3726C19.4986 9.34596 19.0902 8.36173 18.3642 7.63577C17.6383 6.9098 16.654 6.50136 15.6274 6.5ZM18.1932 15.6274C18.1932 16.3079 17.9228 16.9605 17.4417 17.4417C16.9605 17.9228 16.3079 18.1932 15.6274 18.1932H10.3726C9.69214 18.1932 9.03952 17.9228 8.55834 17.4417C8.07717 16.9605 7.80684 16.3079 7.80684 15.6274V10.3726C7.80684 9.69214 8.07717 9.03952 8.55834 8.55834C9.03952 8.07717 9.69214 7.80684 10.3726 7.80684H15.6274C16.3079 7.80684 16.9605 8.07717 17.4417 8.55834C17.9228 9.03952 18.1932 9.69214 18.1932 10.3726V15.6274Z" fill="white"/>
<path d="M13 9.63867C12.3347 9.63833 11.6843 9.83532 11.131 10.2047C10.5777 10.5741 10.1464 11.0993 9.89169 11.7139C9.63695 12.3284 9.57021 13.0047 9.69991 13.6572C9.82961 14.3097 10.1499 14.9091 10.6203 15.3795C11.0908 15.8499 11.6901 16.1702 12.3426 16.2999C12.9951 16.4297 13.6714 16.3629 14.286 16.1082C14.9005 15.8534 15.4257 15.4221 15.7951 14.8688C16.1645 14.3156 16.3615 13.6651 16.3612 12.9999C16.3603 12.1087 16.0058 11.2543 15.3757 10.6241C14.7455 9.99399 13.8911 9.63958 13 9.63867ZM13 15.0525C12.594 15.0525 12.1972 14.9321 11.8596 14.7066C11.522 14.481 11.259 14.1604 11.1036 13.7854C10.9482 13.4103 10.9076 12.9976 10.9868 12.5994C11.066 12.2012 11.2615 11.8355 11.5486 11.5484C11.8356 11.2614 12.2014 11.0659 12.5995 10.9867C12.9977 10.9075 13.4104 10.9481 13.7855 11.1035C14.1606 11.2588 14.4811 11.5219 14.7067 11.8595C14.9322 12.197 15.0526 12.5939 15.0526 12.9999C15.0526 13.5443 14.8364 14.0664 14.4514 14.4513C14.0665 14.8362 13.5444 15.0525 13 15.0525Z" fill="white"/>
<path d="M16.3817 10.4703C16.8409 10.4703 17.213 10.0981 17.213 9.63893C17.213 9.17981 16.8409 8.80762 16.3817 8.80762C15.9226 8.80762 15.5504 9.17981 15.5504 9.63893C15.5504 10.0981 15.9226 10.4703 16.3817 10.4703Z" fill="white"/>
<defs>
    <linearGradient id="paint0_linear_3029_14501" x1="13" y1="0" x2="13" y2="26" gradientUnits="userSpaceOnUse">
        <stop stop-color="#7024C4"/>
        <stop offset="0.479167" stop-color="#C4286A"/>
        <stop offset="1" stop-color="#D16A47"/>
    </linearGradient>
</defs>
</svg>
