<svg xmlns="http://www.w3.org/2000/svg" width="32" height="32" viewBox="0 0 32 32" fill="none">
    <path fill-rule="evenodd" clip-rule="evenodd" d="M2.66602 15.9993C2.66602 8.63935 8.63935 2.66602 15.9993 2.66602C23.3593 2.66602 29.3327 8.63935 29.3327 15.9993C29.3327 23.3593 23.3593 29.3327 15.9993 29.3327C8.63935 29.3327 2.66602 23.3593 2.66602 15.9993ZM12.703 8.048C13.556 8.01 13.829 8 16 8H15.998C18.172 8 18.443 8.01 19.297 8.048C20.148 8.087 20.73 8.222 21.24 8.42C21.774 8.62065 22.2576 8.93568 22.657 9.343C23.0639 9.74268 23.3789 10.2262 23.58 10.76C23.777 11.268 23.912 11.85 23.952 12.701C23.99 13.555 24 13.827 24 16C24 18.173 23.99 18.445 23.952 19.298C23.912 20.15 23.777 20.731 23.58 21.24C23.375 21.766 23.102 22.212 22.657 22.657C22.2578 23.0641 21.7746 23.3791 21.241 23.58C20.732 23.778 20.149 23.912 19.298 23.952C18.444 23.99 18.173 24 16 24C13.827 24 13.555 23.99 12.701 23.952C11.849 23.913 11.269 23.778 10.759 23.58C10.233 23.376 9.787 23.102 9.343 22.657C8.898 22.212 8.625 21.766 8.42 21.24C8.222 20.731 8.088 20.15 8.048 19.298C8.01 18.445 8 18.173 8 16.001C8 13.827 8.01 13.555 8.048 12.7C8.087 11.85 8.222 11.268 8.42 10.76C8.62111 10.2262 8.93608 9.7427 9.343 9.343C9.74249 8.93583 10.2261 8.62082 10.76 8.42C11.269 8.222 11.85 8.088 12.703 8.048ZM16.001 9.442H15.283V9.44C13.792 9.441 13.506 9.451 12.768 9.485C11.988 9.521 11.565 9.651 11.283 9.761C10.909 9.906 10.643 10.079 10.363 10.359C10.083 10.639 9.909 10.906 9.764 11.279C9.654 11.561 9.524 11.985 9.488 12.765C9.45 13.608 9.442 13.86 9.442 15.996C9.442 18.133 9.45 18.386 9.488 19.229C9.523 20.009 9.654 20.433 9.763 20.714C9.89172 21.0617 10.0968 21.376 10.363 21.634C10.6211 21.8996 10.9355 22.1039 11.283 22.232C11.565 22.342 11.988 22.472 12.768 22.508C13.611 22.546 13.865 22.555 16.001 22.555C18.137 22.555 18.39 22.546 19.233 22.508C20.014 22.472 20.438 22.342 20.718 22.232C21.092 22.087 21.358 21.914 21.638 21.634C21.904 21.3764 22.1087 21.0624 22.237 20.715C22.346 20.433 22.477 20.01 22.512 19.23C22.551 18.387 22.559 18.133 22.559 15.998C22.559 13.863 22.551 13.61 22.512 12.767C22.477 11.987 22.347 11.563 22.237 11.282C22.092 10.908 21.919 10.642 21.639 10.362C21.359 10.082 21.092 9.908 20.719 9.763C20.437 9.654 20.013 9.523 19.233 9.488C18.39 9.449 18.137 9.442 16.001 9.442ZM19.9036 10.8431C20.0201 10.7948 20.1449 10.77 20.271 10.77C20.5256 10.77 20.7698 10.8711 20.9498 11.0512C21.1299 11.2312 21.231 11.4754 21.231 11.73C21.231 11.9846 21.1299 12.2288 20.9498 12.4088C20.7698 12.5889 20.5256 12.69 20.271 12.69C20.1449 12.69 20.0201 12.6652 19.9036 12.6169C19.7872 12.5687 19.6813 12.498 19.5922 12.4088C19.503 12.3197 19.4323 12.2138 19.3841 12.0974C19.3358 11.9809 19.311 11.8561 19.311 11.73C19.311 11.6039 19.3358 11.4791 19.3841 11.3626C19.4323 11.2462 19.503 11.1403 19.5922 11.0512C19.6813 10.962 19.7872 10.8913 19.9036 10.8431ZM14.409 12.1861C14.9149 11.9835 15.4561 11.8835 16.001 11.892C17.0795 11.9088 18.1082 12.3491 18.865 13.1178C19.6217 13.8864 20.0459 14.9218 20.0459 16.0005C20.0459 17.0792 19.6217 18.1146 18.865 18.8833C18.1082 19.6519 17.0795 20.0922 16.001 20.109C15.4561 20.1175 14.9149 20.0175 14.409 19.8149C13.9031 19.6122 13.4425 19.3109 13.0542 18.9286C12.6658 18.5462 12.3574 18.0904 12.1468 17.5877C11.9363 17.085 11.8279 16.5455 11.8279 16.0005C11.8279 15.4555 11.9363 14.916 12.1468 14.4133C12.3574 13.9106 12.6658 13.4548 13.0542 13.0724C13.4425 12.6901 13.9031 12.3888 14.409 12.1861ZM17.8869 14.1141C17.3867 13.614 16.7083 13.333 16.001 13.333C15.2937 13.333 14.6153 13.614 14.1151 14.1141C13.615 14.6143 13.334 15.2927 13.334 16C13.334 16.7073 13.615 17.3857 14.1151 17.8859C14.6153 18.386 15.2937 18.667 16.001 18.667C16.7083 18.667 17.3867 18.386 17.8869 17.8859C18.387 17.3857 18.668 16.7073 18.668 16C18.668 15.2927 18.387 14.6143 17.8869 14.1141Z" fill="#040404"/>
</svg>
