<svg width="32" height="32" viewBox="0 0 32 32" fill="none" xmlns="http://www.w3.org/2000/svg">
<path d="M29.6585 16.4089C29.6585 9.09045 23.7258 3.15771 16.4074 3.15771C9.08899 3.15771 3.15625 9.09045 3.15625 16.4089C3.15625 23.7273 9.08899 29.66 16.4074 29.66C23.7258 29.66 29.6585 23.7273 29.6585 16.4089Z" fill="url(#paint0_linear_4149_4485)"/>
<path opacity="0.1" d="M26.3795 7.691C24.4476 11.2374 21.7155 14.8954 18.3015 18.3093C14.8876 21.7233 11.2296 24.4502 7.68843 26.3821C7.46641 26.1891 7.25079 25.988 7.04156 25.7788C5.77687 24.5563 4.76822 23.0943 4.07441 21.478C3.38061 19.8617 3.01554 18.1234 3.00049 16.3645C2.98543 14.6057 3.32071 12.8614 3.98675 11.2334C4.65279 9.60547 5.63628 8.12641 6.87986 6.88248C8.12345 5.63855 9.60224 4.65465 11.23 3.98815C12.8578 3.32165 14.602 2.98589 16.3608 3.00045C18.1197 3.01501 19.8581 3.3796 21.4746 4.07295C23.0911 4.76631 24.5534 5.77455 25.7762 7.0389C25.9855 7.24813 26.1866 7.46549 26.3795 7.691Z" fill="white"/>
<path d="M19.5444 9.43457H13.2675C12.2502 9.43457 11.2745 9.8387 10.5551 10.5581C9.83577 11.2774 9.43164 12.2531 9.43164 13.2704V19.5473C9.43164 20.5646 9.83577 21.5403 10.5551 22.2596C11.2745 22.979 12.2502 23.3831 13.2675 23.3831H19.5444C20.5617 23.3831 21.5374 22.979 22.2567 22.2596C22.9761 21.5403 23.3802 20.5646 23.3802 19.5473V13.2704C23.3802 12.2531 22.9761 11.2774 22.2567 10.5581C21.5374 9.8387 20.5617 9.43457 19.5444 9.43457ZM22.1597 18.9963C22.1597 19.8361 21.8261 20.6414 21.2323 21.2352C20.6385 21.8291 19.8331 22.1626 18.9934 22.1626H13.8185C12.9787 22.1626 12.1733 21.8291 11.5795 21.2352C10.9857 20.6414 10.6521 19.8361 10.6521 18.9963V13.8214C10.6521 12.9816 10.9857 12.1763 11.5795 11.5825C12.1733 10.9887 12.9787 10.6551 13.8185 10.6551H18.9934C19.8331 10.6551 20.6385 10.9887 21.2323 11.5825C21.8261 12.1763 22.1597 12.9816 22.1597 13.8214V18.9963Z" fill="white"/>
<path d="M18.9509 13.8909L18.9178 13.8578L18.8899 13.8299C18.2306 13.1729 17.3377 12.8042 16.407 12.8047C15.937 12.8079 15.4723 12.9036 15.0393 13.0865C14.6063 13.2694 14.2136 13.5358 13.8836 13.8705C13.5536 14.2051 13.2928 14.6016 13.1161 15.0371C12.9394 15.4726 12.8502 15.9387 12.8536 16.4087C12.8529 17.3625 13.2289 18.278 13.8998 18.956C14.2284 19.2886 14.6199 19.5524 15.0516 19.732C15.4833 19.9117 15.9464 20.0035 16.414 20.0022C17.1153 19.9874 17.7972 19.769 18.3765 19.3734C18.9558 18.9778 19.4075 18.4222 19.6764 17.7743C19.9454 17.1264 20.02 16.4143 19.8911 15.7247C19.7623 15.0352 19.4356 14.398 18.9509 13.8909ZM16.407 18.7729C15.938 18.7795 15.4777 18.6464 15.0846 18.3907C14.6914 18.1349 14.3833 17.768 14.1992 17.3366C14.0152 16.9052 13.9636 16.4288 14.0511 15.968C14.1385 15.5073 14.361 15.0829 14.6903 14.7489C15.0196 14.4149 15.4408 14.1865 15.9003 14.0925C16.3598 13.9986 16.8369 14.0434 17.2708 14.2213C17.7048 14.3993 18.076 14.7023 18.3373 15.0917C18.5986 15.4812 18.7381 15.9396 18.7382 16.4087C18.7405 16.717 18.682 17.0228 18.566 17.3085C18.4501 17.5942 18.279 17.8543 18.0625 18.0739C17.846 18.2934 17.5884 18.4682 17.3043 18.5881C17.0203 18.7081 16.7154 18.7709 16.407 18.7729Z" fill="white"/>
<path d="M21.0135 12.6395C21.0144 12.7514 20.9933 12.8624 20.9513 12.9661C20.9092 13.0697 20.8472 13.1641 20.7686 13.2438C20.6901 13.3235 20.5966 13.3869 20.4935 13.4304C20.3904 13.4739 20.2798 13.4967 20.1679 13.4973C20.057 13.4973 19.9471 13.4752 19.8448 13.4324C19.7424 13.3896 19.6496 13.3269 19.5716 13.248C19.4535 13.1282 19.3731 12.9763 19.3405 12.8112C19.3079 12.6461 19.3245 12.4751 19.3881 12.3193C19.4518 12.1636 19.5598 12.0299 19.6987 11.935C19.8377 11.84 20.0014 11.7879 20.1696 11.7852C20.3666 11.7851 20.5572 11.8542 20.7084 11.9804L20.7258 11.9979C20.754 12.0208 20.7797 12.0465 20.8026 12.0746L20.8217 12.0955C20.9465 12.2493 21.0143 12.4415 21.0135 12.6395Z" fill="white"/>
<defs>
<linearGradient id="paint0_linear_4149_4485" x1="7.03744" y1="7.03891" x2="25.7773" y2="25.7788" gradientUnits="userSpaceOnUse">
<stop stop-color="#FAE100"/>
<stop offset="0.15" stop-color="#FCB720"/>
<stop offset="0.3" stop-color="#FF7950"/>
<stop offset="0.5" stop-color="#FF1C74"/>
<stop offset="1" stop-color="#6C1CD1"/>
</linearGradient>
</defs>
</svg>
