<svg class="w-[20px] md:w-[26px]" width="26" height="26" viewBox="0 0 26 26" fill="none" xmlns="http://www.w3.org/2000/svg">
    <rect width="26" height="26" rx="4" fill="url(#paint0_linear_877_4813)"/>
    <path d="M15.6274 6.5H10.3726C9.34596 6.50136 8.36173 6.9098 7.63577 7.63577C6.9098 8.36173 6.50136 9.34596 6.5 10.3726V15.6274C6.50136 16.654 6.9098 17.6383 7.63577 18.3642C8.36173 19.0902 9.34596 19.4986 10.3726 19.5H15.6274C16.6542 19.4991 17.6387 19.0908 18.3647 18.3647C19.0908 17.6387 19.4991 16.6542 19.5 15.6274V10.3726C19.4986 9.34596 19.0902 8.36173 18.3642 7.63577C17.6383 6.9098 16.654 6.50136 15.6274 6.5ZM18.1932 15.6274C18.1932 16.3079 17.9228 16.9605 17.4417 17.4417C16.9605 17.9228 16.3079 18.1932 15.6274 18.1932H10.3726C9.69214 18.1932 9.03952 17.9228 8.55834 17.4417C8.07717 16.9605 7.80684 16.3079 7.80684 15.6274V10.3726C7.80684 9.69214 8.07717 9.03952 8.55834 8.55834C9.03952 8.07717 9.69214 7.80684 10.3726 7.80684H15.6274C16.3079 7.80684 16.9605 8.07717 17.4417 8.55834C17.9228 9.03952 18.1932 9.69214 18.1932 10.3726V15.6274Z" fill="white"/>
    <path d="M13.0003 9.63892C12.3351 9.63858 11.6847 9.83557 11.1314 10.205C10.5781 10.5743 10.1468 11.0995 9.89206 11.7141C9.63731 12.3287 9.57057 13.005 9.70028 13.6575C9.82998 14.31 10.1503 14.9093 10.6207 15.3798C11.0911 15.8502 11.6905 16.1705 12.343 16.3002C12.9955 16.4299 13.6718 16.3632 14.2864 16.1084C14.9009 15.8537 15.4261 15.4224 15.7955 14.8691C16.1649 14.3158 16.3619 13.6654 16.3615 13.0001C16.3606 12.1089 16.0062 11.2545 15.3761 10.6244C14.7459 9.99424 13.8915 9.63982 13.0003 9.63892ZM13.0003 15.0527C12.5944 15.0527 12.1975 14.9324 11.86 14.7068C11.5224 14.4813 11.2593 14.1607 11.104 13.7856C10.9486 13.4106 10.908 12.9978 10.9872 12.5997C11.0664 12.2015 11.2619 11.8357 11.5489 11.5487C11.836 11.2616 12.2017 11.0661 12.5999 10.9869C12.9981 10.9077 13.4108 10.9484 13.7859 11.1037C14.1609 11.2591 14.4815 11.5222 14.707 11.8597C14.9326 12.1973 15.053 12.5941 15.053 13.0001C15.053 13.5445 14.8367 14.0666 14.4518 14.4515C14.0668 14.8365 13.5447 15.0527 13.0003 15.0527Z" fill="white"/>
    <path d="M16.3821 10.4703C16.8412 10.4703 17.2134 10.0981 17.2134 9.63893C17.2134 9.17981 16.8412 8.80762 16.3821 8.80762C15.923 8.80762 15.5508 9.17981 15.5508 9.63893C15.5508 10.0981 15.923 10.4703 16.3821 10.4703Z" fill="white"/>
    <defs>
    <linearGradient id="paint0_linear_877_4813" x1="13" y1="0" x2="13" y2="26" gradientUnits="userSpaceOnUse">
    <stop stop-color="#7024C4"/>
    <stop offset="0.479167" stop-color="#C4286A"/>
    <stop offset="1" stop-color="#D16A47"/>
    </linearGradient>
    </defs>
</svg>
