<svg class="mr-2" width="20" height="20" viewBox="0 0 24 24" fill="none" xmlns="http://www.w3.org/2000/svg">
    <path d="M2 11.0196L2.98039 7.45923M8.86273 11.0196L7.93394 7.45923M2.98039 7.45923L4.48366 2H6.5098L7.93394 7.45923M2.98039 7.45923H7.93394" stroke="#3362CC" stroke-width="1"/>
    <path d="M12.2617 14.2875C15.8565 10.6273 19.2226 17 14.2226 17.5556M14.2226 17.5556C19.2226 18.6667 15.3993 24.5979 12.2617 20.5127M14.2226 17.5556L19.8434 17.4902M19.8434 17.4902V13.307H22.0003M19.8434 17.4902V22.0002" stroke="#3362CC" stroke-width="1"/>
    <path d="M12.9805 5.26776C16.1177 5.26776 16.706 5.5292 16.706 8.66645" stroke="#3362CC" stroke-width="1"/>
    <path d="M8.79785 17.49C5.6606 17.49 5.07237 17.2285 5.07237 14.0913" stroke="#3362CC" stroke-width="1"/>
</svg>
