<svg xmlns="http://www.w3.org/2000/svg" width="26" height="26" viewBox="0 0 26 26" fill="none"><script xmlns=""/>
    <path d="M18.5 13C18.5 16.0376 16.0376 18.5 13 18.5C9.96243 18.5 7.5 16.0376 7.5 13C7.5 9.96243 9.96243 7.5 13 7.5C16.0376 7.5 18.5 9.96243 18.5 13Z" stroke="white"/>
    <path d="M13 4C12.7348 4 12.4804 3.89464 12.2929 3.70711C12.1054 3.51957 12 3.26522 12 3V1C12 0.734784 12.1054 0.48043 12.2929 0.292893C12.4804 0.105357 12.7348 0 13 0C13.2652 0 13.5196 0.105357 13.7071 0.292893C13.8946 0.48043 14 0.734784 14 1V3C14 3.26522 13.8946 3.51957 13.7071 3.70711C13.5196 3.89464 13.2652 4 13 4Z" fill="white"/>
    <path d="M13 26C12.7348 26 12.4804 25.8946 12.2929 25.7071C12.1054 25.5196 12 25.2652 12 25V23C12 22.7348 12.1054 22.4804 12.2929 22.2929C12.4804 22.1054 12.7348 22 13 22C13.2652 22 13.5196 22.1054 13.7071 22.2929C13.8946 22.4804 14 22.7348 14 23V25C14 25.2652 13.8946 25.5196 13.7071 25.7071C13.5196 25.8946 13.2652 26 13 26Z" fill="white"/>
    <path d="M3 14H1C0.734784 14 0.48043 13.8946 0.292893 13.7071C0.105357 13.5196 0 13.2652 0 13C0 12.7348 0.105357 12.4804 0.292893 12.2929C0.48043 12.1054 0.734784 12 1 12H3C3.26522 12 3.51957 12.1054 3.70711 12.2929C3.89464 12.4804 4 12.7348 4 13C4 13.2652 3.89464 13.5196 3.70711 13.7071C3.51957 13.8946 3.26522 14 3 14Z" fill="white"/>
    <path d="M25 14H23C22.7348 14 22.4804 13.8946 22.2929 13.7071C22.1054 13.5196 22 13.2652 22 13C22 12.7348 22.1054 12.4804 22.2929 12.2929C22.4804 12.1054 22.7348 12 23 12H25C25.2652 12 25.5196 12.1054 25.7071 12.2929C25.8946 12.4804 26 12.7348 26 13C26 13.2652 25.8946 13.5196 25.7071 13.7071C25.5196 13.8946 25.2652 14 25 14Z" fill="white"/>
    <path d="M4.50984 22.49C4.24607 22.4863 3.99447 22.3784 3.80984 22.19C3.62358 22.0026 3.51904 21.7492 3.51904 21.485C3.51904 21.2208 3.62358 20.9674 3.80984 20.78L5.21984 19.36C5.40814 19.1717 5.66353 19.0659 5.92984 19.0659C6.19614 19.0659 6.45153 19.1717 6.63984 19.36C6.82814 19.5483 6.93393 19.8037 6.93393 20.07C6.93393 20.3363 6.82814 20.5917 6.63984 20.78L5.21984 22.19C5.12722 22.2845 5.01678 22.3597 4.8949 22.4112C4.77303 22.4627 4.64214 22.4895 4.50984 22.49Z" fill="white"/>
    <path d="M20.0698 6.92979C19.9382 6.93055 19.8077 6.90533 19.6859 6.85556C19.564 6.8058 19.4532 6.73247 19.3598 6.63979C19.266 6.54683 19.1916 6.43623 19.1409 6.31437C19.0901 6.19251 19.064 6.0618 19.064 5.92979C19.064 5.79778 19.0901 5.66708 19.1409 5.54522C19.1916 5.42336 19.266 5.31276 19.3598 5.21979L20.7798 3.80979C20.9711 3.64597 21.2171 3.56036 21.4688 3.57008C21.7205 3.5798 21.9592 3.68414 22.1373 3.86223C22.3154 4.04032 22.4198 4.27906 22.4295 4.53074C22.4392 4.78242 22.3536 5.02849 22.1898 5.21979L20.7798 6.63979C20.6863 6.73247 20.5755 6.8058 20.4537 6.85556C20.3318 6.90533 20.2014 6.93055 20.0698 6.92979Z" fill="white"/>
    <path d="M21.49 22.49C21.3577 22.4895 21.2268 22.4627 21.1049 22.4112C20.9831 22.3597 20.8726 22.2845 20.78 22.19L19.36 20.78C19.2668 20.6868 19.1928 20.5761 19.1423 20.4543C19.0919 20.3324 19.0659 20.2019 19.0659 20.07C19.0659 19.9382 19.0919 19.8076 19.1423 19.6858C19.1928 19.5639 19.2668 19.4532 19.36 19.36C19.4532 19.2668 19.5639 19.1928 19.6858 19.1423C19.8076 19.0919 19.9382 19.0659 20.07 19.0659C20.2019 19.0659 20.3324 19.0919 20.4543 19.1423C20.5761 19.1928 20.6868 19.2668 20.78 19.36L22.19 20.78C22.3763 20.9674 22.4808 21.2208 22.4808 21.485C22.4808 21.7492 22.3763 22.0026 22.19 22.19C22.0054 22.3784 21.7538 22.4863 21.49 22.49Z" fill="white"/>
    <path d="M5.92979 6.92979C5.79819 6.93055 5.66772 6.90533 5.54589 6.85556C5.42405 6.8058 5.31323 6.73247 5.21979 6.63979L3.80979 5.21979C3.64597 5.02849 3.56036 4.78242 3.57008 4.53074C3.5798 4.27906 3.68414 4.04032 3.86223 3.86223C4.04032 3.68414 4.27906 3.5798 4.53074 3.57008C4.78242 3.56036 5.02849 3.64597 5.21979 3.80979L6.63979 5.21979C6.73352 5.31276 6.80792 5.42336 6.85868 5.54522C6.90945 5.66708 6.93559 5.79778 6.93559 5.92979C6.93559 6.0618 6.90945 6.19251 6.85868 6.31437C6.80792 6.43623 6.73352 6.54683 6.63979 6.63979C6.54635 6.73247 6.43554 6.8058 6.3137 6.85556C6.19186 6.90533 6.0614 6.93055 5.92979 6.92979Z" fill="white"/>
</svg>
