<svg width="112" height="24" fill="none" xmlns="http://www.w3.org/2000/svg"><path fill-rule="evenodd" clip-rule="evenodd" d="M20.3 6.5C20.7 12 3.9 23.4 3.9 14 4 7 6.7 2.2 10.7.7c.9-.3 3-.3 4.8 0 2.7.7 4.6 2.9 4.8 5.8Z" fill="#0F4BA0"/><path fill-rule="evenodd" clip-rule="evenodd" d="M23.4 10.7A17.2 17.2 0 0 1 3.8 20a11.6 11.6 0 0 0 19.6-9.3Z" fill="#E00B1A"/><path fill-rule="evenodd" clip-rule="evenodd" d="M10 .1A12 12 0 0 0 0 11.7c0 2 .5 4 1.5 5.6L1.3 15C1.3 8.7 4.8 3.2 10 .1Z" fill="#0F4BA0"/><circle cx="27.7" cy="3.7" r="3.7" fill="#E20B1A"/><path d="M38.7 17.5v3.9h-.5v-3.9h.5Zm4.6 3.9h-.5l-2-3v3h-.6v-3.9h.5l2 3v-3h.6v3.9Zm2.7 0-.7-.1-.5-.4a1 1 0 0 1-.1-.6h.5c0 .2 0 .4.2.5l.6.2c.2 0 .4 0 .6-.2l.2-.5c0-.1 0-.2-.2-.3 0-.1-.1-.2-.3-.2l-.4-.2-.7-.2a1 1 0 0 1-.4-.3 1 1 0 0 1-.1-.6 1 1 0 0 1 .6-.9l.7-.1c.3 0 .6 0 .8.2.3.2.4.5.4.8h-.5l-.2-.4a.8.8 0 0 0-.6-.2c-.2 0-.4 0-.5.2l-.2.4.1.4.3.2.5.1.6.2.4.4.2.5c0 .2 0 .4-.2.6l-.4.4-.7.1Zm5.2-2.7c0 .3 0 .5-.3.8-.2.2-.5.3-1 .3h-.7v1.6h-.5v-3.9h1.2c.5 0 .8.1 1 .3.2.3.3.5.3.9Zm-1.3.7.6-.2c.2-.1.2-.3.2-.5 0-.5-.2-.8-.8-.8h-.7v1.5h.7Zm3.1-1.9v3.9h-.5v-3.9h.5Zm3.6 3.9-1-1.6h-.5v1.6h-.5v-3.9h1.2c.3 0 .5 0 .7.2a1 1 0 0 1 .6 1c0 .2 0 .5-.2.7l-.7.4 1 1.6h-.6Zm-1.5-2h.7c.3 0 .5 0 .6-.2l.2-.5c0-.3 0-.4-.2-.6l-.6-.2h-.7v1.5Zm3.9-1.9v3.9h-.4v-3.9h.5Zm4.6 3.9h-.5l-2-3v3h-.5v-3.9h.5l2 3v-3h.5v3.9Zm4.4-2.8c0-.2-.2-.4-.4-.5l-.7-.2-.7.2c-.3.1-.4.3-.6.6l-.1.7.1.8.6.6.7.2c.4 0 .7-.2 1-.4.2-.2.3-.5.3-.9h-1.5v-.4h2v.4a2 2 0 0 1-.9 1.5l-1 .2a1.9 1.9 0 0 1-2-2l.4-1 .7-.7a2 2 0 0 1 1-.2c.4 0 .8 0 1 .3.4.2.6.5.8.8H68Zm4.7-1.1v3.9h-.5v-3.9h.5Zm4.6 3.9h-.5l-2-3v3h-.6v-3.9h.6l2 3v-3h.5v3.9Zm4.5 0h-.5l-2-3v3h-.5v-3.9h.5l2 3v-3h.5v3.9Zm3.2 0a1.9 1.9 0 0 1-2-2l.4-1 .7-.7a2 2 0 0 1 1-.2c.3 0 .7 0 1 .2l.7.7.2 1c0 .4 0 .8-.2 1a1.8 1.8 0 0 1-1.7 1Zm0-.4c.3 0 .6 0 .8-.2l.5-.5.2-.9c0-.3 0-.5-.2-.8l-.5-.5-.7-.2c-.3 0-.5 0-.7.2-.3.1-.4.3-.6.5l-.1.8.1.9a1.3 1.3 0 0 0 1.3.7Zm6.5-3.5-1.4 3.9h-.6L88 17.5h.6l1.2 3.3 1.2-3.3h.5Zm3.5 3h-1.7l-.3.9h-.5l1.4-3.8h.6l1.3 3.8h-.5l-.3-.9Zm-.1-.4-.7-2-.7 2h1.4Zm4.6-2.6v.4h-1v3.5h-.6v-3.5h-1v-.4h2.6Zm1.8 0v3.9h-.5v-3.9h.5Zm3.2 3.9a1.9 1.9 0 0 1-2-2l.3-1 .7-.7a2 2 0 0 1 1-.2c.4 0 .7 0 1 .2l.7.7c.2.3.3.7.3 1 0 .4-.1.8-.3 1a1.8 1.8 0 0 1-1.7 1Zm0-.4c.3 0 .5 0 .7-.2.3-.1.4-.3.6-.5l.1-.9-.1-.8-.5-.5-.8-.2c-.3 0-.5 0-.7.2l-.5.5-.2.8c0 .4 0 .6.2.9a1.3 1.3 0 0 0 1.2.7Zm6.3.4h-.5l-2-3v3h-.5v-3.9h.5l2 3v-3h.5v3.9Z" fill="#2B2D63"/><path d="m46.6 3-4 10.7h-2.5L36 3h2.4l3 8.5L44.2 3h2.3Zm3.6 0v10.7H48V3h2.2Zm5.9 10.8c-.7 0-1.4-.1-2-.4a3 3 0 0 1-1.4-1.1 3 3 0 0 1-.6-1.7h2.3c0 .4.2.8.5 1 .3.3.7.4 1.2.4s.9 0 1.1-.3c.3-.3.5-.6.5-1a1 1 0 0 0-.3-.8 2 2 0 0 0-.8-.4 10 10 0 0 0-1.1-.4l-1.8-.6a2 2 0 0 1-1-1c-.4-.3-.5-.9-.5-1.6 0-.6.1-1.1.4-1.6a3 3 0 0 1 1.4-1c.6-.3 1.2-.5 2-.5 1 0 2 .3 2.6.8A3 3 0 0 1 59.8 6h-2.4c0-.4-.2-.7-.5-1-.2-.2-.6-.3-1.1-.3-.4 0-.8.1-1 .3-.3.2-.4.6-.4 1 0 .2.1.5.3.7l.7.4 1.2.4 1.7.7c.4.2.8.5 1.1.9.3.4.5 1 .5 1.6a3 3 0 0 1-1.8 2.8c-.5.2-1.2.4-2 .4ZM64 3v10.7h-2V3h2Zm7.2 10.8a5.5 5.5 0 0 1-4.7-2.7c-.5-.8-.8-1.7-.8-2.8a5.4 5.4 0 0 1 5.5-5.5c1 0 2 .3 2.8.7a5.4 5.4 0 0 1 2.7 4.8 5.2 5.2 0 0 1-2.7 4.8c-.8.5-1.8.7-2.8.7Zm0-2c.7 0 1.2 0 1.7-.4a3 3 0 0 0 1.2-1.2 4 4 0 0 0 .4-1.9 4 4 0 0 0-.4-1.9 3 3 0 0 0-1.2-1.2 3 3 0 0 0-1.7-.4c-.6 0-1.2.1-1.7.4a3 3 0 0 0-1.1 1.2 4 4 0 0 0-.4 1.9c0 .7 0 1.3.4 1.9.2.5.6 1 1.1 1.2.5.3 1 .5 1.7.5Zm16.4 1.9h-2.2l-4.8-7.4v7.4h-2.2V3h2.2l4.8 7.3V3h2.2v10.7Z" fill="#0B4BA0"/><path d="M91.6 3v10.7h-1.8V3h1.8Zm8.8 8.5H96l-.8 2.2h-1.8L97.2 3h2l3.8 10.7h-1.8l-.8-2.2Zm-.5-1.4-1.7-5-1.7 5h3.4Zm8.4 3.7c-.7 0-1.3-.1-2-.4-.5-.2-1-.6-1.3-1-.3-.5-.5-1-.5-1.7h2c0 .5.1.9.5 1.2.3.3.7.4 1.3.4.6 0 1-.1 1.4-.4.4-.3.5-.7.5-1.1 0-.4 0-.7-.3-1a2 2 0 0 0-.8-.4c-.3-.2-.7-.3-1.3-.4l-1.7-.6c-.4-.2-.8-.5-1-.9-.4-.4-.5-1-.5-1.6a2.8 2.8 0 0 1 1.7-2.6c.6-.3 1.2-.4 2-.4 1 0 1.8.2 2.5.8.6.5 1 1.2 1 2H110c0-.3-.2-.6-.5-1a2 2 0 0 0-1.3-.3c-.5 0-1 .1-1.3.4-.3.2-.4.6-.4 1s0 .7.3.9l.7.5 1.3.4 1.7.5c.4.2.8.5 1.1 1a2.9 2.9 0 0 1 0 3.1c-.2.5-.7.9-1.2 1.2a6 6 0 0 1-2 .4Z" fill="#E00B1A"/></svg>
