<svg width="16" height="17" fill="#3362CC" class="dark:fill-white" xmlns="http://www.w3.org/2000/svg"><path d="M8.1 16.4c1.4 0 2.6 0 3.3-.3v-.7c-.8.2-2 .4-3.3.4-4.3 0-7.4-3-7.4-7.6C.7 3.7 3.8.6 8.1.6c4.2 0 7.2 2.7 7.2 6.8 0 2.8-.9 4.3-2.3 4.3-1.1 0-1.8-.8-1.8-2.3v-5h-.7V6a2.7 2.7 0 0 0-2.8-2c-2 0-3.4 1.7-3.4 4.2 0 2.4 1.3 4.1 3.4 4.1a3 3 0 0 0 2.8-2v.1c.3 1.2 1.2 2 2.3 2 2 0 3.1-1.8 3.1-5C16 3 12.7 0 8.1 0A7.8 7.8 0 0 0 0 8.1c0 5 3.4 8.3 8.1 8.3Zm-.3-4.6c-1.6 0-2.7-1.4-2.7-3.5 0-2 1.1-3.5 2.7-3.5 1.7 0 2.7 1.3 2.7 3.4 0 2.2-1 3.6-2.7 3.6Z"/></svg>
