<svg width="16" height="17" viewBox="0 0 16 17" fill="#3362CC" class="dark:fill-white" xmlns="http://www.w3.org/2000/svg">
<path d="M8.10878 16.4351C9.50309 16.4351 10.6502 16.3066 11.3622 16.0692V15.4067C10.6403 15.644 9.45365 15.7824 8.11866 15.7824C3.78739 15.7824 0.702101 12.7565 0.702101 8.15822V8.14833C0.702101 3.80717 3.83684 0.652658 8.06922 0.652658C12.3313 0.652658 15.288 3.42151 15.288 7.51545V7.52534C15.288 10.2744 14.4178 11.8269 12.9543 11.8269C11.8665 11.8269 11.1842 10.9864 11.1842 9.53276V4.35105H10.4821V5.99258H10.4326C10.0766 4.86527 9.02843 4.14339 7.77256 4.14339C5.75525 4.14339 4.38072 5.82447 4.38072 8.28677V8.29666C4.38072 10.7491 5.74536 12.4302 7.77256 12.4302C9.01854 12.4302 10.0865 11.7379 10.581 10.3634H10.6304L10.6601 10.5117C10.9271 11.7379 11.7775 12.4697 12.9444 12.4697C14.8133 12.4697 16 10.6799 16 7.52534V7.51545C16 3.02596 12.7268 0 8.11866 0C3.40173 0 0 3.40173 0 8.14833V8.15822C0 13.1619 3.36218 16.4351 8.10878 16.4351ZM7.83189 11.7676C6.22991 11.7676 5.12237 10.3634 5.12237 8.29666V8.28677C5.12237 6.2398 6.2398 4.79604 7.84178 4.79604C9.46354 4.79604 10.4821 6.10136 10.4821 8.20766V8.21755C10.4821 10.3634 9.43387 11.7676 7.83189 11.7676Z"/>
</svg>
