<svg version="1.1" id="Layer_1" xmlns="http://www.w3.org/2000/svg" xmlns:xlink="http://www.w3.org/1999/xlink" x="0px" y="0px"
     viewBox="0 0 200 60" style="enable-background:new 0 0 200 50;" xml:space="preserve">
<style type="text/css">
	.st0{fill:#CE3232;stroke:#CE3232;stroke-width:0.8`82;stroke-linecap:round;stroke-linejoin:round;stroke-miterlimit:10;}
	.st1{opacity:0.12;}
	.st2{stroke:#000000;stroke-width:0.4783;stroke-miterlimit:10;}
	.st3{fill:#3B1515;stroke:#3B1515;stroke-width:0.3587;stroke-miterlimit:10;}
	.st4{fill:#1061AE;}
	.st5{fill:#EB262A;}
	.st6{fill:#1562AF;}
	.st7{fill:#3B1515;}
</style>
    <g clip-path="url(#clip0_4063_11447)">
        <path d="M15.6994 35.98V40.91C15.3094 40.35 14.8094 39.92 14.2094 39.63C13.6094 39.34 12.9794 39.19 12.3194 39.19C11.1394 39.19 10.1894 39.61 9.45937 40.46C8.72937 41.31 8.36937 42.34 8.36937 43.57C8.36937 44.81 8.73937 45.84 9.47937 46.65C10.2194 47.46 11.1894 47.87 12.3794 47.87C13.0094 47.87 13.6194 47.72 14.2094 47.42C14.7994 47.12 15.2994 46.71 15.6994 46.19V51.09C15.3494 51.22 15.0094 51.32 14.6994 51.41C14.3894 51.5 14.0794 51.58 13.7794 51.65C13.5394 51.71 13.3094 51.75 13.0594 51.78C12.8194 51.81 12.5694 51.82 12.2994 51.82C11.2694 51.82 10.2694 51.62 9.31937 51.22C8.36937 50.82 7.50937 50.25 6.73937 49.51C5.92937 48.73 5.32937 47.83 4.93937 46.82C4.54937 45.81 4.35938 44.71 4.35938 43.54C4.35938 42.46 4.54937 41.42 4.91937 40.42C5.28937 39.41 5.82937 38.53 6.53937 37.76C7.24937 36.99 8.07937 36.38 9.03937 35.93C9.99937 35.48 10.9794 35.24 12.0094 35.21C12.0394 35.21 12.0694 35.21 12.0994 35.21C12.1294 35.21 12.1594 35.21 12.1894 35.21C12.8094 35.21 13.3994 35.28 13.9894 35.42C14.5694 35.56 15.1494 35.76 15.7094 36.01V35.98H15.6994Z" fill="#CE3232" stroke="#CE3232" stroke-width="0.8" stroke-miterlimit="10" stroke-linecap="round" stroke-linejoin="round"/>
        <path d="M31.5884 35.6001V44.4901C31.5884 45.5201 31.5084 46.5201 31.3584 47.4901C31.2084 48.4501 30.7684 49.3201 30.0284 50.0901C29.5584 50.5901 28.9984 50.9701 28.3484 51.2301C27.6984 51.4901 27.0384 51.6601 26.3584 51.7401C26.1484 51.7701 25.9384 51.7901 25.7284 51.8001C25.5184 51.8101 25.3184 51.8201 25.1184 51.8201C24.9184 51.8201 24.7184 51.8101 24.5084 51.8001C24.2984 51.7901 24.0884 51.7601 23.8784 51.7401C23.1984 51.6601 22.5284 51.4801 21.8884 51.2301C21.2384 50.9701 20.6784 50.5901 20.2084 50.0901C19.4784 49.3201 19.0284 48.4601 18.8784 47.4901C18.7284 46.5301 18.6484 45.5301 18.6484 44.5101V35.6001H22.4984V43.9201C22.4984 44.0201 22.4984 44.1101 22.4984 44.1801C22.4984 44.2601 22.4984 44.3401 22.4984 44.4201C22.5084 45.3701 22.6684 46.2401 22.9584 47.0401C23.2484 47.8401 23.9684 48.2301 25.1084 48.2301C26.2484 48.2301 26.9684 47.8301 27.2584 47.0401C27.5484 46.2401 27.7084 45.3701 27.7184 44.4201C27.7184 44.3401 27.7184 44.2601 27.7184 44.1801C27.7184 44.1001 27.7184 44.0201 27.7184 43.9401V35.6001H31.5884Z" fill="#CE3232" stroke="#CE3232" stroke-width="0.8" stroke-miterlimit="10" stroke-linecap="round" stroke-linejoin="round"/>
        <path d="M42.3492 44.9301L47.0092 51.4101H42.2192L38.5892 45.3301H38.5492V51.4101H34.6992V35.6001H40.4592C41.9292 35.6101 43.1492 36.0101 44.1292 36.7801C45.1092 37.5601 45.5992 38.7901 45.5992 40.4801C45.5992 41.5701 45.3192 42.5401 44.7592 43.3801C44.1992 44.2301 43.3992 44.7501 42.3492 44.9401V44.9301ZM38.5392 42.6801H38.9092C38.9792 42.6901 39.0392 42.7001 39.1092 42.7001C39.1792 42.7001 39.2292 42.7001 39.2892 42.7001C39.8692 42.6701 40.3892 42.5301 40.8692 42.2701C41.3492 42.0101 41.5892 41.5001 41.5892 40.7301C41.5892 39.9501 41.3492 39.4301 40.8692 39.1701C40.3892 38.9101 39.8592 38.7601 39.2892 38.7401C39.2392 38.7401 39.1792 38.7401 39.1092 38.7401C39.0392 38.7401 38.9792 38.7401 38.9092 38.7401H38.5392V42.6801Z" fill="#CE3232" stroke="#CE3232" stroke-width="0.8" stroke-miterlimit="10" stroke-linecap="round" stroke-linejoin="round"/>
        <path d="M56.3785 44.9301L61.0385 51.4101H56.2485L52.6185 45.3301H52.5785V51.4101H48.7285V35.6001H54.4885C55.9585 35.6101 57.1785 36.0101 58.1585 36.7801C59.1385 37.5601 59.6285 38.7901 59.6285 40.4801C59.6285 41.5701 59.3485 42.5401 58.7885 43.3801C58.2285 44.2301 57.4285 44.7501 56.3785 44.9401V44.9301ZM52.5685 42.6801H52.9385C53.0085 42.6901 53.0685 42.7001 53.1385 42.7001C53.2085 42.7001 53.2585 42.7001 53.3185 42.7001C53.8985 42.6701 54.4185 42.5301 54.8985 42.2701C55.3785 42.0101 55.6185 41.5001 55.6185 40.7301C55.6185 39.9501 55.3785 39.4301 54.8985 39.1701C54.4185 38.9101 53.8885 38.7601 53.3185 38.7401C53.2685 38.7401 53.2085 38.7401 53.1385 38.7401C53.0685 38.7401 53.0085 38.7401 52.9385 38.7401H52.5685V42.6801Z" fill="#CE3232" stroke="#CE3232" stroke-width="0.8" stroke-miterlimit="10" stroke-linecap="round" stroke-linejoin="round"/>
        <path d="M66.5902 39.0801V41.7201H70.9302V45.2001H66.5902V47.9201H71.1702V51.4001H62.7402V35.6001H71.1702V39.0801H66.5902Z" fill="#CE3232" stroke="#CE3232" stroke-width="0.8" stroke-miterlimit="10" stroke-linecap="round" stroke-linejoin="round"/>
        <path d="M74.2188 35.6001H78.0687L85.1188 45.2601H85.1588V35.6001H89.0088V51.4001H85.1588L78.1087 41.7201H78.0687V51.4001H74.2188V35.6001Z" fill="#CE3232" stroke="#CE3232" stroke-width="0.8" stroke-miterlimit="10" stroke-linecap="round" stroke-linejoin="round"/>
        <path d="M98.0886 51.4001H94.2386V39.0801H91.0586V35.6001H101.279V39.0801H98.0986V51.4001H98.0886Z" fill="#CE3232" stroke="#CE3232" stroke-width="0.8" stroke-miterlimit="10" stroke-linecap="round" stroke-linejoin="round"/>
        <path d="M114.508 48.6599L113.488 51.4099H109.398L115.098 35.6099H119.298L124.878 51.4099H120.768L119.808 48.6599H114.508ZM117.198 40.4799H117.158L115.568 45.5099H118.768L117.198 40.4799Z" fill="#CE3232" stroke="#CE3232" stroke-width="0.8" stroke-miterlimit="10" stroke-linecap="round" stroke-linejoin="round"/>
        <path d="M130.6 39.0801V41.7201H134.82V45.2001H130.6V51.4001H126.75V35.6001H135.26V39.0801H130.6Z" fill="#CE3232" stroke="#CE3232" stroke-width="0.8" stroke-miterlimit="10" stroke-linecap="round" stroke-linejoin="round"/>
        <path d="M141.909 39.0801V41.7201H146.129V45.2001H141.909V51.4001H138.059V35.6001H146.569V39.0801H141.909Z" fill="#CE3232" stroke="#CE3232" stroke-width="0.8" stroke-miterlimit="10" stroke-linecap="round" stroke-linejoin="round"/>
        <path d="M152.069 48.6599L151.049 51.4099H146.959L152.659 35.6099H156.859L162.439 51.4099H158.329L157.369 48.6599H152.069ZM154.759 40.4799H154.719L153.129 45.5099H156.329L154.759 40.4799Z" fill="#CE3232" stroke="#CE3232" stroke-width="0.8" stroke-miterlimit="10" stroke-linecap="round" stroke-linejoin="round"/>
        <path d="M168.159 51.4001H164.309V35.6001H168.159V51.4001Z" fill="#CE3232" stroke="#CE3232" stroke-width="0.8" stroke-miterlimit="10" stroke-linecap="round" stroke-linejoin="round"/>
        <path d="M179 44.9301L183.66 51.4101H178.87L175.24 45.3301H175.2V51.4101H171.35V35.6001H177.11C178.58 35.6101 179.8 36.0101 180.78 36.7801C181.76 37.5601 182.25 38.7901 182.25 40.4801C182.25 41.5701 181.97 42.5401 181.41 43.3801C180.85 44.2301 180.05 44.7501 179 44.9401V44.9301ZM175.19 42.6801H175.56C175.63 42.6901 175.69 42.7001 175.76 42.7001C175.83 42.7001 175.88 42.7001 175.94 42.7001C176.52 42.6701 177.04 42.5301 177.52 42.2701C178 42.0101 178.24 41.5001 178.24 40.7301C178.24 39.9501 178 39.4301 177.52 39.1701C177.04 38.9101 176.51 38.7601 175.94 38.7401C175.89 38.7401 175.83 38.7401 175.76 38.7401C175.69 38.7401 175.63 38.7401 175.56 38.7401H175.19V42.6801Z" fill="#CE3232" stroke="#CE3232" stroke-width="0.8" stroke-miterlimit="10" stroke-linecap="round" stroke-linejoin="round"/>
        <path d="M195.03 36.48L193.5 39.67C193.15 39.36 192.75 39.11 192.31 38.93C191.87 38.74 191.42 38.65 190.94 38.65C190.87 38.65 190.8 38.65 190.72 38.66C190.64 38.67 190.56 38.68 190.48 38.71C190.18 38.78 189.9 38.92 189.66 39.13C189.41 39.34 189.29 39.62 189.29 39.97C189.29 40.31 189.41 40.57 189.64 40.78C189.88 40.98 190.13 41.15 190.41 41.27C190.51 41.31 190.62 41.35 190.71 41.39C190.81 41.43 190.9 41.46 190.99 41.48L191.97 41.77C193 42.11 193.87 42.59 194.57 43.23C195.27 43.87 195.62 44.83 195.62 46.11C195.62 46.17 195.62 46.22 195.62 46.28C195.62 46.34 195.62 46.39 195.62 46.45C195.59 47.18 195.47 47.89 195.25 48.58C195.03 49.27 194.64 49.87 194.09 50.37C193.59 50.83 193.03 51.17 192.4 51.4C191.77 51.62 191.13 51.76 190.47 51.82C190.37 51.82 190.26 51.82 190.17 51.83C190.07 51.84 189.98 51.84 189.89 51.84C188.96 51.84 188.05 51.68 187.16 51.37C186.27 51.06 185.44 50.62 184.68 50.06L186.33 46.73C186.81 47.19 187.34 47.58 187.91 47.9C188.48 48.22 189.09 48.38 189.75 48.38C189.78 48.38 189.8 48.38 189.83 48.38C189.86 48.38 189.88 48.38 189.91 48.38C190.34 48.35 190.74 48.21 191.09 47.95C191.44 47.69 191.62 47.3 191.62 46.79C191.62 46.4 191.47 46.08 191.18 45.85C190.89 45.61 190.55 45.42 190.19 45.28C190.03 45.22 189.88 45.17 189.72 45.12C189.56 45.07 189.42 45.03 189.29 44.98C189.26 44.97 189.23 44.96 189.2 44.95C189.17 44.94 189.14 44.93 189.11 44.92C187.94 44.57 187.01 44.12 186.32 43.58C185.63 43.04 185.28 42.02 185.28 40.52C185.28 38.91 185.76 37.63 186.72 36.66C187.68 35.7 188.9 35.21 190.38 35.21C190.68 35.21 190.99 35.23 191.3 35.26C191.61 35.3 191.93 35.35 192.24 35.44C192.74 35.55 193.23 35.7 193.7 35.88C194.18 36.06 194.61 36.27 195.01 36.51V36.48H195.03Z" fill="#CE3232" stroke="#CE3232" stroke-width="0.8" stroke-miterlimit="10" stroke-linecap="round" stroke-linejoin="round"/>
        <g opacity="0.12">
            <path d="M79.3593 25.2103C78.8393 25.6603 78.2493 25.9003 77.6093 25.9503C76.9693 26.0003 76.3893 25.8403 75.8593 25.4803C75.3393 25.1203 74.9193 24.5703 74.6093 23.8303C74.2993 23.0903 74.2093 22.1603 74.3493 21.0303C74.4693 20.0403 74.6393 18.9903 74.8693 17.8803C75.0993 16.7703 75.3493 15.7103 75.5993 14.6903C75.8493 13.6703 76.0993 12.7603 76.3393 11.9503C76.5793 11.1403 76.7793 10.5503 76.9393 10.1603C76.8393 10.3203 76.6593 10.6303 76.3993 11.0903C76.1393 11.5603 75.8393 12.1003 75.5093 12.7103C75.1793 13.3203 74.8293 13.9803 74.4493 14.6903C74.0693 15.4003 73.7193 16.0803 73.3993 16.7403C73.0793 17.4003 72.7993 18.0003 72.5693 18.5503C72.3393 19.0903 72.1893 19.5103 72.1293 19.8003C72.0893 19.9403 71.9293 20.0203 71.6493 20.0603C71.3693 20.1003 71.0593 20.0803 70.7193 20.0003C70.3793 19.9203 70.0693 19.7803 69.7993 19.5803C69.5293 19.3803 69.3793 19.0803 69.3593 18.6903C69.3393 18.4403 69.3593 18.0703 69.4293 17.6003C69.4993 17.1203 69.5893 16.5903 69.7093 15.9803C69.8293 15.3803 69.9593 14.7503 70.1193 14.1003C70.2793 13.4503 70.4293 12.8303 70.5693 12.2303C70.7193 11.6403 70.8493 11.1003 70.9593 10.6303C71.0793 10.1503 71.1693 9.80029 71.2493 9.57029C70.5293 10.7203 69.8493 11.9103 69.2093 13.1403C68.5693 14.3703 67.9793 15.6003 67.4293 16.8303C66.8893 18.0503 66.3893 19.2303 65.9393 20.3603C65.4893 21.4903 65.1093 22.5203 64.7993 23.4503C64.7193 23.6803 64.4893 23.8003 64.0993 23.8003C63.7093 23.8003 63.3193 23.7103 62.9193 23.5203C62.5193 23.3403 62.1893 23.0803 61.9293 22.7503C61.6693 22.4203 61.6193 22.0303 61.7993 21.5803C62.2493 20.5103 62.6393 19.5403 62.9793 18.6703C63.3193 17.8003 63.6893 16.8003 64.0893 15.7003C64.4893 14.5903 64.8793 13.4603 65.2593 12.3103C65.6393 11.1503 65.9693 10.0203 66.2493 8.92029C66.5293 7.82029 66.7293 6.83029 66.8493 5.96029C66.9693 5.10029 66.9593 4.40029 66.8393 3.88029C66.7093 3.36029 66.4293 3.09029 65.9793 3.09029C65.5093 3.11029 65.0093 3.34029 64.4593 3.79029C63.9193 4.24029 63.3793 4.82029 62.8593 5.55029C62.3393 6.28029 61.8393 7.10029 61.3593 8.01029C60.8793 8.92029 60.4893 9.85029 60.1693 10.7903C59.8493 11.7303 59.6293 12.6503 59.4993 13.5303C59.3693 14.4103 59.3893 15.1803 59.5393 15.8203C59.6793 16.3303 59.9693 16.6603 60.4293 16.8303C60.8893 17.0003 61.3793 16.9103 61.8993 16.5803C61.8193 16.8703 61.6093 17.1203 61.2693 17.3203C60.9293 17.5203 60.5393 17.6503 60.0993 17.7003C59.6593 17.7503 59.2093 17.7203 58.7493 17.6103C58.2793 17.5003 57.8793 17.2803 57.5293 16.9403C57.1793 16.6003 56.9193 16.1403 56.7593 15.5603C56.5893 14.9803 56.5993 14.2403 56.7693 13.3503C57.0193 12.0703 57.4393 10.7303 58.0393 9.3303C58.6293 7.9303 59.3493 6.66029 60.1993 5.51029C61.0493 4.36029 61.9893 3.42029 63.0293 2.67029C64.0693 1.92029 65.1593 1.55029 66.3093 1.55029C67.1493 1.55029 67.7893 1.77029 68.2493 2.21029C68.7093 2.65029 69.0093 3.20029 69.1693 3.87029C69.3293 4.54029 69.3693 5.30029 69.3193 6.14029C69.2593 6.99029 69.1493 7.83029 68.9693 8.68029C68.7893 9.53029 68.5893 10.3303 68.3593 11.0803C68.1293 11.8403 67.9193 12.4703 67.7493 12.9703C68.0593 12.3503 68.4693 11.5703 68.9893 10.6403C69.4993 9.71029 70.0293 8.77029 70.5793 7.83029C71.1193 6.89029 71.6393 6.02029 72.1393 5.22029C72.6393 4.42029 73.0293 3.84029 73.3193 3.47029C73.4793 3.28029 73.7193 3.22029 74.0593 3.30029C74.3993 3.38029 74.7293 3.53029 75.0493 3.77029C75.3693 4.00029 75.6293 4.27029 75.8193 4.56029C76.0093 4.85029 76.0493 5.09029 75.9393 5.29029C75.4693 6.11029 75.0593 7.00029 74.6993 7.99029C74.3393 8.97029 74.0293 9.91029 73.7693 10.8203C73.5093 11.7203 73.2993 12.5303 73.1393 13.2403C72.9793 13.9503 72.8693 14.4503 72.7893 14.7403C72.9093 14.5103 73.1393 14.0703 73.4893 13.4303C73.8393 12.7903 74.2493 12.0403 74.7293 11.1703C75.2093 10.3103 75.7293 9.39029 76.2893 8.42029C76.8493 7.45029 77.4093 6.53029 77.9493 5.67029C78.4893 4.81029 78.9993 4.03029 79.4693 3.35029C79.9393 2.67029 80.3193 2.19029 80.6093 1.92029C80.7493 1.78029 80.9593 1.76029 81.2693 1.85029C81.5693 1.94029 81.8693 2.07029 82.1593 2.26029C82.4493 2.44029 82.6893 2.66029 82.8693 2.90029C83.0493 3.14029 83.0893 3.36029 82.9693 3.56029C82.6793 4.07029 82.3293 4.77029 81.9193 5.67029C81.5093 6.57029 81.0793 7.60029 80.6393 8.74029C80.1893 9.89029 79.7493 11.1103 79.3093 12.4003C78.8693 13.6903 78.4893 14.9603 78.1593 16.2203C77.8293 17.4703 77.5693 18.6703 77.3893 19.8003C77.2093 20.9403 77.1393 21.9303 77.1993 22.7703C77.2593 23.6103 77.4593 24.2703 77.7993 24.7203C78.1093 25.1503 78.6393 25.3203 79.3593 25.2103Z" fill="black" stroke="black" stroke-width="0.4783" stroke-miterlimit="10"/>
            <path d="M113.02 13.8401C113.08 13.7001 113.18 13.6501 113.33 13.6701C113.48 13.6901 113.62 13.7401 113.77 13.8201C113.92 13.9001 114.04 13.9901 114.13 14.1001C114.23 14.2101 114.27 14.2901 114.25 14.3501C113.98 14.9101 113.64 15.5401 113.24 16.2201C112.84 16.9001 112.41 17.5601 111.96 18.1901C111.5 18.8201 111.04 19.3901 110.56 19.8901C110.08 20.4001 109.64 20.7501 109.23 20.9701C108.96 21.1101 108.65 21.1601 108.3 21.1301C107.95 21.1001 107.61 21.0301 107.28 20.9101C106.95 20.7901 106.66 20.6401 106.41 20.4401C106.16 20.2501 106.01 20.0501 105.97 19.8601C105.89 19.5301 105.89 19.0801 105.97 18.5201C106.05 17.9601 106.16 17.3901 106.31 16.8301C106.46 16.2701 106.6 15.7601 106.75 15.3001C106.9 14.8401 107 14.5501 107.06 14.4101C106.67 14.7401 106.23 15.2201 105.75 15.8401C105.26 16.4601 104.78 17.1201 104.31 17.8201C103.83 18.5201 103.4 19.2101 103 19.8901C102.6 20.5701 102.3 21.1301 102.08 21.5801C101.98 21.7501 101.79 21.8501 101.5 21.8601C101.21 21.8701 100.92 21.8301 100.63 21.7301C100.34 21.6301 100.08 21.5001 99.86 21.3201C99.64 21.1501 99.55 20.9701 99.61 20.8001C99.73 20.3301 99.9 19.7201 100.13 18.9501C100.36 18.1801 100.64 17.3501 100.95 16.4401C101.26 15.5401 101.61 14.6101 102 13.6601C102.39 12.7101 102.82 11.8201 103.28 11.0101C103.42 10.7401 103.63 10.6001 103.94 10.6001C104.24 10.6001 104.54 10.6701 104.83 10.8001C105.12 10.9401 105.36 11.1101 105.54 11.3201C105.72 11.5301 105.79 11.7201 105.73 11.8701C105.54 12.2801 105.33 12.6901 105.1 13.1101C104.88 13.5301 104.66 13.9201 104.46 14.2801C104.26 14.6401 104.08 14.9601 103.94 15.2301C103.79 15.5001 103.71 15.6901 103.69 15.7801C104 15.3301 104.34 14.8901 104.7 14.4401C105.06 13.9901 105.42 13.5801 105.78 13.1901C106.14 12.8001 106.5 12.4501 106.87 12.1401C107.24 11.8301 107.6 11.5701 107.95 11.3501C108.18 11.2101 108.47 11.1801 108.81 11.2301C109.15 11.2901 109.47 11.4001 109.76 11.5801C110.05 11.7501 110.28 11.9601 110.45 12.2101C110.61 12.4501 110.65 12.6901 110.55 12.9201C110.39 13.3101 110.19 13.7901 109.94 14.3601C109.69 14.9301 109.44 15.5401 109.21 16.1701C108.98 16.8001 108.77 17.4101 108.6 17.9901C108.42 18.5701 108.34 19.0701 108.34 19.4801C108.71 19.2701 109.11 18.9701 109.53 18.5801C109.96 18.1901 110.38 17.7401 110.8 17.2401C111.22 16.7401 111.62 16.1901 112.01 15.6101C112.36 15.0101 112.71 14.4301 113.02 13.8401Z" fill="black" stroke="black" stroke-width="0.4783" stroke-miterlimit="10"/>
            <path d="M128.669 14.1301C128.809 13.9601 128.969 13.9001 129.169 13.9601C129.359 13.9801 129.549 14.0801 129.719 14.2501C129.879 14.4201 129.919 14.6201 129.869 14.8301C129.599 15.4101 129.269 16.0101 128.889 16.6201C128.509 17.2301 128.059 17.8601 127.539 18.5001C127.029 19.1201 126.549 19.6601 126.099 20.1001C125.639 20.5501 125.209 20.8901 124.799 21.1201C124.389 21.2801 123.969 21.3101 123.549 21.2401C123.079 21.1201 122.649 20.9601 122.239 20.7401C121.829 20.4901 121.599 20.2301 121.539 19.9501C121.499 19.6201 121.509 19.2601 121.569 18.8601C121.629 18.4601 121.729 18.0101 121.889 17.5001C122.049 17.0001 122.199 16.5501 122.339 16.1601C122.489 15.7701 122.619 15.4201 122.729 15.1101C122.769 15.0101 122.799 14.9401 122.829 14.8801C122.859 14.8201 122.869 14.7601 122.869 14.7101C121.999 15.5301 120.989 16.7701 119.839 18.4401C119.259 19.2801 118.759 20.0301 118.339 20.7001C117.919 21.3701 117.569 21.9601 117.279 22.4601C117.139 22.7101 116.859 22.8101 116.439 22.7501C116.229 22.7301 116.019 22.6901 115.829 22.6201C115.639 22.5501 115.439 22.4701 115.249 22.3701C114.899 22.1601 114.749 21.9101 114.809 21.6401C115.239 20.1801 116.029 18.1001 117.199 15.4001C118.399 12.6601 119.679 10.0601 121.019 7.59007C120.669 7.61007 120.319 7.64007 119.969 7.68007C119.619 7.72007 119.269 7.76007 118.919 7.80007C118.159 8.97007 117.469 10.1701 116.839 11.4101C116.209 12.6501 115.619 13.9501 115.079 15.2901C114.559 16.6101 114.139 17.8301 113.829 18.9301C113.519 20.0401 113.319 21.0601 113.249 21.9901C113.109 23.8401 113.659 24.7601 114.879 24.7601C114.159 25.5001 113.299 25.6301 112.289 25.1701C111.259 24.7001 110.659 23.6501 110.479 22.0201C110.459 21.3401 110.569 20.5201 110.799 19.5701C111.029 18.6201 111.369 17.5001 111.819 16.2201C112.309 14.9601 112.829 13.6901 113.389 12.4201C113.949 11.1501 114.569 9.85008 115.259 8.53008C114.699 8.70008 114.159 8.90008 113.659 9.11007C113.149 9.32007 112.699 9.57007 112.289 9.84007C112.079 9.96007 111.849 9.93007 111.619 9.75007C111.409 9.58007 111.209 9.32007 111.039 8.99007C110.959 8.85007 110.889 8.72007 110.839 8.58007C110.779 8.44007 110.739 8.31007 110.719 8.17007C110.659 7.88007 110.719 7.69008 110.899 7.62008C111.739 7.31008 112.629 7.03008 113.579 6.78008C114.529 6.53008 115.539 6.30007 116.609 6.11007C117.169 5.16008 117.709 4.32007 118.229 3.59007C118.739 2.86007 119.249 2.25007 119.759 1.74007C120.029 1.47007 120.409 1.46007 120.899 1.71007C121.369 1.90007 121.739 2.23008 122.039 2.70008C122.289 3.13008 122.269 3.54007 121.979 3.92007C121.469 4.43007 120.959 5.00007 120.439 5.64007C120.769 5.62007 121.089 5.61007 121.399 5.60007C121.709 5.59007 122.009 5.59007 122.299 5.59007C122.899 4.70007 123.439 4.03007 123.899 3.58007C124.309 3.29007 124.749 3.21007 125.209 3.35007C125.699 3.52007 126.089 3.78007 126.399 4.11007C126.689 4.46007 126.749 4.78007 126.569 5.07007C126.469 5.11007 126.349 5.19007 126.209 5.30007C126.069 5.41007 125.899 5.57007 125.729 5.77007C126.179 5.83007 126.579 5.91007 126.939 6.00007C127.299 6.10007 127.629 6.20007 127.949 6.32007C128.609 6.57007 129.079 6.97007 129.349 7.51007C129.449 7.78007 129.509 8.04007 129.549 8.30007C129.589 8.55007 129.589 8.82007 129.549 9.09007C129.429 9.60007 129.229 9.92007 128.939 10.0501C129.079 9.41007 128.719 8.87008 127.859 8.45008C127.409 8.26008 126.889 8.09008 126.289 7.95008C125.689 7.81008 124.999 7.72007 124.219 7.66007C122.429 10.0701 120.799 13.0801 119.319 16.6901C120.019 15.7201 120.789 14.7501 121.619 13.7801C122.029 13.3101 122.419 12.9001 122.799 12.5301C123.179 12.1601 123.539 11.8601 123.889 11.6301C124.079 11.5301 124.279 11.4701 124.489 11.4301C124.689 11.3901 124.909 11.4101 125.149 11.4901C125.619 11.6501 125.999 11.8801 126.289 12.1901C126.559 12.5601 126.629 12.9001 126.489 13.2101C126.409 13.3701 126.329 13.5401 126.239 13.7201C126.149 13.9001 126.049 14.1001 125.929 14.3201C125.719 14.7701 125.499 15.2201 125.289 15.6701C125.079 16.1301 124.859 16.6001 124.649 17.0801C124.199 18.0701 123.969 18.9101 123.949 19.5901C124.859 19.1001 125.759 18.3201 126.629 17.2301C127.059 16.6701 127.439 16.1301 127.779 15.6301C128.089 15.1201 128.389 14.6201 128.669 14.1301Z" fill="black" stroke="black" stroke-width="0.4783" stroke-miterlimit="10"/>
            <path d="M130.44 25.2401C130.36 25.2601 130.26 25.2601 130.13 25.2501C130 25.2401 129.84 25.2301 129.65 25.2101C129.28 25.2101 128.79 24.9701 128.19 24.4801C127.59 24.0101 127.16 23.2801 126.91 22.2701C126.89 22.1701 126.88 22.0701 126.87 21.9501C126.86 21.8301 126.86 21.7201 126.86 21.6001C126.82 20.8801 126.88 20.0401 127.05 19.0601C127.22 18.0901 127.49 16.9901 127.88 15.7701C128.25 14.5501 128.69 13.3201 129.19 12.0801C129.69 10.8501 130.26 9.61014 130.88 8.36014C131.5 7.14014 132.1 6.10014 132.67 5.26014C133.24 4.41014 133.78 3.76014 134.29 3.29014C134.45 3.19014 134.59 3.14014 134.73 3.14014C134.89 3.14014 135.07 3.18014 135.3 3.26014C135.52 3.34014 135.77 3.48014 136.04 3.70014L136.22 3.79014C136.74 4.10014 137.03 4.41014 137.06 4.72014C137.08 4.82014 137.02 4.93014 136.89 5.07014C135.86 6.00014 134.86 7.28014 133.89 8.92014C132.94 10.5701 132.13 12.2901 131.47 14.0801C130.77 15.8701 130.28 17.6001 129.98 19.2701C129.75 20.4601 129.65 21.5001 129.69 22.4201C129.71 22.5801 129.73 22.7701 129.76 23.0201C129.79 23.2601 129.83 23.5501 129.89 23.8801C130.05 24.5401 130.55 24.8801 131.41 24.9001C131.13 25.1201 130.81 25.2401 130.44 25.2401Z" fill="black" stroke="black" stroke-width="0.4783" stroke-miterlimit="10"/>
            <path d="M144.63 13.9001C144.82 13.8001 144.97 13.8101 145.07 13.9101C145.17 14.0201 145.21 14.1701 145.2 14.3801C145.19 14.5801 145.13 14.8101 145.01 15.0601C144.89 15.3101 144.71 15.5301 144.46 15.7001C143.7 16.1701 143 16.6301 142.35 17.0801C141.7 17.5401 141.07 18.0201 140.47 18.5201C140.2 18.7301 139.99 18.9801 139.86 19.2501C139.47 20.0501 139.02 20.9301 138.49 21.9001C137.97 22.8701 137.39 23.8001 136.77 24.6801C136.15 25.5601 135.5 26.3601 134.82 27.0501C134.14 27.7501 133.47 28.2301 132.81 28.4801C132.56 28.5801 132.21 28.5701 131.76 28.4701C131.31 28.3601 130.91 28.1701 130.55 27.8901C130.19 27.6101 129.94 27.2501 129.79 26.8101C129.64 26.3701 129.75 25.8701 130.1 25.3101C130.55 24.5901 131.16 23.8501 131.94 23.0801C132.72 22.3101 133.5 21.6001 134.29 20.9401C135.08 20.2801 135.78 19.7001 136.39 19.1901C137 18.6901 137.36 18.3401 137.45 18.1401C137.55 17.9501 137.66 17.7001 137.79 17.4001C137.92 17.1001 138.04 16.7901 138.15 16.4701C138.27 16.1501 138.38 15.8401 138.5 15.5401C138.62 15.2401 138.7 14.9801 138.76 14.7701C138.47 15.2601 138.13 15.7501 137.75 16.2401C137.37 16.7401 136.99 17.2101 136.6 17.6501C136.21 18.1001 135.82 18.5101 135.42 18.8701C135.02 19.2401 134.65 19.5401 134.3 19.7701C134.09 19.9101 133.8 19.9401 133.45 19.8901C133.1 19.8301 132.77 19.7201 132.44 19.5401C132.12 19.3701 131.85 19.1501 131.64 18.8801C131.43 18.6201 131.35 18.3501 131.41 18.0801C131.51 17.5901 131.66 17.0401 131.86 16.4001C132.06 15.7701 132.3 15.1301 132.57 14.4801C132.84 13.8301 133.15 13.2001 133.5 12.6001C133.85 12.0001 134.22 11.4601 134.61 11.0001C134.75 10.8401 134.96 10.7901 135.27 10.8301C135.57 10.8701 135.86 10.9601 136.14 11.1101C136.42 11.2601 136.64 11.4401 136.8 11.6501C136.96 11.8601 136.95 12.0701 136.77 12.2601C136.54 12.5301 136.25 12.9601 135.91 13.5401C135.57 14.1201 135.26 14.7101 134.99 15.2901C134.72 15.8701 134.52 16.3801 134.39 16.8101C134.26 17.2401 134.29 17.4301 134.46 17.3901C134.64 17.3501 134.89 17.1501 135.22 16.7801C135.55 16.4101 135.92 15.9501 136.33 15.4101C136.74 14.8701 137.17 14.2701 137.61 13.6201C138.06 12.9701 138.47 12.3401 138.86 11.7401C139.25 11.1401 139.59 10.6001 139.89 10.1201C140.19 9.64011 140.4 9.30011 140.52 9.09011C140.64 8.92011 140.83 8.83011 141.1 8.84011C141.37 8.85011 141.65 8.92011 141.94 9.04011C142.23 9.17011 142.48 9.33011 142.68 9.52011C142.88 9.71011 142.97 9.90011 142.93 10.0701C142.87 10.4801 142.77 10.9501 142.62 11.5001C142.47 12.0401 142.31 12.6001 142.14 13.1801C141.97 13.7501 141.8 14.3001 141.64 14.8101C141.48 15.3301 141.36 15.7601 141.26 16.1101C141.98 15.5901 142.58 15.1601 143.07 14.8401C143.57 14.5301 144.09 14.2101 144.63 13.9001ZM131.49 26.7201C131.8 26.4901 132.13 26.2001 132.48 25.8601C132.83 25.5201 133.17 25.1501 133.51 24.7401C133.85 24.3301 134.18 23.9101 134.49 23.4901C134.8 23.0601 135.07 22.6401 135.31 22.2401C134.96 22.5701 134.57 22.9501 134.13 23.3901C133.69 23.8301 133.28 24.2601 132.91 24.6901C132.53 25.1201 132.21 25.5201 131.93 25.8801C131.66 26.2501 131.51 26.5301 131.49 26.7201Z" fill="black" stroke="black" stroke-width="0.4783" stroke-miterlimit="10"/>
        </g>
        <path d="M78.1796 23.8704C77.6596 24.3204 77.0696 24.5605 76.4296 24.6105C75.7896 24.6605 75.2096 24.5004 74.6796 24.1404C74.1596 23.7804 73.7396 23.2305 73.4296 22.4905C73.1196 21.7505 73.0296 20.8204 73.1696 19.6904C73.2896 18.7004 73.4596 17.6505 73.6896 16.5405C73.9196 15.4305 74.1696 14.3704 74.4196 13.3504C74.6696 12.3304 74.9196 11.4205 75.1596 10.6105C75.3996 9.80045 75.5996 9.21045 75.7596 8.82045C75.6596 8.98045 75.4796 9.29045 75.2196 9.75045C74.9596 10.2205 74.6596 10.7604 74.3296 11.3704C73.9996 11.9804 73.6496 12.6404 73.2696 13.3504C72.8896 14.0604 72.5396 14.7405 72.2196 15.4005C71.8996 16.0605 71.6196 16.6604 71.3896 17.2104C71.1596 17.7504 71.0096 18.1704 70.9496 18.4604C70.9096 18.6004 70.7496 18.6805 70.4696 18.7205C70.1896 18.7605 69.8796 18.7404 69.5396 18.6604C69.1996 18.5804 68.8896 18.4405 68.6196 18.2405C68.3496 18.0405 68.1996 17.7404 68.1796 17.3504C68.1596 17.1004 68.1796 16.7304 68.2496 16.2604C68.3196 15.7804 68.4096 15.2504 68.5296 14.6404C68.6496 14.0404 68.7796 13.4104 68.9396 12.7604C69.0996 12.1104 69.2496 11.4904 69.3896 10.8904C69.5396 10.3004 69.6696 9.76045 69.7796 9.29045C69.8996 8.81045 69.9896 8.46045 70.0696 8.23045C69.3496 9.38045 68.6696 10.5704 68.0296 11.8004C67.3896 13.0304 66.7996 14.2605 66.2496 15.4905C65.7096 16.7105 65.2096 17.8905 64.7596 19.0205C64.3096 20.1505 63.9296 21.1805 63.6196 22.1105C63.5396 22.3405 63.3096 22.4604 62.9196 22.4604C62.5296 22.4604 62.1396 22.3705 61.7396 22.1805C61.3396 22.0005 61.0096 21.7404 60.7496 21.4104C60.4896 21.0804 60.4396 20.6905 60.6196 20.2405C61.0696 19.1705 61.4596 18.2005 61.7996 17.3305C62.1396 16.4605 62.5096 15.4605 62.9096 14.3605C63.3096 13.2505 63.6996 12.1205 64.0796 10.9705C64.4596 9.81045 64.7896 8.68045 65.0696 7.58045C65.3496 6.47045 65.5496 5.49045 65.6696 4.62045C65.7896 3.76045 65.7796 3.06045 65.6596 2.54045C65.5296 2.02045 65.2496 1.75045 64.7996 1.75045C64.3296 1.77045 63.8296 2.00045 63.2796 2.45045C62.7396 2.90045 62.1996 3.48045 61.6796 4.21045C61.1596 4.94045 60.6596 5.76045 60.1796 6.67045C59.6996 7.58045 59.3096 8.51045 58.9896 9.45045C58.6696 10.3905 58.4496 11.3104 58.3196 12.1904C58.1896 13.0704 58.2096 13.8404 58.3596 14.4804C58.4996 14.9904 58.7896 15.3205 59.2496 15.4905C59.7096 15.6605 60.1996 15.5705 60.7196 15.2405C60.6396 15.5305 60.4296 15.7804 60.0896 15.9804C59.7496 16.1804 59.3596 16.3105 58.9196 16.3605C58.4796 16.4105 58.0296 16.3805 57.5696 16.2705C57.0996 16.1605 56.6996 15.9404 56.3496 15.6004C55.9996 15.2604 55.7396 14.8005 55.5796 14.2205C55.4096 13.6405 55.4196 12.9004 55.5896 12.0104C55.8396 10.7304 56.2596 9.39045 56.8596 7.99045C57.4496 6.59045 58.1696 5.32045 59.0196 4.17045C59.8696 3.02045 60.8096 2.08045 61.8496 1.33045C62.8896 0.58045 63.9796 0.210449 65.1296 0.210449C65.9696 0.210449 66.6096 0.430451 67.0696 0.870451C67.5296 1.31045 67.8296 1.86045 67.9896 2.53045C68.1496 3.20045 68.1896 3.96045 68.1396 4.80045C68.0896 5.64045 67.9696 6.49045 67.7896 7.34045C67.6096 8.19045 67.4096 8.99045 67.1796 9.74045C66.9496 10.5005 66.7396 11.1305 66.5696 11.6305C66.8796 11.0105 67.2896 10.2304 67.8096 9.30045C68.3196 8.37045 68.8496 7.43045 69.3996 6.49045C69.9396 5.55045 70.4596 4.68045 70.9596 3.88045C71.4596 3.08045 71.8496 2.50045 72.1396 2.13045C72.2996 1.94045 72.5396 1.88045 72.8796 1.96045C73.2196 2.04045 73.5496 2.19045 73.8696 2.43045C74.1896 2.66045 74.4496 2.93045 74.6396 3.22045C74.8296 3.51045 74.8696 3.75045 74.7596 3.95045C74.2896 4.77045 73.8796 5.66045 73.5196 6.65045C73.1596 7.63045 72.8496 8.57045 72.5896 9.48045C72.3296 10.3804 72.1196 11.1905 71.9596 11.9005C71.7996 12.6105 71.6896 13.1105 71.6096 13.4005C71.7296 13.1705 71.9596 12.7305 72.3096 12.0905C72.6596 11.4505 73.0696 10.7005 73.5496 9.83045C74.0296 8.97045 74.5496 8.05045 75.1096 7.08045C75.6696 6.11045 76.2296 5.19045 76.7696 4.33045C77.3096 3.47045 77.8196 2.69045 78.2896 2.01045C78.7596 1.33045 79.1396 0.85045 79.4296 0.58045C79.5696 0.44045 79.7796 0.42045 80.0896 0.51045C80.3896 0.60045 80.6896 0.73045 80.9796 0.92045C81.2696 1.10045 81.5096 1.32045 81.6896 1.56045C81.8696 1.80045 81.9096 2.02045 81.7896 2.22045C81.4996 2.73045 81.1496 3.43045 80.7396 4.33045C80.3296 5.23045 79.8996 6.26045 79.4596 7.40045C79.0096 8.55045 78.5696 9.77045 78.1296 11.0605C77.6896 12.3505 77.3096 13.6205 76.9796 14.8805C76.6496 16.1305 76.3896 17.3304 76.2096 18.4604C76.0296 19.6004 75.9596 20.5905 76.0196 21.4305C76.0796 22.2705 76.2796 22.9305 76.6196 23.3805C76.9296 23.8105 77.4596 23.9804 78.1796 23.8704Z" fill="#3B1515" stroke="#3B1515" stroke-width="0.3587" stroke-miterlimit="10"/>
        <path d="M111.84 12.5003C111.9 12.3603 112 12.3103 112.15 12.3303C112.3 12.3503 112.44 12.4003 112.59 12.4803C112.74 12.5603 112.86 12.6503 112.95 12.7603C113.05 12.8703 113.09 12.9503 113.07 13.0103C112.8 13.5703 112.46 14.2003 112.06 14.8803C111.66 15.5603 111.23 16.2203 110.78 16.8503C110.32 17.4803 109.86 18.0503 109.38 18.5503C108.9 19.0603 108.46 19.4103 108.05 19.6303C107.78 19.7703 107.47 19.8203 107.12 19.7903C106.77 19.7603 106.43 19.6903 106.1 19.5703C105.77 19.4503 105.48 19.3003 105.23 19.1003C104.98 18.9103 104.83 18.7103 104.79 18.5203C104.71 18.1903 104.71 17.7403 104.79 17.1803C104.87 16.6203 104.98 16.0503 105.13 15.4903C105.28 14.9303 105.42 14.4203 105.57 13.9603C105.72 13.5003 105.82 13.2103 105.88 13.0703C105.49 13.4003 105.05 13.8803 104.57 14.5003C104.08 15.1203 103.6 15.7803 103.13 16.4803C102.65 17.1803 102.22 17.8703 101.82 18.5503C101.42 19.2303 101.12 19.7903 100.9 20.2403C100.8 20.4103 100.61 20.5103 100.32 20.5203C100.03 20.5303 99.7403 20.4903 99.4503 20.3903C99.1603 20.2903 98.9003 20.1603 98.6803 19.9803C98.4603 19.8103 98.3703 19.6303 98.4303 19.4603C98.5503 18.9903 98.7203 18.3803 98.9503 17.6103C99.1803 16.8403 99.4603 16.0103 99.7703 15.1003C100.08 14.2003 100.43 13.2703 100.82 12.3203C101.21 11.3703 101.64 10.4803 102.1 9.67025C102.24 9.40025 102.45 9.26025 102.76 9.26025C103.06 9.26025 103.36 9.33025 103.65 9.46025C103.94 9.60025 104.18 9.77026 104.36 9.98026C104.54 10.1903 104.61 10.3803 104.55 10.5303C104.36 10.9403 104.15 11.3503 103.92 11.7703C103.7 12.1903 103.48 12.5803 103.28 12.9403C103.08 13.3003 102.9 13.6203 102.76 13.8903C102.61 14.1603 102.53 14.3503 102.51 14.4403C102.82 13.9903 103.16 13.5503 103.52 13.1003C103.88 12.6503 104.24 12.2403 104.6 11.8503C104.96 11.4603 105.32 11.1103 105.69 10.8003C106.06 10.4903 106.42 10.2303 106.77 10.0103C107 9.87025 107.29 9.84025 107.63 9.89025C107.97 9.95025 108.29 10.0603 108.58 10.2403C108.87 10.4103 109.1 10.6203 109.27 10.8703C109.43 11.1103 109.47 11.3503 109.37 11.5803C109.21 11.9703 109.01 12.4503 108.76 13.0203C108.51 13.5903 108.26 14.2003 108.03 14.8303C107.8 15.4603 107.59 16.0703 107.42 16.6503C107.24 17.2303 107.16 17.7303 107.16 18.1403C107.53 17.9303 107.93 17.6303 108.35 17.2403C108.78 16.8503 109.2 16.4003 109.62 15.9003C110.04 15.4003 110.44 14.8503 110.83 14.2703C111.17 13.6703 111.52 13.0803 111.84 12.5003Z" fill="#3B1515" stroke="#3B1515" stroke-width="0.3587" stroke-miterlimit="10"/>
        <path d="M127.479 12.7902C127.619 12.6202 127.779 12.5602 127.979 12.6202C128.169 12.6402 128.359 12.7402 128.529 12.9102C128.689 13.0802 128.729 13.2802 128.679 13.4902C128.409 14.0702 128.079 14.6702 127.699 15.2802C127.319 15.8902 126.869 16.5202 126.349 17.1602C125.839 17.7802 125.359 18.3202 124.909 18.7602C124.449 19.2102 124.019 19.5502 123.609 19.7802C123.199 19.9402 122.779 19.9702 122.359 19.9002C121.889 19.7802 121.459 19.6202 121.049 19.4002C120.639 19.1502 120.409 18.8902 120.349 18.6102C120.309 18.2802 120.319 17.9202 120.379 17.5202C120.439 17.1202 120.539 16.6702 120.699 16.1602C120.859 15.6602 121.009 15.2102 121.149 14.8202C121.299 14.4302 121.429 14.0802 121.539 13.7702C121.579 13.6702 121.609 13.6002 121.639 13.5402C121.669 13.4802 121.679 13.4202 121.679 13.3702C120.809 14.1902 119.799 15.4302 118.649 17.1002C118.069 17.9402 117.569 18.6902 117.149 19.3602C116.729 20.0302 116.379 20.6202 116.089 21.1202C115.949 21.3702 115.669 21.4702 115.249 21.4102C115.039 21.3902 114.829 21.3502 114.639 21.2802C114.449 21.2102 114.249 21.1302 114.059 21.0302C113.709 20.8202 113.559 20.5702 113.619 20.3002C114.049 18.8402 114.839 16.7602 116.009 14.0602C117.209 11.3202 118.489 8.72023 119.829 6.25023C119.479 6.27023 119.129 6.30023 118.779 6.34023C118.429 6.38023 118.079 6.42023 117.729 6.46023C116.969 7.63023 116.279 8.83023 115.649 10.0702C115.019 11.3102 114.429 12.6102 113.889 13.9502C113.369 15.2702 112.949 16.4902 112.639 17.5902C112.329 18.7002 112.129 19.7202 112.059 20.6502C111.919 22.5002 112.469 23.4202 113.689 23.4202C112.969 24.1602 112.109 24.2902 111.099 23.8302C110.069 23.3602 109.469 22.3102 109.289 20.6802C109.269 20.0002 109.379 19.1802 109.609 18.2302C109.839 17.2802 110.179 16.1602 110.629 14.8802C111.119 13.6202 111.639 12.3502 112.199 11.0802C112.759 9.81023 113.379 8.51023 114.069 7.19023C113.509 7.36023 112.969 7.56023 112.469 7.77023C111.959 7.98023 111.509 8.23023 111.099 8.50023C110.889 8.62023 110.659 8.59023 110.429 8.41023C110.219 8.24023 110.019 7.98023 109.849 7.65023C109.769 7.51023 109.699 7.38023 109.649 7.24023C109.589 7.10023 109.549 6.97023 109.529 6.83023C109.469 6.54023 109.529 6.35023 109.709 6.28023C110.549 5.97023 111.439 5.69023 112.389 5.44023C113.339 5.19023 114.349 4.96023 115.419 4.77023C115.979 3.82023 116.519 2.98023 117.039 2.25023C117.549 1.52023 118.059 0.910229 118.569 0.400229C118.839 0.130229 119.219 0.12023 119.709 0.37023C120.179 0.56023 120.549 0.89023 120.849 1.36023C121.099 1.79023 121.079 2.20023 120.789 2.58023C120.279 3.09023 119.769 3.66023 119.249 4.30023C119.579 4.28023 119.899 4.27023 120.209 4.26023C120.519 4.25023 120.819 4.25023 121.109 4.25023C121.709 3.36023 122.249 2.69023 122.709 2.24023C123.119 1.95023 123.559 1.87023 124.019 2.01023C124.509 2.18023 124.899 2.44023 125.209 2.77023C125.499 3.12023 125.559 3.44023 125.379 3.73023C125.279 3.77023 125.159 3.85023 125.019 3.96023C124.879 4.07023 124.709 4.23023 124.539 4.43023C124.989 4.49023 125.389 4.57023 125.749 4.66023C126.109 4.76023 126.439 4.86023 126.759 4.98023C127.419 5.23023 127.889 5.63023 128.159 6.17023C128.259 6.44023 128.319 6.70023 128.359 6.96023C128.399 7.21023 128.399 7.48023 128.359 7.75023C128.239 8.26023 128.039 8.58023 127.749 8.71023C127.889 8.07023 127.529 7.53023 126.669 7.11023C126.219 6.92023 125.699 6.75023 125.099 6.61023C124.499 6.47023 123.809 6.38023 123.029 6.32023C121.239 8.73023 119.609 11.7402 118.129 15.3502C118.829 14.3802 119.599 13.4102 120.429 12.4402C120.839 11.9702 121.229 11.5602 121.609 11.1902C121.989 10.8202 122.349 10.5202 122.699 10.2902C122.889 10.1902 123.089 10.1302 123.299 10.0902C123.499 10.0502 123.719 10.0702 123.959 10.1502C124.429 10.3102 124.809 10.5402 125.099 10.8502C125.369 11.2202 125.439 11.5602 125.299 11.8702C125.219 12.0302 125.139 12.2002 125.049 12.3802C124.959 12.5602 124.859 12.7602 124.739 12.9802C124.529 13.4302 124.309 13.8802 124.099 14.3302C123.889 14.7902 123.669 15.2602 123.459 15.7402C123.009 16.7302 122.779 17.5702 122.759 18.2502C123.669 17.7602 124.569 16.9802 125.439 15.8902C125.869 15.3302 126.249 14.7902 126.589 14.2902C126.899 13.7702 127.209 13.2802 127.479 12.7902Z" fill="#3B1515" stroke="#3B1515" stroke-width="0.3587" stroke-miterlimit="10"/>
        <path d="M129.26 23.9003C129.18 23.9203 129.08 23.9203 128.95 23.9103C128.82 23.9003 128.66 23.8903 128.47 23.8703C128.1 23.8703 127.61 23.6303 127.01 23.1403C126.41 22.6703 125.98 21.9403 125.73 20.9303C125.71 20.8303 125.7 20.7303 125.69 20.6103C125.68 20.4903 125.68 20.3803 125.68 20.2603C125.64 19.5403 125.7 18.7003 125.87 17.7203C126.04 16.7503 126.31 15.6503 126.7 14.4303C127.07 13.2103 127.51 11.9803 128.01 10.7403C128.51 9.5103 129.08 8.27029 129.7 7.02029C130.32 5.80029 130.92 4.76029 131.49 3.92029C132.06 3.07029 132.6 2.42029 133.11 1.95029C133.27 1.85029 133.41 1.80029 133.55 1.80029C133.71 1.80029 133.89 1.84029 134.12 1.92029C134.34 2.00029 134.59 2.14029 134.86 2.36029L135.04 2.45029C135.56 2.76029 135.85 3.07029 135.88 3.38029C135.9 3.48029 135.84 3.59029 135.71 3.73029C134.68 4.66029 133.68 5.94029 132.71 7.58029C131.76 9.23029 130.95 10.9503 130.29 12.7403C129.59 14.5303 129.1 16.2603 128.8 17.9303C128.57 19.1203 128.47 20.1603 128.51 21.0803C128.53 21.2403 128.55 21.4303 128.58 21.6803C128.61 21.9203 128.65 22.2103 128.71 22.5403C128.87 23.2003 129.37 23.5403 130.23 23.5603C129.95 23.7803 129.63 23.9003 129.26 23.9003Z" fill="#3B1515" stroke="#3B1515" stroke-width="0.3587" stroke-miterlimit="10"/>
        <path d="M143.45 12.5603C143.64 12.4603 143.79 12.4703 143.89 12.5703C143.99 12.6803 144.03 12.8303 144.02 13.0403C144.01 13.2403 143.95 13.4703 143.83 13.7203C143.71 13.9703 143.53 14.1903 143.28 14.3603C142.52 14.8303 141.82 15.2903 141.17 15.7403C140.52 16.2003 139.89 16.6803 139.29 17.1803C139.02 17.3903 138.81 17.6403 138.68 17.9103C138.29 18.7103 137.84 19.5903 137.31 20.5603C136.79 21.5303 136.21 22.4603 135.59 23.3403C134.97 24.2203 134.32 25.0203 133.64 25.7103C132.96 26.4103 132.29 26.8903 131.63 27.1403C131.38 27.2403 131.03 27.2303 130.58 27.1303C130.13 27.0203 129.73 26.8303 129.37 26.5503C129.01 26.2703 128.76 25.9103 128.61 25.4703C128.46 25.0303 128.57 24.5303 128.92 23.9703C129.37 23.2503 129.98 22.5103 130.76 21.7403C131.54 20.9703 132.32 20.2603 133.11 19.6003C133.9 18.9403 134.6 18.3603 135.21 17.8503C135.82 17.3503 136.18 17.0003 136.27 16.8003C136.37 16.6103 136.48 16.3603 136.61 16.0603C136.74 15.7603 136.86 15.4503 136.97 15.1303C137.09 14.8103 137.2 14.5003 137.32 14.2003C137.44 13.9003 137.52 13.6403 137.58 13.4303C137.29 13.9203 136.95 14.4103 136.57 14.9003C136.19 15.4003 135.81 15.8703 135.42 16.3103C135.03 16.7603 134.64 17.1703 134.24 17.5303C133.84 17.9003 133.47 18.2003 133.12 18.4303C132.91 18.5703 132.62 18.6003 132.27 18.5503C131.92 18.4903 131.59 18.3803 131.26 18.2003C130.94 18.0303 130.67 17.8103 130.46 17.5403C130.25 17.2803 130.17 17.0103 130.23 16.7403C130.33 16.2503 130.48 15.7003 130.68 15.0603C130.88 14.4303 131.12 13.7903 131.39 13.1403C131.66 12.4903 131.97 11.8603 132.32 11.2603C132.67 10.6603 133.04 10.1203 133.43 9.66026C133.57 9.50026 133.78 9.45027 134.09 9.49027C134.39 9.53027 134.68 9.62026 134.96 9.77026C135.24 9.92026 135.46 10.1003 135.62 10.3103C135.78 10.5203 135.77 10.7303 135.59 10.9203C135.36 11.1903 135.07 11.6203 134.73 12.2003C134.39 12.7803 134.08 13.3703 133.81 13.9503C133.54 14.5303 133.34 15.0403 133.21 15.4703C133.08 15.9003 133.11 16.0903 133.28 16.0503C133.46 16.0103 133.71 15.8103 134.04 15.4403C134.37 15.0703 134.74 14.6103 135.15 14.0703C135.56 13.5303 135.99 12.9303 136.43 12.2803C136.88 11.6303 137.29 11.0003 137.68 10.4003C138.07 9.80027 138.41 9.26026 138.71 8.78026C139.01 8.30026 139.22 7.96026 139.34 7.75026C139.46 7.58026 139.65 7.49026 139.92 7.50026C140.19 7.51026 140.47 7.58027 140.76 7.70027C141.05 7.83027 141.3 7.99026 141.5 8.18026C141.7 8.37026 141.79 8.56026 141.75 8.73026C141.69 9.14026 141.59 9.61026 141.44 10.1603C141.29 10.7003 141.13 11.2603 140.96 11.8403C140.79 12.4103 140.62 12.9603 140.46 13.4703C140.3 13.9903 140.18 14.4203 140.08 14.7703C140.8 14.2503 141.4 13.8203 141.89 13.5003C142.39 13.1903 142.91 12.8703 143.45 12.5603ZM130.31 25.3803C130.62 25.1503 130.95 24.8603 131.3 24.5203C131.65 24.1803 131.99 23.8103 132.33 23.4003C132.67 22.9903 133 22.5703 133.31 22.1503C133.62 21.7203 133.89 21.3003 134.13 20.9003C133.78 21.2303 133.39 21.6103 132.95 22.0503C132.51 22.4903 132.1 22.9203 131.73 23.3503C131.35 23.7803 131.03 24.1803 130.75 24.5403C130.47 24.9103 130.33 25.1903 130.31 25.3803Z" fill="#3B1515" stroke="#3B1515" stroke-width="0.3587" stroke-miterlimit="10"/>
        <g opacity="0.12">
            <path d="M88.3497 6.91033C88.8397 6.89033 89.3297 6.91033 89.8197 6.97033C91.2497 7.16033 92.4797 7.74033 93.4897 8.79033C93.8197 9.14033 94.1297 9.50033 94.4297 9.88033C94.5297 10.0103 94.5397 10.0303 94.4397 10.1803C93.9097 11.0203 93.3297 11.8103 92.6797 12.5603C91.8997 13.4503 90.9897 14.1903 90.0097 14.8503C89.3497 15.3003 88.6797 15.7103 87.9597 16.0603C87.4897 16.2903 86.9997 16.4703 86.4897 16.5803C86.1797 16.6503 85.8597 16.6803 85.5397 16.6403C85.1897 16.6003 84.9097 16.4303 84.7097 16.1403C84.4997 15.8503 84.3797 15.5103 84.2997 15.1603C84.1197 14.3103 84.1497 13.4503 84.3397 12.6003C84.6597 11.1303 85.2297 9.76033 86.0397 8.49033C86.1997 8.25033 86.3497 8.00033 86.5097 7.76033C86.5797 7.64033 86.6697 7.54033 86.7497 7.42033C86.9297 7.15033 87.1897 7.02033 87.5097 6.98033C87.7797 6.96033 88.0597 6.93033 88.3497 6.91033Z" fill="black" stroke="black" stroke-width="0.4783" stroke-miterlimit="10"/>
            <path d="M84.7793 19.0801C85.0093 19.1401 85.2493 19.2001 85.4793 19.2601C86.0093 19.3901 86.5493 19.3901 87.0993 19.3301C88.0993 19.2101 89.0293 18.8901 89.9493 18.5001C91.4193 17.8701 92.7293 17.0001 93.9393 15.9701C94.3793 15.5901 94.8093 15.2001 95.1793 14.7501C95.2793 14.6301 95.3793 14.5001 95.4793 14.3701C95.5193 14.3901 95.4993 14.4301 95.4993 14.4501C95.5093 14.5701 95.4893 14.6901 95.4693 14.8001C95.2993 15.5501 95.0593 16.2801 94.6793 16.9601C93.8793 18.4001 92.6793 19.3701 91.1493 19.9601C90.3893 20.2501 89.6093 20.4101 88.7993 20.4301C88.2193 20.4501 87.6593 20.3401 87.1093 20.1901C86.4693 20.0101 85.8593 19.7601 85.2793 19.4501C85.0993 19.3501 84.9193 19.2401 84.7793 19.0801Z" fill="black" stroke="black" stroke-width="0.4783" stroke-miterlimit="10"/>
            <path d="M100.229 9.59014C100.249 10.2701 99.9792 10.8101 99.4592 11.2401C99.1292 11.5201 98.7392 11.7001 98.3092 11.7201C97.4192 11.7701 96.7692 11.3801 96.3292 10.6201C96.0492 10.1401 96.0092 9.62014 96.1892 9.10014C96.3692 8.57014 96.6792 8.14014 97.1792 7.86014C97.4492 7.71014 97.7492 7.64014 98.0692 7.64014C98.3192 7.65014 98.5692 7.67014 98.8192 7.74014C99.5092 7.94014 99.9392 8.41014 100.149 9.09014C100.189 9.26014 100.229 9.42014 100.229 9.59014Z" fill="black" stroke="black" stroke-width="0.4783" stroke-miterlimit="10"/>
            <path d="M83.3096 17.6002C83.2196 17.5402 83.1796 17.4702 83.1296 17.4002C83.0496 17.3002 82.9896 17.1902 82.9296 17.0702C82.6296 16.4602 82.3397 15.8402 82.1897 15.1602C82.0597 14.5902 82.0096 14.0102 82.0296 13.4202C82.0596 12.5702 82.2396 11.7502 82.5596 10.9502C82.8096 10.3102 83.1396 9.72024 83.6096 9.22024C84.0996 8.69024 84.6696 8.24023 85.2796 7.84023C85.4396 7.74023 85.6296 7.68023 85.8096 7.60023C85.8896 7.57023 85.9696 7.53023 86.0696 7.49023C86.0196 7.60023 85.9696 7.67023 85.9196 7.74023C85.5596 8.22023 85.2296 8.72023 84.9296 9.23023C84.5196 9.92023 84.1197 10.6102 83.7997 11.3502C83.3197 12.4802 83.0196 13.6602 82.8896 14.8802C82.8396 15.3802 82.8696 15.8902 82.9896 16.3802C83.0196 16.5002 83.0496 16.6302 83.0696 16.7602C83.1096 17.0502 83.2196 17.3102 83.3096 17.6002Z" fill="black" stroke="black" stroke-width="0.4783" stroke-miterlimit="10"/>
        </g>
        <path d="M87.8497 6.54021C88.3397 6.52021 88.8297 6.54021 89.3197 6.60021C90.7497 6.79021 91.9797 7.37021 92.9897 8.42021C93.3197 8.77021 93.6297 9.13021 93.9297 9.51021C94.0297 9.64021 94.0397 9.66022 93.9397 9.81022C93.4097 10.6502 92.8297 11.4402 92.1797 12.1902C91.3997 13.0802 90.4897 13.8202 89.5097 14.4802C88.8497 14.9302 88.1797 15.3402 87.4597 15.6902C86.9897 15.9202 86.4997 16.1002 85.9897 16.2102C85.6797 16.2802 85.3597 16.3102 85.0397 16.2702C84.6897 16.2302 84.4097 16.0602 84.2097 15.7702C83.9997 15.4802 83.8797 15.1402 83.7997 14.7902C83.6197 13.9402 83.6497 13.0802 83.8397 12.2302C84.1597 10.7602 84.7297 9.39021 85.5397 8.12021C85.6997 7.88021 85.8497 7.63021 86.0097 7.39021C86.0797 7.27021 86.1697 7.17021 86.2497 7.05021C86.4297 6.78021 86.6897 6.65021 87.0097 6.61021C87.2797 6.58021 87.5597 6.56021 87.8497 6.54021Z" fill="#1061AE"/>
        <path d="M84.2793 18.7002C84.5093 18.7602 84.7493 18.8202 84.9793 18.8802C85.5093 19.0102 86.0493 19.0102 86.5993 18.9502C87.5993 18.8302 88.5293 18.5102 89.4493 18.1202C90.9193 17.4902 92.2293 16.6202 93.4393 15.5902C93.8793 15.2102 94.3093 14.8202 94.6793 14.3702C94.7793 14.2502 94.8793 14.1202 94.9793 13.9902C95.0193 14.0002 94.9993 14.0402 94.9993 14.0702C95.0093 14.1902 94.9893 14.3102 94.9693 14.4202C94.7993 15.1702 94.5593 15.9002 94.1793 16.5802C93.3793 18.0202 92.1793 18.9902 90.6493 19.5802C89.8893 19.8702 89.1093 20.0302 88.2993 20.0502C87.7193 20.0702 87.1593 19.9602 86.6093 19.8102C85.9693 19.6302 85.3593 19.3802 84.7793 19.0702C84.5993 18.9702 84.4193 18.8602 84.2793 18.7002Z" fill="#EB262A"/>
        <path d="M99.7292 9.22002C99.7492 9.90002 99.4792 10.44 98.9592 10.87C98.6292 11.15 98.2392 11.33 97.8092 11.35C96.9192 11.4 96.2692 11.01 95.8292 10.25C95.5492 9.77002 95.5092 9.25002 95.6892 8.73002C95.8692 8.20002 96.1792 7.77002 96.6792 7.49002C96.9492 7.34002 97.2492 7.27002 97.5692 7.27002C97.8192 7.28002 98.0692 7.30002 98.3192 7.37002C99.0092 7.57002 99.4392 8.04002 99.6492 8.72002C99.6892 8.89002 99.7292 9.05002 99.7292 9.22002Z" fill="#EB262A"/>
        <path d="M82.8096 17.2301C82.7196 17.1701 82.6796 17.1001 82.6296 17.0301C82.5496 16.9301 82.4896 16.8201 82.4296 16.7001C82.1296 16.0901 81.8397 15.4701 81.6897 14.7901C81.5597 14.2201 81.5096 13.6401 81.5296 13.0501C81.5596 12.2001 81.7396 11.3801 82.0596 10.5801C82.3096 9.94012 82.6396 9.35012 83.1096 8.85012C83.5996 8.32012 84.1696 7.87012 84.7796 7.47012C84.9396 7.36012 85.1296 7.31012 85.3096 7.23012C85.3896 7.20012 85.4696 7.16012 85.5696 7.12012C85.5196 7.23012 85.4696 7.30012 85.4196 7.37012C85.0596 7.85012 84.7296 8.35012 84.4296 8.86012C84.0196 9.55012 83.6197 10.2401 83.2997 10.9801C82.8197 12.1101 82.5196 13.2901 82.3896 14.5101C82.3396 15.0101 82.3696 15.5201 82.4896 16.0101C82.5196 16.1301 82.5496 16.2601 82.5696 16.3901C82.6096 16.6801 82.7196 16.9301 82.8096 17.2301Z" fill="#1562AF"/>
        <path d="M47.9903 15.9998C48.1403 16.0698 48.2203 16.1098 48.3503 16.1898C48.8303 16.2998 49.7303 16.3898 49.9503 16.5498C49.9303 16.5998 49.2103 16.7798 49.0903 16.7498C47.7903 16.6298 47.2403 16.2898 45.8103 16.1398C45.6903 16.1098 45.2503 16.2398 44.8203 16.3098C44.8203 16.3098 44.9403 16.3398 45.0903 16.3598C44.5003 16.4598 43.6003 16.3698 42.8803 16.4298C43.0303 16.4698 43.0303 16.4698 43.1203 16.5098C42.5503 16.3098 41.3303 16.3698 40.4403 16.3798C40.2603 16.3598 40.1403 16.3298 40.0103 16.2998C39.2003 16.3398 38.4103 16.2798 37.4403 16.3798C36.6203 16.4398 35.4503 16.3498 34.3703 16.3898C32.5103 16.3698 30.4503 16.1298 28.7503 16.4298C28.4703 16.4798 27.9403 16.4698 27.4603 16.3598C26.4003 16.6898 24.4303 16.5798 22.9803 16.5398C22.4503 16.5298 22.0903 16.3998 21.8803 16.2998C20.4803 16.4298 18.9803 16.5398 17.5103 16.5498C15.6303 16.5798 13.7503 16.6098 11.6803 16.4898C11.3903 16.4798 10.8503 16.5198 10.5603 16.5698C10.4303 16.5398 10.3103 16.5198 10.1903 16.4898C8.99031 16.4998 7.87031 16.6398 6.83031 16.5798C5.39031 16.4798 5.24031 16.1198 5.07031 15.7998C6.61031 15.5798 8.12031 15.0298 10.4403 15.2698C11.0803 15.3598 12.0503 15.2398 12.8703 15.1998C13.5603 15.1298 14.3103 15.2998 14.9103 15.0898C15.7703 15.3298 17.8403 15.5198 19.3503 15.3998C19.4703 15.4298 19.3303 15.4498 19.5503 15.4798C21.6703 15.2398 24.0403 15.3198 26.4703 15.2498C27.6903 15.1898 29.1303 15.2798 30.6303 15.1698C30.7703 15.1498 31.4103 15.2298 31.8203 15.2098C31.9603 15.1898 32.1003 15.1598 32.2403 15.1398C33.3003 15.1498 34.5303 15.0898 35.2903 15.1998C36.1903 15.2898 37.0103 15.2498 37.7903 15.3098C38.9603 15.3998 40.8703 15.2698 41.8703 15.4898C41.9903 15.5198 42.4003 15.4998 42.6703 15.4998C42.7903 15.5298 42.9203 15.5498 43.0403 15.5798C43.3103 15.5798 43.4803 15.4598 43.7503 15.4598C45.4703 15.5098 47.6103 15.4798 48.4403 15.8298C48.3103 15.8498 47.7603 15.8898 47.9903 15.9998Z" fill="#3B1515"/>
        <path d="M55.0112 16.65C54.9412 16.7 55.2013 16.71 55.3713 16.71C55.2313 16.66 55.1413 16.59 54.8313 16.55L55.3113 16.57C55.5613 16.45 54.8413 16.53 55.1213 16.48C55.3813 16.49 55.5913 16.52 55.4613 16.58C55.4213 16.55 55.3013 16.57 55.1513 16.56C55.1213 16.64 55.3813 16.68 55.5213 16.73L54.7812 16.72L55.0112 16.65Z" fill="#3B1515"/>
        <path d="M53.3512 16.4996L53.5112 16.5096C53.5812 16.4596 53.4313 16.4296 53.2812 16.3896C53.9513 16.4696 53.2813 16.5497 53.6813 16.6297C53.6913 16.5997 53.2812 16.5496 53.3512 16.4996Z" fill="#3B1515"/>
        <path d="M54.2194 16.2798C54.5094 16.3898 54.7994 16.2998 54.8694 16.4198L54.1094 16.2998L54.2194 16.2798Z" fill="#3B1515"/>
        <path d="M49.1909 16.3198C48.9609 16.3598 49.0809 16.3398 48.7109 16.3198L49.2409 16.3298L49.1909 16.3198Z" fill="#3B1515"/>
        <path d="M38.5 16.1997C38.8 16.2697 39.04 16.3397 39.52 16.3597C39.04 16.3597 38.6 16.2197 38.5 16.1997Z" fill="#3B1515"/>
        <path d="M33.7712 15.8C33.7812 15.76 33.6312 15.75 33.8512 15.73C33.9512 15.75 33.8112 15.85 34.1512 15.8H33.7712Z" fill="#3B1515"/>
        <path d="M33.3808 15.5898L33.1708 15.5098C33.1608 15.5198 33.2408 15.5598 33.3808 15.5898Z" fill="#3B1515"/>
        <path d="M46.3813 16.6098L46.3512 16.5898C46.3312 16.5898 46.3012 16.5998 46.2812 16.6098C46.3012 16.5998 46.3413 16.6098 46.3813 16.6098Z" fill="#3B1515"/>
        <path d="M45.6504 16.5398L46.1604 16.6298C46.2004 16.6198 46.2404 16.6098 46.2704 16.6098C45.9404 16.5798 46.0504 16.4998 45.6504 16.5398Z" fill="#3B1515"/>
        <path d="M46.291 16.54L46.351 16.58C46.791 16.51 46.981 16.67 47.601 16.63C47.141 16.55 46.671 16.54 46.291 16.54Z" fill="#3B1515"/>
        <path d="M46.8005 16.4598L46.9805 16.4098C47.1405 16.4198 47.1205 16.4598 47.1205 16.4798L47.4505 16.4598C47.5805 16.3798 46.5805 16.3598 46.3105 16.3398L46.8005 16.4598Z" fill="#3B1515"/>
        <path d="M48.9602 15.54L48.9102 15.68C49.3402 15.66 49.4202 15.77 49.8902 15.74H49.9002C49.7402 15.6 49.2902 15.65 48.9602 15.54Z" fill="#3B1515"/>
        <path d="M45.0605 16.38C45.4905 16.39 45.8005 16.39 45.9405 16.31L45.1505 16.27C45.4505 16.34 45.1305 16.33 45.0605 16.38Z" fill="#3B1515"/>
        <path d="M44.4004 16.1L44.7804 16.09L44.6204 16.04C44.6004 16.07 44.5304 16.09 44.4004 16.1Z" fill="#3B1515"/>
        <path d="M44.6097 16.05C44.6297 16.03 44.5697 16.01 44.4297 16L44.6097 16.05Z" fill="#3B1515"/>
        <path d="M45.3601 15.94C45.1201 15.84 45.1401 15.96 44.7201 15.93C44.6901 16.04 45.1501 15.94 45.3601 15.94Z" fill="#3B1515"/>
        <path d="M43.6212 15.8901L43.4812 15.8101L43.4512 15.9201L43.6212 15.8901Z" fill="#3B1515"/>
        <path d="M40.4907 16.3297C40.8907 16.2397 40.2507 16.2297 40.2207 16.1797L40.4907 16.3297Z" fill="#3B1515"/>
        <path d="M43.1602 15.6499L43.2902 15.7499L43.3602 15.6999C43.4702 15.6999 43.6302 15.6899 43.7202 15.7399C43.8102 15.6199 43.3602 15.6799 43.1602 15.6499Z" fill="#3B1515"/>
        <path d="M44.12 15.31C44.13 15.27 43.53 15.14 44.22 15.18C43.96 15.17 43.58 15.17 43.82 15.09C43.39 15.08 43.79 15.19 43.5 15.24C43.73 15.18 43.91 15.29 44.12 15.31Z" fill="#3B1515"/>
        <path d="M43.08 15.2197C42.87 15.1997 42.62 15.1597 42.5 15.1997C42.71 15.1997 42.9 15.2897 43.08 15.2197Z" fill="#3B1515"/>
        <path d="M42.8906 14.9697L43.1906 15.0597L43.0106 14.9497L42.8906 14.9697Z" fill="#3B1515"/>
        <path d="M41.6701 14.9699L42.4201 14.9599L41.7501 14.8999C41.3401 14.9599 41.5401 14.9999 41.8301 15.0299C41.7401 15.0199 41.6801 14.9999 41.6701 14.9699Z" fill="#3B1515"/>
        <path d="M42.4603 15.1501L42.6903 15.1101C42.7003 15.0901 42.3603 15.0901 42.0703 15.0601C42.2603 15.0801 42.4403 15.1101 42.4603 15.1501Z" fill="#3B1515"/>
        <path d="M42.0703 15.0598C41.9903 15.0498 41.9003 15.0398 41.8203 15.0298C41.8903 15.0398 41.9803 15.0498 42.0703 15.0598Z" fill="#3B1515"/>
        <path d="M36.8906 15.7301L37.5806 15.7501C37.3206 15.7201 37.1106 15.7201 36.8906 15.7301Z" fill="#3B1515"/>
        <path d="M41.1205 14.8501H41.0105L40.9805 14.9501C41.2005 14.9301 41.1105 14.8701 41.1205 14.8501Z" fill="#3B1515"/>
        <path d="M40.2207 14.6498C40.0307 14.5898 39.6307 14.6498 39.4707 14.6598C39.7107 14.7398 39.9807 14.7298 40.2907 14.7498C39.9807 14.7298 40.2107 14.6898 40.2207 14.6498Z" fill="#3B1515"/>
        <path d="M39.3008 14.5099L39.9408 14.5199C39.8208 14.4099 39.5708 14.5099 39.3008 14.5099Z" fill="#3B1515"/>
        <path d="M38.2804 14.5498C38.2204 14.5598 38.2704 14.5898 38.1504 14.6098C38.2404 14.6498 38.4604 14.6298 38.6204 14.6498L38.2804 14.5498Z" fill="#3B1515"/>
        <path d="M43.7605 15.6099C43.5705 15.6099 43.3905 15.6199 43.2305 15.6199C43.4905 15.6499 43.7505 15.6699 44.0105 15.6899C43.9305 15.6599 43.8505 15.6299 43.7605 15.6099Z" fill="#3B1515"/>
        <path d="M8.53039 16.7198C9.34039 16.5398 10.8604 16.5098 11.7004 16.4798C13.0804 16.4998 14.8004 16.2998 16.4104 16.2598L16.4004 16.2998C17.6604 16.3598 19.3004 16.2498 20.6904 16.2498L20.6104 16.1898C20.3804 16.1798 20.0704 16.1798 20.2504 16.1098C20.5604 16.1298 20.9804 16.1598 21.0704 16.1998L21.3104 16.1198C21.5104 16.1598 21.3404 16.3498 21.8904 16.2898C22.2204 16.0998 23.1304 16.4298 23.1504 16.1898C23.3704 16.3298 23.8904 16.2098 24.1604 16.2198L23.9704 16.1098C24.5404 16.1698 25.0704 16.3298 25.3504 16.2998C26.0504 16.2798 27.0104 16.2698 27.7804 16.2198C27.9504 16.3498 26.9804 16.2198 27.4704 16.3498C28.9304 16.1198 30.9604 16.4498 32.7104 16.3298C32.6604 16.3198 32.5004 16.3098 32.6204 16.2898C32.9604 16.3898 33.4204 16.2898 33.9904 16.3498C33.9104 16.2698 33.1704 16.2598 32.9004 16.2398C33.0704 16.0298 33.0404 16.2898 33.7604 16.2298C33.7104 16.2198 33.6104 16.1998 33.6204 16.1798C34.3304 16.1398 33.9004 16.3098 34.4404 16.2698L34.1404 16.1998C34.6704 16.2098 34.3104 16.1698 34.9104 16.1298C34.8204 16.2398 35.1104 16.3298 35.2704 16.3398C35.3404 16.2898 35.9104 16.3298 35.8404 16.2198C36.5704 16.4498 36.7704 16.1598 37.4504 16.3698C37.7504 16.2798 37.1604 16.2598 37.1904 16.1798C37.9004 16.1198 37.4204 16.2998 37.6804 16.3298C37.9104 16.2898 38.8304 16.2498 39.2304 16.3398L39.2604 16.2598C39.8704 16.3498 40.8804 16.3698 41.1104 16.4898C41.3604 16.3698 40.8804 16.3698 40.4604 16.3698C40.3704 16.3098 40.8104 16.2698 41.0204 16.2898C40.9104 16.2898 40.8804 16.2398 40.7604 16.2798C40.7304 16.2098 41.0404 16.2498 41.1504 16.2298C41.8904 16.2598 40.8704 16.2798 41.1704 16.3198C41.4504 16.2898 42.1304 16.3098 41.8504 16.1998C42.4404 16.1998 42.0804 16.3198 42.3904 16.3598C41.9304 16.2798 41.7804 16.4498 41.4304 16.3498C41.3104 16.3898 41.3504 16.4198 41.5004 16.4498C41.9904 16.4198 42.9204 16.5198 42.9004 16.3998L43.1404 16.4798L43.3804 16.3998L43.4804 16.4198C43.2504 16.2998 42.7904 16.2498 42.6104 16.1398C42.5704 16.0898 42.8904 16.1098 43.0504 16.0998L43.1804 16.1998C43.6004 16.2298 43.5004 16.0298 44.0804 16.0698C43.7204 16.1898 44.7204 16.2498 45.1104 16.3398C45.5504 16.1298 45.0604 16.1698 45.4304 15.9898C45.8604 15.9998 46.5104 15.9398 47.0204 16.0098C45.7904 16.0098 47.6104 16.1598 46.6304 16.2298C46.8404 16.2498 47.0104 16.2198 47.2204 16.2298C47.3804 16.3998 46.9104 16.3598 47.1904 16.4898L47.2804 16.3798C47.5704 16.4698 47.7504 16.5898 48.3204 16.6298C48.3904 16.5798 48.6804 16.5098 48.9304 16.5398C49.0104 16.6198 49.0504 16.6598 49.5904 16.6598C50.6204 16.4398 48.5604 16.3698 48.3604 16.1698C46.8804 16.1098 46.8404 15.5898 45.0004 15.4698C44.7104 15.5398 44.8104 15.5598 44.2704 15.5998C43.8904 15.7798 45.0704 15.7598 45.4104 15.8698C45.2404 15.8998 45.0704 15.9298 44.9204 15.8998L45.0904 16.0298C44.2204 16.0798 44.6204 15.8398 43.8504 15.8898L44.0204 15.8598L43.5804 15.8998L43.6804 15.9198C43.4104 15.9298 43.3304 16.0198 42.9204 15.9698L43.2604 15.8898C43.0304 15.9498 42.9704 15.7998 42.6404 15.8398C42.8204 15.7898 42.8804 15.7298 42.9904 15.7298C42.5004 15.6698 42.0604 15.6498 41.6404 15.6398C40.1804 15.6998 38.7704 15.6498 37.3804 15.5398C37.4404 15.5598 37.5104 15.5698 37.5504 15.5798C37.3004 15.6098 37.1404 15.5598 37.0004 15.5098C36.7404 15.4898 36.4804 15.4598 36.2204 15.4398C35.6504 15.4598 35.2004 15.4798 34.5004 15.4598C34.4704 15.3998 34.5104 15.3798 34.6004 15.3698C34.3504 15.3798 34.2004 15.3998 34.4404 15.4698C34.0104 15.4898 33.8204 15.4198 33.5004 15.4198L34.2304 15.3098C33.9204 15.2598 33.9304 15.3998 33.5204 15.3498C32.8704 15.3798 33.8104 15.4598 33.7204 15.5498L33.4604 15.5398L33.7404 15.6698C33.1704 15.6298 32.8804 15.5198 32.6404 15.4498L33.0504 15.4998C33.2004 15.3598 32.3604 15.4798 32.1804 15.3998L32.2404 15.3898C31.6004 15.3798 32.3804 15.4598 31.9404 15.4798L31.1804 15.3598L31.3104 15.4598C30.8704 15.5198 30.0004 15.3698 29.2704 15.3398C28.8504 15.3098 28.2904 15.3898 27.7504 15.4098C27.8504 15.4298 28.0604 15.4598 27.9904 15.4898C27.6704 15.4898 26.9804 15.4898 27.2204 15.3898L26.7704 15.4698C26.6104 15.4698 26.4804 15.4498 26.3804 15.4298L26.5004 15.4698L25.9604 15.4998C25.9704 15.4798 25.7704 15.4398 26.0404 15.4298C25.4404 15.3198 24.6704 15.5298 23.7304 15.4698L24.0104 15.4198C23.4504 15.4998 23.4004 15.3298 22.7904 15.3898L22.9304 15.4598C22.4904 15.4998 21.6704 15.3998 21.7904 15.3398C21.7304 15.5298 21.5404 15.2798 21.2804 15.4498L21.0104 15.2798C20.7304 15.3298 20.4504 15.3598 20.6404 15.4398C20.2004 15.3598 19.8404 15.3498 19.5804 15.4598H19.5704H19.5604C19.4604 15.4698 19.0304 15.4398 19.2204 15.5198C18.2104 15.5198 18.6804 15.3598 17.7204 15.3698L17.6804 15.4898C16.9404 15.4598 16.2104 15.5698 15.6604 15.6398L15.5904 15.5398C15.2104 15.5698 15.6604 15.6398 15.0704 15.6698C14.9904 15.6498 14.9104 15.6198 14.9304 15.5898C14.3504 15.5998 13.5904 15.5398 12.7204 15.5298C12.7304 15.5098 12.8404 15.4898 12.9004 15.4798C12.5204 15.4898 11.9204 15.5298 11.4804 15.5698C10.4804 15.3898 9.03039 15.2698 7.70039 15.3098C6.67039 15.5598 6.00039 15.8598 5.90039 16.1598C6.13039 16.3598 7.17039 16.5598 8.53039 16.7198Z" fill="#3B1515"/>
        <path d="M152.731 15.2099C152.581 15.1399 152.501 15.0999 152.371 15.0199C151.891 14.9099 150.991 14.8199 150.771 14.6599C150.791 14.6099 151.511 14.4299 151.631 14.4599C152.931 14.5799 153.481 14.9199 154.911 15.0699C155.031 15.0999 155.471 14.9699 155.901 14.8999C155.901 14.8999 155.781 14.8699 155.631 14.8499C156.221 14.7499 157.121 14.8399 157.841 14.7799C157.691 14.7399 157.691 14.7399 157.601 14.6999C158.171 14.8999 159.391 14.8399 160.281 14.8299C160.461 14.8499 160.581 14.8799 160.711 14.9099C161.521 14.8699 162.311 14.9299 163.281 14.8299C164.101 14.7699 165.271 14.8599 166.351 14.8199C168.211 14.8399 170.271 15.0799 171.971 14.7799C172.251 14.7299 172.781 14.7399 173.261 14.8499C174.321 14.5199 176.291 14.6299 177.741 14.6699C178.271 14.6799 178.631 14.8099 178.841 14.9099C180.241 14.7799 181.741 14.6699 183.211 14.6599C185.091 14.6299 186.971 14.5999 189.041 14.7199C189.331 14.7299 189.871 14.6899 190.161 14.6399C190.291 14.6699 190.411 14.6899 190.531 14.7199C191.731 14.7099 192.851 14.5699 193.891 14.6299C195.331 14.7299 195.481 15.0899 195.651 15.4099C194.111 15.6299 192.601 16.1799 190.281 15.9399C189.641 15.8499 188.671 15.9699 187.851 16.0099C187.161 16.0799 186.411 15.9099 185.811 16.1199C184.951 15.8799 182.881 15.6899 181.371 15.8099C181.251 15.7799 181.391 15.7599 181.171 15.7299C179.051 15.9699 176.681 15.8899 174.251 15.9599C173.031 16.0199 171.591 15.9299 170.091 16.0399C169.951 16.0599 169.311 15.9799 168.901 15.9999C168.761 16.0199 168.621 16.0499 168.481 16.0699C167.421 16.0599 166.191 16.1199 165.431 16.0099C164.531 15.9199 163.711 15.9599 162.931 15.8999C161.761 15.8099 159.851 15.9399 158.851 15.7199C158.731 15.6899 158.321 15.7099 158.051 15.7099C157.931 15.6799 157.801 15.6599 157.681 15.6299C157.411 15.6299 157.241 15.7499 156.971 15.7499C155.251 15.6999 153.111 15.7299 152.281 15.3799C152.421 15.3699 152.971 15.3199 152.731 15.2099Z" fill="#3B1515"/>
        <path d="M145.721 14.56C145.791 14.51 145.531 14.5 145.361 14.5C145.501 14.55 145.591 14.62 145.901 14.66L145.421 14.64C145.171 14.76 145.891 14.68 145.611 14.73C145.351 14.72 145.141 14.69 145.271 14.63C145.311 14.66 145.431 14.64 145.581 14.65C145.611 14.57 145.351 14.53 145.211 14.48L145.951 14.49L145.721 14.56Z" fill="#3B1515"/>
        <path d="M147.381 14.7101L147.221 14.7001C147.151 14.7501 147.301 14.7801 147.451 14.8201C146.781 14.7401 147.451 14.6601 147.051 14.5801C147.031 14.6101 147.451 14.6601 147.381 14.7101Z" fill="#3B1515"/>
        <path d="M146.502 14.9398C146.212 14.8298 145.922 14.9198 145.852 14.7998L146.612 14.9198L146.502 14.9398Z" fill="#3B1515"/>
        <path d="M151.54 14.8898C151.77 14.8498 151.65 14.8698 152.02 14.8898L151.49 14.8798L151.54 14.8898Z" fill="#3B1515"/>
        <path d="M162.231 15.0101C161.931 14.9401 161.691 14.8701 161.211 14.8501C161.691 14.8501 162.131 14.9901 162.231 15.0101Z" fill="#3B1515"/>
        <path d="M166.96 15.4098C166.95 15.4498 167.1 15.4598 166.88 15.4798C166.78 15.4598 166.92 15.3598 166.58 15.4098H166.96Z" fill="#3B1515"/>
        <path d="M167.352 15.6299L167.562 15.7099C167.562 15.6899 167.482 15.6499 167.352 15.6299Z" fill="#3B1515"/>
        <path d="M154.352 14.6099L154.382 14.6299C154.402 14.6299 154.432 14.6199 154.452 14.6099C154.422 14.6099 154.392 14.6099 154.352 14.6099Z" fill="#3B1515"/>
        <path d="M155.071 14.6798L154.561 14.5898C154.521 14.5998 154.481 14.6098 154.451 14.6098C154.791 14.6398 154.671 14.7098 155.071 14.6798Z" fill="#3B1515"/>
        <path d="M154.441 14.6698L154.381 14.6298C153.941 14.6998 153.751 14.5398 153.131 14.5798C153.591 14.6598 154.061 14.6698 154.441 14.6698Z" fill="#3B1515"/>
        <path d="M153.931 14.7597L153.751 14.8097C153.591 14.7997 153.611 14.7597 153.611 14.7397L153.281 14.7597C153.151 14.8397 154.151 14.8597 154.421 14.8797L153.931 14.7597Z" fill="#3B1515"/>
        <path d="M151.77 15.6798L151.82 15.5398C151.39 15.5598 151.31 15.4498 150.84 15.4798H150.83C150.99 15.6098 151.43 15.5598 151.77 15.6798Z" fill="#3B1515"/>
        <path d="M155.671 14.8297C155.241 14.8197 154.931 14.8197 154.791 14.8997L155.581 14.9397C155.281 14.8797 155.601 14.8797 155.671 14.8297Z" fill="#3B1515"/>
        <path d="M156.331 15.1099L155.951 15.1199L156.111 15.1699C156.131 15.1399 156.201 15.1199 156.331 15.1099Z" fill="#3B1515"/>
        <path d="M156.111 15.1597C156.091 15.1797 156.151 15.1997 156.291 15.2097L156.111 15.1597Z" fill="#3B1515"/>
        <path d="M155.371 15.2697C155.611 15.3697 155.591 15.2497 156.011 15.2797C156.041 15.1797 155.581 15.2797 155.371 15.2697Z" fill="#3B1515"/>
        <path d="M157.111 15.3298L157.251 15.3998L157.281 15.2998L157.111 15.3298Z" fill="#3B1515"/>
        <path d="M160.24 14.8799C159.84 14.9699 160.48 14.9799 160.51 15.0299L160.24 14.8799Z" fill="#3B1515"/>
        <path d="M157.57 15.56L157.44 15.46L157.37 15.51C157.26 15.51 157.1 15.52 157.01 15.47C156.92 15.59 157.36 15.54 157.57 15.56Z" fill="#3B1515"/>
        <path d="M156.612 15.8999C156.602 15.9399 157.202 16.0699 156.512 16.0299C156.772 16.0399 157.152 16.0399 156.912 16.1199C157.342 16.1299 156.942 16.0199 157.232 15.9699C156.992 16.0299 156.812 15.9199 156.612 15.8999Z" fill="#3B1515"/>
        <path d="M157.641 16.0001C157.851 16.0201 158.101 16.0601 158.221 16.0201C158.011 16.0101 157.831 15.9301 157.641 16.0001Z" fill="#3B1515"/>
        <path d="M157.831 16.2399L157.541 16.1499L157.721 16.2599L157.831 16.2399Z" fill="#3B1515"/>
        <path d="M159.061 16.2397L158.311 16.2497L158.981 16.3097C159.391 16.2497 159.191 16.2097 158.901 16.1797C158.981 16.1997 159.051 16.2197 159.061 16.2397Z" fill="#3B1515"/>
        <path d="M158.261 16.0698L158.031 16.1098C158.021 16.1298 158.361 16.1298 158.651 16.1598C158.461 16.1298 158.291 16.0998 158.261 16.0698Z" fill="#3B1515"/>
        <path d="M158.66 16.1499C158.74 16.1599 158.83 16.1699 158.91 16.1799C158.83 16.1699 158.75 16.1599 158.66 16.1499Z" fill="#3B1515"/>
        <path d="M163.84 15.48L163.15 15.46C163.41 15.49 163.62 15.5 163.84 15.48Z" fill="#3B1515"/>
        <path d="M159.612 16.3598H159.722L159.752 16.2598C159.532 16.2798 159.622 16.3398 159.612 16.3598Z" fill="#3B1515"/>
        <path d="M160.511 16.56C160.701 16.62 161.101 16.56 161.261 16.55C161.021 16.47 160.751 16.48 160.441 16.46C160.751 16.48 160.521 16.52 160.511 16.56Z" fill="#3B1515"/>
        <path d="M161.421 16.6999L160.781 16.6899C160.911 16.8099 161.161 16.7099 161.421 16.6999Z" fill="#3B1515"/>
        <path d="M162.451 16.6601C162.511 16.6501 162.461 16.6201 162.581 16.6001C162.491 16.5601 162.271 16.5801 162.111 16.5601L162.451 16.6601Z" fill="#3B1515"/>
        <path d="M156.971 15.6C157.161 15.6 157.341 15.59 157.501 15.59C157.241 15.56 156.981 15.54 156.721 15.52C156.801 15.55 156.881 15.58 156.971 15.6Z" fill="#3B1515"/>
        <path d="M192.191 14.4897C191.381 14.6697 189.861 14.6997 189.021 14.7297C187.641 14.7097 185.921 14.9097 184.311 14.9497L184.321 14.9097C183.061 14.8497 181.421 14.9597 180.031 14.9597L180.111 15.0197C180.341 15.0297 180.651 15.0297 180.471 15.0997C180.161 15.0797 179.741 15.0497 179.651 15.0097L179.411 15.0897C179.211 15.0497 179.381 14.8597 178.831 14.9197C178.501 15.1097 177.591 14.7797 177.571 15.0197C177.351 14.8797 176.831 14.9997 176.561 14.9897L176.751 15.0997C176.181 15.0397 175.651 14.8797 175.371 14.9097C174.671 14.9297 173.711 14.9397 172.941 14.9897C172.771 14.8597 173.741 14.9897 173.251 14.8597C171.791 15.0897 169.761 14.7597 168.011 14.8797C168.061 14.8897 168.221 14.8997 168.101 14.9197C167.761 14.8197 167.301 14.9197 166.731 14.8597C166.811 14.9397 167.551 14.9497 167.821 14.9697C167.651 15.1797 167.681 14.9197 166.961 14.9797C167.011 14.9897 167.111 15.0097 167.101 15.0297C166.391 15.0697 166.821 14.8997 166.281 14.9397L166.581 15.0097C166.051 14.9997 166.411 15.0397 165.811 15.0797C165.901 14.9697 165.611 14.8797 165.451 14.8697C165.381 14.9197 164.811 14.8797 164.881 14.9897C164.151 14.7597 163.951 15.0497 163.271 14.8397C162.971 14.9297 163.561 14.9497 163.531 15.0297C162.821 15.0897 163.301 14.9097 163.041 14.8797C162.811 14.9197 161.891 14.9597 161.491 14.8697L161.461 14.9497C160.851 14.8597 159.841 14.8397 159.611 14.7197C159.361 14.8397 159.841 14.8397 160.261 14.8397C160.351 14.8997 159.911 14.9397 159.701 14.9197C159.811 14.9197 159.841 14.9697 159.961 14.9297C159.991 14.9997 159.681 14.9597 159.571 14.9797C158.831 14.9497 159.851 14.9297 159.551 14.8897C159.271 14.9197 158.591 14.8997 158.871 15.0097C158.281 15.0097 158.641 14.8897 158.331 14.8497C158.791 14.9297 158.941 14.7597 159.291 14.8597C159.411 14.8197 159.371 14.7897 159.221 14.7597C158.731 14.7897 157.801 14.6897 157.821 14.8097L157.581 14.7297L157.341 14.8097L157.241 14.7897C157.471 14.9097 157.931 14.9597 158.111 15.0697C158.151 15.1197 157.831 15.0997 157.671 15.1097L157.541 15.0097C157.121 14.9797 157.221 15.1797 156.641 15.1397C157.001 15.0197 156.001 14.9597 155.611 14.8697C155.171 15.0797 155.661 15.0397 155.291 15.2197C154.861 15.2097 154.211 15.2697 153.701 15.1997C154.931 15.1997 153.111 15.0497 154.091 14.9797C153.881 14.9597 153.711 14.9897 153.501 14.9797C153.341 14.8097 153.811 14.8497 153.531 14.7197L153.441 14.8297C153.151 14.7397 152.971 14.6197 152.401 14.5797C152.331 14.6297 152.041 14.6997 151.791 14.6697C151.711 14.5897 151.671 14.5497 151.131 14.5497C150.101 14.7697 152.161 14.8397 152.361 15.0397C153.841 15.0997 153.881 15.6197 155.721 15.7397C156.011 15.6697 155.911 15.6497 156.451 15.6097C156.831 15.4297 155.651 15.4497 155.311 15.3397C155.481 15.3097 155.651 15.2797 155.801 15.3097L155.631 15.1797C156.501 15.1297 156.101 15.3697 156.871 15.3197L156.701 15.3497L157.141 15.3097L157.041 15.2897C157.311 15.2797 157.391 15.1897 157.801 15.2397L157.461 15.3197C157.691 15.2597 157.751 15.4097 158.081 15.3697C157.901 15.4197 157.841 15.4797 157.731 15.4797C158.221 15.5397 158.661 15.5597 159.081 15.5697C160.541 15.5097 161.951 15.5597 163.341 15.6697C163.281 15.6497 163.211 15.6397 163.171 15.6297C163.421 15.5997 163.581 15.6497 163.721 15.6997C163.981 15.7197 164.241 15.7497 164.501 15.7697C165.071 15.7497 165.521 15.7297 166.221 15.7497C166.251 15.8097 166.211 15.8297 166.121 15.8397C166.371 15.8297 166.521 15.8097 166.281 15.7397C166.711 15.7197 166.901 15.7897 167.221 15.7897L166.491 15.8997C166.801 15.9497 166.791 15.8097 167.201 15.8597C167.851 15.8297 166.911 15.7497 167.001 15.6597L167.261 15.6697L167.001 15.5297C167.571 15.5697 167.861 15.6797 168.101 15.7497L167.691 15.6997C167.541 15.8397 168.381 15.7197 168.561 15.7997L168.501 15.8097C169.141 15.8197 168.361 15.7397 168.801 15.7197L169.561 15.8397L169.431 15.7397C169.871 15.6797 170.741 15.8297 171.471 15.8597C171.891 15.8897 172.451 15.8097 172.991 15.7897C172.891 15.7697 172.681 15.7397 172.751 15.7097C173.071 15.7097 173.761 15.7097 173.521 15.8097L173.971 15.7297C174.131 15.7297 174.261 15.7497 174.361 15.7697L174.241 15.7297L174.781 15.6997C174.771 15.7197 174.971 15.7597 174.701 15.7697C175.301 15.8797 176.071 15.6697 177.011 15.7297L176.731 15.7797C177.291 15.6997 177.341 15.8697 177.951 15.8097L177.811 15.7397C178.251 15.6997 179.071 15.7997 178.951 15.8597C179.011 15.6697 179.201 15.9197 179.461 15.7497L179.731 15.9197C180.011 15.8697 180.291 15.8397 180.101 15.7597C180.541 15.8397 180.901 15.8497 181.161 15.7397H181.171H181.181C181.281 15.7297 181.711 15.7597 181.521 15.6797C182.531 15.6797 182.061 15.8397 183.021 15.8297L183.061 15.7097C183.801 15.7397 184.531 15.6297 185.081 15.5597L185.151 15.6597C185.531 15.6297 185.081 15.5597 185.671 15.5297C185.751 15.5497 185.831 15.5797 185.811 15.6097C186.391 15.5997 187.151 15.6597 188.021 15.6697C188.011 15.6897 187.901 15.7097 187.841 15.7197C188.221 15.7097 188.821 15.6697 189.261 15.6297C190.261 15.8097 191.711 15.9297 193.041 15.8897C194.071 15.6397 194.741 15.3397 194.841 15.0397C194.591 14.8497 193.551 14.6497 192.191 14.4897Z" fill="#3B1515"/>
    </g>
    <defs>
        <clipPath id="clip0_4063_11447">
            <rect width="200" height="52" fill="white"/>
        </clipPath>
    </defs>
</svg>
