<svg xmlns="http://www.w3.org/2000/svg" width="32" height="32" viewBox="0 0 32 32" fill="none">
                        <rect width="32" height="32" rx="6" fill="#F4F6FC"/>
                        <path d="M24.0131 23.3405L20.0047 19.1715C21.0353 17.9463 21.6 16.4048 21.6 14.8C21.6 11.0505 18.5495 8 14.8 8C11.0505 8 8 11.0505 8 14.8C8 18.5495 11.0505 21.6 14.8 21.6C16.2076 21.6 17.549 21.1754 18.6958 20.3695L22.7347 24.5701C22.9035 24.7454 23.1306 24.8421 23.3739 24.8421C23.6042 24.8421 23.8227 24.7543 23.9886 24.5946C24.341 24.2555 24.3522 23.6932 24.0131 23.3405ZM14.8 9.77391C17.5714 9.77391 19.8261 12.0286 19.8261 14.8C19.8261 17.5714 17.5714 19.8261 14.8 19.8261C12.0286 19.8261 9.77391 17.5714 9.77391 14.8C9.77391 12.0286 12.0286 9.77391 14.8 9.77391Z" fill="#242424"/>
                    </svg>