<svg width="27" height="27" fill="none" xmlns="http://www.w3.org/2000/svg"><path d="M18.23 25.73c-1.42 0-2.64-.6-3.86-1.61a8.87 8.87 0 0 1-2.03-2.21l-.2-.2c-.4-.2-.4-.6-.2-.8l.2-.21c.4-.4 1.01-1.4 2.03-2.21a6.46 6.46 0 0 1 3.86-1.61c1.22 0 2.64.6 3.86 1.6 1.01.81 1.82 1.82 2.03 2.02l.2.2c.2.2.2.6 0 .8l-.2.2c-.4.4-1.02 1.41-2.03 2.22a4.94 4.94 0 0 1-3.66 1.8Zm0-7.24c-1.42 0-3.05 1-4.47 2.81h-.2l.2.2c1.63 1.81 3.05 2.82 4.47 2.82s3.05-1 4.47-2.82l.2-.2-.2-.2c-1.63-1.6-3.05-2.61-4.47-2.61ZM6.66 25.73A3.62 3.62 0 0 1 3 22.1V5.6A3.62 3.62 0 0 1 6.66 2h11.77c2.04 0 3.66 1.6 3.66 3.62v9.05c0 .4-.4.8-.81.8-.4 0-.82-.4-.82-.8V5.62c0-1.2-1.01-2.01-2.03-2.01H6.66c-1.22 0-2.04 1-2.04 2v16.5c0 1.2 1.02 2 2.04 2h4.26c.4 0 .81.41.81.81 0 .4-.4.8-.81.8H6.66Zm11.57-2.82c-.81 0-1.62-.8-1.62-1.6 0-.81.8-1.62 1.62-1.62.81 0 1.63.8 1.63 1.61 0 .8-.82 1.61-1.63 1.61ZM7.67 16.68c-.4 0-.81-.4-.81-.8s.4-.6.81-.6h5.08c.4 0 .81.4.81.8s-.6.6-1.02.6H7.67Zm0-3.82c-.4 0-.81-.4-.81-.8s.4-.6.81-.6h9.75c.4 0 .81.4.81.8s-.4.6-.81.6H7.67Zm0-3.82c-.4 0-.81-.4-.81-.8s.4-.61.81-.61h9.75c.4 0 .81.4.81.8s-.4.6-.81.6H7.67Z" fill="#686E70"/></svg>
