<svg class="w-[20px] md:w-[26px]" width="26" height="26" viewBox="0 0 26 26" fill="none" xmlns="http://www.w3.org/2000/svg">
    <rect width="26" height="26" rx="4" fill="#040404"/>
    <circle cx="13" cy="13" r="13" fill="white"/>
    <path fill-rule="evenodd" clip-rule="evenodd" d="M0 13C0 5.82401 5.824 0 13 0C20.1761 0 26 5.82401 26 13C26 20.176 20.1761 26 13 26C5.824 26 0 20.176 0 13ZM6.47178 19.825L11.3084 14.0462L6.17504 6.17501H10.9229L13.9769 10.8578L17.8962 6.17501H19.6767L14.7567 12.0535L19.8251 19.825H15.0772L12.0881 15.2418L8.25218 19.825H6.47178ZM10.2357 7.63751H8.76981L15.7644 18.3625H17.2303L10.2357 7.63751Z" fill="#040404"/>
</svg>
