<svg width="164" height="36" viewBox="0 0 164 36" fill="none" xmlns="http://www.w3.org/2000/svg">
<path d="M5.24422 0.986698C6.21776 0.986698 7.06851 1.17527 7.79648 1.55241C8.53321 1.92077 9.09892 2.45578 9.4936 3.15743C9.89705 3.85031 10.0988 4.6616 10.0988 5.59129C10.0988 6.52098 9.89705 7.32788 9.4936 8.01199C9.09892 8.6961 8.53321 9.22234 7.79648 9.5907C7.06851 9.9503 6.21776 10.1301 5.24422 10.1301H2.25781V0.986698H5.24422ZM5.24422 8.90659C6.31424 8.90659 7.13429 8.61716 7.70439 8.0383C8.27448 7.45944 8.55952 6.64377 8.55952 5.59129C8.55952 4.53004 8.27448 3.70121 7.70439 3.10481C7.13429 2.50841 6.31424 2.2102 5.24422 2.2102H3.75759V8.90659H5.24422Z" fill="#D11235" class="dark:fill-white" class="dark:fill-white"/>
<path d="M13.2692 1.92077C12.9973 1.92077 12.7692 1.82868 12.585 1.6445C12.4009 1.46031 12.3088 1.23228 12.3088 0.960386C12.3088 0.688496 12.4009 0.460459 12.585 0.276276C12.7692 0.0920919 12.9973 0 13.2692 0C13.5323 0 13.7559 0.0920919 13.9401 0.276276C14.1243 0.460459 14.2164 0.688496 14.2164 0.960386C14.2164 1.23228 14.1243 1.46031 13.9401 1.6445C13.7559 1.82868 13.5323 1.92077 13.2692 1.92077ZM14.0059 2.88116V10.1301H12.5061V2.88116H14.0059Z" fill="#D11235" class="dark:fill-white"/>
<path d="M19.8165 2.76275C20.3778 2.76275 20.8734 2.87677 21.3031 3.10481C21.7417 3.32408 22.0837 3.60035 22.3293 3.93364V2.88116H23.8422V10.2485C23.8422 10.9151 23.7019 11.5071 23.4213 12.0246C23.1406 12.5508 22.7328 12.963 22.1977 13.2612C21.6715 13.5594 21.04 13.7085 20.3033 13.7085C19.321 13.7085 18.5053 13.4761 17.8563 13.0113C17.2072 12.5552 16.8389 11.9325 16.7512 11.1431H18.2378C18.3518 11.5202 18.593 11.8228 18.9614 12.0509C19.3385 12.2877 19.7858 12.4061 20.3033 12.4061C20.9085 12.4061 21.3952 12.2219 21.7636 11.8535C22.1407 11.4852 22.3293 10.9502 22.3293 10.2485V9.03815C22.075 9.38021 21.7285 9.66964 21.29 9.90645C20.8602 10.1345 20.3691 10.2485 19.8165 10.2485C19.185 10.2485 18.6062 10.0906 18.0799 9.77489C17.5625 9.45037 17.1502 9.00307 16.8433 8.43298C16.5451 7.85412 16.396 7.2007 16.396 6.47274C16.396 5.74477 16.5451 5.10013 16.8433 4.53881C17.1502 3.97749 17.5625 3.54334 18.0799 3.23637C18.6062 2.92063 19.185 2.76275 19.8165 2.76275ZM22.3293 6.49905C22.3293 5.99912 22.2241 5.56498 22.0136 5.19661C21.8118 4.82824 21.5443 4.54758 21.211 4.35463C20.8778 4.16167 20.5182 4.0652 20.1323 4.0652C19.7463 4.0652 19.3868 4.16167 19.0535 4.35463C18.7202 4.53881 18.4483 4.81509 18.2378 5.18345C18.0361 5.54305 17.9352 5.97281 17.9352 6.47274C17.9352 6.97267 18.0361 7.4112 18.2378 7.78834C18.4483 8.16547 18.7202 8.45491 19.0535 8.65663C19.3955 8.84959 19.7551 8.94606 20.1323 8.94606C20.5182 8.94606 20.8778 8.84959 21.211 8.65663C21.5443 8.46368 21.8118 8.18302 22.0136 7.81465C22.2241 7.43751 22.3293 6.99898 22.3293 6.49905Z" fill="#D11235" class="dark:fill-white"/>
<path d="M27.4961 1.92077C27.2242 1.92077 26.9962 1.82868 26.812 1.6445C26.6278 1.46031 26.5357 1.23228 26.5357 0.960386C26.5357 0.688496 26.6278 0.460459 26.812 0.276276C26.9962 0.0920919 27.2242 0 27.4961 0C27.7592 0 27.9829 0.0920919 28.1671 0.276276C28.3512 0.460459 28.4433 0.688496 28.4433 0.960386C28.4433 1.23228 28.3512 1.46031 28.1671 1.6445C27.9829 1.82868 27.7592 1.92077 27.4961 1.92077ZM28.2328 2.88116V10.1301H26.7331V2.88116H28.2328Z" fill="#D11235" class="dark:fill-white"/>
<path d="M32.8726 4.10466V8.11724C32.8726 8.38913 32.934 8.58647 33.0568 8.70925C33.1883 8.82327 33.4076 8.88028 33.7146 8.88028H34.6355V10.1301H33.4514C32.7761 10.1301 32.2586 9.97223 31.899 9.65648C31.5394 9.34074 31.3596 8.82766 31.3596 8.11724V4.10466H30.5045V2.88116H31.3596V1.07879H32.8726V2.88116H34.6355V4.10466H32.8726Z" fill="#D11235" class="dark:fill-white"/>
<path d="M36.4388 6.47274C36.4388 5.74477 36.5879 5.10013 36.8861 4.53881C37.1931 3.97749 37.6053 3.54334 38.1227 3.23637C38.649 2.92063 39.2278 2.76275 39.8593 2.76275C40.4294 2.76275 40.925 2.87677 41.346 3.10481C41.7757 3.32408 42.1178 3.60035 42.3721 3.93364V2.88116H43.8851V10.1301H42.3721V9.05131C42.1178 9.39337 41.7713 9.67841 41.3328 9.90645C40.8943 10.1345 40.3943 10.2485 39.833 10.2485C39.2103 10.2485 38.6402 10.0906 38.1227 9.77489C37.6053 9.45037 37.1931 9.00307 36.8861 8.43298C36.5879 7.85412 36.4388 7.2007 36.4388 6.47274ZM42.3721 6.49905C42.3721 5.99912 42.2669 5.56498 42.0564 5.19661C41.8547 4.82824 41.5872 4.54758 41.2539 4.35463C40.9206 4.16167 40.561 4.0652 40.1751 4.0652C39.7892 4.0652 39.4296 4.16167 39.0963 4.35463C38.763 4.53881 38.4911 4.81509 38.2806 5.18345C38.0789 5.54305 37.978 5.97281 37.978 6.47274C37.978 6.97267 38.0789 7.4112 38.2806 7.78834C38.4911 8.16547 38.763 8.45491 39.0963 8.65663C39.4383 8.84959 39.7979 8.94606 40.1751 8.94606C40.561 8.94606 40.9206 8.84959 41.2539 8.65663C41.5872 8.46368 41.8547 8.18302 42.0564 7.81465C42.2669 7.43751 42.3721 6.99898 42.3721 6.49905Z" fill="#D11235" class="dark:fill-white"/>
<path d="M48.2757 0.39468V10.1301H46.7759V0.39468H48.2757Z" fill="#D11235" class="dark:fill-white"/>
<path d="M0 30.5081V21.1823H3.83365V30.5081H0ZM0 21.1823C0 20.131 0.262827 19.1884 0.788481 18.3547C1.31414 17.5209 2.03011 16.8683 2.93641 16.397C3.86084 15.9258 4.90309 15.6901 6.06315 15.6901V18.6809C5.37436 18.6809 4.83058 18.8984 4.43181 19.3335C4.03304 19.7685 3.83365 20.3848 3.83365 21.1823H0ZM0 30.4809H3.83365C3.83365 31.2785 4.03304 31.9038 4.43181 32.357C4.83058 32.792 5.37436 33.0095 6.06315 33.0095V36.0003C4.90309 36.0003 3.86084 35.7647 2.93641 35.2934C2.03011 34.804 1.31414 34.1515 0.788481 33.3358C0.262827 32.502 0 31.5504 0 30.4809ZM8.75486 22.0524C8.68236 21.001 8.40141 20.1763 7.912 19.5782C7.44073 18.98 6.81538 18.6809 6.03596 18.6809V15.6901C7.79418 15.6901 9.20801 16.1977 10.2774 17.2127C11.365 18.2096 12.0085 19.6144 12.2079 21.427L8.75486 22.0524ZM8.75486 29.6381L12.2079 30.2362C12.0085 32.0488 11.365 33.4627 10.2774 34.4777C9.20801 35.4928 7.79418 36.0003 6.03596 36.0003V33.0095C6.81538 33.0095 7.44073 32.7104 7.912 32.1123C8.40141 31.5141 8.68236 30.6894 8.75486 29.6381Z" fill="#0057A1" class="dark:fill-white"/>
<path d="M25.4298 21.563V35.5653H21.5961V21.563H25.4298ZM17.545 21.563V30.6169H13.7113V21.563H17.545ZM17.545 30.5897C17.545 31.3329 17.7172 31.922 18.0616 32.357C18.406 32.7739 18.8772 32.9823 19.4754 32.9823L18.3607 36.0003C17.4725 36.0003 16.6749 35.7647 15.968 35.2934C15.2792 34.8221 14.7264 34.1787 14.3095 33.363C13.9107 32.5473 13.7113 31.6229 13.7113 30.5897H17.545ZM22.7925 30.3722C22.7925 31.4416 22.5931 32.4023 22.1943 33.2542C21.8137 34.088 21.288 34.7587 20.6173 35.2662C19.9467 35.7556 19.1945 36.0003 18.3607 36.0003L19.4754 32.9823C20.1098 32.9823 20.6173 32.7467 20.998 32.2754C21.3968 31.8041 21.5961 31.1697 21.5961 30.3722H22.7925Z" fill="#0057A1" class="dark:fill-white"/>
<path d="M28.1523 35.5653V21.563H31.986V35.5653H28.1523ZM30.7896 27.1911C30.7896 26.031 30.9618 24.9978 31.3062 24.0915C31.6506 23.1852 32.1219 22.4783 32.7201 21.9708C33.3363 21.4451 34.0251 21.1823 34.7864 21.1823L33.862 24.5809C33.3001 24.5809 32.8469 24.8166 32.5026 25.2878C32.1582 25.7591 31.986 26.3935 31.986 27.1911H30.7896ZM35.8196 25.5597C35.584 25.2697 35.2849 25.0341 34.9224 24.8528C34.5599 24.6716 34.2064 24.5809 33.862 24.5809L34.7864 21.1823C35.2396 21.1823 35.6474 21.2729 36.0099 21.4542C36.3906 21.6173 36.7803 21.9073 37.1791 22.3242L35.8196 25.5597Z" fill="#0057A1" class="dark:fill-white"/>
<path d="M38.6275 35.5653V21.563H42.4612V35.5653H38.6275ZM41.2648 27.1911C41.2648 26.031 41.437 24.9978 41.7814 24.0915C42.1258 23.1852 42.5971 22.4783 43.1953 21.9708C43.8116 21.4451 44.5003 21.1823 45.2616 21.1823L44.3372 24.5809C43.7753 24.5809 43.3221 24.8166 42.9778 25.2878C42.6334 25.7591 42.4612 26.3935 42.4612 27.1911H41.2648ZM46.2948 25.5597C46.0592 25.2697 45.7601 25.0341 45.3976 24.8528C45.0351 24.6716 44.6816 24.5809 44.3372 24.5809L45.2616 21.1823C45.7148 21.1823 46.1226 21.2729 46.4851 21.4542C46.8658 21.6173 47.2555 21.9073 47.6543 22.3242L46.2948 25.5597Z" fill="#0057A1" class="dark:fill-white"/>
<path d="M49.7181 29.5565V27.327H59.2886V29.5565H49.7181ZM53.443 36.0003V33.0095H53.6877V36.0003H53.443ZM47.7061 29.91V27.2183H51.5397V29.91H47.7061ZM55.455 27.327V26.7289H59.2886V27.327H55.455ZM59.2886 26.7289H55.455C55.455 25.9313 55.2737 25.2969 54.9112 24.8256C54.5487 24.3544 54.0593 24.1187 53.443 24.1187V21.1279C54.5668 21.1279 55.5637 21.3726 56.4338 21.862C57.3219 22.3514 58.0198 23.0221 58.5273 23.874C59.0348 24.7078 59.2886 25.6594 59.2886 26.7289ZM55.6997 30.78L59.0983 31.4054C58.9533 32.3479 58.6361 33.1636 58.1467 33.8524C57.6573 34.5412 57.0319 35.0759 56.2706 35.4565C55.5093 35.8191 54.6484 36.0003 53.6877 36.0003V33.0095C54.2133 33.0095 54.6574 32.8192 55.0199 32.4386C55.3825 32.0398 55.609 31.4869 55.6997 30.78ZM47.7061 27.2455C47.7061 26.0673 47.9599 25.025 48.4674 24.1187C48.9749 23.1943 49.6546 22.4693 50.5066 21.9436C51.3766 21.3998 52.3645 21.1279 53.4702 21.1279V24.1187C52.8539 24.1187 52.3735 24.3997 52.0291 24.9616C51.7029 25.5054 51.5397 26.2667 51.5397 27.2455H47.7061ZM47.7061 29.8828H51.5397C51.5397 30.8616 51.7029 31.632 52.0291 32.1939C52.3735 32.7376 52.8539 33.0095 53.4702 33.0095V36.0003C52.3645 36.0003 51.3766 35.7375 50.5066 35.2118C49.6546 34.6681 48.9749 33.934 48.4674 33.0095C47.9599 32.0851 47.7061 31.0429 47.7061 29.8828Z" fill="#0057A1" class="dark:fill-white"/>
<path d="M61.1179 35.5653V21.563H64.9516V35.5653H61.1179ZM69.0027 35.5653V26.5114H72.8364V35.5653H69.0027ZM69.0027 26.5385C69.0027 25.7954 68.8305 25.2153 68.4861 24.7984C68.1418 24.3634 67.6705 24.1459 67.0723 24.1459L68.1871 21.1279C69.0752 21.1279 69.8637 21.3636 70.5525 21.8348C71.2594 22.3061 71.8123 22.9496 72.211 23.7653C72.6279 24.5809 72.8364 25.5054 72.8364 26.5385H69.0027ZM63.7553 26.7289C63.7553 25.6594 63.9456 24.7078 64.3262 23.874C64.725 23.0221 65.2597 22.3514 65.9304 21.862C66.601 21.3726 67.3533 21.1279 68.1871 21.1279L67.0723 24.1459C66.4379 24.1459 65.9213 24.3815 65.5225 24.8528C65.1419 25.3241 64.9516 25.9494 64.9516 26.7289H63.7553Z" fill="#0057A1" class="dark:fill-white"/>
<path d="M75.8359 30.6713V16.1252H79.6695V30.6713H75.8359ZM74.2589 24.4178V21.563H83.0954V24.4178H74.2589ZM75.8359 30.6441H79.6695C79.6695 31.1335 79.733 31.5594 79.8599 31.922C80.0049 32.2664 80.2043 32.5292 80.458 32.7104C80.7118 32.8917 81.0109 32.9823 81.3553 32.9823L80.9202 36.0003C79.3251 36.0003 78.0744 35.529 77.1681 34.5865C76.28 33.6439 75.8359 32.3298 75.8359 30.6441ZM82.5788 32.5201L83.9382 34.9943C83.4488 35.3387 82.9503 35.5925 82.4428 35.7556C81.9534 35.9188 81.4459 36.0003 80.9202 36.0003L81.3553 32.9823C81.5909 32.9823 81.8084 32.9461 82.0078 32.8736C82.2072 32.783 82.3975 32.6651 82.5788 32.5201Z" fill="#0057A1" class="dark:fill-white"/>
<path d="M93.4342 32.2482V29.2574H100.395V32.2482H93.4342ZM98.2466 16.1252L93.4614 35.5653H89.7365L94.5489 16.1252H98.2466ZM98.301 16.1252L103.113 35.5653H99.4158L94.6033 16.1252H98.301Z" fill="#0057A1" class="dark:fill-white"/>
<path d="M108.653 24.4178V21.563H117.272V24.4178H108.653ZM105.635 35.5653V21.0192H109.469V35.5653H105.635ZM104.059 24.4178V21.563H112.677V24.4178H104.059ZM105.635 21.0192C105.635 19.3516 106.08 18.0465 106.968 17.104C107.874 16.1614 109.125 15.6901 110.72 15.6901L111.155 18.6809C110.81 18.6809 110.511 18.7806 110.258 18.98C110.004 19.1613 109.804 19.4241 109.659 19.7685C109.533 20.1129 109.469 20.5298 109.469 21.0192H105.635ZM112.378 19.1431C112.197 18.9981 112.007 18.8894 111.807 18.8169C111.608 18.7262 111.39 18.6809 111.155 18.6809L110.72 15.6901C111.245 15.6901 111.753 15.7626 112.242 15.9076C112.75 16.0526 113.248 16.3155 113.738 16.6961L112.378 19.1431ZM114.798 35.5653V21.0192H118.632V35.5653H114.798ZM113.221 24.4178V21.563H121.84V24.4178H113.221ZM114.798 21.0192C114.798 19.3516 115.242 18.0465 116.13 17.104C117.019 16.1614 118.26 15.6901 119.855 15.6901L120.318 18.6809C119.973 18.6809 119.674 18.7806 119.42 18.98C119.167 19.1613 118.967 19.4241 118.822 19.7685C118.695 20.1129 118.632 20.5298 118.632 21.0192H114.798ZM121.514 19.1431C121.351 18.9981 121.169 18.8894 120.97 18.8169C120.771 18.7262 120.553 18.6809 120.318 18.6809L119.855 15.6901C120.399 15.6901 120.916 15.7626 121.405 15.9076C121.913 16.0526 122.411 16.3155 122.9 16.6961L121.514 19.1431Z" fill="#0057A1" class="dark:fill-white"/>
<path d="M130.155 35.5653V26.5114H133.988V35.5653H130.155ZM126.974 35.9731L127.572 33.1183C128.079 33.1183 128.523 32.9914 128.904 32.7376C129.285 32.4657 129.584 32.0851 129.801 31.5957C130.037 31.1063 130.155 30.5172 130.155 29.8284L131.759 29.6381C131.759 30.8525 131.541 31.9401 131.106 32.9008C130.671 33.8615 130.091 34.6137 129.366 35.1575C128.641 35.7012 127.844 35.9731 126.974 35.9731ZM126.974 35.9731C126.085 35.9731 125.297 35.7828 124.608 35.4022C123.919 35.0215 123.376 34.5049 122.977 33.8524C122.596 33.1817 122.406 32.4295 122.406 31.5957L125.832 31.4054C125.832 31.8948 126.004 32.3026 126.348 32.6289C126.693 32.9551 127.1 33.1183 127.572 33.1183L126.974 35.9731ZM122.406 31.5957C122.406 30.7438 122.632 29.9915 123.086 29.339C123.557 28.6865 124.182 28.1699 124.962 27.7892C125.759 27.3905 126.656 27.1911 127.653 27.1911L128.061 29.6381C127.372 29.6381 126.829 29.8012 126.43 30.1275C126.031 30.4356 125.832 30.8616 125.832 31.4054L122.406 31.5957ZM128.061 29.6381L127.653 27.1911H131.133V29.6381H128.061ZM130.155 29.8284V26.7017H131.759V29.6381L130.155 29.8284ZM133.988 26.7289H130.155C130.155 25.9313 129.973 25.2969 129.611 24.8256C129.248 24.3544 128.759 24.1187 128.143 24.1187V21.1279C129.266 21.1279 130.263 21.3726 131.133 21.862C132.022 22.3514 132.719 23.0221 133.227 23.874C133.735 24.7078 133.988 25.6594 133.988 26.7289ZM126.131 26.3482L122.759 25.7229C122.904 24.7622 123.212 23.9465 123.684 23.2759C124.173 22.5871 124.798 22.0614 125.56 21.6989C126.339 21.3183 127.209 21.1279 128.17 21.1279V24.1187C127.644 24.1187 127.191 24.309 126.81 24.6897C126.448 25.0703 126.221 25.6232 126.131 26.3482Z" fill="#0057A1" class="dark:fill-white"/>
<path d="M136.349 35.5653V21.563H140.182V35.5653H136.349ZM138.252 19.6869C137.636 19.6869 137.119 19.4875 136.702 19.0888C136.303 18.6719 136.104 18.1553 136.104 17.539C136.104 16.9227 136.303 16.4061 136.702 15.9892C137.119 15.5542 137.636 15.3367 138.252 15.3367C138.868 15.3367 139.385 15.5542 139.802 15.9892C140.237 16.4061 140.454 16.9227 140.454 17.539C140.454 18.1553 140.237 18.6719 139.802 19.0888C139.385 19.4875 138.868 19.6869 138.252 19.6869Z" fill="#0057A1" class="dark:fill-white"/>
<path d="M143.18 35.5653V21.563H147.014V35.5653H143.18ZM145.817 27.1911C145.817 26.031 145.989 24.9978 146.334 24.0915C146.678 23.1852 147.149 22.4783 147.748 21.9708C148.364 21.4451 149.053 21.1823 149.814 21.1823L148.89 24.5809C148.328 24.5809 147.875 24.8166 147.53 25.2878C147.186 25.7591 147.014 26.3935 147.014 27.1911H145.817ZM150.847 25.5597C150.612 25.2697 150.312 25.0341 149.95 24.8528C149.587 24.6716 149.234 24.5809 148.89 24.5809L149.814 21.1823C150.267 21.1823 150.675 21.2729 151.038 21.4542C151.418 21.6173 151.808 21.9073 152.207 22.3242L150.847 25.5597Z" fill="#0057A1" class="dark:fill-white"/>
<path d="M159.436 31.7588C159.436 31.3963 159.264 31.0972 158.92 30.8616C158.594 30.6078 158.168 30.3813 157.642 30.1819C157.116 29.9644 156.563 29.7378 155.983 29.5021C155.403 29.2484 154.841 28.9493 154.298 28.6049C153.772 28.2605 153.346 27.8346 153.02 27.327C152.693 26.8014 152.53 26.167 152.53 25.4238C152.53 25.4238 152.648 25.4238 152.884 25.4238C153.138 25.4238 153.437 25.4238 153.781 25.4238C154.144 25.4238 154.506 25.4238 154.869 25.4238C155.231 25.4238 155.53 25.4238 155.766 25.4238C156.02 25.4238 156.146 25.4238 156.146 25.4238C156.146 25.7863 156.31 26.0945 156.636 26.3482C156.98 26.5839 157.415 26.8104 157.941 27.0279C158.467 27.2273 159.019 27.4539 159.6 27.7077C160.198 27.9433 160.76 28.2333 161.285 28.5777C161.811 28.9221 162.237 29.3481 162.563 29.8556C162.907 30.3631 163.08 30.9975 163.08 31.7588C163.08 31.7588 162.953 31.7588 162.699 31.7588C162.445 31.7588 162.137 31.7588 161.775 31.7588C161.43 31.7588 161.077 31.7588 160.714 31.7588C160.352 31.7588 160.044 31.7588 159.79 31.7588C159.554 31.7588 159.436 31.7588 159.436 31.7588ZM157.642 36.0003V32.9823C158.186 32.9823 158.621 32.8736 158.947 32.6561C159.273 32.4204 159.436 32.1214 159.436 31.7588H163.08C163.08 32.6108 162.853 33.363 162.4 34.0155C161.965 34.6499 161.34 35.1393 160.524 35.4837C159.726 35.8281 158.766 36.0003 157.642 36.0003ZM152.53 25.4238C152.53 24.6081 152.748 23.874 153.183 23.2215C153.636 22.5689 154.252 22.0614 155.032 21.6989C155.811 21.3183 156.681 21.1279 157.642 21.1279V24.1187C157.225 24.1187 156.872 24.2456 156.582 24.4994C156.292 24.7531 156.146 25.0613 156.146 25.4238H152.53ZM155.657 30.78C155.748 31.4869 155.974 32.0307 156.337 32.4114C156.699 32.792 157.143 32.9823 157.669 32.9823V36.0003C156.708 36.0003 155.847 35.8191 155.086 35.4565C154.325 35.0759 153.699 34.5412 153.21 33.8524C152.739 33.1455 152.422 32.3298 152.258 31.4054L155.657 30.78ZM159.654 26.3482C159.563 25.6232 159.337 25.0703 158.974 24.6897C158.612 24.309 158.168 24.1187 157.642 24.1187V21.1279C158.603 21.1279 159.464 21.3183 160.225 21.6989C160.986 22.0614 161.611 22.5871 162.101 23.2759C162.59 23.9465 162.907 24.7622 163.053 25.7229L159.654 26.3482Z" fill="#0057A1" class="dark:fill-white"/>
</svg>
