<svg xmlns="http://www.w3.org/2000/svg" width="171" height="36" viewBox="0 0 171 36" fill="#040404" class="dark:fill-white">
                        <g clip-path="url(#clip0_118_1328)">
                            <path fill-rule="evenodd" clip-rule="evenodd" d="M30.9554 9.95143C31.5656 18.1885 5.97266 35.7295 5.97266 21.2394C5.97266 10.5111 10.2053 3.37674 16.3502 1.12758C17.6906 0.636986 21.0538 0.585883 23.6636 1.12758C27.7732 2.20482 30.6252 5.49337 30.9554 9.95143Z" />
                            <path fill-rule="evenodd" clip-rule="evenodd" d="M35.7698 16.2773C31.5663 25.1607 22.5211 31.3057 12.0408 31.3057C9.89126 31.3057 7.80212 31.0472 5.80273 30.5596C8.9907 33.6643 13.3455 35.5768 18.147 35.5768C27.9195 35.5768 35.8416 27.6547 35.8416 17.8822C35.8416 17.3412 35.8173 16.8059 35.7698 16.2773Z" />
                            <path fill-rule="evenodd" clip-rule="evenodd" d="M15.26 0.1875C6.54869 1.88906 0 9.1858 0 17.9292C0 20.9913 0.803206 23.876 2.22122 26.405C2.0656 25.2665 1.98535 24.1056 1.98535 22.927C1.98535 13.3501 7.2841 4.9437 15.26 0.1875Z" />
                            <path d="M42.2248 11.2934C45.3434 11.2934 47.8715 8.76527 47.8715 5.64669C47.8715 2.52811 45.3434 0 42.2248 0C39.1062 0 36.5781 2.52811 36.5781 5.64669C36.5781 8.76527 39.1062 11.2934 42.2248 11.2934Z" />
                            <path d="M59.1066 26.7637V32.6368H58.3398V26.7637H59.1066Z" />
                            <path d="M66.0414 32.6374H65.2746L62.1906 27.9609V32.6374H61.4238V26.7559H62.1906L65.2746 31.424V26.7559H66.0414V32.6374Z" />
                            <path d="M70.2221 32.6954C69.8345 32.6954 69.4862 32.628 69.1772 32.4932C68.8739 32.3527 68.6351 32.1617 68.461 31.9202C68.2869 31.673 68.197 31.3893 68.1914 31.0691H69.0087C69.0368 31.3444 69.1491 31.5775 69.3458 31.7685C69.548 31.9539 69.8401 32.0466 70.2221 32.0466C70.5872 32.0466 70.8737 31.9567 71.0816 31.7769C71.295 31.5916 71.4018 31.3556 71.4018 31.0691C71.4018 30.8444 71.34 30.6619 71.2164 30.5214C71.0928 30.381 70.9383 30.2743 70.7529 30.2012C70.5676 30.1282 70.3176 30.0496 70.003 29.9653C69.6154 29.8642 69.3036 29.7631 69.0677 29.662C68.8374 29.5608 68.6379 29.4036 68.4694 29.1901C68.3065 28.971 68.2251 28.6789 68.2251 28.3138C68.2251 27.9936 68.3065 27.7099 68.4694 27.4627C68.6323 27.2155 68.8598 27.0245 69.1519 26.8897C69.4497 26.7549 69.7895 26.6875 70.1715 26.6875C70.722 26.6875 71.1714 26.8251 71.5197 27.1004C71.8736 27.3756 72.073 27.7408 72.118 28.1958H71.2754C71.2473 27.9711 71.1293 27.7745 70.9215 27.606C70.7136 27.4318 70.4384 27.3447 70.0957 27.3447C69.7755 27.3447 69.5143 27.429 69.312 27.5975C69.1098 27.7604 69.0087 27.9908 69.0087 28.2885C69.0087 28.5019 69.0677 28.6761 69.1857 28.8109C69.3092 28.9457 69.4581 29.0497 69.6322 29.1227C69.812 29.1901 70.062 29.2687 70.3822 29.3586C70.7698 29.4653 71.0816 29.5721 71.3175 29.6788C71.5534 29.7799 71.7557 29.94 71.9242 30.1591C72.0927 30.3726 72.177 30.6647 72.177 31.0354C72.177 31.3219 72.1011 31.5916 71.9495 31.8444C71.7978 32.0971 71.5731 32.3022 71.2754 32.4595C70.9776 32.6168 70.6265 32.6954 70.2221 32.6954Z" />
                            <path d="M78.243 28.4827C78.243 28.9714 78.0745 29.3787 77.7375 29.7045C77.406 30.0247 76.8976 30.1848 76.2123 30.1848H75.0832V32.6368H74.3164V26.7637H76.2123C76.8752 26.7637 77.3779 26.9238 77.7206 27.244C78.0689 27.5642 78.243 27.9771 78.243 28.4827ZM76.2123 29.5528C76.6392 29.5528 76.9538 29.4601 77.1561 29.2748C77.3583 29.0894 77.4594 28.8254 77.4594 28.4827C77.4594 27.758 77.0437 27.3957 76.2123 27.3957H75.0832V29.5528H76.2123Z" />
                            <path d="M80.9738 26.7637V32.6368H80.207V26.7637H80.9738Z" />
                            <path d="M86.3854 32.6368L84.9867 30.2353H84.0598V32.6368H83.293V26.7637H85.1889C85.6327 26.7637 86.0062 26.8396 86.3096 26.9912C86.6186 27.1429 86.8489 27.348 87.0005 27.6064C87.1522 27.8648 87.2281 28.1597 87.2281 28.4911C87.2281 28.8956 87.1101 29.2523 86.8741 29.5612C86.6438 29.8702 86.2955 30.0752 85.8293 30.1764L87.3039 32.6368H86.3854ZM84.0598 29.6202H85.1889C85.6046 29.6202 85.9164 29.5191 86.1242 29.3169C86.3321 29.109 86.436 28.8338 86.436 28.4911C86.436 28.1428 86.3321 27.8732 86.1242 27.6822C85.922 27.4912 85.6102 27.3957 85.1889 27.3957H84.0598V29.6202Z" />
                            <path d="M90.1964 26.7637V32.6368H89.4297V26.7637H90.1964Z" />
                            <path d="M97.1331 32.6374H96.3663L93.2823 27.9609V32.6374H92.5156V26.7559H93.2823L96.3663 31.424V26.7559H97.1331V32.6374Z" />
                            <path d="M103.9 28.4648C103.737 28.1222 103.501 27.8581 103.192 27.6728C102.883 27.4818 102.524 27.3863 102.114 27.3863C101.704 27.3863 101.333 27.4818 101.001 27.6728C100.676 27.8581 100.417 28.1278 100.226 28.4817C100.041 28.83 99.9477 29.2344 99.9477 29.6951C99.9477 30.1557 100.041 30.5602 100.226 30.9084C100.417 31.2567 100.676 31.5264 101.001 31.7174C101.333 31.9027 101.704 31.9954 102.114 31.9954C102.687 31.9954 103.159 31.8241 103.529 31.4814C103.9 31.1388 104.116 30.6753 104.178 30.0911H101.836V29.4676H104.995V30.0574C104.951 30.5405 104.799 30.9843 104.54 31.3887C104.282 31.7876 103.942 32.105 103.521 32.3409C103.1 32.5712 102.631 32.6864 102.114 32.6864C101.569 32.6864 101.072 32.56 100.622 32.3072C100.173 32.0488 99.8157 31.6921 99.5517 31.2371C99.2933 30.7821 99.1641 30.2681 99.1641 29.6951C99.1641 29.1221 99.2933 28.6081 99.5517 28.1531C99.8157 27.6924 100.173 27.3357 100.622 27.0829C101.072 26.8245 101.569 26.6953 102.114 26.6953C102.737 26.6953 103.288 26.8498 103.765 27.1588C104.248 27.4677 104.599 27.9031 104.819 28.4648H103.9Z" />
                            <path d="M111.044 26.7637V32.6368H110.277V26.7637H111.044Z" />
                            <path d="M117.98 32.6374H117.214L114.13 27.9609V32.6374H113.363V26.7559H114.13L117.214 31.424V26.7559H117.98V32.6374Z" />
                            <path d="M124.916 32.6374H124.149L121.065 27.9609V32.6374H120.299V26.7559H121.065L124.149 31.424V26.7559H124.916V32.6374Z" />
                            <path d="M129.898 32.6948C129.353 32.6948 128.856 32.5684 128.407 32.3156C127.957 32.0572 127.601 31.7005 127.337 31.2455C127.078 30.7849 126.949 30.2681 126.949 29.6951C126.949 29.1221 127.078 28.6081 127.337 28.1531C127.601 27.6924 127.957 27.3357 128.407 27.0829C128.856 26.8245 129.353 26.6953 129.898 26.6953C130.449 26.6953 130.949 26.8245 131.398 27.0829C131.848 27.3357 132.201 27.6896 132.46 28.1446C132.718 28.5997 132.847 29.1165 132.847 29.6951C132.847 30.2737 132.718 30.7905 132.46 31.2455C132.201 31.7005 131.848 32.0572 131.398 32.3156C130.949 32.5684 130.449 32.6948 129.898 32.6948ZM129.898 32.0291C130.308 32.0291 130.676 31.9336 131.002 31.7426C131.334 31.5516 131.592 31.2792 131.777 30.9253C131.968 30.5714 132.064 30.1613 132.064 29.6951C132.064 29.2232 131.968 28.8131 131.777 28.4648C131.592 28.1109 131.336 27.8385 131.01 27.6475C130.685 27.4565 130.314 27.361 129.898 27.361C129.483 27.361 129.112 27.4565 128.786 27.6475C128.46 27.8385 128.202 28.1109 128.011 28.4648C127.825 28.8131 127.733 29.2232 127.733 29.6951C127.733 30.1613 127.825 30.5714 128.011 30.9253C128.202 31.2792 128.46 31.5516 128.786 31.7426C129.117 31.9336 129.488 32.0291 129.898 32.0291Z" />
                            <path d="M139.723 26.7637L137.507 32.6368H136.622L134.406 26.7637H135.224L137.069 31.8279L138.914 26.7637H139.723Z" />
                            <path d="M145.047 31.3305H142.485L142.013 32.6365H141.205L143.328 26.7971H144.213L146.328 32.6365H145.519L145.047 31.3305ZM144.828 30.7069L143.766 27.7409L142.704 30.7069H144.828Z" />
                            <path d="M151.879 26.7637V27.3873H150.278V32.6368H149.511V27.3873H147.902V26.7637H151.879Z" />
                            <path d="M154.601 26.7637V32.6368H153.834V26.7637H154.601Z" />
                            <path d="M159.583 32.6948C159.038 32.6948 158.541 32.5684 158.091 32.3156C157.642 32.0572 157.285 31.7005 157.021 31.2455C156.763 30.7849 156.633 30.2681 156.633 29.6951C156.633 29.1221 156.763 28.6081 157.021 28.1531C157.285 27.6924 157.642 27.3357 158.091 27.0829C158.541 26.8245 159.038 26.6953 159.583 26.6953C160.133 26.6953 160.633 26.8245 161.082 27.0829C161.532 27.3357 161.886 27.6896 162.144 28.1446C162.403 28.5997 162.532 29.1165 162.532 29.6951C162.532 30.2737 162.403 30.7905 162.144 31.2455C161.886 31.7005 161.532 32.0572 161.082 32.3156C160.633 32.5684 160.133 32.6948 159.583 32.6948ZM159.583 32.0291C159.993 32.0291 160.361 31.9336 160.686 31.7426C161.018 31.5516 161.276 31.2792 161.462 30.9253C161.653 30.5714 161.748 30.1613 161.748 29.6951C161.748 29.2232 161.653 28.8131 161.462 28.4648C161.276 28.1109 161.021 27.8385 160.695 27.6475C160.369 27.4565 159.998 27.361 159.583 27.361C159.167 27.361 158.796 27.4565 158.47 27.6475C158.145 27.8385 157.886 28.1109 157.695 28.4648C157.51 28.8131 157.417 29.2232 157.417 29.6951C157.417 30.1613 157.51 30.5714 157.695 30.9253C157.886 31.2792 158.145 31.5516 158.47 31.7426C158.802 31.9336 159.173 32.0291 159.583 32.0291Z" />
                            <path d="M169.173 32.6374H168.406L165.322 27.9609V32.6374H164.555V26.7559H165.322L168.406 31.424V26.7559H169.173V32.6374Z" />
                            <path d="M71.174 4.55078L65.182 20.8883H61.2029L55.2109 4.55078H58.7219L63.2159 17.5412L67.6864 4.55078H71.174Z" />
                            <path d="M76.603 4.55078V20.8883H73.3262V4.55078H76.603Z" />
                            <path d="M85.6696 21.0518C84.5305 21.0518 83.5007 20.8568 82.58 20.4667C81.675 20.0766 80.9572 19.5148 80.4266 18.7814C79.8961 18.0481 79.623 17.182 79.6074 16.1834H83.1184C83.1652 16.8543 83.3992 17.3849 83.8206 17.775C84.2575 18.1651 84.8504 18.3601 85.5994 18.3601C86.364 18.3601 86.9648 18.1807 87.4017 17.8218C87.8386 17.4473 88.0571 16.9636 88.0571 16.3706C88.0571 15.8869 87.9088 15.489 87.6124 15.1769C87.3159 14.8648 86.9414 14.6229 86.4889 14.4513C86.0519 14.264 85.4434 14.0612 84.6632 13.8427C83.6021 13.5307 82.7361 13.2264 82.0651 12.9299C81.4097 12.6178 80.8402 12.1575 80.3564 11.5489C79.8883 10.9248 79.6542 10.0977 79.6542 9.06787C79.6542 8.10041 79.8961 7.25779 80.3798 6.54C80.8636 5.82221 81.5423 5.27606 82.4162 4.90156C83.29 4.51146 84.2887 4.31641 85.4122 4.31641C87.0974 4.31641 88.4628 4.72992 89.5083 5.55693C90.5693 6.36835 91.1545 7.50745 91.2637 8.97424H87.6592C87.628 8.41249 87.3861 7.95217 86.9336 7.59328C86.4967 7.21878 85.9115 7.03153 85.1781 7.03153C84.5383 7.03153 84.0234 7.19537 83.6333 7.52306C83.2588 7.85074 83.0716 8.32667 83.0716 8.95084C83.0716 9.38775 83.212 9.75445 83.4929 10.0509C83.7893 10.3318 84.1482 10.5659 84.5695 10.7531C85.0065 10.9248 85.615 11.1276 86.3952 11.3617C87.4563 11.6738 88.3223 11.9858 88.9933 12.2979C89.6643 12.61 90.2417 13.0781 90.7254 13.7023C91.2091 14.3265 91.451 15.1457 91.451 16.16C91.451 17.0338 91.2247 17.8452 90.7722 18.5942C90.3197 19.3432 89.6565 19.944 88.7827 20.3965C87.9088 20.8334 86.8712 21.0518 85.6696 21.0518Z" />
                            <path d="M97.7553 4.55078V20.8883H94.4785V4.55078H97.7553Z" />
                            <path d="M108.765 21.0518C107.236 21.0518 105.831 20.693 104.552 19.9752C103.272 19.2574 102.258 18.2665 101.509 17.0026C100.76 15.723 100.385 14.2797 100.385 12.6724C100.385 11.0808 100.76 9.65302 101.509 8.38909C102.258 7.10955 103.272 6.11088 104.552 5.39309C105.831 4.6753 107.236 4.31641 108.765 4.31641C110.31 4.31641 111.714 4.6753 112.978 5.39309C114.257 6.11088 115.264 7.10955 115.997 8.38909C116.746 9.65302 117.121 11.0808 117.121 12.6724C117.121 14.2797 116.746 15.723 115.997 17.0026C115.264 18.2665 114.257 19.2574 112.978 19.9752C111.698 20.693 110.294 21.0518 108.765 21.0518ZM108.765 18.1261C109.748 18.1261 110.614 17.9076 111.363 17.4707C112.112 17.0182 112.697 16.3784 113.118 15.5514C113.54 14.7244 113.75 13.7647 113.75 12.6724C113.75 11.5801 113.54 10.6283 113.118 9.81687C112.697 8.98985 112.112 8.35788 111.363 7.92096C110.614 7.48405 109.748 7.26559 108.765 7.26559C107.782 7.26559 106.908 7.48405 106.143 7.92096C105.394 8.35788 104.809 8.98985 104.388 9.81687C103.966 10.6283 103.756 11.5801 103.756 12.6724C103.756 13.7647 103.966 14.7244 104.388 15.5514C104.809 16.3784 105.394 17.0182 106.143 17.4707C106.908 17.9076 107.782 18.1261 108.765 18.1261Z" />
                            <path d="M133.717 20.8883H130.441L123.021 9.67671V20.8883H119.744V4.52734H123.021L130.441 15.7623V4.52734H133.717V20.8883Z" />
                            <path d="M139.825 4.62109V20.8884H137.156V4.62109H139.825Z" />
                            <path d="M153.322 17.5647H146.511L145.341 20.8883H142.555L148.384 4.59766H151.473L157.301 20.8883H154.493L153.322 17.5647ZM152.573 15.3879L149.928 7.82771L147.26 15.3879H152.573Z" />
                            <path d="M165.383 21.052C164.29 21.052 163.307 20.8647 162.433 20.4902C161.56 20.1001 160.873 19.554 160.374 18.8518C159.874 18.1496 159.625 17.3304 159.625 16.3941H162.48C162.543 17.0963 162.816 17.6737 163.3 18.1262C163.799 18.5787 164.493 18.805 165.383 18.805C166.303 18.805 167.021 18.5865 167.536 18.1496C168.051 17.6971 168.308 17.1197 168.308 16.4175C168.308 15.8714 168.145 15.4267 167.817 15.0834C167.505 14.7401 167.107 14.4748 166.623 14.2876C166.155 14.1003 165.5 13.8975 164.657 13.679C163.596 13.3981 162.73 13.1173 162.059 12.8364C161.404 12.5399 160.842 12.0874 160.374 11.4788C159.906 10.8703 159.672 10.0589 159.672 9.04459C159.672 8.10834 159.906 7.28912 160.374 6.58694C160.842 5.88475 161.497 5.34641 162.34 4.97191C163.182 4.59741 164.158 4.41016 165.266 4.41016C166.842 4.41016 168.129 4.80806 169.128 5.60387C170.142 6.38408 170.704 7.46077 170.813 8.83393H167.864C167.817 8.24097 167.536 7.73384 167.021 7.31253C166.506 6.89122 165.827 6.68056 164.985 6.68056C164.22 6.68056 163.596 6.87561 163.112 7.26572C162.629 7.65582 162.387 8.21757 162.387 8.95096C162.387 9.4503 162.535 9.86381 162.831 10.1915C163.143 10.5036 163.534 10.7532 164.002 10.9405C164.47 11.1277 165.11 11.3306 165.921 11.5491C166.998 11.8455 167.872 12.142 168.543 12.4385C169.229 12.735 169.806 13.1953 170.275 13.8195C170.758 14.428 171 15.2472 171 16.2771C171 17.1041 170.774 17.8843 170.321 18.6177C169.884 19.3511 169.237 19.9441 168.379 20.3966C167.536 20.8335 166.537 21.052 165.383 21.052Z" />
                        </g>
                        <defs>
                            <clipPath id="clip0_118_1328">
                            <rect width="171" height="36"/>
                            </clipPath>
                        </defs>
                    </svg>
