<svg version="1.1" id="Layer_1" xmlns="http://www.w3.org/2000/svg" xmlns:xlink="http://www.w3.org/1999/xlink" x="0px" y="0px" viewBox="0 0 200 50" style="enable-background:new 0 0 200 50;" xml:space="preserve">
                        <style type="text/css">
                            .st0{fill-rule:evenodd;clip-rule:evenodd;}
                            .st1{fill-rule:evenodd;clip-rule:evenodd;fill:none;stroke:#EA2F27;stroke-width:0.7081;stroke-miterlimit:10;}
                            .st2{fill:#EA2F27;}
                            .st3{clip-path:url(#SVGID_00000028296728667289525450000000041138949433029030_);}
                            .st4{fill:#FFFFFF;}
                            .st5{fill:#1F2442;}
                            .st6{fill:#202443;}
                            .st7{clip-path:url(#SVGID_00000138557479931567030260000002462302686312278678_);fill:#202443;}
                        </style>
    <g>
                            <g>
                                <g>
                                    <path d="M52.55,12.98v-0.55h8.11v0.55H59.3l3.79,8.55l1.77-4.4l-1.85-4.15h-1.05v-0.55h7.58v0.55h-1.3l3.71,8.44l2.93-8.44h-2.21
                                        v-0.55h4.76v0.55h-1.88l-5.18,14.95h-0.66l0.11-0.3l-0.14,0.3L65.22,17.9l-4.01,10.02h-0.66l-6.67-14.95H52.55z" class="dark:fill-white"/>
                                    <path d="M91.05,22.39h-8.36c0.18,3.25,1.45,4.87,3.79,4.87c0.63,0,1.34-0.15,2.14-0.44c0.8-0.3,1.39-0.71,1.76-1.25l0.39,0.28
                                        c-0.41,0.68-1.1,1.25-2.08,1.69c-0.98,0.44-1.95,0.66-2.92,0.66c-0.97,0-1.84-0.1-2.62-0.29c-0.77-0.19-1.53-0.52-2.27-0.98
                                        c-0.74-0.46-1.31-1.15-1.73-2.08c-0.42-0.92-0.62-2.04-0.62-3.35c0-2.23,0.62-3.89,1.85-4.97c1.24-1.08,2.74-1.62,4.5-1.62
                                        c1.76,0,3.23,0.59,4.4,1.77C90.46,17.86,91.05,19.77,91.05,22.39z M82.66,21.83h4.51c0-1.7-0.18-3.18-0.54-4.46
                                        c-0.36-1.27-0.94-1.91-1.73-1.91c-0.79,0-1.37,0.61-1.72,1.84c-0.35,1.23-0.53,2.63-0.53,4.22V21.83z" class="dark:fill-white"/>
                                    <path d="M105.3,22.39h-8.36c0.18,3.25,1.45,4.87,3.79,4.87c0.63,0,1.34-0.15,2.14-0.44c0.8-0.3,1.39-0.71,1.76-1.25l0.39,0.28
                                        c-0.41,0.68-1.1,1.25-2.08,1.69c-0.98,0.44-1.95,0.66-2.92,0.66c-0.97,0-1.84-0.1-2.62-0.29c-0.77-0.19-1.53-0.52-2.27-0.98
                                        c-0.74-0.46-1.31-1.15-1.73-2.08c-0.42-0.92-0.62-2.04-0.62-3.35c0-2.23,0.62-3.89,1.85-4.97c1.24-1.08,2.74-1.62,4.5-1.62
                                        c1.76,0,3.23,0.59,4.4,1.77C104.71,17.86,105.3,19.77,105.3,22.39z M96.91,21.83h4.51c0-1.7-0.18-3.18-0.54-4.46
                                        c-0.36-1.27-0.94-1.91-1.73-1.91c-0.79,0-1.37,0.61-1.72,1.84c-0.35,1.23-0.53,2.63-0.53,4.22V21.83z" class="dark:fill-white"/>
                                    <path d="M123.04,27.37v0.55c-2.51,0-4.25-0.18-5.22-0.54c-0.97-0.36-1.92-1.26-2.86-2.7L113.22,22l-0.36,0.33v5.04h1.38v0.55
                                        h-6.92v-0.55h1.38V9.93h-1.38V9.38h5.54V21.5l5.78-5.76h-2.24v-0.55h5.26v0.55h-2.19l-3.32,3.29l3.32,4.98
                                        C120.97,26.25,122.16,27.37,123.04,27.37z" class="dark:fill-white"/>
                                    <path d="M129.96,27.37h1.38v0.55h-6.92v-0.55h1.38V9.93h-1.38V9.38h5.54V27.37z" class="dark:fill-white"/>
                                    <path d="M137.57,33.3c-0.55,0.47-1.29,0.71-2.21,0.71c-0.92,0-1.64-0.2-2.16-0.6c-0.52-0.4-0.77-0.92-0.77-1.58
                                        c0-0.66,0.19-1.18,0.57-1.56c0.38-0.39,0.83-0.58,1.37-0.58c0.53,0,0.99,0.1,1.36,0.3c0.37,0.2,0.63,0.42,0.77,0.66
                                        c0.41,0.65,0.79,0.97,1.15,0.97s0.68-0.31,0.96-0.94l1.16-2.74l-6.48-12.21h-1.11v-0.55h7.45v0.55h-1.38l3.71,7.31l3.18-7.31
                                        h-2.21v-0.55h4.54v0.55h-1.66l-6.64,15.25C138.65,32.06,138.12,32.83,137.57,33.3z" class="dark:fill-white"/>
                                </g>
                                <g>
                                    <path class="st0 dark:fill-white" d="M76.63,35.19c0.84,0,1.52,0.68,1.52,1.52c0,0.84-0.68,1.52-1.52,1.52c-0.84,0-1.52-0.68-1.52-1.52
                                        C75.11,35.87,75.79,35.19,76.63,35.19"/>
                                </g>
                                <path class="st1" d="M47.26,49.02c-2.08,0-3.77-1.69-3.77-3.77V6.58c0-2.08,1.69-3.77,3.77-3.77h105.47
                                    c2.08,0,3.77,1.69,3.77,3.77v38.68c0,2.08-1.69,3.77-3.77,3.77"/>
                                <g>
                                    <g>
                                        <g>
                                            <path class="st2 dark:fill-white" d="M65.34,36.07v3.68h-0.43c0-1.28-0.26-2.14-0.77-2.58c-0.51-0.44-1.34-0.66-2.48-0.66h-1.95v5.67h0.87
                                                c1.04,0,1.69-0.13,1.97-0.39c0.27-0.26,0.41-0.78,0.41-1.56h0.43v4.33h-0.43c0-0.81-0.14-1.33-0.41-1.58
                                                c-0.27-0.24-0.93-0.37-1.97-0.37h-0.87v5.15h1.3v0.43h-5.62v-0.43h1.08V36.5h-1.08v-0.43H65.34z"/>
                                            <path class="st2 dark:fill-white" d="M72.03,48.4c-1.37,0-2.61-0.45-3.72-1.34c-1.11-0.89-1.67-2.16-1.67-3.81c0-0.88,0.16-1.67,0.49-2.36
                                                c0.32-0.69,0.76-1.24,1.3-1.64c0.54-0.4,1.12-0.71,1.74-0.92c0.62-0.21,1.25-0.31,1.9-0.31s1.29,0.1,1.91,0.31
                                                c0.63,0.21,1.21,0.52,1.75,0.92c0.54,0.4,0.98,0.95,1.31,1.64c0.33,0.69,0.5,1.47,0.5,2.34c0,0.87-0.17,1.64-0.5,2.31
                                                c-0.33,0.68-0.77,1.22-1.32,1.62C74.63,47.99,73.4,48.4,72.03,48.4z M70.42,46.87c0.32,0.73,0.87,1.09,1.64,1.09
                                                c0.78,0,1.33-0.37,1.67-1.1c0.33-0.74,0.5-1.95,0.5-3.65c0-1.69-0.17-2.91-0.5-3.66c-0.33-0.74-0.89-1.11-1.67-1.11
                                                c-0.78,0-1.33,0.37-1.64,1.11c-0.32,0.74-0.48,1.97-0.48,3.67S70.11,46.14,70.42,46.87z"/>
                                            <path class="st2 dark:fill-white" d="M78.84,43.21c0-1.7,0.5-2.99,1.49-3.87c1-0.88,2.26-1.32,3.8-1.32s2.68,0.39,3.43,1.16
                                                c0.75,0.77,1.02,1.57,0.8,2.39c-0.12,0.45-0.36,0.78-0.72,0.98c-0.37,0.21-0.77,0.26-1.2,0.16c-0.91-0.22-1.36-0.74-1.36-1.58
                                                c0-0.22,0.02-0.54,0.08-0.98c0.05-0.44,0.07-0.76,0.05-0.96c-0.01-0.2-0.06-0.36-0.13-0.48c-0.14-0.25-0.48-0.34-1.02-0.28
                                                c-1.3,0.2-1.95,1.79-1.95,4.77c0,2.98,1.06,4.47,3.18,4.47c0.49,0,0.99-0.13,1.49-0.39c0.5-0.26,0.88-0.57,1.13-0.93l0.3,0.22
                                                c-0.33,0.55-0.83,0.99-1.49,1.32c-0.66,0.33-1.41,0.5-2.23,0.5C80.72,48.38,78.84,46.65,78.84,43.21z"/>
                                            <path class="st2 dark:fill-white" d="M97.4,48.18v-1.15c-0.27,0.39-0.7,0.72-1.29,0.98c-0.58,0.27-1.22,0.4-1.89,0.4
                                                c-2.57,0-3.85-1.39-3.85-4.18v-5.58h-1.08v-0.43h4.33v6.49c0,1.02,0.15,1.75,0.45,2.19c0.3,0.43,0.76,0.65,1.36,0.65
                                                c0.81,0,1.46-0.43,1.97-1.3v-7.59h-1.08v-0.43h4.33v9.52h1.08v0.43H97.4z"/>
                                            <path class="st2 dark:fill-white" d="M108.11,48.01c1.5,0,2.25-0.41,2.25-1.23c0-0.46-0.26-0.84-0.78-1.14c-0.52-0.3-1.15-0.54-1.88-0.72
                                                c-0.74-0.19-1.46-0.4-2.17-0.65c-0.71-0.24-1.31-0.63-1.77-1.17c-0.47-0.53-0.66-1.23-0.57-2.1c0.09-0.87,0.53-1.58,1.33-2.14
                                                c0.8-0.56,1.79-0.84,2.96-0.84c1.18,0,2.12,0.19,2.84,0.56c0.72,0.37,1.13,0.88,1.21,1.51c0.06,0.39,0,0.75-0.18,1.08
                                                c-0.18,0.33-0.48,0.5-0.89,0.52c-0.41,0.01-0.75-0.09-1.02-0.32c-0.27-0.23-0.39-0.5-0.38-0.8c0.01-0.3,0.13-0.57,0.35-0.81
                                                c0.22-0.24,0.32-0.43,0.32-0.57c0-0.25-0.23-0.43-0.7-0.55c-0.47-0.12-1.01-0.18-1.62-0.18c-0.61,0-1.11,0.14-1.5,0.41
                                                c-0.39,0.27-0.58,0.61-0.58,1.02c0,0.4,0.24,0.75,0.72,1.04c0.48,0.29,1.07,0.52,1.76,0.7c0.69,0.18,1.38,0.38,2.07,0.61
                                                c0.68,0.22,1.27,0.58,1.75,1.07c0.48,0.49,0.72,1.11,0.72,1.86c0,1-0.35,1.79-1.06,2.39c-0.71,0.6-1.77,0.9-3.2,0.9
                                                c-1.43,0-2.59-0.22-3.47-0.65c-0.89-0.43-1.37-0.99-1.46-1.67c-0.06-0.39,0.01-0.75,0.19-1.08c0.19-0.33,0.48-0.5,0.89-0.52
                                                c0.4-0.01,0.74,0.09,1.01,0.32c0.27,0.23,0.39,0.5,0.38,0.8c-0.01,0.3-0.13,0.57-0.35,0.81c-0.22,0.24-0.32,0.43-0.32,0.57
                                                c0,0.29,0.34,0.52,1.01,0.7C106.63,47.92,107.34,48.01,108.11,48.01z"/>
                                        </g>
                                        <g>
                                            <path class="st2 dark:fill-white" d="M71.85,38.11l-2.02,0.68l-1.63,3.92l1.8,5.11l1.61,0.34c0,0,1.36,0.15,1.61,0.05
                                                c0.24-0.1,1.78-2.17,1.83-2.24c0.05-0.07,1.14-4.24,1.14-4.24l-1.1-2.17l-3.12-1.44L71.85,38.11z"/>
                                        </g>
                                        <g>
                                            <defs>
                                                <path id="SVGID_1_" d="M72.03,48.4c-1.37,0-2.61-0.45-3.72-1.34c-1.11-0.89-1.67-2.16-1.67-3.81c0-0.88,0.16-1.67,0.49-2.36
                                                    c0.32-0.69,0.76-1.24,1.3-1.64c0.54-0.4,1.12-0.71,1.74-0.92c0.62-0.21,1.25-0.31,1.9-0.31s1.29,0.1,1.91,0.31
                                                    c0.63,0.21,1.21,0.52,1.75,0.92c0.54,0.4,0.98,0.95,1.31,1.64c0.33,0.69,0.5,1.47,0.5,2.34c0,0.87-0.17,1.64-0.5,2.31
                                                    c-0.33,0.68-0.77,1.22-1.32,1.62C74.63,47.99,73.4,48.4,72.03,48.4z"/>
                                            </defs>
                                            <clipPath id="SVGID_00000039852863670250230450000013576378008300968890_">
                                                <use xlink:href="#SVGID_1_"  style="overflow:visible;"/>
                                            </clipPath>
                                            <g style="clip-path:url(#SVGID_00000039852863670250230450000013576378008300968890_);">
                                                <path class="st4 dark:fill-white" d="M73.78,46.55c-0.55,0.13-1.08,0.18-1.62,0.13c-0.08-0.01-0.15-0.02-0.2-0.1
                                                    c-0.04-0.07-0.06-0.13-0.02-0.2c0.04-0.08,0.11-0.08,0.19-0.07c0.51,0.05,1.01,0.03,1.5-0.09c0.16-0.04,0.26-0.21,0.2-0.36
                                                    c-0.03-0.08-0.09-0.02-0.12-0.01c-0.48,0.11-0.96,0.14-1.45,0.1c-0.06,0-0.12-0.01-0.18-0.02c-0.12-0.02-0.18-0.11-0.18-0.23
                                                    c0.01-0.13,0.1-0.15,0.22-0.14c0.53,0.05,1.05,0.02,1.57-0.08c0.18-0.04,0.19-0.13,0.2-0.27c0.02-0.22,0.02-0.22-0.18-0.17
                                                    c-0.56,0.13-1.13,0.14-1.7,0.07c-0.07-0.01-0.13,0-0.13-0.1c-0.02-0.56-0.04-1.12-0.06-1.69c0.43,0.05,0.84,0.09,1.26,0.06
                                                    c0.29-0.02,0.57-0.07,0.85-0.13c0.07-0.01,0.12-0.04,0.12-0.13c0.02-0.33,0.05-0.65,0.07-0.98c-0.99,0.41-1.98,0.5-3.01,0.15
                                                    c-0.03,0.05-0.01,0.13,0,0.2c0.09,2.14,0.18,4.28,0.27,6.42c0.01,0.24,0.03,0.49,0.03,0.73c0,0.04,0.04,0.14-0.06,0.12
                                                    c-0.07-0.02-0.21,0.04-0.21-0.12c-0.01-0.31-0.03-0.62-0.04-0.93c-0.07-1.69-0.14-3.37-0.21-5.06
                                                    c-0.02-0.58-0.04-1.15-0.07-1.73c-0.01-0.21,0.1-0.33,0.26-0.43c0.19-0.12,0.41-0.17,0.63-0.2c0.4-0.06,0.81-0.05,1.21,0.05
                                                    c0.13,0.03,0.24,0.08,0.34,0.16c0.15,0.13,0.15,0.28-0.01,0.41c-0.09,0.07-0.19,0.11-0.3,0.13c-0.43,0.09-0.86,0.09-1.29-0.01
                                                    c-0.15-0.04-0.3-0.09-0.4-0.22c-0.03-0.05-0.05-0.1-0.12-0.04c-0.05,0.05-0.09,0.11-0.02,0.17c0.05,0.04,0.11,0.08,0.17,0.11
                                                    c0.2,0.09,0.41,0.14,0.63,0.16c0.6,0.05,1.2,0.01,1.77-0.18c0.13-0.04,0.26-0.1,0.36-0.19c0.15-0.13,0.15-0.26-0.02-0.38
                                                    c-0.2-0.15-0.43-0.22-0.67-0.28c-0.8-0.19-1.59-0.19-2.39-0.01c-0.21,0.05-0.4,0.12-0.57,0.25c-0.09,0.07-0.13,0.15-0.12,0.27
                                                    c0.1,1.35,0.2,2.7,0.29,4.05c0.08,1.09,0.16,2.18,0.23,3.27c0.01,0.16,0.03,0.32,0.03,0.48c0,0.05,0.05,0.13-0.03,0.15
                                                    c-0.09,0.03-0.23-0.08-0.24-0.16c-0.02-0.27-0.04-0.54-0.06-0.81c-0.08-1.2-0.17-2.39-0.25-3.59
                                                    c-0.08-1.14-0.16-2.27-0.24-3.4c-0.02-0.28,0.15-0.43,0.35-0.55c0.43-0.25,0.9-0.32,1.39-0.35c0.67-0.04,1.34,0,1.99,0.23
                                                    c0.13,0.05,0.26,0.11,0.37,0.18c0.24,0.15,0.34,0.35,0.32,0.64c-0.19,2.43-0.36,4.85-0.55,7.28
                                                    c-0.01,0.13-0.04,0.25-0.03,0.38c0.01,0.18-0.12,0.18-0.23,0.2c-0.02,0.01-0.06,0.01-0.05-0.04c0.03-0.17-0.08-0.1-0.15-0.08
                                                    c-0.39,0.08-0.79,0.12-1.19,0.08c-0.12-0.01-0.18-0.08-0.2-0.19c-0.02-0.14,0.04-0.2,0.19-0.19c0.42,0.02,0.83,0.01,1.24-0.09
                                                    c0.12-0.03,0.22-0.26,0.16-0.36c-0.03-0.06-0.08-0.01-0.12-0.01c-0.42,0.09-0.84,0.13-1.27,0.09c-0.08-0.01-0.16-0.02-0.2-0.1
                                                    c-0.04-0.07-0.05-0.15-0.01-0.22c0.04-0.07,0.1-0.07,0.17-0.06c0.45,0.04,0.9,0.01,1.34-0.1c0.1-0.02,0.2-0.29,0.13-0.36
                                                    c-0.04-0.04-0.08,0-0.12,0c-0.44,0.1-0.88,0.13-1.32,0.09c-0.07-0.01-0.15-0.01-0.2-0.07c-0.06-0.07-0.07-0.15-0.03-0.23
                                                    c0.04-0.09,0.12-0.08,0.2-0.08c0.45,0.04,0.89,0.01,1.32-0.08c0.15-0.03,0.24-0.07,0.21-0.24c-0.01-0.05,0.01-0.1,0.01-0.16
                                                    c-0.3,0.05-0.58,0.12-0.88,0.13c-0.23,0.01-0.47,0-0.7-0.02c-0.15-0.01-0.21-0.1-0.2-0.23c0-0.15,0.11-0.15,0.23-0.14
                                                    c0.46,0.04,0.92,0.02,1.37-0.08c0.17-0.03,0.24-0.1,0.23-0.26C73.77,46.66,73.78,46.61,73.78,46.55z M73.07,41.69
                                                    c-0.52-0.19-1.05-0.22-1.57-0.02C72.02,41.87,72.54,41.89,73.07,41.69z"/>
                                            </g>
                                        </g>
                                    </g>
                                </g>
                            </g>
        <path class="st0 dark:fill-white" d="M145.04,48.49h-27.5V36.04h31.23v8.72C148.77,46.82,147.1,48.49,145.04,48.49z"/>
                        </g>
                        </svg>
