<svg class="w-[20px] md:w-[26px]" width="26" height="26" fill="none" xmlns="http://www.w3.org/2000/svg"><g clip-path="url(#a)"><path d="M0 4a4 4 0 0 1 4-4h18a4 4 0 0 1 4 4v18a4 4 0 0 1-4 4H4a4 4 0 0 1-4-4V4Z" fill="#1BD741"/><path d="m5 21 1.1-4a8 8 0 1 1 3 3L5 21Zm4.3-2.5.3.1a6.6 6.6 0 1 0-2.2-2l.2.2-.7 2.3 2.4-.6Z" fill="#fff"/><path d="M10.8 9h-.5c-.2 0-.4 0-.5.2-.2.2-.6.6-.7 1.2-.2.9 0 2 .8 3 .7 1 2 2.8 4.4 3.5a2 2 0 0 0 1.9-.3c.4-.2.6-.6.7-1v-.8l-1.8-.9-.3.1-.7 1H14c-.5-.1-2-.8-2.9-2.6v-.2l.7-.8V11L11 9.2l-.2-.2Z" fill="#fff"/></g><defs><clipPath id="a"><path fill="#fff" d="M0 0h26v26H0z"/></clipPath></defs></svg>
