<svg xmlns="http://www.w3.org/2000/svg" width="32" height="32" fill="none"><path d="M16 2.7a13.3 13.3 0 1 0 0 26.6 13.3 13.3 0 0 0 0-26.6Z" fill="#47A83E"/><path d="M21.6 10.3A8 8 0 0 0 9.1 20L8 24l4.2-1.1c1.2.6 2.5 1 3.8 1a8 8 0 0 0 8-8 8 8 0 0 0-2.4-5.6ZM16 22.5a7 7 0 0 1-3.4-.9l-.2-.1-2.5.6.7-2.4-.2-.3a6.6 6.6 0 0 1 10.2-8.2A6.6 6.6 0 0 1 16 22.5Zm3.6-5-1.3-.6-.5.1-.6.8c-.1.2-.3.2-.4 0-1.2-.5-2-1-2.7-2.3-.2-.3.2-.3.5-1 .1-.2 0-.3 0-.4l-.6-1.5c-.2-.4-.3-.3-.4-.3h-.4c-.1 0-.4 0-.5.2-.2.2-.7.7-.7 1.7s.7 1.9.8 2c0 .2 1.4 2.2 3.4 3 1.2.6 1.7.6 2.3.5.4 0 1.2-.5 1.4-1v-.9l-.3-.2Z" fill="#fff"/></svg>
