<svg width="32" height="32" fill="none" xmlns="http://www.w3.org/2000/svg"><path fill-rule="evenodd" clip-rule="evenodd" d="m23 16.8-.1 2.2s-.2 1-.6 1.3c-.5.6-1 .6-1.3.6l-4.7.1-4.5-.1c-.3 0-1 0-1.5-.6-.4-.4-.5-1.3-.5-1.3l-.1-2.2v-1l.1-2.1s.1-1 .5-1.4c.5-.5 1.1-.5 1.4-.5 1.8-.2 4.6-.2 4.6-.2s2.8 0 4.7.2c.3 0 .8 0 1.3.5.4.4.6 1.4.6 1.4l.1 2.1v1ZM16.3 3a13.3 13.3 0 1 0 0 26.7 13.3 13.3 0 0 0 0-26.7Z" fill="#EA412C"/><path fill-rule="evenodd" clip-rule="evenodd" d="m15 18 3.6-1.8-3.6-1.9v3.8Z" fill="#EA412C"/></svg>
