<svg xmlns="http://www.w3.org/2000/svg" width="32" height="32" viewBox="0 0 32 32" fill="none">
    <path fill-rule="evenodd" clip-rule="evenodd" d="M2.66602 15.9993C2.66602 8.63935 8.63935 2.66602 15.9993 2.66602C23.3593 2.66602 29.3327 8.63935 29.3327 15.9993C29.3327 23.3593 23.3593 29.3327 15.9993 29.3327C8.63935 29.3327 2.66602 23.3593 2.66602 15.9993ZM18.8277 10.0548C17.6917 10.012 16.6228 10.0023 16.1956 10H15.8044C14.9003 10.0045 11.1186 10.0428 9.9161 10.357C9.16246 10.5528 8.56803 11.1341 8.36482 11.8729C8.0448 13.0422 8.0048 15.3246 8 15.8774V16.1219C8.0048 16.6747 8.0448 18.9563 8.36482 20.1264C8.56563 20.8629 9.16006 21.4435 9.9153 21.643C11.1186 21.9565 14.8995 21.9947 15.8036 22H16.0076L16.1956 21.9992C16.6228 21.9977 17.6917 21.9872 18.8277 21.9452L19.231 21.928C20.3742 21.8777 21.5167 21.7907 22.0839 21.643C22.8367 21.4465 23.4312 20.8652 23.6344 20.1264C23.9544 18.9571 23.9944 16.6747 24 16.1219V15.9914L23.9992 15.8774C23.9944 15.3246 23.9544 13.0429 23.6344 11.8729C23.4336 11.1363 22.8399 10.5558 22.0839 10.3563C21.5167 10.2085 20.3742 10.1215 19.231 10.0713L18.8277 10.0548ZM19.1998 16.0004L14.3995 18.6255V13.3752L19.1998 16.0004Z" fill="#ED1B24"/>
</svg>
