<svg class="w-[20px] md:w-[26px]" width="26" height="26" fill="none" xmlns="http://www.w3.org/2000/svg"><rect width="26" height="26" rx="4" fill="#F20000"/><g clip-path="url(#a)"><path d="M19.2 9.9c-.3-.8-1.1-1.3-2-1.4-2.8-.3-5.6-.3-8.5 0-.8 0-1.6.6-1.9 1.4-.4 2-.4 4.2 0 6.2.3.8 1.1 1.3 2 1.4 2.8.3 5.6.3 8.5 0 .8 0 1.6-.6 1.9-1.4.4-2 .4-4.2 0-6.2Zm-7.8 5.6v-5l4.1 2.5-4 2.5Z" fill="#fff"/><g clip-path="url(#b)"><path d="M19.2 9.9c-.3-.8-1.1-1.3-2-1.4-2.8-.3-5.6-.3-8.5 0-.8 0-1.6.6-1.9 1.4-.4 2-.4 4.2 0 6.2.3.8 1.1 1.3 2 1.4 2.8.3 5.6.3 8.5 0 .8 0 1.6-.6 1.9-1.4.4-2 .4-4.2 0-6.2Zm-7.8 5.6v-5l4.1 2.5-4 2.5Z" fill="#fff"/></g></g><defs><clipPath id="a"><path fill="#fff" d="M0 0h26v26H0z"/></clipPath><clipPath id="b"><path fill="#fff" d="M0 0h26v26H0z"/></clipPath></defs></svg>
