<svg width="40" height="40" fill="none" xmlns="http://www.w3.org/2000/svg"><g clip-path="url(#a)"><path d="M15.313 13.25c-.399 0-.82 0-1.243.047H14c-7.687.726-14 8.023-14 16.156C0 38.898 8.774 40 15.313 40c6.492 0 14.062-.984 15.117-8.742 1.101-9.094-6.118-18.008-15.117-18.008Z" fill="#FF637B"/><path d="M30.43 31.258C29.375 39.016 21.805 40 15.313 40V13.25c9 0 16.218 8.914 15.117 18.008Z" fill="#E63950"/><path d="M23.444 3.89 21.1 11H9.523L7.179 3.89c-.141-.35-.07-.75.14-1.054.235-.305.586-.492.961-.492h3.727A3.505 3.505 0 0 1 15.312 0c1.523 0 2.812.984 3.304 2.344h3.727c.375 0 .726.187.96.492.212.305.282.703.141 1.055Z" fill="#FF637B"/><path d="M23.445 3.89 21.101 11h-5.788V0c1.523 0 2.812.984 3.304 2.344h3.727c.375 0 .726.187.96.492.212.305.282.703.141 1.055Z" fill="#E63950"/><path d="M18.805 29.805c0 1.523-.961 2.789-2.32 3.28v1.056a1.16 1.16 0 0 1-1.172 1.172 1.16 1.16 0 0 1-1.172-1.172v-1.032c-1.36-.492-2.368-1.78-2.368-3.304 0-.656.54-1.172 1.172-1.172a1.16 1.16 0 0 1 1.172 1.172 1.19 1.19 0 0 0 1.172 1.172h.024a1.17 1.17 0 0 0 1.148-1.172c0-.656-.492-1.149-1.148-1.172h-.024c-1.922 0-3.516-1.594-3.516-3.516a3.503 3.503 0 0 1 2.368-3.305v-1.734a1.16 1.16 0 0 1 1.172-1.172 1.16 1.16 0 0 1 1.171 1.172v1.734a3.507 3.507 0 0 1 2.32 3.305c0 .633-.515 1.172-1.171 1.172a1.19 1.19 0 0 1-1.172-1.172c0-.656-.492-1.148-1.148-1.172h-.024c-.633 0-1.172.516-1.172 1.172a1.19 1.19 0 0 0 1.172 1.172h.024a3.506 3.506 0 0 1 3.492 3.516ZM40 23.594a2.35 2.35 0 0 1-2.344 2.343l-5.937 2.344-5.86-2.343a2.35 2.35 0 0 1-2.343-2.344 2.35 2.35 0 0 1 2.343-2.344h11.797A2.35 2.35 0 0 1 40 23.594Z" fill="#FFDA2D"/><path d="M40 23.594a2.35 2.35 0 0 1-2.344 2.343l-5.937 2.344V21.25h5.937A2.35 2.35 0 0 1 40 23.594Z" fill="#FDBF00"/><path d="M40 28.281a2.35 2.35 0 0 1-2.344 2.344l-5.937 2.344-5.86-2.344a2.35 2.35 0 0 1-2.343-2.344 2.35 2.35 0 0 1 2.343-2.343h11.797A2.35 2.35 0 0 1 40 28.28Z" fill="#FDBF00"/><path d="M40 28.281a2.35 2.35 0 0 1-2.344 2.344l-5.937 2.344v-7.032h5.937A2.35 2.35 0 0 1 40 28.282Z" fill="#FF9100"/><path d="M40 32.969a2.35 2.35 0 0 1-2.344 2.343l-5.937 2.344-5.86-2.343a2.35 2.35 0 0 1-2.343-2.344 2.35 2.35 0 0 1 2.343-2.344h11.797A2.35 2.35 0 0 1 40 32.969Z" fill="#FFDA2D"/><path d="M40 32.969a2.35 2.35 0 0 1-2.344 2.343l-5.937 2.344v-7.031h5.937A2.35 2.35 0 0 1 40 32.969Z" fill="#FDBF00"/><path d="M40 37.656A2.35 2.35 0 0 1 37.656 40H25.86a2.35 2.35 0 0 1-2.343-2.344 2.35 2.35 0 0 1 2.343-2.343h11.797A2.35 2.35 0 0 1 40 37.656Z" fill="#FDBF00"/><path d="M40 37.656A2.35 2.35 0 0 1 37.656 40H31.72v-4.688h5.937A2.35 2.35 0 0 1 40 37.657Z" fill="#FF9100"/><path d="M23.516 11.797a2.35 2.35 0 0 1-2.344 2.344H9.453a2.35 2.35 0 0 1-2.344-2.344 2.35 2.35 0 0 1 2.344-2.344h11.719a2.35 2.35 0 0 1 2.344 2.344Z" fill="#FFDA2D"/><path d="M18.805 29.805c0 1.523-.961 2.789-2.32 3.28v1.056a1.16 1.16 0 0 1-1.172 1.172v-4.336a1.17 1.17 0 0 0 1.148-1.172c0-.656-.492-1.149-1.148-1.172v-2.344a3.506 3.506 0 0 1 3.492 3.516ZM18.805 25.117c0 .633-.516 1.172-1.172 1.172a1.19 1.19 0 0 1-1.172-1.172c0-.656-.492-1.148-1.148-1.172v-5.039a1.16 1.16 0 0 1 1.171 1.172v1.734a3.507 3.507 0 0 1 2.32 3.305ZM23.516 11.797a2.35 2.35 0 0 1-2.344 2.344h-5.86V9.453h5.86a2.35 2.35 0 0 1 2.344 2.344Z" fill="#FDBF00"/></g><defs><clipPath id="a"><path fill="#fff" d="M0 0h40v40H0z"/></clipPath></defs></svg>
