<svg width="40" height="40" fill="none" xmlns="http://www.w3.org/2000/svg"><path d="M12.5 37.5c5.523 0 10-4.477 10-10s-4.477-10-10-10-10 4.477-10 10 4.477 10 10 10Z" fill="#FFCE4B"/><path d="M12.5 35a7.5 7.5 0 1 0 0-15 7.5 7.5 0 0 0 0 15Z" fill="#F9B32F"/><path fill-rule="evenodd" clip-rule="evenodd" d="M11.875 23.125a2.5 2.5 0 0 0 0 5v2.5c-.69 0-1.25-.56-1.25-1.25a.625.625 0 0 0-1.25 0 2.5 2.5 0 0 0 2.5 2.5v.625a.625.625 0 0 0 1.25 0v-.625a2.5 2.5 0 0 0 0-5v-2.5c.69 0 1.25.56 1.25 1.25a.625.625 0 0 0 1.25 0 2.5 2.5 0 0 0-2.5-2.5V22.5a.625.625 0 0 0-1.25 0v.625Zm1.25 5v2.5a1.25 1.25 0 1 0 0-2.5Zm-1.25-3.75a1.25 1.25 0 1 0 0 2.5v-2.5ZM37.5 33.75a1.25 1.25 0 0 0-1.25-1.25h-12.5a1.25 1.25 0 0 0-1.25 1.25v2.5a1.25 1.25 0 0 0 1.25 1.25h12.5a1.25 1.25 0 0 0 1.25-1.25v-2.5Z" fill="#FFCE4B"/><path fill-rule="evenodd" clip-rule="evenodd" d="M37.5 28.75a1.25 1.25 0 0 0-1.25-1.25h-12.5a1.25 1.25 0 0 0-1.25 1.25v2.5a1.25 1.25 0 0 0 1.25 1.25h12.5a1.25 1.25 0 0 0 1.25-1.25v-2.5Z" fill="#F9B32F"/><path fill-rule="evenodd" clip-rule="evenodd" d="M37.5 23.75a1.25 1.25 0 0 0-1.25-1.25h-12.5a1.25 1.25 0 0 0-1.25 1.25v2.5a1.25 1.25 0 0 0 1.25 1.25h12.5a1.25 1.25 0 0 0 1.25-1.25v-2.5Z" fill="#FFCE4B"/><path fill-rule="evenodd" clip-rule="evenodd" d="M7.5 2.5c2.76 0 5 2.24 5 5s-2.24 5-5 5-5-2.24-5-5V3.75c0-.69.56-1.25 1.25-1.25H7.5ZM17.5 2.5h3.75c.69 0 1.25.56 1.25 1.25V7.5c0 2.76-2.24 5-5 5s-5-2.24-5-5 2.24-5 5-5Z" fill="#2DCC70"/><path fill-rule="evenodd" clip-rule="evenodd" d="M11.25 17.577v-3.006a3.75 3.75 0 0 0-1.098-2.652L6.616 8.384a1.25 1.25 0 1 1 1.768-1.768l3.535 3.536c.21.21.405.434.58.67.177-.236.37-.46.582-.67l3.535-3.536a1.25 1.25 0 1 1 1.768 1.768l-3.536 3.535a3.75 3.75 0 0 0-1.098 2.652v3.006a10.052 10.052 0 0 0-2.5 0Z" fill="#0DAC50"/></svg>
