<svg width="40" height="40" fill="none" xmlns="http://www.w3.org/2000/svg"><g clip-path="url(#a)"><path fill-rule="evenodd" clip-rule="evenodd" d="M4.26 7.2h23.97v28.91H4.26V7.21Z" fill="#006694"/><path fill-rule="evenodd" clip-rule="evenodd" d="M7.31 3.89h18.2l5.77 5.77V32.8H7.31V3.89Z" fill="#EAF6FF"/><path fill-rule="evenodd" clip-rule="evenodd" d="M25.5 3.89v5.77h5.78l-5.77-5.77Z" fill="#D3DDE6"/><path fill-rule="evenodd" clip-rule="evenodd" d="M2.36 20.56H21.5a.36.36 0 0 1 .36.36v7.36a.36.36 0 0 1-.36.36H2.36a.36.36 0 0 1-.36-.36v-7.36a.36.36 0 0 1 .36-.36Z" fill="#E6404D"/><path fill-rule="evenodd" clip-rule="evenodd" d="M36.89 9.14a2.24 2.24 0 0 1 .81 3.05l-8.2 14.22-3.87 2.23v-4.46l8.21-14.22a2.23 2.23 0 0 1 3.05-.82Z" fill="#F93"/><path fill-rule="evenodd" clip-rule="evenodd" d="M36.89 9.14a2.24 2.24 0 0 1 .81 3.05l-8.2 14.22-3.87 2.23L36.9 9.14Z" fill="#FB3"/><path fill-rule="evenodd" clip-rule="evenodd" d="m29.5 26.41-3.87 2.23v-4.46l3.86 2.23Z" fill="#4F5C6F"/><path fill-rule="evenodd" clip-rule="evenodd" d="M36.89 9.14a2.24 2.24 0 0 1 .81 3.05l-3.86-2.23a2.23 2.23 0 0 1 3.05-.82Z" fill="#E65C5C"/><path fill-rule="evenodd" clip-rule="evenodd" d="m36.89 9.14.05.04.05.02.04.04a2.02 2.02 0 0 1 .3.24l.08.08.14.17.03.04.15.23.02.05.05.1.1.25.01.05.01.05.03.1.01.05.01.06v.05l.02.1v.11l.01.11v.16a.5.5 0 0 1-.01.06v.05l-.01.05-.01.06-.01.05-.01.06-.01.05-.02.05-.01.06-.02.05-.02.05-.02.05-.02.06-.02.05-.03.05-.02.05c0 .02-.02.03-.03.05a.4.4 0 0 1-.03.05l-1.93-1.12 1.12-1.93Z" fill="#F66"/><path fill-rule="evenodd" clip-rule="evenodd" d="M8.53 28.64H7.3v4.16h1.22v-4.16Zm0-8.08V3.9H7.3v16.67h1.22Z" fill="#D3DDE6"/><path fill-rule="evenodd" clip-rule="evenodd" d="M3 28.28v-7.36a.36.36 0 0 1 .36-.36h-1a.36.36 0 0 0-.36.36v7.36a.36.36 0 0 0 .36.36h1a.36.36 0 0 1-.36-.36Z" fill="#CF3A45"/><path d="M13.83 14.05v3.51h-.7v-2.28l-.94 2.28h-.54l-.95-2.28v2.28H10v-3.51h.8l1.12 2.61 1.12-2.61h.8ZM16.77 16.9h-1.4l-.23.66h-.74l1.26-3.51h.82l1.26 3.51H17l-.23-.66Zm-.2-.57-.5-1.47-.51 1.47h1.02ZM19 14.05v3.51h-.7v-3.51h.7ZM22.8 17.56h-.71l-1.6-2.4v2.4h-.7v-3.51h.7l1.6 2.41v-2.41h.7v3.51ZM24.79 17.6c-.25 0-.47-.04-.67-.13-.2-.08-.35-.2-.46-.36a.96.96 0 0 1-.18-.56h.76a.5.5 0 0 0 .15.35c.1.08.22.12.38.12a.6.6 0 0 0 .39-.11.4.4 0 0 0 .14-.32c0-.1-.03-.19-.1-.25a.64.64 0 0 0-.24-.16 3.3 3.3 0 0 0-.4-.13 4.7 4.7 0 0 1-.55-.2 1.04 1.04 0 0 1-.37-.3.87.87 0 0 1-.15-.53c0-.2.05-.39.16-.54.1-.16.25-.27.44-.35.18-.09.4-.13.64-.13.36 0 .66.09.88.27.23.17.36.42.38.73h-.78a.4.4 0 0 0-.15-.3.56.56 0 0 0-.38-.12.5.5 0 0 0-.33.11c-.08.07-.12.17-.12.3 0 .1.03.18.09.24s.14.11.23.15c.1.04.22.09.4.14.22.06.4.13.55.2a1 1 0 0 1 .37.3c.1.13.16.3.16.53a1 1 0 0 1-.57.9c-.2.1-.42.15-.67.15Z" fill="#474747"/><path d="M6.32 28c-.44 0-.84-.08-1.18-.24a2.01 2.01 0 0 1-.82-.65c-.2-.28-.3-.61-.32-.98h1c.02.2.08.38.2.53.12.14.28.26.47.34.2.07.4.11.64.11.26 0 .49-.04.68-.13.2-.1.36-.23.47-.4.12-.16.17-.36.17-.58A1.08 1.08 0 0 0 6.98 25c-.22-.1-.48-.15-.78-.15h-.55V24h.55c.24 0 .46-.04.64-.14.19-.09.33-.21.44-.37.1-.17.15-.36.15-.58 0-.21-.04-.4-.13-.55A.94.94 0 0 0 6.9 22a1.47 1.47 0 0 0-1.18-.01c-.18.08-.33.2-.45.35a.91.91 0 0 0-.18.53h-.96c0-.37.11-.69.31-.97s.47-.5.8-.65c.32-.16.69-.24 1.1-.24.41 0 .77.09 1.08.26a1.82 1.82 0 0 1 .96 1.6c0 .38-.1.7-.3.97-.21.26-.49.44-.83.53v.06c.44.07.78.25 1.02.54.24.29.36.65.35 1.08 0 .37-.1.7-.3 1-.2.3-.47.54-.82.7a2.7 2.7 0 0 1-1.2.26ZM12.13 28c-.29 0-.58-.06-.86-.17-.28-.1-.54-.28-.77-.53a2.7 2.7 0 0 1-.55-1 6.68 6.68 0 0 1-.04-3.15c.12-.47.28-.85.5-1.17a2.11 2.11 0 0 1 1.8-.98c.4 0 .75.08 1.05.24.3.16.55.38.73.66.2.28.32.6.37.96h-.98c-.07-.28-.2-.51-.4-.7a1.1 1.1 0 0 0-.76-.26c-.48 0-.86.22-1.13.65-.26.44-.4 1.04-.4 1.81h.05a1.83 1.83 0 0 1 1.62-.92c.38 0 .73.1 1.04.3.3.18.55.45.74.78.18.34.27.73.27 1.16 0 .44-.1.83-.28 1.18a2.13 2.13 0 0 1-2 1.14Zm0-.87c.25 0 .48-.06.68-.19.2-.13.35-.3.47-.52.11-.21.17-.46.17-.73 0-.26-.06-.5-.17-.71a1.31 1.31 0 0 0-.46-.51 1.2 1.2 0 0 0-.67-.2 1.24 1.24 0 0 0-.95.43 1.53 1.53 0 0 0-.39 1c0 .26.06.5.17.71.12.22.27.4.47.53.2.13.43.2.68.2ZM17.74 28c-.4 0-.76-.08-1.08-.24a1.99 1.99 0 0 1-.76-.67 1.8 1.8 0 0 1-.3-.96h.95c.03.3.15.53.38.72.23.2.5.28.81.28a1.25 1.25 0 0 0 1.13-.68c.12-.21.17-.45.17-.73 0-.27-.06-.52-.17-.74a1.3 1.3 0 0 0-1.17-.7c-.2 0-.4.04-.6.1-.2.08-.36.17-.49.29l-.9-.14.37-3.44h3.6v.88H16.9l-.2 1.91h.03c.13-.13.3-.24.5-.32.22-.09.45-.13.7-.13.4 0 .75.1 1.06.3.32.2.56.46.74.8.18.34.27.73.27 1.17 0 .45-.1.84-.29 1.19-.19.34-.46.61-.8.81-.34.2-.73.3-1.17.3Z" fill="#fff"/></g><defs><clipPath id="a"><path fill="#fff" transform="translate(2 2)" d="M0 0h36v36H0z"/></clipPath></defs></svg>
