<svg width="40" height="40" fill="none" xmlns="http://www.w3.org/2000/svg"><path d="M36.13 9.5v18.38a6.76 6.76 0 0 1-6.76 6.75H8a4.12 4.12 0 0 1-4.13-4.13v-21A4.13 4.13 0 0 1 8 5.37h24a4.12 4.12 0 0 1 4.13 4.13Z" fill="#D8D8D8"/><path d="M36.13 9.5v18.38c0 1.33-.4 2.64-1.15 3.75H16.75a9.86 9.86 0 0 1-9.87-9.88V5.54c.36-.1.74-.15 1.12-.16h24a4.12 4.12 0 0 1 4.13 4.13Z" fill="#F5F5F5"/><path d="M36.13 9.5v5.63H3.87V9.5A4.13 4.13 0 0 1 8 5.38h24a4.12 4.12 0 0 1 4.13 4.12Z" fill="#EA3654"/><path d="M36.13 9.5v5.63H6.86v-9.6A6.07 6.07 0 0 1 8 5.38h24a4.12 4.12 0 0 1 4.13 4.12Z" fill="#FF4F64"/><path d="M12.5 11.75a2.25 2.25 0 1 0 0-4.5 2.25 2.25 0 0 0 0 4.5ZM20 11.75a2.25 2.25 0 1 0 0-4.5 2.25 2.25 0 0 0 0 4.5ZM27.5 11.75a2.25 2.25 0 1 0 0-4.5 2.25 2.25 0 0 0 0 4.5Z" fill="#fff"/><path d="M12.5 10.63a1.13 1.13 0 0 1-1.13-1.13V5a1.12 1.12 0 1 1 2.26 0v4.5a1.13 1.13 0 0 1-1.13 1.13ZM20 10.63a1.13 1.13 0 0 1-1.13-1.13V5a1.12 1.12 0 1 1 2.25 0v4.5A1.13 1.13 0 0 1 20 10.63ZM27.5 10.63a1.13 1.13 0 0 1-1.13-1.13V5a1.12 1.12 0 1 1 2.25 0v4.5a1.13 1.13 0 0 1-1.12 1.13Z" fill="#FFC84D"/><path d="M36.13 28.07a8.06 8.06 0 1 1-4.96-7.47 7.99 7.99 0 0 1 4.96 7.47Z" fill="#3A97ED"/><path d="M36.13 28.07c0 1.77-.59 3.49-1.67 4.89a8.06 8.06 0 0 1-11.3-11.3 8.07 8.07 0 0 1 12.96 6.4Z" fill="#55A4F9"/><path d="M27.5 30.87a1.12 1.12 0 0 1-.8-.32l-1.5-1.5a1.13 1.13 0 1 1 1.6-1.6l.7.7 2.2-2.2a1.12 1.12 0 1 1 1.6 1.6l-3 3a1.12 1.12 0 0 1-.8.32Z" fill="#fff"/></svg>
