<svg width="40" height="40" fill="none" xmlns="http://www.w3.org/2000/svg"><circle cx="20.16" cy="22.84" r="15.16" fill="#FF9898"/><path d="M21.14 31.88h.5v-.17c.2-.15.32-.4.32-.66 0-2-.04-4.11-.08-6.34-.05-2.57-.1-5.23-.1-8.16a.82.82 0 1 0-1.65 0c0 2.85.05 5.44.1 7.94v.26c.05 2.22.09 4.32.09 6.3 0 .46.37.83.82.83Z" fill="#fff" stroke="#fff"/><path d="m30.35 17.39-9.21-.04v-.5l9.2.54Zm0 0a.82.82 0 0 0 0-1.65m0 1.65v-1.65m0 0ZM26.6 26.27l-5.46-.03v-.5l5.46.53Zm0 0h.5a.82.82 0 0 0 0-1.64m-.5 1.64.5-1.64m0 0v.5-.5ZM30.35 31.9l-9.21-.04v-.5l9.2.53Zm0 0a.82.82 0 0 0 0-1.65m0 1.64v-1.64m0 0Z" fill="#fff" stroke="#fff"/><path d="M17.17 23.12v8.64c0 1.35-1.1 2.45-2.45 2.45h-2.94a2.45 2.45 0 0 1-2.44-2.45v-8.64h7.83Z" fill="#356B93"/><path d="M17.17 26.6v5.16c0 1.35-1.1 2.45-2.44 2.45h-.98a2.45 2.45 0 0 1-2.45-2.45V28.1c0-.83.67-1.5 1.5-1.5h4.37Z" fill="#5881A5"/><path d="M17.53 17.2c-2.85.5-5.7.5-8.54 0a3.06 3.06 0 0 1-2.49-2.56c-.5-3.24-.5-6.47 0-9.7C6.7 3.63 7.7 2.6 9 2.37c2.85-.5 5.7-.5 8.54 0A3.06 3.06 0 0 1 20 4.93c.5 3.24.5 6.47 0 9.71a3.06 3.06 0 0 1-2.48 2.56Z" fill="#394D63"/><path d="M12.1 17.54a24.6 24.6 0 0 1-3.11-.34 3.06 3.06 0 0 1-2.49-2.56c-.5-3.24-.5-6.47 0-9.7C6.7 3.63 7.7 2.6 9 2.36a24.6 24.6 0 0 1 3.1-.34 3.23 3.23 0 0 0-2.36 2.64 33.58 33.58 0 0 0 0 10.23 3.23 3.23 0 0 0 2.37 2.64Z" fill="#20303F"/><path d="M21.52 18.74v3.57a2.42 2.42 0 0 1-2.42 2.42H7.42A2.42 2.42 0 0 1 5 22.31v-3.57a2.42 2.42 0 0 1 2.42-2.42H19.1a2.42 2.42 0 0 1 2.42 2.42Z" fill="#ED2929"/><path d="M21.51 18.74v3.57a2.42 2.42 0 0 1-2.42 2.42h-8.22a2.42 2.42 0 0 1-2.42-2.42v-3.57a2.42 2.42 0 0 1 2.42-2.42h8.22a2.42 2.42 0 0 1 2.42 2.42Z" fill="#FF5A5A"/><path d="M9.19 18.34c-.24 0-.4.12-.4.3v2.2l-1.08-2.1c-.14-.26-.26-.4-.55-.4-.24 0-.4.12-.4.3v3.76c0 .2.2.3.4.3.24 0 .4-.13.4-.3v-2.22l1.18 2.24c.1.18.26.27.45.27.23 0 .4-.12.4-.3v-3.76c0-.18-.16-.3-.4-.3ZM12.81 19.07c.17 0 .3-.16.3-.37 0-.18-.1-.36-.3-.36H10.8c-.18 0-.37.1-.37.3v3.76c0 .2.19.3.37.3h2.02c.2 0 .3-.19.3-.36 0-.22-.13-.38-.3-.38h-1.59v-1.1H12c.2 0 .3-.18.3-.34 0-.2-.13-.34-.3-.34h-.78v-1.11h1.6ZM16.64 18.34c-.16 0-.28.08-.31.2l-.25 2.69-.37-1.48c-.04-.16-.18-.26-.4-.26-.21 0-.36.1-.4.26l-.37 1.48-.24-2.67v-.02c-.04-.12-.16-.2-.31-.2-.22 0-.47.15-.47.35v.07l.38 3.59c.02.13.1.25.22.3a1 1 0 0 0 .38.08c.2 0 .43-.09.47-.28l.34-1.34.34 1.34c.05.2.27.28.48.28a1 1 0 0 0 .37-.08c.12-.05.2-.17.22-.3l.38-3.59v-.07c0-.2-.24-.35-.46-.35ZM18.92 20.02c-.42-.17-.67-.28-.67-.56 0-.35.34-.42.62-.42.28 0 .43.07.56.14.08.04.14.07.22.07.23 0 .35-.24.35-.42 0-.4-.71-.5-1.13-.5-.69 0-1.42.3-1.42 1.18 0 .8.58 1.05 1.1 1.26.4.17.75.32.75.72 0 .46-.43.5-.62.5-.36 0-.54-.15-.68-.28-.1-.09-.18-.16-.29-.16-.2 0-.36.23-.36.42 0 .36.58.77 1.36.77.86 0 1.4-.5 1.4-1.3 0-.94-.67-1.2-1.2-1.42Z" fill="#E6E6E6"/><path d="M17.32 4.74a.5.5 0 0 1-.46-.31.5.5 0 0 1 .15-.56c.35-.27.87.04.79.48a.5.5 0 0 1-.48.4ZM18.34 6.08c-.45 0-.66-.58-.31-.87a.5.5 0 0 1 .59-.02c.15.1.23.3.2.5a.5.5 0 0 1-.48.39ZM16.68 6.33c-.44 0-.65-.55-.33-.85a.5.5 0 0 1 .6-.05c.16.11.25.31.2.51a.5.5 0 0 1-.47.4Z" fill="#20303F"/></svg>
