<svg width="40" height="40" fill="none" xmlns="http://www.w3.org/2000/svg"><g clip-path="url(#a)"><path d="M3.34 9.449c.64 0 1.16-.37 1.16-1.786V4.82l.351-.641h3.76c.406 0 .97-.369.97-1.152a1.158 1.158 0 0 0-.97-.526h-4.67A1.76 1.76 0 0 0 2.18 4.26v3.402c0 1.268.519 1.787 1.16 1.787ZM3.94 37.5h4.671c.406 0 .97-.35.97-1.153a1.158 1.158 0 0 0-.97-.525H4.5V31.71a1.16 1.16 0 1 0-2.32 0v3.402c0 1.725.79 2.388 1.762 2.388ZM36.663 9.449c-.64 0-1.16-.37-1.16-1.786V4.82l-.352-.641h-3.76c-.405 0-.97-.369-.97-1.152.208-.316.565-.526.97-.526h4.67c.973 0 1.762.789 1.762 1.761v3.402c0 1.268-.52 1.786-1.16 1.786ZM36.058 37.5h-4.67c-.406 0-.97-.35-.97-1.153.207-.316.564-.525.97-.525H35.5V31.71a1.16 1.16 0 1 1 2.318 0v3.402c0 1.725-.789 2.388-1.761 2.388Z" fill="#F95750"/><path d="M11.05 30.771c2.307 2.306 5.602 3.797 8.95 3.797 3.35 0 6.631-1.478 8.95-3.797-2.573-3.78-5.877-4.798-5.877-4.798h-.002a6.902 6.902 0 0 1-3.07.716 6.9 6.9 0 0 1-3.07-.716h-.002s-3.304 1.019-5.878 4.798Z" fill="#EEF2F5"/><path d="M16.931 25.973h-.001l1.535 3.893 1.537.872 1.536-.872 1.536-3.893H16.932Z" fill="#F68ACC"/><path d="M17.794 33.534 20 34.566l2.206-1.032-.67-3.67h-3.073l-.67 3.67Z" fill="#FFA6D4"/><path d="m17.482 35.249 1.04-.778-.727-.936a15.068 15.068 0 0 1-6.743-2.765c-.179.262-.354.537-.524.826a.488.488 0 0 0 .119.63 15.082 15.082 0 0 0 6.835 3.024v-.001ZM29.474 31.596c-.17-.288-.345-.564-.524-.826a15.08 15.08 0 0 1-6.744 2.765l-.726.932 1.04.781a15.078 15.078 0 0 0 6.834-3.023.487.487 0 0 0 .12-.63v.002Z" fill="#EEF2F5"/><path d="M20 33.696c-.75 0-1.486-.056-2.206-.16l-.314 1.714a15.255 15.255 0 0 0 5.039 0l-.313-1.715c-.72.105-1.457.161-2.206.161Z" fill="#FFA6D4"/><path d="M28.966 15.572c1.311-3.173.382-6.753-1.54-8.166-1.606-1.18-3.478-.842-3.478-.842S22.54 5.086 20 5.086c-3.47 0-10.513 1.758-9.172 10.599l18.138-.114v.001Z" fill="#AF665A"/><path d="m12.045 19.093 1.022-1.108.872-1.202-.872-1.203a2.32 2.32 0 0 0-3.169 1.202c0 1.602 1.178 2.311 2.147 2.311Z" fill="#EBBAA1"/><path d="M9.897 16.781a2.321 2.321 0 0 0 3.169 2.966l.87-.876-.87-.888a2.32 2.32 0 0 1-3.169-1.202ZM27.956 19.093l-1.022-1.108-.872-1.202.872-1.203a2.32 2.32 0 0 1 3.169 1.202c0 1.602-1.177 2.311-2.147 2.311Z" fill="#EBBAA1"/><path d="M30.103 16.781a2.321 2.321 0 0 1-3.169 2.966l-.872-.876.872-.888a2.32 2.32 0 0 0 3.169-1.202Z" fill="#EBBAA1"/><path d="M20.002 25.794c3.83 0 6.934-3.051 6.934-7.806v-2.41c-1.775-.798-3.678-3.15-4.387-4.085a.482.482 0 0 0-.675-.096c-1.25.932-5.303 3.772-8.808 4.181v2.41c0 4.97 3.105 7.806 6.935 7.806Z" fill="#FDD4BB"/><path d="M20.001 24.927a6.935 6.935 0 0 1-6.935-6.935v1.763a6.935 6.935 0 1 0 13.87 0v-1.763A6.935 6.935 0 0 1 20 24.927Z" fill="#FDD4BB"/></g><defs><clipPath id="a"><path fill="#fff" transform="translate(2.18 2.5)" d="M0 0h35.641v35H0z"/></clipPath></defs></svg>
