<svg width="40" height="40" fill="none" xmlns="http://www.w3.org/2000/svg"><g clip-path="url(#a)"><path d="m22.71 29.36 3.14 1.5 3.75-4.2a1.4 1.4 0 0 0-2-1.93l-4.89 4.63Z" fill="#F89F8E"/><path d="m19.76 28.51 3.14 1.5 3.75-4.19a1.4 1.4 0 0 0-2-1.94l-4.9 4.63Z" fill="#EA806F"/><path d="m25 30.46 3.06 1.65L32 28.09a1.4 1.4 0 0 0-1.9-2.03l-5.1 4.4Z" fill="#FDB0A0"/><path d="M29.1 23.6a12.3 12.3 0 1 1-8.75-19.24l7.91 7.76.85 11.48Z" fill="#64B9FC"/><path d="M21.22 5.2a12.2 12.2 0 0 0-3.43-.85 12.34 12.34 0 0 1 2.58.01l.85.84ZM29.11 23.6a12.28 12.28 0 0 1-11.32 5.22A12.3 12.3 0 0 0 28.73 18.4l.38 5.2Z" fill="#31A7FB"/><path d="M31.31 16.59c0 2.6-.81 5.02-2.2 7.02l-3.6-1.2a.73.73 0 0 0-.84.3l-.77 1.2a.73.73 0 0 1-.3.26l-2.1.98a.73.73 0 0 1-.72-.07l-2.58-1.8a.73.73 0 0 1-.25-.9l.39-.88c.09-.2.27-.36.49-.41l2.8-.7c.2-.05.38-.2.47-.38l.95-1.85c.12-.22.1-.5-.03-.71L22 15.78a.73.73 0 0 0-.62-.35h-.8a.73.73 0 0 0-.62.34l-1.41 2.2a.73.73 0 0 1-.83.3l-1.14-.34a.73.73 0 0 0-.73.18l-.65.66a.73.73 0 0 1-.92.1l-1.42-.95a.73.73 0 0 1-.27-.33l-.84-2.05a.73.73 0 0 1 .05-.65l1.28-2.14c.17-.3.53-.43.85-.32l2.17.71c.19.06.39.05.56-.04l3.4-1.76c.27-.13.42-.4.4-.7l-.1-1.5a.73.73 0 0 0-.34-.58l-.75-.46a.73.73 0 0 1-.27-.94l1.37-2.8A12.3 12.3 0 0 1 31.3 16.6Z" fill="#99D53B"/><path d="M31.3 16.59c0 2.6-.8 5.02-2.2 7.02l-2-.68a12.3 12.3 0 0 0-6.96-18.12l.22-.45A12.3 12.3 0 0 1 31.31 16.6Z" fill="#8DC637"/><path d="M31.3 16.59c0 1.44-.24 2.83-.7 4.12-1.27-.33-3.66-1.6-3.23-4.59a4.8 4.8 0 0 1 3.1-4c.54 1.38.84 2.89.84 4.47Z" fill="#8DC637"/><path d="M14.13 24.56a1.58 1.58 0 0 0-1.6.4c-.36.35-.73.84-1.2 1.23a12.33 12.33 0 0 1-3.53-4.53c.7-.46 1.6-.73 2.78-.56a4.8 4.8 0 0 1 3.98 2.98.36.36 0 0 1-.43.48ZM13.25 11.07a4.81 4.81 0 0 1-4.63-1.06c1.4-2.22 3.5-3.95 5.98-4.9l.57.07a1.27 1.27 0 0 1 1.08 1.05c.2 1.25.01 4.08-3 4.84Z" fill="#31A7FB"/><path d="M35.7 28.09a1.42 1.42 0 0 0-1.75-.5l-4.7 2.1c-.13-.9-.9-1.59-1.83-1.59h-4a7.3 7.3 0 0 1-2.32-.37l-3.38-1.13c-.59-.2-1.22-.21-1.8-.04l-2.2.64c-.8.23-1.46.77-1.84 1.5a6.18 6.18 0 0 1-2.12 2.34l-3.07 1.99a.73.73 0 0 0-.12 1.13l3.63 3.63c.26.25.67.28.96.06l4.42-3.38 9.5.64c.55.04 1.09-.08 1.57-.34l8.56-4.7c.72-.38.95-1.3.5-1.98Z" fill="#FFCEC0"/><path d="m35.21 30.08-8.56 4.69c-.48.26-1.03.38-1.57.34l-9.5-.64-4.42 3.38c-.3.22-.7.2-.96-.06l-1.04-1.04 5.15-3.93c.1-.08.22-.11.34-.1l9.3.62c.55.04 1.1-.08 1.58-.34l8.56-4.7c.34-.18.57-.48.67-.82a1.4 1.4 0 0 1 .45 2.6Z" fill="#FDB0A0"/><path d="M30.38 29.96a2.4 2.4 0 0 1-2.4 2.4h-4.83c-.78 0-1.55.1-2.31.28a.55.55 0 0 1-.26-1.07c.84-.2 1.7-.3 2.57-.3h4.82a1.31 1.31 0 0 0 1.28-1.59l1.01-.45c.08.23.12.48.12.73Z" fill="#FDB0A0"/><path d="M5.76 24.15a1.27 1.27 0 0 1-.36-1.2c.28-1.23 1.55-3.77 4.61-3.33A4.8 4.8 0 0 1 14 22.6a.36.36 0 0 1-.43.48 1.58 1.58 0 0 0-1.59.4c-1.06 1-2.1 3.15-5.97.86a1.3 1.3 0 0 1-.24-.19Z" fill="#99D53B"/><path d="M13.56 23.08a1.58 1.58 0 0 0-1.59.4c-1.06 1-2.1 3.15-5.97.86a1.27 1.27 0 0 1-.62-1.25c3.67 2.06 4.69-.01 5.73-1a1.58 1.58 0 0 1 1.58-.4c.3.09.55-.2.44-.48v-.01c.43.48.7.99.86 1.4a.36.36 0 0 1-.43.48Z" fill="#8DC637"/><path d="M4.3 25.17a.55.55 0 0 1-.13-.78 8.04 8.04 0 0 1 6.31-3.17h.01c.3 0 .56.25.55.56 0 .3-.26.52-.55.53-1.3.03-3.66.44-5.44 2.74a.55.55 0 0 1-.75.12Z" fill="#79A72D"/><path d="M15.08 3.5c.42.17.72.54.79.98.2 1.24 0 4.08-3 4.84a4.8 4.8 0 0 1-4.81-1.24.36.36 0 0 1 .21-.62c.46-.05 1-.27 1.32-.97.6-1.33.74-3.71 5.2-3.07.1.02.2.04.3.08Z" fill="#A3E440"/><path d="M12.87 9.31a4.85 4.85 0 0 1-4.14-.67c.7.16 1.52.18 2.49-.06 3-.76 3.2-3.6 3-4.84a1.28 1.28 0 0 0-.14-.4l.71.08a1.27 1.27 0 0 1 1.08 1.05c.2 1.25.01 4.09-3 4.84Z" fill="#8DC637"/><path d="M16.04 2.01c.3.07.5.37.41.68a8.04 8.04 0 0 1-4.62 5.33.54.54 0 0 1-.74-.31.56.56 0 0 1 .32-.7 6.97 6.97 0 0 0 3.99-4.6.55.55 0 0 1 .64-.4Z" fill="#79A72D"/><path d="M33 18.97c-.31.32-.77.46-1.2.36-1.23-.29-3.78-1.55-3.33-4.62a4.8 4.8 0 0 1 2.97-3.98c.28-.11.57.15.49.44-.13.44-.13 1.03.4 1.59 1 1.06 3.15 2.1.85 5.97a1.3 1.3 0 0 1-.18.24Z" fill="#A3E440"/><path d="M31.93 11.17c-.12.44-.12 1.03.4 1.59 1 1.06 3.15 2.1.86 5.97a1.27 1.27 0 0 1-1.25.62c2.06-3.67-.02-4.69-1-5.73a1.58 1.58 0 0 1-.4-1.59.36.36 0 0 0-.48-.43h-.01c.48-.43.99-.7 1.4-.87.27-.11.56.15.48.44Z" fill="#99D53B"/><path d="M34 20.43a.53.53 0 0 1-.76.13 8.04 8.04 0 0 1-3.18-6.32.55.55 0 1 1 1.1-.02c.02 1.3.42 3.67 2.74 5.46.22.18.28.5.12.73l-.01.02Z" fill="#79A72D"/></g><defs><clipPath id="a"><path fill="#fff" transform="translate(2 2)" d="M0 0h36v36H0z"/></clipPath></defs></svg>
