<svg width="40" height="40" fill="none" xmlns="http://www.w3.org/2000/svg"><g clip-path="url(#a)"><path d="M35.82 3.05v29.68c0 .59-.46 1.05-1.05 1.05h-6.33c-.6 0-1.06-.46-1.06-1.05L10.51 7.4V3.05c0-.59.46-1.05 1.05-1.05h23.2c.6 0 1.06.46 1.06 1.05Z" fill="#4A696F"/><path d="M35.82 3.05v29.68c0 .59-.46 1.05-1.05 1.05h-6.33c-.6 0-1.06-.46-1.06-1.05l-4.22-6.33V2h11.6c.6 0 1.06.46 1.06 1.05Z" fill="#384949"/><path d="M29.5 13.74v23.2c0 .6-.47 1.06-1.06 1.06H5.24c-.6 0-1.06-.46-1.06-1.05V7.4c0-.59.46-1.05 1.05-1.05h16.88l1.05 6.33 6.33 1.05Z" fill="#F2F6FC"/><path d="M29.5 13.74v23.2c0 .6-.47 1.06-1.06 1.06H11.56V6.36h10.55l1.05 6.33 6.33 1.05Z" fill="#DCE1EB"/><path d="M16.52 30.8 12.3 35a.99.99 0 0 1-.74.32.99.99 0 0 1-.74-.32l-2.1-2.1a1.02 1.02 0 0 1 0-1.48c.4-.43 1.07-.43 1.47 0l1.37 1.35 3.48-3.46c.4-.43 1.08-.43 1.48 0 .42.4.42 1.07 0 1.47Z" fill="#61D7B0"/><path d="M24.22 33.22H20a1.05 1.05 0 1 1 0-2.11h4.22a1.05 1.05 0 1 1 0 2.1ZM29.18 13l-6.32-6.33c-.2-.2-.47-.31-.75-.31v7.38h7.38c0-.3-.12-.56-.3-.75Z" fill="#BEC3D2"/><path d="M16.52 29.32c.42.4.42 1.07 0 1.47l-4.22 4.22a.99.99 0 0 1-.74.32v-2.55l3.48-3.46c.4-.43 1.08-.43 1.48 0Z" fill="#06CCAB"/><path d="M18.38 11h-3.75c-.35 0-.63-.22-.63-.5s.28-.5.63-.5h3.74c.35 0 .63.22.63.5s-.28.5-.63.5Z" fill="#474747" stroke="#474747" stroke-width=".5"/><path d="M7.63 18c-.35 0-.63-.3-.63-.67v-6.66c0-.37.28-.67.63-.67H9.5c1.38 0 2.5 1.2 2.5 2.67s-1.12 2.66-2.5 2.66H8.25v2c0 .37-.28.67-.63.67Zm.62-4H9.5c.69 0 1.25-.6 1.25-1.33 0-.74-.56-1.34-1.25-1.34H8.25V14Z" fill="#474747"/><path d="M16.5 18c-.28 0-.5-.3-.5-.67v-6.66c0-.37.22-.67.5-.67s.5.3.5.67v6.66c0 .37-.22.67-.5.67Z" fill="#474747" stroke="#474747" stroke-width=".5"/><path fill-rule="evenodd" clip-rule="evenodd" d="M18.36 19H37.5a.36.36 0 0 1 .36.36v7.36a.36.36 0 0 1-.36.36H18.36a.36.36 0 0 1-.36-.36v-7.36a.36.36 0 0 1 .36-.36Z" fill="#E6404D"/><path fill-rule="evenodd" clip-rule="evenodd" d="M19 26.72v-7.36a.36.36 0 0 1 .36-.36h-1a.36.36 0 0 0-.36.36v7.36a.36.36 0 0 0 .36.36h1a.36.36 0 0 1-.36-.36Z" fill="#CF3A45"/><path d="M22.32 26.44c-.44 0-.84-.07-1.18-.2a1.99 1.99 0 0 1-.82-.57c-.2-.24-.3-.52-.32-.84h1c.02.18.08.33.2.46.12.12.28.22.47.29.2.06.4.1.64.1.26 0 .49-.04.68-.12.2-.08.36-.2.48-.33a.79.79 0 0 0 .16-.5c0-.2-.05-.37-.16-.52a1.09 1.09 0 0 0-.5-.35 2.09 2.09 0 0 0-.77-.13h-.55V23h.55c.24 0 .46-.04.64-.12.19-.08.33-.18.44-.32a.8.8 0 0 0 .15-.5.8.8 0 0 0-.13-.47.9.9 0 0 0-.39-.31 1.68 1.68 0 0 0-1.18 0 1.1 1.1 0 0 0-.45.29.71.71 0 0 0-.18.45h-.96c0-.31.11-.59.31-.83a2 2 0 0 1 .8-.56c.32-.14.69-.2 1.1-.2.41 0 .77.07 1.08.22.3.14.54.33.71.58.17.24.25.5.25.79 0 .33-.1.6-.3.83-.21.23-.49.38-.83.46v.05c.44.06.78.2 1.02.46.24.25.36.56.35.92 0 .33-.1.61-.3.87-.2.25-.47.45-.82.6a3.1 3.1 0 0 1-1.2.22ZM28.13 26.44c-.29 0-.58-.05-.86-.15a2.06 2.06 0 0 1-1.32-1.31 4.94 4.94 0 0 1-.04-2.7c.12-.4.28-.73.5-1 .21-.28.47-.49.78-.63.3-.14.65-.21 1.03-.21.39 0 .73.07 1.04.2.3.14.55.33.73.57.2.24.32.52.37.82h-.98a1.1 1.1 0 0 0-.4-.6c-.2-.15-.45-.22-.76-.22-.48 0-.86.18-1.13.56-.26.37-.4.89-.4 1.55h.05c.11-.16.25-.3.41-.42a2.18 2.18 0 0 1 1.21-.37c.38 0 .73.08 1.04.25.3.16.55.39.74.68.18.29.27.62.27.99s-.1.71-.28 1.01c-.2.3-.46.54-.8.72-.34.18-.74.26-1.2.26Zm0-.74c.25 0 .48-.06.68-.17.2-.11.35-.26.47-.44.11-.2.17-.4.17-.63a1.2 1.2 0 0 0-.63-1.05c-.2-.1-.42-.16-.67-.16a1.35 1.35 0 0 0-1.24.76 1.15 1.15 0 0 0 .07 1.07 1.31 1.31 0 0 0 1.15.62ZM33.74 26.44c-.4 0-.76-.07-1.08-.2a1.93 1.93 0 0 1-.76-.58 1.4 1.4 0 0 1-.3-.83h.95c.03.26.15.46.38.62.23.17.5.25.81.25.25 0 .48-.06.67-.16a1.17 1.17 0 0 0 .63-1.05 1.18 1.18 0 0 0-.65-1.08c-.2-.1-.43-.16-.69-.16-.2 0-.4.03-.6.09-.2.06-.36.14-.48.24l-.91-.12.37-2.94h3.6v.75H32.9l-.2 1.64h.03c.13-.11.3-.2.51-.28a2.2 2.2 0 0 1 1.75.14c.31.17.56.4.74.7.18.29.27.62.27 1s-.1.72-.29 1.01a2 2 0 0 1-.8.7c-.34.17-.73.26-1.17.26Z" fill="#fff"/></g><defs><clipPath id="a"><path fill="#fff" transform="translate(2 2)" d="M0 0h36v36H0z"/></clipPath></defs></svg>
