<svg width="40" height="40" fill="none" xmlns="http://www.w3.org/2000/svg"><path d="M30.747 14.736V5.379H9.254V25.41h1.27l2.85 2.98-2.85 2.98h-1.27v3.253h21.493V20.695h-1.27l-2.85-2.98 2.85-2.98h1.27Z" fill="#F9EAB0"/><path d="M11.637 7.828H28.36v5.362H11.637V7.828Z" fill="#FEC400"/><path d="M27.997 16.504h-16.36a.492.492 0 1 1 0-.985h16.36a.492.492 0 0 1 0 .985ZM27.443 19.063H11.637a.492.492 0 0 1 0-.985h15.806a.492.492 0 0 1 0 .985ZM28.361 21.625H11.637a.492.492 0 0 1 0-.984H28.36a.492.492 0 0 1 0 .984ZM28.361 24.184H11.637a.492.492 0 0 1 0-.985H28.36a.492.492 0 0 1 0 .985ZM28.361 26.742H11.637a.492.492 0 0 1 0-.984H28.36a.492.492 0 0 1 0 .984ZM28.36 29.305H12.969a.492.492 0 0 1 0-.985h15.39a.492.492 0 0 1 0 .985ZM25.656 31.863H14.34a.492.492 0 0 1 0-.984h11.316a.492.492 0 0 1 0 .984Z" fill="#E8D5A5"/><path d="M30.748 16.29v-1.556h-1.27l-2.85 2.98 2.85 2.98h1.27v-1.557a3.917 3.917 0 0 1 3.647 5.42 3.913 3.913 0 0 1-3.647 2.409v2.847a6.76 6.76 0 1 0 0-13.522Z" fill="#FF8C00"/><path d="M9.254 25.412v1.556a3.913 3.913 0 0 1-1.508-7.54 3.915 3.915 0 0 1 1.508-.288v-2.847a6.762 6.762 0 1 0 0 13.522v1.556h1.27l2.85-2.98-2.85-2.979h-1.27Z" fill="#24AC5F"/></svg>
