<svg width="40" height="40" fill="none" xmlns="http://www.w3.org/2000/svg"><g clip-path="url(#a)"><path d="M20 3.05A16.95 16.95 0 0 0 3.05 20h33.9c0-9.36-7.6-16.95-16.95-16.95Z" fill="#99DAFF"/><path d="M36.95 20c0-9.36-7.6-16.95-16.95-16.95V20h16.95Z" fill="#53ACF5"/><path d="M32.73 7.27A17.88 17.88 0 0 0 20 2c-4.8 0-9.33 1.87-12.73 5.27A17.88 17.88 0 0 0 2 20h36c0-4.8-1.87-9.33-5.27-12.73ZM10.49 18.95H4.14c.15-2.29.8-4.45 1.81-6.37h5.34a32.29 32.29 0 0 0-.8 6.37Zm-3.2-8.48a15.96 15.96 0 0 1 7.33-5.42c-.56.71-1.08 1.55-1.55 2.5-.46.9-.85 1.88-1.19 2.92H7.29Zm11.66 8.48H12.6c.07-2.25.37-4.41.86-6.37h5.49v6.37Zm0-8.48H14.1c.25-.7.53-1.36.84-1.98 1.12-2.24 2.54-3.72 4-4.2v6.18Zm2.1-6.18c1.46.48 2.88 1.96 4 4.2.3.62.59 1.28.84 1.98h-4.84V4.3Zm0 14.66v-6.37h5.49c.5 1.96.79 4.12.86 6.37h-6.35Zm5.88-11.4c-.47-.95-1-1.79-1.55-2.5a15.96 15.96 0 0 1 7.33 5.42h-4.59a21.14 21.14 0 0 0-1.19-2.92Zm1.78 5.03h5.34a15.78 15.78 0 0 1 1.8 6.37h-6.34a32.29 32.29 0 0 0-.8-6.37Z" fill="#4793FF"/><path d="M20 2v18h18c0-4.8-1.87-9.33-5.27-12.73A17.88 17.88 0 0 0 20 2Zm1.05 2.29c1.46.48 2.88 1.96 4 4.2.3.62.59 1.28.84 1.98h-4.84V4.3Zm0 14.66v-6.37h5.49c.5 1.96.79 4.12.86 6.37h-6.35Zm5.88-11.4c-.47-.95-1-1.79-1.55-2.5a15.96 15.96 0 0 1 7.33 5.42h-4.59a21.14 21.14 0 0 0-1.19-2.92Zm8.93 11.4H29.5a32.28 32.28 0 0 0-.8-6.37h5.34a15.78 15.78 0 0 1 1.8 6.37Z" fill="#424FDD"/><path d="M36.95 38H3.05C2.47 38 2 37.53 2 36.95V20c0-.58.47-1.05 1.05-1.05h33.9c.58 0 1.05.47 1.05 1.05v16.95c0 .58-.47 1.05-1.05 1.05Z" fill="#EBFAFF"/><path d="M36.95 18.95H20V38h16.95c.58 0 1.05-.47 1.05-1.05V20c0-.58-.47-1.05-1.05-1.05Z" fill="#C3E6FF"/><path d="M4.1 21.05h31.8V35.9H4.1V21.05Z" fill="#FFEA98"/><path d="M20 21.05h15.9V35.9H20V21.05Z" fill="#FFB454"/><path d="M12.28 25.26c0-.48-.4-.87-.88-.87-.5 0-.88.4-.88.9l.04 3.56-2.8-4.06a.88.88 0 0 0-1.61.5v6.31a.88.88 0 0 0 1.76 0v-3.5l2.67 3.87c.25.37.68.52 1.08.4a.99.99 0 0 0 .68-.98v-.01l-.06-6.12ZM17.12 26.15a.88.88 0 0 0 0-1.76h-2.67c-.49 0-.88.4-.88.88v6.33c0 .49.4.88.88.88h2.67a.88.88 0 0 0 0-1.76h-1.8v-1.4h1.6a.88.88 0 0 0 0-1.76h-1.6v-1.4h1.8ZM26.9 24.42a.88.88 0 0 0-1.03.7l-.66 3.34L24.15 25a.88.88 0 0 0-1.7.07l-1.05 3.38-.66-3.36a.88.88 0 0 0-1.72.34l1.23 6.24.03.12a1.02 1.02 0 0 0 1.94-.04l1.09-3.5 1.08 3.5v.04c.15.4.54.68.97.68a1.02 1.02 0 0 0 1-.8l1.24-6.22a.88.88 0 0 0-.7-1.04Z" fill="#5E54AC"/><path d="M26.9 24.42a.88.88 0 0 0-1.03.7l-.66 3.34L24.14 25a.88.88 0 0 0-1.7.07l-1.04 3.38-.66-3.36a.88.88 0 0 0-.74-.7v6.03l.25 1.25.03.12c.15.4.53.68.96.68h.01a1.02 1.02 0 0 0 .97-.72l1.08-3.5 1.08 3.5.02.04c.14.4.53.68.96.68a1.02 1.02 0 0 0 1-.8l1.23-6.22a.88.88 0 0 0-.69-1.04ZM32.04 27.66c-.76-.28-1.47-.58-1.7-.69a.35.35 0 0 1-.12-.32c.01-.1.08-.33.44-.44.85-.25 1.65.38 1.66.4v-.01a.88.88 0 0 0 1.44-.68.88.88 0 0 0-.34-.69c-.2-.16-1.6-1.2-3.27-.7-.9.27-1.55.99-1.67 1.87a2.1 2.1 0 0 0 1.06 2.14c.03.02.9.4 1.9.77.2.08.84.35.76.77-.05.31-.45.64-1.01.64-.6 0-1.19-.24-1.56-.65a.88.88 0 0 0-1.3 1.18c.7.78 1.75 1.23 2.86 1.23 1.37 0 2.53-.88 2.75-2.1.16-.91-.25-2.11-1.9-2.72Z" fill="#453D81"/></g><defs><clipPath id="a"><path fill="#fff" transform="translate(2 2)" d="M0 0h36v36H0z"/></clipPath></defs></svg>
