<svg width="40" height="40" fill="none" xmlns="http://www.w3.org/2000/svg"><g clip-path="url(#a)"><path d="M3.09 16.04H36.9v20.1H3.1v-20.1Z" fill="#ECF5FF"/><path d="M34.74 16.04h2.18v20.1h-2.18v-20.1Z" fill="#DCEAFC"/><path d="M20 9.69a.54.54 0 0 1-.55-.55V4.5a.54.54 0 1 1 1.09 0v4.65c0 .3-.24.55-.54.55Z" fill="#ECF5FF"/><path d="M24.18 5.26h-4.73V2.51c0-.28.23-.51.51-.51h4.22c.28 0 .5.23.5.5v2.25a.5.5 0 0 1-.5.51Z" fill="#DB8894"/><path d="M24.18 2h-2.17c.28 0 .5.23.5.5v2.25a.5.5 0 0 1-.5.51h2.17a.5.5 0 0 0 .5-.5V2.5a.5.5 0 0 0-.5-.51Z" fill="#D4717F"/><path d="M37.5 17.15h-35a.5.5 0 0 1-.5-.5V13.9c0-.28.23-.51.5-.51h7.35c.24 0 .48-.06.7-.18l9.2-5.12a.5.5 0 0 1 .5 0l9.2 5.12c.22.12.46.18.7.18h7.34c.28 0 .51.23.51.5v2.75a.5.5 0 0 1-.5.51Z" fill="#BDD8FC"/><path d="M37.5 13.39h-2.18c.28 0 .5.23.5.5v2.75a.5.5 0 0 1-.5.51h2.17a.5.5 0 0 0 .51-.5V13.9a.5.5 0 0 0-.5-.51Z" fill="#9DC7FB"/><path d="M20 15.1a1.93 1.93 0 1 0 0-3.87 1.93 1.93 0 0 0 0 3.86Z" fill="#4F6D8F"/><path d="M20 11.23c-.4 0-.78.12-1.09.33a1.93 1.93 0 0 1 0 3.2c.31.2.69.33 1.1.33a1.93 1.93 0 0 0 0-3.86Z" fill="#455E7E"/><path d="M7.43 17.15h3.72v18.67H7.43V17.15Z" fill="#BDD8FC"/><path d="M8.98 17.15h2.17v18.67H8.98V17.15Z" fill="#9DC7FB"/><path d="M12.24 17.15h-5.9v1.45c0 .4.33.72.73.72h4.44c.4 0 .73-.32.73-.72v-1.45Z" fill="#4F6D8F"/><path d="M10.07 17.15v1.45c0 .4-.33.72-.73.72h2.18c.4 0 .72-.32.72-.72v-1.45h-2.17Z" fill="#455E7E"/><path d="M11.51 33.65H7.07c-.4 0-.73.32-.73.72v1.45h5.9v-1.45c0-.4-.33-.72-.73-.72Z" fill="#4F6D8F"/><path d="M11.52 33.65H9.34c.4 0 .73.32.73.72v1.45h2.17v-1.45c0-.4-.32-.72-.72-.72Z" fill="#455E7E"/><path d="M28.84 17.15h3.73v18.67h-3.73V17.15Z" fill="#BDD8FC"/><path d="M30.4 17.15h2.16v18.67H30.4V17.15Z" fill="#9DC7FB"/><path d="M33.65 17.15h-5.9v1.45c0 .4.33.72.73.72h4.45c.4 0 .72-.32.72-.72v-1.45Z" fill="#4F6D8F"/><path d="M31.48 17.15v1.45c0 .4-.32.72-.72.72h2.17c.4 0 .73-.32.73-.72v-1.45h-2.18Z" fill="#455E7E"/><path d="M32.93 33.65h-4.45c-.4 0-.72.32-.72.72v1.45h5.9v-1.45c0-.4-.33-.72-.73-.72Z" fill="#4F6D8F"/><path d="M32.93 33.65h-2.17c.4 0 .72.32.72.72v1.45h2.18v-1.45c0-.4-.33-.72-.73-.72Z" fill="#455E7E"/><path d="M23.7 35.82h-7.4v-9.39c0-.4.33-.72.73-.72h5.94c.4 0 .73.32.73.72v9.4Z" fill="#CE9775"/><path d="M22.97 25.7H20.8c.4 0 .72.33.72.73v9.4h2.17v-9.4c0-.4-.32-.72-.72-.72Z" fill="#C6855B"/><path d="M24.69 22.6h-9.37a.5.5 0 0 1-.5-.51v-1.32c0-.28.22-.5.5-.5h9.37c.28 0 .5.22.5.5v1.32a.5.5 0 0 1-.5.5Z" fill="#DB8894"/><path d="M24.68 20.26h-2.17c.28 0 .5.23.5.51v1.32a.5.5 0 0 1-.5.5h2.17a.5.5 0 0 0 .5-.5v-1.32a.5.5 0 0 0-.5-.5Z" fill="#D4717F"/><path d="M2.72 35.82h34.56c.4 0 .72.33.72.73v.72c0 .4-.32.73-.72.73H2.72a.73.73 0 0 1-.72-.73v-.72c0-.4.32-.73.72-.73Z" fill="#BEE49D"/><path d="M37.27 35.82H35.1c.4 0 .73.33.73.73v.72c0 .4-.33.73-.73.73h2.17c.4 0 .73-.33.73-.73v-.72c0-.4-.33-.73-.73-.73Z" fill="#A3D8A4"/></g><defs><clipPath id="a"><path fill="#fff" transform="translate(2 2)" d="M0 0h36v36H0z"/></clipPath></defs></svg>
