<svg width="40" height="40" fill="none" xmlns="http://www.w3.org/2000/svg"><path d="M28.96 33.28a.56.56 0 0 0-.52-.34h-.57v-5.06a4.5 4.5 0 0 0-9 0V29a2.25 2.25 0 0 1-4.5 0v-5.63a4.5 4.5 0 0 0-4.5-4.5H8.75v2.25h1.13c1.24 0 2.24 1.01 2.24 2.25V29a4.5 4.5 0 0 0 9 0v-1.13a2.25 2.25 0 0 1 4.5 0v5.07h-.56a.56.56 0 0 0-.4.96l1.7 1.69a.56.56 0 0 0 .79 0l1.69-1.7c.16-.15.2-.4.12-.6Z" fill="#FAB400"/><path d="M12.05 19.44h-3.3v1.68h1.13c.56 0 1.08.22 1.48.57h2.69a4.53 4.53 0 0 0-2-2.25Z" fill="#DC9600"/><path d="m28.84 19.6-1.7-1.69a.56.56 0 0 0-.95.4v.57H5.37v2.25H26.2v.56a.56.56 0 0 0 .96.4l1.69-1.7a.56.56 0 0 0 0-.79Z" fill="#C80A50"/><path d="M9.83 18.88h-3.9v2.25a4.5 4.5 0 0 0 3.9-2.25Z" fill="#A00028"/><path d="M32.38 23.38a3.37 3.37 0 1 0 0-6.75 3.37 3.37 0 0 0 0 6.75Z" fill="#FAB400"/><path d="M31.81 21.69a.56.56 0 0 1-.4-.17L30.3 20.4a.56.56 0 1 1 .8-.8l.72.73 1.86-1.85a.56.56 0 1 1 .79.8l-2.25 2.24a.56.56 0 0 1-.4.17ZM24.34 6.1l-1.7-1.69a.56.56 0 0 0-.79 0l-1.69 1.7a.56.56 0 0 0 .4.95h.57v5.07a2.25 2.25 0 0 1-4.5 0V11a4.5 4.5 0 0 0-9 0v5.63c0 1.24-1.01 2.25-2.25 2.25v2.25a4.5 4.5 0 0 0 4.5-4.5V11a2.25 2.25 0 0 1 4.5 0v1.13a4.5 4.5 0 0 0 9 0V7.06h.56a.56.56 0 0 0 .4-.96Z" fill="#00A0C8"/><path d="M4.81 21.13h.57v-2.25H4.8a.56.56 0 0 0-.56.56v1.12c0 .31.25.57.56.57Z" fill="#00A0C8"/></svg>
