<svg width="40" height="40" fill="none" xmlns="http://www.w3.org/2000/svg"><path d="M16.6 34.22A14.6 14.6 0 1 0 16.6 5a14.6 14.6 0 0 0 0 29.22Z" fill="#FF5C5C"/><path d="M16.6 34.22A14.6 14.6 0 0 0 16.6 5v29.22Z" fill="#E20059"/><path d="M16.6 29.7a10.1 10.1 0 1 0 0-20.18 10.1 10.1 0 0 0 0 20.18Z" fill="#FAFAFA"/><path d="M16.6 29.7a10.1 10.1 0 0 0 0-20.18V29.7Z" fill="#F0EBEB"/><path d="M16.6 25.18a5.57 5.57 0 1 0 0-11.14 5.57 5.57 0 0 0 0 11.14Z" fill="#FF5C5C"/><path d="M16.6 25.18a5.57 5.57 0 0 0 0-11.14v11.14Z" fill="#E20059"/><path d="M32.41 20.67h-15.8a1.05 1.05 0 1 1 0-2.11h15.8a1.05 1.05 0 1 1 0 2.1Z" fill="#001B30"/><path d="M36.94 25.18h-6.77c-.28 0-.55-.1-.75-.3l-4.52-4.52a1.05 1.05 0 0 1 0-1.5l4.52-4.51c.2-.2.47-.31.75-.31h6.77a1.05 1.05 0 0 1 .75 1.8l-3.77 3.77 3.77 3.77a1.05 1.05 0 0 1-.75 1.8Z" fill="#FFEC29"/><path d="M29.42 24.87c.2.2.47.31.75.31h6.77a1.05 1.05 0 0 0 .75-1.8l-3.77-3.77h-9.33c0 .27.1.54.31.74l4.52 4.52Z" fill="#FFCB00"/></svg>
