<svg width="40" height="40" fill="none" xmlns="http://www.w3.org/2000/svg"><path d="M38.084 9.146v2.706H1.919V9.146c0-.903.544-1.717 1.379-2.063L19.327.44a1.762 1.762 0 0 1 1.348 0l16.03 6.642a2.233 2.233 0 0 1 1.38 2.063Z" fill="#E1F0FF"/><path d="M38.083 9.146v2.706H34.06V9.146c0-.903-.544-1.717-1.378-2.063L17.988.995l1.338-.554a1.763 1.763 0 0 1 1.348 0l16.03 6.642a2.233 2.233 0 0 1 1.38 2.063ZM7.999 11.852H5.598V9.634c0-.555.462-1.001 1.015-1.001H9l-1.001 3.219Z" fill="#CAE4F9"/><path d="M26.45 15.553h8.994v20.06H26.45v-20.06ZM15.504 15.553h8.995v20.06h-8.995v-20.06ZM4.75 15.553h8.995v20.06H4.75v-20.06Z" fill="#D9B1EE"/><path d="M11.137 15.553h2.61v20.06h-2.61v-20.06ZM21.965 15.553h2.533v20.06h-2.533v-20.06Z" fill="#CB97E7"/><path d="m23.568 34.628-3.57.985-3.574-.985-.506-3.943.506-3.44c0-.484.216-.941.588-1.25l2.18-1.79s1.002-.204 1.543.244l1.939 2.11 1.823 4.786-.929 3.283Z" fill="#9C9C9C"/><path d="m23.571 27.244.928 4.101-.928 3.283-1.034.285-.575-.285v-7.384c0-.483-.216-.94-.588-1.248l-2.05-1.697a1.222 1.222 0 0 0-.129-.095 1.464 1.464 0 0 1 1.74.095l2.049 1.697c.371.308.587.765.587 1.248Z" fill="#838383"/><path d="m15.298 34.997-.711.234-1.84-.604v-17.66l1.84-.762.787.326-.076 18.466Z" fill="#E1F0FF"/><path d="M16.426 16.967v17.66l-1.128.37-.482-.37v-17.66l.557-.436 1.053.436Z" fill="#CAE4F9"/><path d="M19.998 35.231a.604.604 0 0 1-.604-.603v-7.142a.604.604 0 0 1 1.208 0v7.142c0 .333-.27.603-.604.603Z" fill="#838383"/><path d="m26.127 34.997-.712.234-1.84-.604v-17.66l1.84-.762.787.326-.075 18.466Z" fill="#E1F0FF"/><path d="M27.254 16.967v17.66l-1.128.37-.482-.37v-17.66l.558-.436 1.052.436Z" fill="#CAE4F9"/><path d="M32.793 15.553h2.651v20.06h-2.651v-20.06Z" fill="#CB97E7"/><path d="M38.083 16.967v17.66l-1.128.37-.712.234-1.84-.604v-17.66l1.84-.762.788.326 1.052.436Z" fill="#E1F0FF"/><path d="M38.082 16.967v17.66l-1.128.37-.481-.37v-17.66l.557-.436 1.052.436Z" fill="#CAE4F9"/><path d="m4.47 34.997-.711.234-1.841-.604v-17.66l1.84-.762.788.326-.076 18.466Z" fill="#E1F0FF"/><path d="M5.598 16.967v17.66l-1.128.37-.482-.37v-17.66l.557-.436 1.053.436Z" fill="#CAE4F9"/><path d="m36.475 13.44 1.003 1.764-1.003 1.764h-6.698l-13.68-.625-10.499.625h-3.68V13.44h34.557Z" fill="#9C9C9C"/><path d="M36.473 13.44h1.61v3.528h-1.61V13.44ZM5.598 13.44h24.178v3.528H5.598V13.44Z" fill="#838383"/><path d="M40 11.783v1.674a.532.532 0 0 1-.531.531H.53a.532.532 0 0 1-.531-.53v-1.675c0-.294.238-.531.531-.531H39.47c.293 0 .531.237.531.531Z" fill="#4F66D0"/><path d="M40 11.783v1.674a.532.532 0 0 1-.53.531h-4.025a.532.532 0 0 0 .532-.53v-1.675a.531.531 0 0 0-.532-.531h4.024c.293 0 .532.237.532.531ZM5.598 11.252h24.178v2.736H5.598v-2.736Z" fill="#314DC9"/><path d="M31 19.342H8.996a1 1 0 0 1-1-1.001V9.634a1 1 0 0 1 1-1.001h22.002a1 1 0 0 1 1 1v8.708a1 1 0 0 1-1 1Z" fill="#4F66D0"/><path d="M32 9.633v8.708c0 .552-.447 1-1 1h-2.414c.552 0 1-.448 1-1V9.633a1 1 0 0 0-1-1H31a1 1 0 0 1 1 1Z" fill="#314DC9"/><path d="M28.773 19.342H8.997a1 1 0 0 1-1-1.001V9.634a1 1 0 0 1 1-1.001h19.776c.553 0 2.08.448 2.08 1v8.708c0 .552-1.527 1-2.08 1Z" fill="#4F66D0"/><path d="M31 8.633h-2.227a1 1 0 0 1 1.001 1v8.708a1 1 0 0 1-1 1H31a1 1 0 0 0 1-1V9.634a1 1 0 0 0-1-1.001Z" fill="#314DC9"/><path d="M16.02 13.383h-1.638a.604.604 0 1 0 0 1.208h.975c-.16.796-.663 1.529-1.7 1.529a2.136 2.136 0 0 1-2.133-2.133 2.136 2.136 0 0 1 3.325-1.77.604.604 0 0 0 .676-1 3.344 3.344 0 0 0-5.208 2.77 3.344 3.344 0 0 0 3.34 3.34c1.746 0 2.966-1.373 2.966-3.34a.604.604 0 0 0-.604-.604ZM29.268 10.688a.604.604 0 0 0-.763.382l-1.341 4.038-1.408-4.056a.603.603 0 1 0-1.14.396l1.872 5.396c.103.29.378.483.686.483h.005c.309-.002.584-.2.684-.497l1.788-5.38a.604.604 0 0 0-.383-.762ZM20.833 10.646a3.344 3.344 0 0 0-3.34 3.34 3.344 3.344 0 0 0 3.34 3.341 3.344 3.344 0 0 0 3.34-3.34 3.344 3.344 0 0 0-3.34-3.34Zm0 5.474a2.135 2.135 0 0 1-2.133-2.133c0-1.176.956-2.133 2.133-2.133 1.176 0 2.133.957 2.133 2.133a2.136 2.136 0 0 1-2.133 2.133Z" fill="#E1F0FF"/><path d="M19.026 6.404a.602.602 0 0 1-.427-1.031l1.948-1.948a.604.604 0 0 1 .854.854l-1.949 1.948a.602.602 0 0 1-.427.177Z" fill="#CAE4F9"/><path d="M30.854 23.938a.604.604 0 0 1-.604-.603v-1.481a.604.604 0 1 1 1.207 0v1.48c0 .334-.27.604-.603.604ZM30.854 28.09a.604.604 0 0 1-.604-.603v-1.481a.604.604 0 1 1 1.207 0v1.481c0 .333-.27.604-.603.604ZM30.854 32.241a.604.604 0 0 1-.604-.604v-1.48a.604.604 0 1 1 1.207 0v1.48c0 .334-.27.604-.603.604ZM9.248 23.938a.604.604 0 0 1-.603-.603v-1.481a.604.604 0 1 1 1.207 0v1.48c0 .334-.27.604-.604.604ZM9.248 28.09a.604.604 0 0 1-.603-.603v-1.481a.604.604 0 1 1 1.207 0v1.481c0 .333-.27.604-.604.604ZM9.248 32.241a.604.604 0 0 1-.603-.604v-1.48a.604.604 0 1 1 1.207 0v1.48c0 .334-.27.604-.604.604Z" fill="#CB97E7"/><path d="M1.918 34.627h36.166v2.302l-18.397 1.375-17.769-1.375v-2.302Z" fill="#4F66D0"/><path d="M38.083 34.627v2.302l-3.68.3v-2.602h3.68Z" fill="#314DC9"/><path d="M.532 36.93h38.936c.294 0 .532.238.532.531V38.7a.532.532 0 0 1-.532.531H.532A.532.532 0 0 1 0 38.7V37.46c0-.293.238-.531.532-.531Z" fill="#E1F0FF"/><path d="M40 37.462v1.237a.532.532 0 0 1-.53.532h-4.025a.532.532 0 0 0 .532-.532v-1.237a.532.532 0 0 0-.532-.532h4.024c.293 0 .532.238.532.532Z" fill="#CAE4F9"/></svg>
